<?xml version="1.0" standalone="no"?>
<!DOCTYPE svg PUBLIC "-//W3C//DTD SVG 1.1//EN" "http://www.w3.org/Graphics/SVG/1.1/DTD/svg11.dtd" >
<svg xmlns="http://www.w3.org/2000/svg">
<metadata>Generated by IcoMoon</metadata>
<defs>
<font id="icomoon" horiz-adv-x="512">
<font-face units-per-em="512" ascent="480" descent="-32" />
<missing-glyph horiz-adv-x="512" />
<glyph unicode="&#x20;" d="" horiz-adv-x="256" />
<glyph unicode="&#xe600;" d="M200 167c0 0-144 0-144 0-31 0-56-24-56-55s25-56 56-56c0 0 144 0 144 0 31 0 56 25 56 56s-25 55-56 55zM200 65c0 0-144 0-144 0-26 0-47 21-47 47 0 25 21 46 47 46 0 0 144 0 144 0 26 0 47-21 47-46 0-26-21-47-47-47zM190 130c-10 0-19-8-19-18 0-11 9-19 19-19 11 0 19 8 19 19 0 10-8 18-19 18zM128 130c-11 0-19-8-19-18 0-11 8-19 19-19s19 8 19 19c0 10-8 18-19 18zM66 130c-11 0-19-8-19-18 0-11 8-19 19-19 10 0 19 8 19 19 0 10-9 18-19 18z" />
<glyph unicode="&#xe601;" d="M225 166c0 0-194 0-194 0-17 0-31-14-31-31 0 0 0-47 0-47 0-17 14-31 31-31 0 0 194 0 194 0 17 0 31 14 31 31 0 0 0 47 0 47 0 17-14 31-31 31zM250 91c0-15-13-28-28-28 0 0-188 0-188 0-15 0-28 13-28 28 0 0 0 41 0 41 0 16 13 28 28 28 0 0 188 0 188 0 15 0 28-12 28-28 0 0 0-41 0-41zM192 131c-11 0-20-9-20-19 0-11 9-20 20-20s20 9 20 20c0 10-9 19-20 19zM128 131c-11 0-20-9-20-19 0-11 9-20 20-20s20 9 20 20c0 10-9 19-20 19zM64 131c-11 0-20-9-20-19 0-11 9-20 20-20s20 9 20 20c0 10-9 19-20 19z" />
<glyph unicode="&#xe602;" d="M158 240h98l-256-256v98l158 158z" />
<glyph unicode="&#xe603;" d="M242 4c-2-3-4-5-8-5-23 0-42 6-65 19-10-2-32-4-41-4-71 0-128 47-128 106 0 58 57 105 128 105s128-47 128-105c0-28-13-54-36-74 5-12 12-23 21-34 2-2 2-5 1-8zM240 120c0 49-50 89-112 89s-112-40-112-89c0-50 50-90 112-90 9 0 33 3 41 4 2 1 5 0 6-1 15-9 28-14 42-17-6 10-11 19-15 30-1 3 0 7 3 9 23 17 35 40 35 65z" />
<glyph unicode="&#xe604;" d="M128 240c-56 0-101-45-101-102 0-41 24-76 59-92 0-1 0-3 0-4 0 0 2-15 17-13 0 0 61 9 61 9 7 1 12 6 13 12 31 17 52 50 52 88 0 57-45 102-101 102zM189 146c-2-10-25-86-61-86 0 0 0 0 0 0s0 0 0 0c-35 0-59 76-61 86-1 6-2 12 3 16 6 3 14 2 16-4 1-2 3-7 5-14 1 0 3 1 4 1-2 1-4 5-5 8 0 5 3 9 9 9 0 0 0 0 0 0s0 0 0 0c3 0 8-1 8-9 0-3-1-6-4-8 2-1 4-1 6-1 1 0 4 0 6 1-3 1-5 5-5 8 0 5 3 9 8 9 0 0 0 0 0 0s1 0 1 0c2 0 8-1 8-9 0-3-2-6-5-8 2-1 5-1 6-1 2 0 4 0 6 1-2 1-4 5-5 8 0 5 3 9 9 9 0 0 0 0 0 0s0 0 0 0c3 0 8-1 8-9 0-3-1-6-4-8 2-1 4-1 6-1 1 0 4 0 6 1-3 1-5 5-5 8 0 5 3 9 8 9 0 0 0 0 0 0s1 0 1 0c2 0 8-1 8-9 0-3-2-6-5-8 1 0 3-1 4-1 3 7 4 12 5 14 2 6 11 7 16 4 5-4 4-10 3-16zM148 140c-4 0-7 1-10 3-3-2-6-3-10-3s-7 1-10 3c-2-2-6-3-9-3-4 0-7 1-10 3-2-1-4-2-7-3 8-21 22-52 36-52 0 0 0 0 1 0 13 0 27 31 35 52-3 1-5 2-7 3-2-2-6-3-9-3zM98 148c0 0 1 0 1 0s1 0 1 0c1 1 3 2 3 5s-1 5-4 5c-3 0-5-2-5-5s3-4 4-5zM118 148c0 0 0 0 0 0s1 0 1 0c1 1 4 2 4 5s-2 5-5 5c-2 0-4-2-4-5s2-4 4-5zM137 148c0 0 1 0 1 0s1 0 1 0c1 1 3 2 3 5s-1 5-4 5c-3 0-5-2-5-5s3-4 4-5zM157 148c0 0 0 0 0 0s1 0 1 0c1 1 4 2 4 5s-2 5-5 5c-2 0-4-2-4-5s2-4 4-5zM128 28c-15-2-26-6-26-10 1-3 13-4 28-2 14 2 26 7 25 10 0 3-12 4-27 2zM129 12c-10-1-18-5-18-8 1-4 9-5 20-4 10 2 18 6 17 9 0 3-9 5-19 3zM130-4c-7-1-12-4-11-7 0-4 6-6 13-5 6 1 11 5 10 8 0 3-6 5-12 4z" />
<glyph unicode="&#xe605;" d="M256 12c0 0-28 143-153 143 0 0 0 56 0 56l-103-94 103-98c0 0 0 64 0 64 67 0 118-6 153-71z" />
<glyph unicode="&#xe606;" d="M240 170c0 0-224 0-224 0-9 0-16-8-16-16 0 0 0-96 0-96 0-9 7-16 16-16 0 0 35 0 35 0s0-39 0-39c0-9 4-13 13-13 0 0 128 0 128 0 9 0 13 4 13 13 0 0 0 39 0 39s35 0 35 0c9 0 16 7 16 16 0 0 0 96 0 96 0 8-7 16-16 16zM192 3h-128v83h128v-83zM224 122c-9 0-16 7-16 16 0 8 7 16 16 16s16-8 16-16c0-9-7-16-16-16zM160 42h-77v-13h77v13zM173 67h-90v-13h90v13zM64 221h128v-39h13c0 0 0 32 0 32 0 9-4 19-13 19 0 0-128 0-128 0-9 0-13-10-13-19 0 0 0-32 0-32h13v39z" />
<glyph unicode="&#xe607;" d="M111 89c-5 2-12 7-16 11 0 0-85 78-85 78-10 9-8 17-4 20 3 4 6 6 13 6 0 0 218 0 218 0s8 2 13-6c2-4 4-13-4-20 0 0-93-85-93-85s-18-14-42-4zM19 19c0 0-19 4-19 19 0 0 0 122 0 122 0 5 6 4 9 1 0 0 37-37 37-37 4-3 5-10 3-15 0 0-26-62-26-62-2-5-1-6 2-2 0 0 37 47 37 47 3 5 9 5 13 2 0 0 17-13 17-13 4-3 11-8 16-10 12-4 34-8 47 3 0 0 24 20 24 20 4 4 10 3 13-1 0 0 39-52 39-52 3-4 4-4 2 1 0 0-27 66-27 66-2 5 0 12 4 16 0 0 37 37 37 37 3 3 9 4 9-1 0 0 0-122 0-122s-2-19-19-19c0 0-218 0-218 0v0z" />
<glyph unicode="&#xe608;" d="M142 226c-4 8-13 14-21 14 0 0-83 0-83 0s0 0 0 0c7-1 18-8 21-14 0 0-35 0-35 0v-242h208v242c0 0-90 0-90 0zM218-2h-180v214h21v-145l41 46 42-46v145h76v-214z" />
<glyph unicode="&#xe609;" d="M211 220c0 0-166 0-166 0-25 0-45-20-45-44 0 0 0-128 0-128 0-25 20-45 45-45 0 0 166 0 166 0 25 0 45 20 45 45 0 0 0 128 0 128 0 24-20 44-45 44zM250 48c0-21-18-39-39-39 0 0-166 0-166 0-21 0-39 18-39 39 0 0 0 128 0 128 0 21 18 38 39 38 0 0 166 0 166 0 21 0 39-17 39-38 0 0 0-128 0-128zM180 139c14 0 25 11 25 25 0 13-11 25-25 25s-25-12-25-25c0-2 0-3 0-4 0 0-67-34-67-34-5 5-11 8-18 8-14 0-25-12-25-25 0-14 11-25 25-25 7 0 13 2 18 7 0 0 67-33 67-33 0-2 0-3 0-4 0-14 11-25 25-25s25 11 25 25c0 13-11 25-25 25-7 0-14-3-18-8 0 0-68 34-68 34 1 1 1 2 1 4 0 1 0 2-1 4 0 0 68 33 68 33 4-5 11-7 18-7z" />
<glyph unicode="&#xe60a;" d="M213 240c0 0-170 0-170 0-24 0-43-19-43-43 0 0 0-170 0-170 0-24 19-43 43-43 0 0 170 0 170 0 24 0 43 19 43 43 0 0 0 170 0 170 0 24-19 43-43 43zM70 32c-12 0-22 10-22 22s10 22 22 22c12 0 22-10 22-22s-10-22-22-22zM124 32c0 20-8 40-22 54-14 15-34 23-54 23 0 0 0 31 0 31 59 0 108-49 108-108 0 0-32 0-32 0s0 0 0 0zM180 32c0 73-59 132-132 132 0 0 0 31 0 31 90 0 163-73 163-163 0 0-31 0-31 0s0 0 0 0z" />
<glyph unicode="&#xe60b;" d="M158 237l-2 1-59-122h2l-2-1 46-129 2 1-45 129 58 121z" />
<glyph unicode="&#xe60c;" d="M158 116h1l-60 124-2-1 59-123-46-131 2-1 47 131-1 1z" />
<glyph unicode="&#xe60d;" d="M200 240c0 0-144 0-144 0-31 0-56-25-56-56 0 0 0-144 0-144 0-31 25-56 56-56 0 0 144 0 144 0 31 0 56 25 56 56 0 0 0 144 0 144 0 31-25 56-56 56zM240 40c0-22-18-40-40-40 0 0-144 0-144 0-22 0-40 18-40 40 0 0 0 144 0 144 0 22 18 40 40 40 0 0 144 0 144 0 22 0 40-18 40-40 0 0 0-144 0-144zM215 159c1-1 1 1 0 0zM201 175c1 1-1 1 0 0zM111 64l-49 56c0 0-13-14-13-14-1-1-1-3 0-4 0 0 61-69 61-69 1 0 1-1 1-1s0 0 0 0 104 127 104 127l-14 16-90-111zM62 120c1 1-1 1 0 0zM111 32c0 0 0 0 0 0z" />
<glyph unicode="&#xe60e;" d="M56 240c0 0 144 0 144 0 31 0 56-25 56-56 0 0 0-144 0-144 0-31-25-56-56-56 0 0-144 0-144 0-31 0-56 25-56 56 0 0 0 144 0 144 0 31 25 56 56 56zM56 224c0 0 144 0 144 0 22 0 40-18 40-40 0 0 0-144 0-144 0-22-18-40-40-40 0 0-144 0-144 0-22 0-40 18-40 40 0 0 0 144 0 144 0 22 18 40 40 40z" />
<glyph unicode="&#xe611;" d="M128 240c-71 0-128-57-128-128s57-128 128-128c71 0 128 57 128 128s-57 128-128 128zM128-6c-65 0-118 53-118 118s53 118 118 118c65 0 118-53 118-118s-53-118-118-118zM136 112l57 57-2 2 2 3-2 2 2 3-3 3-62-62-63 64-4-4 3-2-3-3 3-2-3-2 59-59-62-62 2-2-2-3 2-2-2-2 3-4 67 67 64-64 3 4-2 2 2 2-2 3 2 2-59 59z" />
<glyph unicode="&#xe612;" d="M240 186c-1-1-2-1-3-1-8-2-8 0-3 6 2 2 4 5 6 7 4 7 1 9-6 6-3-1-5-2-8-2-7-3-17 1-23 5-8 5-18 8-28 8-14 0-26-6-37-16-10-10-15-22-15-36 0-2 0-4 1-6 0-3-6-6-13-5-16 2-32 7-46 15-15 7-28 17-39 28-5 5-12 5-14-2-1-5-2-9-2-14 0-9 2-17 7-25 2-3 4-7 7-10 5-5 4-8-3-6-6 2-11 4-11 4s0 0 0 0c0-13 4-24 12-33 5-6 10-10 17-14 6-3 10-5 6-5-2-1-5-1-7-1s-3 0-5 0c-3 1-3-5 1-11 3-5 7-10 12-13 6-4 11-7 17-9 7-2 9-6 2-10-16-9-33-14-53-14-2 0-4 0-6 0-4 0-1-3 5-6 21-11 44-17 68-17 19 0 36 3 52 9 17 6 30 14 42 24 11 9 21 21 30 33 8 13 14 26 18 40s6 28 6 42c0 1 0 2 0 3 0 2 5 7 11 12 2 2 5 5 7 7 5 6 3 9-5 7z" />
<glyph unicode="&#xe613;" d="M212 134v32h-15v-32h-32v-16h32v-32h15v32h32v16h-32zM132 97c0 0-11 9-11 9-3 2-8 6-8 13s5 12 9 16c13 10 26 22 26 45 0 24-15 37-22 43 0 0 19 0 19 0l21 13c0 0-62 0-62 0-17 0-42-4-60-19-14-12-20-28-20-43 0-24 19-50 52-50 3 0 7 1 10 1-1-4-3-7-3-12 0-10 5-16 10-22-15-1-41-3-61-15-18-11-24-27-24-38 0-24 22-46 68-46 54 0 83 30 83 60 0 22-13 33-27 45zM91 133c-27 0-39 36-39 57 0 8 1 17 7 23 5 7 13 11 22 11 26 0 39-36 39-59 0-5 0-15-7-23-6-5-14-9-22-9zM91 5c-33 0-55 17-55 39 0 23 20 30 27 33 13 4 30 5 33 5s5 0 7 0c24-17 35-26 35-42 0-20-16-35-47-35z" />
<glyph unicode="&#xe614;" d="M0 199v-169h251v169h-251zM126 94l-103 92h206l-103-92zM85 114l-73-64v129l73-65zM94 106l32-28 31 28 72-64h-206l71 64zM167 114l72 65v-129l-72 64z" />
<glyph unicode="&#xe615;" d="M237 225c0 0-218 0-218 0-11 0-19-8-19-19 0 0 0-152 0-152 0-10 8-18 19-18 0 0 118 0 118 0s44-33 44-33c4-3 7-4 11-4 7 0 14 5 14 17 0 0 0 20 0 20s31 0 31 0c11 0 19 8 19 18 0 0 0 152 0 152 0 11-8 19-19 19zM239 54c0 0-1-1-2-1 0 0-48 0-48 0v-34l-46 34c0 0-124 0-124 0-1 0-2 1-2 1s0 152 0 152c0 1 1 2 2 2 0 0 0 0 0 0s218 0 218 0c1 0 2-1 2-2 0 0 0-152 0-152s0 0 0 0zM48 146h38v-38h-38v38zM109 146h38v-38h-38v38zM170 146h38v-38h-38v38z" />
<glyph unicode="&#xe616;" d="M226 240c0 0-196 0-196 0-10 0-18-8-18-17 0 0 0-222 0-222 0-9 8-17 18-17 0 0 196 0 196 0 9 0 17 8 17 17 0 0 0 222 0 222 0 9-8 17-17 17zM130-5c-6 0-11 4-11 10s5 11 11 11c6 0 10-5 10-11s-4-10-10-10zM222 31c0 0-5 0-5 0 0-3-1-4-4-4 0 0-175 0-175 0-2 0-4 1-4 4 0 0 0 179 0 179 0 3 2 4 4 4 0 0 179 0 179 0 3 0 5-1 5-4 0 0 0-179 0-179zM190 135c0 0-56 48-56 48-2 2-6 2-9 0 0 0-59-51-59-51-3-2-3-6-1-8 0 0 2-2 2-2 2-2 6-2 8 0 0 0 6 3 6 3s0-56 0-56c0-3 1-4 4-4 0 0 21 0 21 0 4 0 5 1 5 4 0 0 0 43 0 43h38c0 0 0-43 0-43 0-3 1-4 4-4 0 0 22 0 22 0 3 0 4 1 4 4 0 0 0 56 0 56s2-1 3-3c1-1 4 0 7 3 0 0 1 1 1 1 2 3 2 7 0 9z" />
<glyph unicode="&#xe617;" d="M210 72c-7 11-10 22-10 35 0 11 3 22 10 32 3 5 9 11 17 18-5 6-10 11-16 15-9 7-20 10-32 10-8 0-17-2-27-5-10-4-17-5-22-5-3 0-10 1-21 4s-20 5-27 5c-18 0-32-7-44-22-11-15-17-34-17-58 0-25 8-50 23-77s30-40 46-40c5 0 12 2 20 5 8 4 15 5 22 5 6 0 14-1 23-5 9-3 16-5 21-5 13 0 26 11 40 31 8 12 15 25 18 38-9 3-17 9-24 19zM158 191c7 7 11 14 14 22 3 7 5 14 5 21 0 0 0 0 0 1s0 1 0 2c0 0-1 0-1 1s0 2 0 2c-18-4-31-12-38-23-8-11-12-24-12-39 7 0 12 1 16 2 5 2 11 6 16 11z" />
<glyph unicode="&#xe618;" d="M185 84c-4-18-11-40-22-64 12-5 21-15 26-24 2-3 6-5 9-5 4 0 7 3 9 6 18 49-8 76-22 87zM98-16h60v18h-60v-18zM49-3c1-3 4-6 8-6s7 1 9 5c6 9 14 19 27 24-11 25-18 46-22 64-15-11-41-38-22-87zM107 13c0 0 20 0 20 0h1c0 0 21 0 21 0 34 69 31 118 31 118 1 54-29 91-44 106-3 2-6 3-9 3s-6-1-9-4c-14-15-43-51-43-105 0 0-2-49 32-118zM123 221c6 0 11-5 11-11s-5-11-11-11c-6 0-11 5-11 11s5 11 11 11zM97 185c3 5 9 6 14 3 5-2 6-8 3-13 0-1-9-16-6-40 1-5-2-10-8-11 0 0-1 0-1 0-5 0-9 4-10 8-5 32 8 52 8 53z" />
<glyph unicode="&#xe619;" d="M239 176c-12 20-27 35-47 47-19 11-41 17-64 17s-45-6-64-17c-20-12-35-27-47-47-11-19-17-41-17-64s6-45 17-64c12-20 27-35 47-47 19-11 41-17 64-17s45 6 64 17c20 12 35 27 47 47 11 19 17 41 17 64s-6 45-17 64zM144 45c-1 1-1 2-1 3 0-1-1-1-1-2-1 1-2 2-3 3-2 1-3 2-3 2-1 1-1 1-1 2-1 1-1 1-2 2 0 1-1 2-1 3s0 1 0 1c-2-1-5 0-9 2-1 0-2 2-4 3-1 2-3 3-5 3 0 0-1 0-2-1-1 0-2 0-2 0-1 0-2 0-3 1-1 0-2 1-4 2-1 1-2 1-3 1-1 1-2 1-2 1s-2 2-2 2c-1 0-2 1-3 1 0 1-1 2-1 3 0 0 0 2-1 4 0 2-1 3-1 4-1 1-2 2-3 3s-2 2-3 2c1 0 1 1 0 2-1 2-2 3-3 3 0 1-1 1-2 3-1 1-2 2-2 3-1 1-2 2-2 3-1 1-1 2-1 3 0 0 0 0 0 0 0 1-1 1-1 1-1 0-1 0-2 1 0 0-1 0-1 0 0-1 1-1 1-3 0-1 1-2 1-2 0-1 1-2 3-5 3-5 4-8 4-10-1-1-1 0-2 0 0 0 0 1 0 2s0 1 0 1c-1 1-2 2-3 3-1 0-2 1-3 2 0 0 1 0 1 0s0 0 0 0c0 1 0 3-2 4-1 2-1 3-1 3-1 1-2 2-2 4-1 2-2 4-2 4-1 1-1 1-2 2 0 0-1 1-2 2-1 0-2 1-2 1-1 0-1 0-2 1-3 5-4 7-3 7-1 0-3 1-4 4-1 2-1 4 0 5 0 0-1 1-1 1s0 1 0 4c0 2 0 4 1 5 0 2 1 3 1 3s-1 1-1 2-1 3 0 3c0 1 0 0 1 0 1-1 1-2 2-2 1 1 2 2 1 3 0 1-1 2-3 4-5 3-8 4-8 4 1 1 1 2 0 3-1 0-2-1-2 0 0 0 0 1 0 2-1 1-1 1-1 1-1 0-2 1-2 1 10 16 23 29 39 37 1 1 2 1 4 1 0 0 1-1 2-1 1-1 2-1 2-2 1-1 2-1 2-2 1 1 0 2 0 3s1 2 3 2 4 1 5 0c0 1-2 3-3 4 0 0-1 0-1 0-1 0-3 0-7-2 0 0-1 0-2-1-1 0-1 0-2-1 0 0-1 0-2 0 6 3 11 5 16 7 0 0 1-1 2-1 0-1 1-2 1-2s0 0 0 0c-1-2-1-3 0-4 0 0 1-1 2-1s2 0 3 0 3 1 3 1c0 0 2-1 2-1 3 0 5 0 4 1 0 0 1-1 1-2 0-2 1-3 2-3 0 0 0 1 0 2s0 2 0 2 0 1 1 1c0 0 1 0 2 1 0 0 1 0 1 0 1 1 0 2-1 3 0 0-1 0-2 0 0 0-1 1-1 1-1 0-2 0-2 1-1 0-1 1-1 1 0 1 0 1 1 2s2 1 3 1 3-1 4-1c3-2 3-3 1-5 1 0 2 0 4-1 1-1 2-2 2-2 1 1 1 2 2 2s1-1 2-2c0-2 1-2 1-2 1-2 2-2 3-1 0 0 1 1 2 3 1 1 2 1 2 1-1 1-1 1 0 2s3 1 4 0c0 0 1 0 1-1 1-2 1-3 0-3 1-1 1-2 1-3s-1-2-2-2c-1 0-2 0-3 1-1 0-2 1-2 1-1 0-2 0-3-1 0-1-1-2-1-3-1-1-2-2-2-3-2-1-5-2-9-2 1 0 1 0 0-1 0 0-1-1-1-2-1-1-1-1-1-1-1-1-2-3-2-4 0 0-1-1-1-2 0-2 0-3 0-3 1 0 2-1 3-2 1-2 1-3 0-3 4 1 7 0 10-1 4-1 6-2 6-4 1 1 3 1 5 0 1 0 2-2 3-5 0-1 1-3 2-4s2-2 4-1c0 0 0 0 0 0 0 1 1 1 1 1s1 0 1 1c0 0 1 0 1 0 0 1 0 1-1 1 0 1-1 2-1 3-1 1-1 2 0 3 0 0 1 1 3 2 1 1 2 2 2 2 1 2 0 3-1 4-2 1-3 2-3 3 0 0 1 1 1 2 1 0 1 1 1 2 0 0 0 1 0 2-1 1-1 2-1 2 0 1 0 1 1 2 0 0 2 0 5 0 3-1 5-1 6-2 0 0 1 0 2-1 1 0 2-1 3-1 1-1 1-1 1-1s0 0 0 0c0-1 1-2 1-3s0-1-1-2c0 0 1 0 2 0 2-1 2-2 1-2 0 0 0 0 1 0s1 0 1 1c1 0 1 0 1 0 1 1 1 1 1 1s0 0 1 0c0 0 0 0 1 0 0 0 0 0 0 1 1 0 1 1 2 1 0 1 1 1 1 1s0 0 1 0c0-1 0-1 0-1 1-1 1-1 1-1 0-1 0-1 0-1 1-1 1-1 2-2s1-1 1-2c1 0 1-1 1-2 0-2 1-3 1-3 1-1 2-1 3-1 0 0 1 0 1 0 1 0 2 0 2 0 1 0 1-1 1-1 1 0 1 1 1 1 0-1 1-3 1-3 1-1 2-2 3-2 0 0 0-3 0-3-1-1-1-1-3-2-1 0-2 0-2 0-1 0-1-1-3-2-1-2-1-2-1-2-2 2-5 2-9 1-4 0-7-1-8-2-2-1-3-1-4-2 0 0 0-1-1-1 0-1 0-2 0-2-1-1-1-1-1-1s1 1 2 2c1 1 1 1 2 1 3 2 5 3 7 2s3-1 1-3c0 0-1 0-2 0s-1 0-2 0c1 0 2 0 3-1 1 0 1-1 0-1 2-1 2-2 1-4-1-1-3-2-5-2 1 0 1 0 0 0 0 0-3-2-3-2s-1 0-2-1c-1 0-2-1-2-1-1-1-1-1-1-2s0-2 0-2-1-1-1-1-2-1-3-1-3-1-4-2c1-1 1-2 0-3s-2-1-3 1c-1-1-1-1-2-2 0-1 0-2-1-2 1-1 1-2 0-3 0 0 0 0 0 0 1 0 1 0 2-1 0 0 0 0 1 0-1-1-2-2-2-2 0-1 0-3-3-6 0 0-1 0-2-1-1 0-2-1-3-1 0 0-1 0-1-1-1-1-2-2-2-3-1-1-1-2-1-3 1-1 2-1 4-2 0 0 0-1 0-1v-3c0 0 0-1 0-1 0-1 0-2 0-2 0-1 0-2 0-3s0-1-1-1c0 0-1 0-1 0-1 0-2 3-4 7 0 1-1 3-2 4 0 0-1-1-1-1s-1 0-1 0c0 0 0 1-1 1 0 0-1 1-1 1-1 0-2 0-3 1-1 0-2 0-2 0-3-2-5-1-5 2-1-1-1-1 0-2 0-1 0-2 0-2-1-1-2-1-3 0-1 0-3 1-5 0-2 0-4-1-5 0 0 0 0 0 1-1 0 0 0 0 0 0 0-1 0-1 0-1s0 0-1 0c0 0 0 0 0 0-1 0-1-1-1-1-1 0-1-1-2-1-1-1-1-2-1-2 0-2 1-3 1-4s-1-2-1-4c0-2 0-4 0-5s0-4 1-6c1-2 3-4 4-5 1 0 2 0 4-1 2 0 3 0 4 1 1 0 1 1 1 1 1 0 1 1 1 2 1 1 1 1 1 2 1 2 2 3 4 3 1 0 2 0 3 0 1-1 1-1 1-2s-1-1-1-2c0-1-1-2-1-3-1 0-1-1-1-2 0 0 0-2-1-3 0-2 0-3 0-3s1 0 2 0c0 0 1 0 1 1 0 0 0 1 0 1 1-1 1-2 3-2 1 0 2 0 2 1 1 0 1-1 2-2s2-2 2-3c0-1 1-2 1-3s0-1 0-2c0 0 0 0-1 0s-1 0-1-1c0 0 0 0 0-1 0 0 0-1 0-1 0-1 0-1 1-2 0 0 0-1 0-1 2-3 5-4 8-3 0-3 0-5-2-5-1 0-2 0-3 2zM147 7c-1 1-1 2-1 3s0 2 1 3 2 3 2 4c-2 0-3 2-2 4 0 2 2 4 5 7 2 2 2 4 2 8-1 1-1 3-1 6-1 3-1 5-1 6 0-1 1-1 2-1s1-1 2-1c0 0 0 1 0 2 1 1 1 1 1 2 1 0 1 0 2 1 0 0 1 1 1 1s1 0 2 1c0 1 1 1 2 1 0 1 1 1 2 1 0 0 1 0 1-1 1 0 1-1 0-3-1-1-1-2 0-3 0 1 0 1 0 2 0 2 1 2 1 3 1 1 2 1 2 1 1 0 1 0 2 0 0 0 1-1 2-1 0-1 1-1 2-1 1-1 3-2 6-4-1 0-1 0 0 1 0 0 0 0 0 0 1 0 1 0 1 1 0 0 1 0 1 0s1 0 1 0c0 0 1 0 1 0s1 0 2 0c0 0 1-1 1-1s0 0 1-1c1 0 1 0 1-1 0 0 1 0 2-1 1 0 2-1 2-1 1-1 1-1 1-2 1 0 1-1 1-2 0 0 2 0 4-1 0 0 1-1 2-1s2 0 2 0c-16-18-36-28-58-32z" />
<glyph unicode="&#xe61a;" d="M256 127c0 37-30 68-67 68 0 0 0 0 0 0h-122c0 0 0 0 0 0-37 0-67-31-67-68 0-1 0-2 0-3s0-2 0-2c0 0 0-52 0-52 0-23 19-42 42-42 19 0 35 14 40 32 20 5 37 18 46 36 9-18 26-31 46-36 4-18 21-32 40-32 23 0 42 19 42 42 0 0 0 52 0 52s0 1 0 2c0 1 0 2 0 3zM106 116h-27v-28h-22v28h-28v22h28v28h22v-28h27v-22zM188 174c9 0 16-7 16-16s-7-16-16-16c-8 0-15 7-15 16s7 16 15 16zM157 111c-8 0-15 7-15 16s7 16 15 16c9 0 16-7 16-16s-7-16-16-16zM188 80c-8 0-15 7-15 16s7 16 15 16c9 0 16-7 16-16s-7-16-16-16zM219 111c-9 0-16 7-16 16s7 16 16 16c9 0 16-7 16-16s-7-16-16-16z" />
<glyph unicode="&#xe61b;" d="M223 160c-9 0-16-7-16-16 0 0 0-64 0-64 0-9 7-16 16-16s16 7 16 16c0 0 0 64 0 64 0 9-7 16-16 16zM33 160c-9 0-16-7-16-16 0 0 0-64 0-64 0-9 7-16 16-16s16 7 16 16c0 0 0 64 0 64 0 9-7 16-16 16zM57 56c0-13 10-24 23-24 0 0 8 0 8 0s0-32 0-32c0-9 7-16 16-16s16 7 16 16c0 0 0 32 0 32h16c0 0 0-32 0-32 0-9 7-16 16-16s16 7 16 16c0 0 0 32 0 32s8 0 8 0c13 0 23 11 23 24 0 0 0 88 0 88h-142c0 0 0-88 0-88zM157 218c0 0 10 19 10 19 1 1 1 2 0 3-1 0-3 0-3-1 0 0-10-20-10-20-8 3-17 5-26 5s-18-2-26-5c0 0-10 20-10 20 0 1-2 1-3 1-1-1-1-2 0-3 0 0 10-19 10-19-23-11-39-32-42-58 0 0 142 0 142 0-3 26-19 47-42 58zM96 172c-6 0-11 6-11 12s5 12 11 12c7 0 12-6 12-12s-5-12-12-12zM160 172c-7 0-12 6-12 12s5 12 12 12c6 0 11-6 11-12s-5-12-11-12z" />
<glyph unicode="&#xe61c;" d="M218 209c-74 0-87 28-87 29s-2 2-3 2c0 0 0 0 0 0-2 0-3-1-4-2 0-1-13-29-86-29-2 0-4-2-4-4 0 0 0-127 0-127 0-52 89-92 92-94 1 0 1 0 2 0 0 0 1 0 1 0 4 2 93 42 93 94 0 0 0 127 0 127-1 2-2 4-4 4zM129 12c0 0-1 0-1 0-1 0-1 0-1 0-3 1-73 33-73 73 0 0 0 100 0 100 0 2 2 3 3 3 58 0 68 22 68 22 1 1 2 2 3 2 0 0 0 0 0 0 1 0 2-1 2-2 1 0 10-22 68-22 2 0 3-1 3-3 0 0 0-100 0-100s0 0 0 0c0-40-69-72-72-73zM186 164c-36-22-62-50-72-62 0 0-27 21-27 21-1 1-15-13-15-13s49-50 49-50c0-1 1-1 1-1s0 0 1 0c0 0 1 1 1 1 8 21 34 63 67 94 1 1 1 2 1 3 0 0-6 8-6 7z" />
<glyph unicode="&#xe61d;" d="M127 240c-7 0-13-3-18-8s-8-12-8-19c0-5 1-9 3-13-7-2-13-5-18-9-1-1-2-2-3-3 0 0-45 0-45 0h-8v-204h196v204h-9c0 0-45 0-45 0-1 1-3 2-4 3-5 4-10 7-17 9 2 4 3 8 3 13 0 7-3 14-8 19s-11 8-19 8zM127 225c4 0 7-1 9-3 2-3 3-6 3-9 0-5-2-8-6-10s-7-2-11 0c-4 2-6 5-7 10 0 3 1 6 3 8 3 3 6 4 9 4zM128 192c12 0 21-3 28-11 4-3 6-6 6-9 0 0 1 0 1 0v0h-71c0 0 0 0 0 0 1 3 3 6 6 9 8 8 18 11 30 11zM53 171c0 0 26 0 26 0 0-1 0-2 0-3 0-2 0-3 0-5 0 0 1-5 1-5h94c0 0 1 5 1 5 0 2 1 3 1 5 0 1-1 2-1 3 0 0 27 0 27 0v-161c0 0-115 0-115 0-27 40-38 93-34 161z" />
<glyph unicode="&#xe61e;" d="M131 218v-94h125v112l-125-18zM131 6l125-18v112h-125v-94zM0 124h106v89l-106-15v-74zM0 26l106-15v89h-106v-74z" />
<glyph unicode="&#xe61f;" d="M237 110v-108h19v108h-19zM208 2h19v90h-19v-90zM179 2h19v72h-19v-72zM137 105c20 14 34 41 34 65 0 34-28 61-61 61-34 0-61-27-61-61 0-24 14-51 34-65-48-12-83-54-83-85 0-18 55-27 110-27 0 0-31 31-31 31l26 63c0 0-10 12-10 12 5-2 10-3 15-3s10 1 15 3c0 0-10-12-10-12v0l26-63c0 0-31-31-31-31 10 0 21 0 31 0 0 0 0 72 0 72h29v18c0 0 12 0 12 0-13 10-28 18-45 22zM150 2h19v53h-19v-53zM110-8v0z" />
<glyph unicode="&#xe620;" d="M255 35c0 0-1 1-1 1s-71 68-71 68l-29 29 59 55c0 0 3-3 3-3 1-1 2-1 3-1s1 0 1 0c1 0 2 1 3 2 0 0 22 26 22 26 0 1 1 2 1 3s-1 2-2 3c0 0-8 6-8 6-2 1-4 1-5 0 0 0-26-20-26-20-1-1-2-2-2-4 0-1 1-2 1-3 0 0 4-3 4-3l-60-55c0 0-23 21-23 21-1 2-4 2-5 0 0 0-29-25-29-25-1 0-1-1-1-3 0-1 0-2 1-3 0 0 21-23 21-23l-2-2c0 0-11 10-11 10-1 2-4 2-6 1 0 0-91-79-91-79s-1-1-1-1c-3-7 1-19 11-28 7-7 16-12 23-12 2 0 4 1 6 2 0 0 0 0 1 0 0 0 84 84 84 84 1 2 2 5 0 6 0 0-10 11-10 11l2 2c0 0 96-103 96-103 1 0 1 0 1 0 2-1 4-2 6-2 7 0 16 5 23 12 10 9 14 21 11 28zM15 27c-1 0-2 1-2 1-1 1-1 2 0 3 0 0 77 66 77 66 1 1 2 1 3 0s1-2 0-3c0 0-77-66-77-66 0-1-1-1-1-1zM26 16c-1 0-1 1-2 1-1 1-1 2 0 3 0 0 73 70 73 70 0 1 2 1 2 0 1 0 1-2 0-3 0 0-72-70-72-70s-1-1-1-1zM110 81c0 0-72-72-72-72 0-1-1-1-1-1-1 0-1 0-2 1-1 0-1 2 0 3 0 0 72 72 72 72s2 0 3 0c0-1 0-3 0-3zM30 111c0-1 1-1 2-1s1 0 1 0c1 0 2 1 3 1 0 0 14 18 14 18 2 2 1 4 0 6 0 0-27 24-27 24-1 1-2 1-3 1-2 0-3-1-3-1s-16-18-16-18c-1-1-1-2-1-3s1-2 1-3c0 0 29-24 29-24zM51 138c1-1 2-1 3-1s3 1 3 2c0 1 3 5 11 4 10-1 16-5 16-5 1-1 2-1 3-1s2 0 3 1c0 0 25 23 25 23 1 1 1 3 1 5 0 0-11 21-11 21 11 19 33 20 40 20 0 0 1 0 1 0s6 0 6 0c1 0 3 1 3 3 1 1 1 3-1 4-11 10-24 15-40 15-32 0-65-21-72-35-8-17-18-27-18-27-1-1-1-2-1-3s1-2 1-3c0 0 27-23 27-23z" />
<glyph unicode="&#xe621;" d="M196 49c0-1 0-3 0-4-1 0-1-1-2-1 0 0-1 0-2 0 0 0-67 16-67 16s-25-65-25-65c-1-2-2-2-3-2-1-1-3 0-3 1 0 0-94 181-94 181 0 1 0 3 2 4 0 0 96 52 96 52 2 0 4 0 4-2 0 0 94-180 94-180zM256 32c0 0-52 197-52 197 0 2-2 3-4 2 0 0-75-20-75-20s79-153 79-153c1-2 2-5 2-7 0 0 45-23 45-23 1 0 2 0 3 0 0 0 0 0 1 1 1 0 1 2 1 3zM145 2c0-1 1-2 2-3 1 0 3 1 3 2 0 0 25 36 25 36l-42 10c0 0 12-45 12-45z" />
<glyph unicode="&#xe622;" d="M94 190c0-6 0-35 0-35h-26v-43h26v-128h53v128h36c0 0 3 21 5 43-5 0-41 0-41 0s0 25 0 30c0 4 6 10 12 10s18 0 29 0c0 6 0 26 0 45-15 0-32 0-40 0-55 0-54-43-54-50z" />
<glyph unicode="&#xe623;" d="M0 197v-25h256v25h-256zM0 97h256v25h-256v-25zM0 27h256v25h-256v-25z" />
<glyph unicode="&#xe624;" d="M246 23c0 0-27 26-27 26-2 2-4 3-6 3-3 0-5-1-7-4-7-9-4-6-14-13-2-2-3-4-4-7 0-2 1-4 3-6 0 0 27-27 27-27 5-5 12-8 20-8 7 0 6 0 11 5 11 11 8 20-3 31zM224 127c0 61-50 110-112 110s-112-49-112-110c0-61 50-110 112-110s112 49 112 110zM112 43c-48 0-86 38-86 85 0 46 38 84 86 84 47 0 85-38 85-84 0-47-38-85-85-85z" />
</font>
</defs>
</svg>
