<?xml version="1.0" encoding="utf-8"?>
<!-- Generator: Adobe Illustrator 15.0.2, SVG Export Plug-In . SVG Version: 6.00 Build 0)  -->
<!DOCTYPE svg PUBLIC "-//W3C//DTD SVG 1.1//EN" "http://www.w3.org/Graphics/SVG/1.1/DTD/svg11.dtd">
<svg version="1.1" id="Layer_1" xmlns="http://www.w3.org/2000/svg" xmlns:xlink="http://www.w3.org/1999/xlink" x="0px" y="0px"
	 width="71.308px" height="71.243px" viewBox="0 0 71.308 71.243" enable-background="new 0 0 71.308 71.243" xml:space="preserve">
<g>
	<path fill="#DDDDDD" d="M35.646,68.637c-18.196,0-33-14.804-33-33s14.804-33,33-33s32.999,14.804,32.999,33
		S53.842,68.637,35.646,68.637z"/>
	<path fill="#808080" d="M35.646,4.837c16.982,0,30.799,13.817,30.799,30.8s-13.816,30.8-30.799,30.8
		c-16.983,0-30.8-13.816-30.8-30.8S18.662,4.837,35.646,4.837 M35.646,0.437c-19.441,0-35.2,15.76-35.2,35.2s15.759,35.2,35.2,35.2
		c19.439,0,35.199-15.76,35.199-35.2S55.085,0.437,35.646,0.437L35.646,0.437z"/>
</g>
<g>
	
		<rect x="13.586" y="22.972" transform="matrix(-0.9397 0.342 -0.342 -0.9397 82.1277 56.4613)" fill="#DDDDDD" width="45" height="25"/>
	<path fill="#808080" d="M51.759,18.593l7.182,19.733L20.413,52.35l-7.182-19.734L51.759,18.593 M54.149,13.466L8.104,30.226
		l9.918,27.251l46.045-16.76L54.149,13.466L54.149,13.466z"/>
</g>
<polyline fill="none" stroke="#808080" stroke-width="3" stroke-linejoin="bevel" stroke-miterlimit="10" points="11.12,31.936 
	35.826,39.921 39.282,38.596 52.732,16.587 "/>
<path fill="none" stroke="#808080" stroke-width="3" stroke-linejoin="bevel" stroke-miterlimit="10" d="M43.012,54.5"/>
<path fill="none" stroke="#808080" stroke-width="3" stroke-linejoin="bevel" stroke-miterlimit="10" d="M27.278,11.275"/>
</svg>
