<?xml version="1.0" encoding="utf-8"?>
<!-- Generator: Adobe Illustrator 15.0.2, SVG Export Plug-In . SVG Version: 6.00 Build 0)  -->
<!DOCTYPE svg PUBLIC "-//W3C//DTD SVG 1.1//EN" "http://www.w3.org/Graphics/SVG/1.1/DTD/svg11.dtd">
<svg version="1.1" id="Layer_1" xmlns="http://www.w3.org/2000/svg" xmlns:xlink="http://www.w3.org/1999/xlink" x="0px" y="0px"
	 width="71.5px" height="71.5px" viewBox="0 0 71.5 71.5" enable-background="new 0 0 71.5 71.5" xml:space="preserve">
<g>
	<path fill="#DDDDDD" d="M35.75,68.75c-18.196,0-33-14.804-33-33s14.804-33,33-33s32.999,14.804,32.999,33S53.946,68.75,35.75,68.75
		z"/>
	<path fill="#808080" d="M35.75,4.95c16.982,0,30.799,13.817,30.799,30.8s-13.816,30.8-30.799,30.8c-16.983,0-30.8-13.816-30.8-30.8
		S18.767,4.95,35.75,4.95 M35.75,0.55c-19.441,0-35.2,15.76-35.2,35.2s15.759,35.2,35.2,35.2c19.439,0,35.199-15.76,35.199-35.2
		S55.189,0.55,35.75,0.55L35.75,0.55z"/>
</g>
<path fill="none" stroke="#808080" stroke-width="6" stroke-miterlimit="10" d="M19.545,12.75c21.762,0,39.404,17.643,39.404,39.405
	"/>
<path fill="none" stroke="#808080" stroke-width="6" stroke-miterlimit="10" d="M19.545,32.452c10.881,0,19.702,8.821,19.702,19.703
	"/>
<path fill="none" stroke="#808080" stroke-width="6" stroke-miterlimit="10" d="M19.714,22.598
	c16.321,0,29.831,13.236,29.831,29.557"/>
<circle fill="#808080" cx="23.276" cy="47.805" r="6.588"/>
</svg>
