<svg
	version="1.1"
	class="icon-circle icon-circle-linkedin"
	xmlns="http://www.w3.org/2000/svg"
	xmlns:xlink="http://www.w3.org/1999/xlink"
	width="500px"
	height="500px"
	viewbox="0 0 500 500"
>
	<path fill="#FFFFFF" d="M499,250c0,137.9-111.1,249-249,249S1,387.9,1,250S112.1,1,250,1S499,112.1,499,250z M187.8,130.6
	c-0.5-20.7-16-36.2-41.6-36.2c-24.8,0-41.3,15.6-41.3,36.2c0,20.2,16,36.5,40.9,36.5h0.5C171.7,167.1,187.8,150.8,187.8,130.6z
	M177.3,198.2H115v176.3h62.2V198.2z M405.6,281.1c0-57.1-28.2-93.4-72.7-93.4c-25.3,0-43.8,15.1-51.8,37.4l-2.2-27h-61.8
	c0.5,6.8,1.7,41.3,1.7,41.3v135h62.2v-93.4c0-25.3,11.4-41.6,30.6-41.6c19,0,31.6,10,31.6,41.6v93.4h62.2V281.1z"/>
</svg>
