<svg
	version="1.1"
	class="icon-circle icon-circle-twitter"
	xmlns="http://www.w3.org/2000/svg"
	xmlns:xlink="http://www.w3.org/1999/xlink"
	width="500px"
	height="500px"
	viewbox="0 0 500 500"
>
	<path fill="#FFFFFF" d="M499,250c0,137.9-111.1,249-249,249S1,387.9,1,
		250S112.1,1,250,1S499,112.1,499,250z M436.8,158.8c-12.6,5.3-26.5,9.2-40.9,
		11.2c14.8-8.8,25.3-22.6,30.4-39.4c-13.9,8.3-28.2,13.9-44.3,
		17.3c-12.6-13.6-31.1-22.4-51.3-22.4c-39.1,0-70.3,31.6-70.3,71c0,5.1,0.5,
		10.9,1.7,16c-58.8-2.9-111.4-31.1-146.4-74.4c-5.8,10.9-9.2,23.1-9.2,35.7c0,
		24.8,12.2,46.2,31.1,58.8c-11.7,0-22.6-3.4-31.9-8.8v0.7c0,34.5,24.3,62.7,
		56.7,69.8c-5.8,1.7-12.2,2.2-18.5,2.2c-4.6,0-9.2-0.5-13.4-1.2c8.8,28.2,35.3,
		47.4,65.9,47.9c-24.3,19-54.2,32.3-87.8,32.3c-5.6,0-11.4-0.7-16.5-1.2c31.1,
		20.2,68.6,31.1,108.2,31.1c130.3,0,201.1-107.7,201.1-201.1c0-2.9,0-6.3,
		0-9.2C415.4,185.6,427,172.7,436.8,158.8z"/>
</svg>
