<svg
	version="1.1"
	class="icon-circle icon-circle-github"
	xmlns="http://www.w3.org/2000/svg"
	xmlns:xlink="http://www.w3.org/1999/xlink"
	width="500px"
	height="500px"
	viewbox="0 0 500 500"
>
	<path fill="#FFFFFF" d="M250,1C112.5,1,1,115.3,1,256.3c0,112.8,71.3,208.5,170.3,242.2c12.4,2.3,17-5.5,17-12.3
	c0-6.1-0.2-26.2-0.3-47.5c-69.2,15.4-83.9-30.1-83.9-30.1c-11.3-29.5-27.6-37.3-27.6-37.3c-22.6-15.8,1.7-15.5,1.7-15.5
	c25,1.8,38.2,26.3,38.2,26.3c22.2,39,58.3,27.7,72.5,21.2c2.3-16.5,8.7-27.7,15.8-34.1C149.3,362.7,91.1,340.8,91.1,243
	c0-27.9,9.7-50.6,25.6-68.5c-2.5-6.5-11.1-32.5,2.5-67.6c0,0,20.9-6.9,68.5,26.2c19.8-5.7,41.1-8.5,62.3-8.6
	c21.2,0.1,42.5,2.9,62.3,8.6c47.5-33.1,68.4-26.2,68.4-26.2c13.6,35.2,5,61.1,2.5,67.6c16,17.9,25.6,40.6,25.6,68.5
	c0,98.1-58.2,119.7-113.7,126c9,7.9,16.9,23.4,16.9,47.2c0,34.1-0.3,61.6-0.3,70.1c0,6.8,4.5,14.7,17.1,12.2
	C427.7,464.7,499,369,499,256.3C499,115.3,387.5,1,250,1z"/>
</svg>
