<svg
	version="1.1"
	class="icon-circle icon-circle-facebook"
	xmlns="http://www.w3.org/2000/svg"
	xmlns:xlink="http://www.w3.org/1999/xlink"
	width="500px"
	height="500px"
	viewbox="0 0 500 500"
>
	<path fill="#FFFFFF" d="M499,250c0,137.9-111.9,249-249,249C112.1,499,1,387.9,1,250C1,112.9,112.1,1,250,1
	C387.1,1,499,112.9,499,250z M270.7,164.2c0-17.3,3.6-28.2,25.5-28.2H330l2.9-58.8c0,0-17.3-3.4-47.2-3.4
	c-61,0-87.5,36.7-87.5,78.3c0,27,0,56.4,0,56.4h-41.6v62.2h41.6v155.6h72.5V270.7H329l3.9-61.5h-62.2V164.2z"/>
</svg>
