<?xml version="1.0" encoding="utf-8"?>
<!-- Generator: Adobe Illustrator 18.1.1, SVG Export Plug-In . SVG Version: 6.00 Build 0)  -->
<!DOCTYPE svg PUBLIC "-//W3C//DTD SVG 1.1//EN" "http://www.w3.org/Graphics/SVG/1.1/DTD/svg11.dtd">
<svg version="1.1" xmlns="http://www.w3.org/2000/svg" xmlns:xlink="http://www.w3.org/1999/xlink" x="0px" y="0px"
	 viewBox="0 800 100 100" enable-background="new 0 800 100 100" xml:space="preserve">
	<g fill="#4A4A4A">
		<path d="M29.9,900c-19.7,0-28.5-9.8-28.5-19.4c0-2.4,0.7-10.8,10.4-16.6c7.1-4.4,16.5-5.4,22.5-5.9
			c-1.4-2-2.7-4.3-2.7-7.6c0-1.5,0.3-2.6,0.6-3.6c-0.7,0.1-1.5,0.1-2.2,0.1c-14.5,0-22.3-10.9-22.3-21.2c0-6.6,3.2-13.4,8.5-18l0,0
			C23,802.4,30.4,800,41,800h23.3c0.8,0,1.5,0.5,1.7,1.3c0.2,0.7-0.1,1.5-0.7,1.9l-6.6,4.2c-0.3,0.2-0.6,0.3-0.9,0.3h-4.5
			c3.2,3,7,8,7,16c0,4.6-1.2,8.5-3.7,11.9c-2.1,2.9-4.9,5.1-7.4,7.1l-0.1,0.1c-1.5,1.5-3,3-3,5.2c0,2.2,1.4,3.3,2.8,4.5l4.7,3.6
			c2.8,2.4,5.5,4.7,7.6,7.6c2.4,3.3,3.5,7,3.5,11.2C64.5,887.3,52.6,900,29.9,900z M25.1,866c-3.4,1.2-6,2.9-7.6,4.9
			c-1.6,2-2.5,4.3-2.5,7.1c0,8.6,8.5,14.3,21.1,14.3c5.4,0,9.9-1.2,12.9-3.5c3-2.2,4.5-5.3,4.5-9.1c0-2.9-0.9-5.2-3.1-7.6
			c-2.2-2.4-5.5-4.9-10-8c-0.8-0.1-1.3-0.1-2.5-0.1C37.8,864,30.6,864.1,25.1,866z M31.8,807.2c-3,0-6.1,1.5-7.9,3.7
			c-1.7,2.1-2.5,4.9-2.5,8.7c0,3.3,0.9,8.9,3.6,13.7c3.5,6.4,8,7.7,11.1,7.7c2.7,0,5.9-1.3,7.8-3.2c2.8-2.8,2.8-7,2.8-8.4
			c0-4.8-1.5-10.5-4-14.7C40.6,811.3,37.1,807.2,31.8,807.2z"/>
		<path d="M84.2,867.2h-5.3c-1,0-1.7-0.8-1.7-1.7v-11.1h-11c-1,0-1.7-0.8-1.7-1.7v-5.3c0-1,0.8-1.7,1.7-1.7h11v-11
			c0-1,0.8-1.7,1.7-1.7h5.3c1,0,1.7,0.8,1.7,1.7v11h11c1,0,1.7,0.8,1.7,1.7v5.3c0,1-0.8,1.7-1.7,1.7h-11v11.1
			C85.9,866.4,85.1,867.2,84.2,867.2z"/>
	</g>
</svg>
