<?xml version="1.0" encoding="utf-8"?>
<!-- Generator: Adobe Illustrator 18.1.1, SVG Export Plug-In . SVG Version: 6.00 Build 0)  -->
<!DOCTYPE svg PUBLIC "-//W3C//DTD SVG 1.1//EN" "http://www.w3.org/Graphics/SVG/1.1/DTD/svg11.dtd">
<svg version="1.1" id="Icons" xmlns="http://www.w3.org/2000/svg" xmlns:xlink="http://www.w3.org/1999/xlink" x="0px" y="0px"
	 viewBox="-349 451 100 100" enable-background="new -349 451 100 100" xml:space="preserve">
<path fill="#4A4A4A" id="Facebook" d="M-312.2,470.4c0,2.5,0,13.8,0,13.8h-10.1V501h10.1v50h20.7v-50h13.9c0,0,1.3-8.1,1.9-16.9
	c-1.8,0-15.8,0-15.8,0s0-9.8,0-11.5c0-1.7,2.3-4,4.5-4c2.2,0,6.9,0,11.3,0c0-2.3,0-10.2,0-17.5c-5.8,0-12.4,0-15.3,0
	C-312.8,451-312.2,467.9-312.2,470.4z"/>
</svg>
