<?xml version="1.0" encoding="utf-8"?>
<!-- Generator: Adobe Illustrator 18.1.1, SVG Export Plug-In . SVG Version: 6.00 Build 0)  -->
<!DOCTYPE svg PUBLIC "-//W3C//DTD SVG 1.1//EN" "http://www.w3.org/Graphics/SVG/1.1/DTD/svg11.dtd">
<svg version="1.1" id="Icons" xmlns="http://www.w3.org/2000/svg" xmlns:xlink="http://www.w3.org/1999/xlink" x="0px" y="0px"
	 viewBox="-349 451 100 100" enable-background="new -349 451 100 100" xml:space="preserve">
<path fill="#4A4A4A" id="LinkedIn" d="M-254,510.7V544h-19.3v-31c0-7.8-2.8-13.1-9.8-13.1c-5.3,0-8.5,3.6-9.9,7.1c-0.5,1.2-0.6,3-0.6,4.7V544h-19.3
	c0,0,0.3-52.6,0-58h19.3v8.2c0,0.1-0.1,0.1-0.1,0.2h0.1v-0.2c2.6-3.9,7.1-9.6,17.4-9.6C-263.5,484.6-254,492.9-254,510.7z
	 M-333.1,458c-6.6,0-10.9,4.3-10.9,10c0,5.6,4.2,10,10.7,10h0.1c6.7,0,10.9-4.5,10.9-10C-322.4,462.3-326.5,458-333.1,458z
	 M-342.9,544h19.3v-58h-19.3V544z"/>
</svg>
