<?xml version="1.0" standalone="no"?>
<!DOCTYPE svg PUBLIC "-//W3C//DTD SVG 1.1//EN" "http://www.w3.org/Graphics/SVG/1.1/DTD/svg11.dtd" >
<svg xmlns="http://www.w3.org/2000/svg">
<metadata>Generated by IcoMoon</metadata>
<defs>
<font id="ac_iconset" horiz-adv-x="512">
<font-face units-per-em="512" ascent="480" descent="-32" />
<missing-glyph horiz-adv-x="512" />
<glyph unicode="&#x20;" d="" horiz-adv-x="256" />
<glyph unicode="&#xe600;" d="M254.349 116.889l62.208 80.371c1.139 1.37 1.357 3.277 0.615 4.902-0.743 1.613-2.381 2.637-4.173 2.637h-32.294l0.896 113.805c0-107.584 0 0 0 0h-64v-113.805h-33.792c-1.805 0-3.417-1.024-4.173-2.637-0.281-0.627-0.435-1.305-0.435-1.971 0-1.050 0.345-2.087 1.049-2.931l66.983-80.371c0.883-1.075 2.176-1.69 3.571-1.69 1.369 0 2.675 0.615 3.546 1.69z" />
<glyph unicode="&#xe601;" d="M301.133 321.241h-56.205c-14.72 0-33.305-2.202-48.832-14.976-11.738-10.048-16.986-23.705-16.986-36.198 0-21.235 15.885-42.944 44.8-42.944 2.752 0 5.721 0.256 8.755 0.55-1.344-3.277-2.726-6.003-2.726-10.624 0-8.423 4.352-13.581 8.179-18.471-12.275-0.819-35.2-2.202-52.109-12.531-16.115-9.523-22.439-23.399-22.439-33.178 0-20.122 20.531-38.899 60.083-38.899 46.925 0 70.797 25.843 70.797 51.418 0 18.765-9.945 28.032-21.965 38.093l-9.805 7.616c-3.008 2.432-7.117 5.709-7.117 11.687s4.096 9.805 7.641 13.325c11.469 8.973 23.399 18.509 23.399 38.617 0 20.685-13.581 31.565-19.827 36.723h16.896l17.459 9.792zM277.107 154.777c0-16.883-13.901-29.376-40.077-29.376-29.222 0-48.038 13.863-48.038 33.165 0 19.353 17.459 25.856 23.463 28.019 11.456 3.801 26.202 4.352 28.659 4.352 2.714 0 4.083 0 6.259-0.269 20.762-14.695 29.735-22.029 29.735-35.891zM255.309 242.343c-4.391-4.352-11.738-7.629-18.573-7.629-23.475 0-34.099 30.221-34.099 48.448 0 7.053 1.357 14.4 6.003 20.121 4.365 5.427 12.032 8.96 19.097 8.96 22.643 0 34.393-30.464 34.393-50.035 0-4.889-0.55-13.594-6.822-19.865zM351.488 286.656v34.585h-11.456v-34.585h-35.584v-11.443h35.584v-34.521h11.456v34.521h35.353v11.443h-35.353z" />
<glyph unicode="&#xe602;" d="M256 486.4c-141.405 0-256-114.595-256-256 0-141.382 114.595-256 256-256 141.382 0 256 114.642 256 256 0 141.405-114.642 256-256 256zM256.024 125.696l-128.024 162.886h256l-127.976-162.886z" />
<glyph unicode="&#xe603;" d="M257.651 331.111l-62.208-80.371c-1.139-1.369-1.357-3.277-0.614-4.903 0.743-1.613 2.381-2.637 4.173-2.637h32.294l-0.896-113.805c0 107.584 0 0 0 0h64v113.805h33.792c1.805 0 3.418 1.024 4.173 2.637 0.281 0.627 0.435 1.305 0.435 1.971 0 1.049-0.346 2.087-1.050 2.931l-66.983 80.371c-0.883 1.075-2.176 1.69-3.571 1.69-1.37 0-2.675-0.615-3.546-1.69z" />
<glyph unicode="&#xe604;" d="M400.461 300.966c0.154-3.059 0.231-6.093 0.231-9.216 0-93.85-71.488-202.151-202.163-202.151-40.154 0-77.478 11.776-108.928 31.936 5.543-0.64 11.187-0.998 16.934-0.998 33.318 0 63.936 11.353 88.269 30.425-31.104 0.563-57.357 21.094-66.394 49.344 4.339-0.832 8.793-1.305 13.376-1.305 6.477 0 12.774 0.909 18.739 2.496-32.499 6.528-56.999 35.239-56.999 69.709 0 0.32 0 0.563 0.013 0.87 9.575-5.338 20.519-8.525 32.154-8.922-19.034 12.774-31.603 34.522-31.603 59.2 0 13.005 3.495 25.178 9.613 35.712 35.047-43.008 87.399-71.296 146.458-74.266-1.216 5.197-1.83 10.662-1.83 16.218 0 39.245 31.808 71.027 71.040 71.027 20.454 0 38.899-8.627 51.84-22.413 16.205 3.187 31.399 9.101 45.145 17.216-5.325-16.602-16.576-30.502-31.219-39.283 14.361 1.741 28.045 5.504 40.781 11.2-9.523-14.259-21.581-26.803-35.456-36.8z" />
<glyph unicode="&#xe605;" d="M259.469 307.2c-45.952 0-83.2-37.235-83.2-83.187 0-45.965 37.248-83.213 83.2-83.213 45.939 0 83.2 37.248 83.2 83.213 0 45.952-37.261 83.187-83.2 83.187zM268.8 217.6h-12.8v64h12.8v-51.2h51.2v-12.8h-51.2z" />
<glyph unicode="&#xe606;" d="M253.6 376c-81.305 0-147.2-65.881-147.2-147.174 0-81.331 65.894-147.226 147.2-147.226 81.28 0 147.2 65.894 147.2 147.226 0 81.293-65.92 147.174-147.2 147.174zM270.099 222.4h-22.899v102.4h12.8v-89.6h89.6v-12.8h-79.501z" />
<glyph unicode="&#xe607;" d="M419.967 267.193l-113.834 16.457-50.839 102.373-50.839-102.373-113.814-16.457 82.347-79.8-19.389-112.599 101.698 53.137 101.698-53.117-19.389 112.58z" />
<glyph unicode="&#xe608;" d="M256 140.8c27.277 0 52.339 9.587 72.103 25.498l98.022-98.522c2.496-2.509 5.773-3.776 9.075-3.776 3.264 0 6.528 1.255 9.024 3.738 5.017 4.992 5.031 13.094 0.051 18.099l-98.15 98.649c15.654 19.648 25.075 44.493 25.075 71.514 0 63.526-51.673 115.2-115.2 115.2s-115.2-51.673-115.2-115.2c0-63.514 51.673-115.2 115.2-115.2zM256 345.6c49.395 0 89.6-40.192 89.6-89.6 0-49.395-40.205-89.6-89.6-89.6-49.408 0-89.6 40.205-89.6 89.6 0 49.408 40.192 89.6 89.6 89.6z" />
<glyph unicode="&#xe609;" d="M329.92 230.4l-112.32-65.037v130.074l112.32-65.037z" />
<glyph unicode="&#xe60a;" d="M300.8 236.749l-73.319 76.851-16.281-17.075 63.078-66.125-63.078-66.125 16.281-17.075 73.319 76.851-6.055 6.349z" />
<glyph unicode="&#xe60b;" d="M396.697 327.834h-268.595c-7.066 0-12.8-5.721-12.8-12.8v-12.493c0-7.079 5.734-12.787 12.8-12.787h268.582c7.065 0 12.8 5.709 12.8 12.787v12.493c0.013 7.078-5.735 12.8-12.787 12.8zM396.697 251.034h-268.595c-7.066 0-12.8-5.734-12.8-12.8v-12.493c0-7.066 5.734-12.787 12.8-12.787h268.582c7.065 0 12.8 5.721 12.8 12.787v12.493c0.013 7.065-5.735 12.8-12.787 12.8zM396.697 174.233h-268.595c-7.066 0-12.8-5.735-12.8-12.8v-12.48c0-7.091 5.734-12.8 12.8-12.8h268.582c7.065 0 12.8 5.709 12.8 12.8v12.48c0.013 7.065-5.735 12.8-12.787 12.8z" />
<glyph unicode="&#xe60c;" d="M256 358.4c-49.408 0-89.6-40.614-89.6-90.521 0-45.069 70.912-143.975 79.001-159.079 2.099-3.942 6.169-6.4 10.599-6.4 4.416 0 8.499 2.457 10.611 6.4 8.077 15.104 78.989 113.997 78.989 159.079 0 49.907-40.205 90.522-89.6 90.522zM256 230.4c-21.209 0-38.4 17.19-38.4 38.4s17.191 38.4 38.4 38.4 38.4-17.191 38.4-38.4-17.19-38.4-38.4-38.4z" />
<glyph unicode="&#xe60d;" d="M268.8 76.8l72.64 74.829-18.099 18.099-54.541-54.528v268.8h-25.6v-268.8l-55.719 54.541-18.099-18.099 73.817-74.841z" />
<glyph unicode="&#xe60e;" d="M403.2 371.2h-192c-3.533 0-6.4-2.867-6.4-6.4v-64c0-3.533 2.867-6.4 6.4-6.4h192c3.52 0 6.4 2.867 6.4 6.4v64c0 3.533-2.88 6.4-6.4 6.4zM403.2 268.8h-192c-3.533 0-6.4-2.867-6.4-6.4v-64c0-3.533 2.867-6.4 6.4-6.4h192c3.52 0 6.4 2.867 6.4 6.4v64c0 3.533-2.88 6.4-6.4 6.4zM403.2 166.4h-192c-3.533 0-6.4-2.867-6.4-6.4v-64c0-3.533 2.867-6.4 6.4-6.4h192c3.52 0 6.4 2.867 6.4 6.4v64c0 3.533-2.88 6.4-6.4 6.4zM172.8 371.2h-64c-3.533 0-6.4-2.867-6.4-6.4v-64c0-3.533 2.867-6.4 6.4-6.4h64c3.52 0 6.4 2.867 6.4 6.4v64c0 3.533-2.88 6.4-6.4 6.4zM172.8 268.8h-64c-3.533 0-6.4-2.867-6.4-6.4v-64c0-3.533 2.867-6.4 6.4-6.4h64c3.52 0 6.4 2.867 6.4 6.4v64c0 3.533-2.88 6.4-6.4 6.4zM172.8 166.4h-64c-3.533 0-6.4-2.867-6.4-6.4v-64c0-3.533 2.867-6.4 6.4-6.4h64c3.52 0 6.4 2.867 6.4 6.4v64c0 3.533-2.88 6.4-6.4 6.4z" />
<glyph unicode="&#xe60f;" d="M269.069 251.661v0.333c-0.077-0.115-0.179-0.231-0.256-0.333h0.256zM367.834 371.2h-227.84c-12.647 0-24.793-12.16-24.793-26.957v-227.84c0-14.81 12.147-26.803 26.957-26.803h227.84c14.797 0 26.803 11.993 26.803 26.803v227.84c0 14.797-12.007 26.957-28.966 26.957zM204.8 140.8h-38.4v128h38.4v-128zM185.6 281.6c-10.599 0-19.2 8.589-19.2 19.2s8.601 19.2 19.2 19.2 19.2-8.589 19.2-19.2-8.601-19.2-19.2-19.2zM345.6 140.8h-38.4v69.696c0 15.885-1.959 26.714-16.32 26.714-10.957 0-17.702-7.309-20.544-14.362-1.063-2.534-1.536-6.055-1.536-9.575v-72.474h-38.4v8.87c0 0 0.435 108.032-0.089 119.13h38.489v-16.794c0 7.975 17.101 16.794 38.195 16.794 26.099 0 38.605-17.472 38.605-53.773v-74.227z" />
<glyph unicode="&#xe610;" d="M422.387 166.4h-217.575c-7.078 0-12.813-5.735-12.813-12.825v-12.749c0-7.091 5.734-12.825 12.813-12.825h217.575c7.079 0 12.813 5.735 12.813 12.825v12.749c0 7.091-5.735 12.825-12.813 12.825zM422.387 243.2h-217.575c-7.078 0-12.813-5.734-12.813-12.813v-12.775c0-7.079 5.734-12.813 12.813-12.813h217.575c7.079 0 12.813 5.735 12.813 12.813v12.775c0 7.078-5.735 12.813-12.813 12.813zM422.387 320h-217.575c-7.078 0-12.813-5.735-12.813-12.826v-12.749c0-7.091 5.734-12.825 12.813-12.825h217.575c7.079 0 12.813 5.734 12.813 12.825v12.749c0 7.091-5.735 12.826-12.813 12.826zM140.787 166.4h-38.374c-7.079 0-12.813-5.735-12.813-12.825v-12.749c0-7.091 5.734-12.825 12.813-12.825h38.374c7.078 0 12.813 5.735 12.813 12.825v12.749c0 7.091-5.734 12.825-12.813 12.825zM140.787 243.2h-38.374c-7.079 0-12.813-5.734-12.813-12.813v-12.775c0-7.079 5.734-12.813 12.813-12.813h38.374c7.078 0 12.813 5.735 12.813 12.813v12.775c0 7.078-5.734 12.813-12.813 12.813zM140.787 320h-38.374c-7.079 0-12.813-5.735-12.813-12.826v-12.749c0-7.091 5.734-12.825 12.813-12.825h38.374c7.078 0 12.813 5.734 12.813 12.825v12.749c0 7.091-5.734 12.826-12.813 12.826z" />
<glyph unicode="&#xe611;" d="M307.2 230.4c0-28.277-22.923-51.2-51.2-51.2s-51.2 22.923-51.2 51.2c0 28.277 22.923 51.2 51.2 51.2s51.2-22.923 51.2-51.2zM345.6 230.4c0-49.485-40.128-89.6-89.6-89.6-49.498 0-89.6 40.115-89.6 89.6 0 4.352 0.41 8.601 1.011 12.8h-52.211v-109.683c0-24.281 19.674-43.917 44.007-43.917h193.575c24.295 0 44.019 19.635 44.019 43.917v109.683h-52.224c0.615-4.198 1.024-8.448 1.024-12.8zM352.781 371.2h-193.575c-24.333 0-44.007-19.789-44.007-44.070v-45.529h67.328c16.192 23.193 43.034 38.4 73.472 38.4 30.425 0 57.28-15.207 73.472-38.4h67.328v45.529c0 24.281-19.725 44.070-44.019 44.070zM371.2 318.835c0-6.426-5.197-11.635-11.623-11.635h-15.155c-6.425 0-11.623 5.209-11.623 11.635v15.142c0 6.413 5.197 11.623 11.623 11.623h15.155c6.425 0 11.623-5.209 11.623-11.635v-15.13z" />
<glyph unicode="&#xe612;" d="M390.413 300.8c0.819 0 1.651 0.166 2.445 0.487 2.394 0.998 3.955 3.328 3.955 5.913v70.4c0 3.533-2.867 6.4-6.4 6.4h-70.4c-2.586 0-4.941-1.561-5.913-3.955-0.295-0.743-0.423-1.51-0.435-2.291l72.986-75.597c1.113-0.819 2.406-1.357 3.763-1.357zM128.013 236.365v-185.165h89.6v115.2h89.6v-115.2h89.6v185.165l-134.4 139.2zM446.208 222.067l-179.2 185.587c-2.291 2.393-6.912 2.381-9.216 0l-179.2-185.613c-1.831-1.894-2.253-4.647-1.28-6.95 0.32-0.768 0.793-1.472 1.433-2.087 0.038-0.038 0.103-0.051 0.141-0.089 2.406-2.202 6.4-2.125 8.743 0.128 0.064 0.051 0.128 0.064 0.179 0.128l174.605 180.826 174.592-180.826c2.317-2.406 6.438-2.483 8.883-0.269 0.051 0.051 0.115 0.064 0.166 0.115 2.534 2.445 2.611 6.49 0.154 9.050z" />
<glyph unicode="&#xe613;" d="M275.175 383.802h127.835c3.529 0 6.392-2.863 6.392-6.392v-127.835c0-3.529-2.863-6.392-6.392-6.392h-127.835c-3.515 0-6.392 2.863-6.392 6.392v127.835c0 3.529 2.876 6.392 6.392 6.392zM108.99 383.802h127.835c3.529 0 6.392-2.863 6.392-6.392v-127.835c0-3.529-2.863-6.392-6.392-6.392h-127.835c-3.516 0-6.392 2.863-6.392 6.392v127.835c0 3.529 2.876 6.392 6.392 6.392zM275.175 217.617h127.835c3.529 0 6.392-2.863 6.392-6.392v-127.835c0-3.529-2.863-6.392-6.392-6.392h-127.835c-3.515 0-6.392 2.863-6.392 6.392v127.835c0 3.529 2.876 6.392 6.392 6.392zM108.99 217.617h127.835c3.529 0 6.392-2.863 6.392-6.392v-127.835c0-3.529-2.863-6.392-6.392-6.392h-127.835c-3.516 0-6.392 2.863-6.392 6.392v127.835c0 3.529 2.876 6.392 6.392 6.392z" />
<glyph unicode="&#xe614;" d="M358.4 345.6h-64c-7.065 0-12.8-5.721-12.8-12.8s5.735-12.8 12.8-12.8h33.063l-173.863-173.875v33.075c0 7.079-5.734 12.8-12.8 12.8s-12.8-5.721-12.8-12.8v-64c0-7.079 5.735-12.8 12.8-12.8h64c7.065 0 12.8 5.721 12.8 12.8s-5.734 12.8-12.8 12.8h-33.113l173.913 173.914v-33.114c0-7.078 5.735-12.8 12.8-12.8s12.8 5.722 12.8 12.8v64c0 7.079-5.735 12.8-12.8 12.8z" />
<glyph unicode="&#xe615;" d="M371.2 230.4h-20.57c-11.673-22.759-35.341-38.4-62.63-38.4h-44.8v-25.6c0-21.171 17.229-38.4 38.4-38.4h29.351l36.531-36.531c1.216-1.216 2.854-1.869 4.519-1.869 0.819 0 1.651 0.166 2.445 0.486 2.394 0.986 3.955 3.328 3.955 5.913v32h12.8c21.171 0 38.4 17.229 38.4 38.4v25.6c0 21.171-17.229 38.4-38.4 38.4zM345.6 262.4v51.2c0 31.757-25.843 57.6-57.6 57.6h-128c-31.757 0-57.6-25.843-57.6-57.6v-51.2c0-31.757 25.843-57.6 57.6-57.6h12.8v-44.8c0-2.586 1.561-4.928 3.955-5.913 0.793-0.32 1.625-0.486 2.445-0.486 1.664 0 3.303 0.653 4.531 1.869l49.319 49.331h54.95c31.757 0 57.6 25.843 57.6 57.6z" />
<glyph unicode="&#xe616;" d="M319.45 384h-204.25c-21.209 0-38.4-17.203-38.4-38.4v-128c0-21.197 17.191-38.4 38.4-38.4h38.4v-89.6l89.6 89.6h76.25c21.209 0 38.4 16.998 38.4 38.195v128.205c0 21.197-17.19 38.4-38.4 38.4zM371.2 204.8c0-26.137-12.8-38.4-38.4-38.4h-66.726l-22.874-25.203h60.864l77.209-77.197v77.197h33.075c18.279 0 33.101 14.797 33.101 33.101v125.402c0 18.279-14.822 33.101-33.101 33.101l-43.149-0.205v-127.795z" />
<glyph unicode="&#xe617;" d="M268.8 243.2v68.301c0 6.899-0.231 8.499-7.117 8.499h-11.353c-6.887 0-7.13-1.6-7.13-8.499v-68.301h-67.981c-6.899 0-8.819-0.435-8.819-7.334v-11.008c0-6.912 1.92-7.258 8.819-7.258h67.981v-68.595c0-6.899 0.243-8.205 7.13-8.205h11.353c6.887 0 7.117 1.305 7.117 8.205v68.595h68.48c6.899 0 8.32 0.333 8.32 7.232v11.008c0 6.912-1.421 7.36-8.32 7.36h-68.48z" />
<glyph unicode="&#xe618;" d="M128.267 147.2v108.8h-19.2c-3.533 0-6.4-2.867-6.4-6.4v-140.8c0-3.533 2.867-6.4 6.4-6.4h217.6c3.52 0 6.4 2.867 6.4 6.4v32h-198.4c-3.533 0-6.4 2.867-6.4 6.4zM166.667 198.4v108.8h-19.2c-3.533 0-6.4-2.867-6.4-6.4v-147.2h224c3.52 0 6.4 2.867 6.4 6.4v32h-198.4c-3.533 0-6.4 2.867-6.4 6.4zM403.467 358.4h-217.6c-3.533 0-6.4-2.867-6.4-6.4v-147.2h224c3.52 0 6.4 2.867 6.4 6.4v140.8c0 3.533-2.88 6.4-6.4 6.4z" />
<glyph unicode="&#xe619;" d="M325.632 322.24h-44.697c-5.299 0-11.187-6.938-11.187-16.243v-32.281h55.872v-45.99h-55.872v-138.125h-52.749v138.138h-48.883v45.991h48.883v27.097c0 38.835 26.944 70.387 63.936 70.387h44.697v-48.973z" />
<glyph unicode="&#xe61a;" d="M367.040 267.725c-1.088 0.576-2.253 0.87-3.43 0.87-1.587 0-3.175-0.551-4.505-1.613l-103.207-88.141-102.989 88.141c-1.331 1.063-2.931 1.613-4.518 1.613-1.165 0-2.329-0.295-3.417-0.87-2.547-1.383-4.16-4.199-4.16-7.283v-111.386c0-4.505 3.392-8.154 7.577-8.154h215.207c4.199 0 7.591 3.648 7.591 8.154v111.386c0.013 3.085-1.6 5.901-4.147 7.283zM363.61 320h-215.207c-4.185 0-7.577-3.648-7.577-8.154v-6.784c0-2.573 1.139-5.018 3.059-6.553l107.482-92.391c1.344-1.063 2.931-1.587 4.531-1.587 1.587 0 3.175 0.525 4.505 1.587l107.738 92.48c1.92 1.523 3.059 3.955 3.059 6.541v6.707c0 4.505-3.392 8.154-7.591 8.154z" />
<glyph unicode="&#xe61b;" d="M394.931 330.931l-89.6 89.6c-1.203 1.19-2.829 1.869-4.531 1.869h-179.2c-3.533 0-6.4-2.867-6.4-6.4v-371.2c0-3.533 2.867-6.4 6.4-6.4h268.8c3.533 0 6.4 2.867 6.4 6.4v281.6c0 1.702-0.678 3.328-1.869 4.531zM186.982 307.2h72.627c3.533 0 6.4-2.867 6.4-6.4s-2.867-6.4-6.4-6.4h-72.627c-3.52 0-6.4 2.867-6.4 6.4s2.88 6.4 6.4 6.4zM332.237 89.6h-145.255c-3.52 0-6.4 2.867-6.4 6.4s2.88 6.4 6.4 6.4h145.255c3.533 0 6.4-2.867 6.4-6.4s-2.867-6.4-6.4-6.4zM332.237 140.8h-145.255c-3.52 0-6.4 2.867-6.4 6.4s2.88 6.4 6.4 6.4h145.255c3.533 0 6.4-2.867 6.4-6.4s-2.867-6.4-6.4-6.4zM332.237 192h-145.255c-3.52 0-6.4 2.867-6.4 6.4s2.88 6.4 6.4 6.4h145.255c3.533 0 6.4-2.867 6.4-6.4s-2.867-6.4-6.4-6.4zM332.237 243.2h-145.255c-3.52 0-6.4 2.867-6.4 6.4s2.88 6.4 6.4 6.4h145.255c3.533 0 6.4-2.867 6.4-6.4s-2.867-6.4-6.4-6.4zM300.8 326.4v89.6l89.6-89.6h-89.6z" />
<glyph unicode="&#xe61c;" d="M313.6 384h-115.2c-17.651 0-32-14.361-32-32v-243.2c0-17.639 14.349-32 32-32h115.2c17.651 0 32 14.361 32 32v243.2c0 17.638-14.349 32-32 32zM197.325 358.4h117.351c6.477 0 11.725-2.867 11.725-6.4s-5.248-6.4-11.725-6.4h-117.351c-6.477 0-11.725 2.867-11.725 6.4s5.248 6.4 11.725 6.4zM332.8 102.4h-153.6v217.6h153.6v-217.6z" />
<glyph unicode="&#xe61d;" d="M307.2 345.6h-102.4c-56.474 0-102.4-45.939-102.4-102.4s45.927-102.4 102.4-102.4h6.4v-44.8c0-2.586 1.549-4.928 3.955-5.913 0.781-0.32 1.625-0.486 2.445-0.486 1.664 0 3.303 0.653 4.531 1.869l49.319 49.331h35.75c56.448 0 102.4 45.939 102.4 102.4s-45.952 102.4-102.4 102.4z" />
<glyph unicode="&#xe61e;" d="M230.4 128c0-14.139-11.462-25.6-25.6-25.6s-25.6 11.462-25.6 25.6c0 14.139 11.462 25.6 25.6 25.6s25.6-11.462 25.6-25.6zM371.2 128c0-14.139-11.462-25.6-25.6-25.6s-25.6 11.462-25.6 25.6c0 14.139 11.462 25.6 25.6 25.6s25.6-11.462 25.6-25.6zM428.8 358.4h-32.755c-6.425 0-11.891-4.825-12.711-11.226l-4.288-34.381c-0.397-3.187-3.136-5.594-6.349-5.594h-219.097c-8.102 0-15.821-3.904-20.633-10.432-4.8-6.553-6.221-15.079-3.802-22.784l19.994-64c3.353-10.765 13.171-17.984 24.435-17.984h184.806c3.533 0 6.4-2.88 6.4-6.4 0-3.533-2.867-6.4-6.4-6.4h-179.2c-3.533 0-6.4-2.867-6.4-6.4s2.867-6.4 6.4-6.4h179.2c10.304 0 18.663 8.166 19.123 18.368 0 0.038 0.026 0.077 0.038 0.128v0 0.038l0.013 0.192 14.169 126.131 4.301 34.343h32.755c3.533 0 6.4 2.867 6.4 6.4s-2.88 6.4-6.4 6.4z" />
<glyph unicode="&#xe61f;" d="M140.8 262.4c0-10.604-8.596-19.2-19.2-19.2s-19.2 8.596-19.2 19.2c0 10.604 8.596 19.2 19.2 19.2s19.2-8.596 19.2-19.2zM294.4 300.8c-45.875 0-83.2-37.325-83.2-83.2s37.325-83.2 83.2-83.2 83.2 37.325 83.2 83.2-37.325 83.2-83.2 83.2zM294.4 160c-31.757 0-57.6 25.843-57.6 57.6s25.843 57.6 57.6 57.6 57.6-25.843 57.6-57.6-25.843-57.6-57.6-57.6zM408.986 332.8h-27.712l-15.053 25.817c-6.093 9.127-14.873 17.331-26.125 24.397l-1.562 0.986h-84.377l-1.561-0.986c-11.059-6.938-19.75-15.001-25.831-23.949l-24.73-26.265h-44.672l0.141 6.118c0 11.725-10.317 25.882-23.104 25.882h-12.8c-11.623 0-24.871-13.786-24.858-25.51l-0.409-6.938c-20.582-2.176-32.333-15.437-32.333-37.363v-167.68c0-23.475 13.978-36.864 39.578-37.709h305.063c25.382 0.845 39.36 14.233 39.36 37.709v173.491c0 22.131-12.032 32-39.014 32zM121.6 230.4c-17.651 0-32 14.349-32 32 0 17.639 14.349 32 32 32 17.638 0 32-14.361 32-32 0-17.651-14.362-32-32-32zM294.4 121.6c-52.941 0-96 43.059-96 96s43.059 96 96 96 96-43.059 96-96-43.059-96-96-96z" />
<glyph unicode="&#xe620;" d="M230.4 377.6v-32h-32c-3.533 0-6.4-2.88-6.4-6.4v-256c0-3.533 2.867-6.4 6.4-6.4h140.8c3.533 0 6.4 2.867 6.4 6.4v256c0 3.52-2.867 6.4-6.4 6.4h-32v32c0 3.52-2.867 6.4-6.4 6.4h-64c-3.533 0-6.4-2.88-6.4-6.4zM320 153.6v-51.2c0 0-2.867 0-6.4 0h-89.6c-3.533 0-6.4 0-6.4 0v51.2h102.4zM320 166.4h-102.4v51.2h102.4c0.371 0-0.358-0.064 0 0v-51.2zM230.4 281.6h89.6v-38.4c-0.358 0.077 0.371-12.8 0-12.8h-102.4v51.2h12.8z" />
<glyph unicode="&#xe621;" d="M403.2 358.4h-294.4c-3.533 0-6.4-2.867-6.4-6.4v-230.4c0-3.533 2.867-6.4 6.4-6.4h294.4c3.533 0 6.4 2.867 6.4 6.4v230.4c0 3.533-2.867 6.4-6.4 6.4zM236.8 153.6h-89.6c-3.533 0-6.4 2.867-6.4 6.4s2.867 6.4 6.4 6.4h89.6c3.533 0 6.4-2.867 6.4-6.4s-2.867-6.4-6.4-6.4zM236.8 179.2h-89.6c-3.533 0-6.4 2.867-6.4 6.4s2.867 6.4 6.4 6.4h89.6c3.533 0 6.4-2.867 6.4-6.4s-2.867-6.4-6.4-6.4zM236.8 204.8h-89.6c-3.533 0-6.4 2.867-6.4 6.4s2.867 6.4 6.4 6.4h89.6c3.533 0 6.4-2.867 6.4-6.4s-2.867-6.4-6.4-6.4zM236.8 230.4h-76.8c-3.533 0-6.4 2.867-6.4 6.4s2.867 6.4 6.4 6.4h76.8c3.533 0 6.4-2.867 6.4-6.4s-2.867-6.4-6.4-6.4zM352 153.6h-76.8c-3.533 0-6.4 2.867-6.4 6.4s2.867 6.4 6.4 6.4h76.8c3.533 0 6.4-2.867 6.4-6.4s-2.867-6.4-6.4-6.4zM364.8 179.2h-89.6c-3.533 0-6.4 2.867-6.4 6.4s2.867 6.4 6.4 6.4h89.6c3.533 0 6.4-2.867 6.4-6.4s-2.867-6.4-6.4-6.4zM364.8 204.8h-89.6c-3.533 0-6.4 2.867-6.4 6.4s2.867 6.4 6.4 6.4h89.6c3.533 0 6.4-2.867 6.4-6.4s-2.867-6.4-6.4-6.4zM364.8 230.4h-89.6c-3.533 0-6.4 2.867-6.4 6.4s2.867 6.4 6.4 6.4h89.6c3.533 0 6.4-2.867 6.4-6.4s-2.867-6.4-6.4-6.4zM384 275.2c0-3.533-2.867-6.4-6.4-6.4h-243.2c-3.533 0-6.4 2.867-6.4 6.4v38.4c0 3.533 2.867 6.4 6.4 6.4h243.2c3.533 0 6.4-2.867 6.4-6.4v-38.4z" />
<glyph unicode="&#xe622;" d="M383.424 234.010c-0.128 0.435-0.231 0.857-0.384 1.293-0.192 0.423-0.435 0.819-0.666 1.255-0.179 0.307-0.307 0.653-0.512 0.947-0.474 0.704-1.011 1.357-1.613 1.946l-76.787 76.8c-5.005 5.005-13.094 5.005-18.099 0s-5.005-13.094 0-18.099l54.95-54.951h-199.501c-7.078 0-12.8-5.721-12.8-12.8s5.721-12.8 12.8-12.8h199.501l-54.95-54.95c-5.005-5.005-5.005-13.094 0-18.099 2.496-2.496 5.773-3.75 9.050-3.75s6.553 1.255 9.050 3.75l76.787 76.8c0.601 0.589 1.139 1.255 1.613 1.945 0.205 0.295 0.333 0.64 0.512 0.947 0.231 0.423 0.474 0.819 0.666 1.255 0.166 0.423 0.269 0.845 0.384 1.293 0.115 0.358 0.256 0.729 0.32 1.113 0.333 1.651 0.333 3.353 0 5.005-0.064 0.384-0.205 0.743-0.32 1.101z" />
<glyph unicode="&#xe623;" d="M111.104 252.911c-2.719-1.123-4.487-3.782-4.445-6.717 0.029-2.934 1.841-5.566 4.588-6.631l119.414-46.445 208.981 195.504-328.539-135.71zM236.257 178.662l-0.144 0.144v-97.954c0-3.265 2.186-6.098 5.323-6.947 0.619-0.158 1.251-0.243 1.87-0.243 2.517 0 4.905 1.324 6.214 3.567l47.28 81.066 86.892-47.783c1.065-0.589 2.259-0.892 3.452-0.892 1.006 0 2.029 0.216 2.991 0.647 2.057 0.935 3.567 2.804 4.041 5.020l57.219 264.619-215.137-201.243z" horiz-adv-x="511" />
<glyph unicode="&#xe624;" d="M103.716 274.817v-25.38c92.499 0 164.975-75.266 164.975-171.319h25.38c0 110.291-83.629 196.7-190.355 196.7zM103.716 382.684v-25.38c156.547 0 279.187-122.627 279.187-279.187h25.38c0 170.785-133.794 304.567-304.567 304.567zM141.786 154.259c-20.99 0-38.071-17.082-38.071-38.070s17.082-38.070 38.071-38.070 38.071 17.081 38.071 38.070-17.081 38.070-38.071 38.070z" />
<glyph unicode="&#xe625;" d="M360.988 354.163h-205.647c-33.924 0-61.7-27.777-61.7-61.7v-123.375c0-33.925 27.776-61.7 61.688-61.7h205.647c33.925 0 61.688 27.776 61.688 61.7v123.375c0.012 33.925-27.75 61.7-61.675 61.7zM217.030 148.528v164.506l102.817-82.26-102.817-82.247z" horiz-adv-x="509" />
<glyph unicode="&#xe626;" d="M250.765 72.499h152.81v46.556c0 9.777-59.716 42.505-108.629 62.074v38.796c0 0 17.675 6.161 17.675 48.231 13.609 0 18.793 39.139-0.155 39.139 0 4.128 14.603 25.59 8.768 48.929-9.792 39.139-106.271 39.139-116.048 0-41.186 8.411-8.411-43.28-8.411-48.929-19.569 0-19.569-39.139 0-39.139 0-42.071 20.577-48.231 20.577-48.231v-38.796c-48.929-19.569-108.629-52.296-108.629-62.074v-46.556h142.041z" />
<glyph unicode="&#xe627;" d="M409.344 123.366l-43.161 151.001c-5.504 19.315-23.411 32.832-43.507 32.832h-35.392c8.32 8.141 13.517 19.469 13.517 32 0 24.704-20.096 44.8-44.8 44.8s-44.8-20.096-44.8-44.8c0-12.531 5.171-23.859 13.504-32h-35.405c-20.109 0-38.003-13.517-43.52-32.832l-43.136-151.001c-0.166-0.576-0.243-1.178-0.243-1.767v-38.4c0-3.533 2.867-6.4 6.4-6.4h294.4c3.533 0 6.4 2.867 6.4 6.4v38.4c0 0.589-0.089 1.19-0.256 1.767zM217.6 166.4h-6.4v64h6.4v-64zM243.533 166.4l-24.128 29.082c-0.896 1.037-1.434 2.918-1.638 2.918 0.423 0 0.96 2.841 1.638 3.533l23.437 28.467h8.397l-26.688-30.733 28.57-33.267h-9.587zM300.8 217.997c-6.4 3.149-10.304 4.736-17.113 4.736-6.963 0-12.416-2.406-16.87-7.193-4.467-4.8-6.553-11.034-6.553-18.663 0-7.923 2.125-14.131 6.247-18.624 4.122-4.48 8.87-6.72 16.013-6.72 5.069 0 11.878 0.973 11.878 2.969v17.498h-12.8v6.4h19.2v-27.776c-6.4-3.507-11.865-5.286-19.392-5.286-8.615 0-15.091 2.854-20.531 8.512-5.427 5.683-7.872 13.171-7.872 22.502 0 9.485 3.149 17.318 9.152 23.437 6.016 6.118 13.12 9.178 22.298 9.178 6.887 0 9.933-1.113 16.333-3.303v-7.667z" />
<glyph unicode="&#xe628;" d="M256 383.16c-84.234 0-152.761-68.538-152.761-152.76 0-84.235 68.525-152.761 152.761-152.761s152.76 68.525 152.76 152.761c0 84.222-68.525 152.761-152.761 152.761zM256 115.829c-63.166 0-114.57 51.392-114.57 114.571 0 63.166 51.404 114.571 114.57 114.571 63.179 0 114.57-51.404 114.57-114.571 0-63.179-51.392-114.571-114.57-114.571zM256.012 332.24v0c-32.551 0-61.499-15.39-80.135-39.208l29.304-48.845 50.831 88.053zM350.342 268.59h-57.591l51.379-88.996c8.669 14.971 13.71 32.296 13.71 50.806 0 13.506-2.699 26.377-7.498 38.19zM256.012 128.56c32.563 0 61.536 15.428 80.199 39.298l-28.769 49.8-51.43-89.097zM167.998 281.409c-8.745-15.021-13.838-32.423-13.838-51.009 0-13.519 2.698-26.389 7.499-38.19h59.869l-53.53 89.199zM344.066 281.32c-15.39 26.516-42.365 45.421-73.987 49.825l-28.757-49.825h102.744zM167.946 179.48c15.391-26.529 42.379-45.433 73.987-49.838l28.757 49.838h-102.744z" />
<glyph unicode="&#xe629;" d="M294.228 135.32l-12.946 18.7h-152.583v203.681h165.49v-132.888h0.012c8.72 0 16.906-3.399 23.067-9.548 0.127-0.14 0.623-0.649 0.739-0.789l1.642-1.909v145.135c0 14.042-11.419 25.46-25.46 25.46h-165.49c-14.054 0-25.46-11.418-25.46-25.46v-229.14c0-14.029 11.406-25.473 25.434-25.524l173.994 0.064c-4.914 9.013-8.44 18.077-8.44 25.46v6.76zM166.889 128.56c-3.526 0-6.364 2.865-6.364 6.365 0 3.514 2.839 6.365 6.364 6.365 3.5 0 6.364-2.851 6.364-6.365 0-3.5-2.864-6.365-6.364-6.365zM224.174 128.56h-38.19v12.73h38.19v-12.73zM243.269 128.56c-3.526 0-6.364 2.865-6.364 6.365 0 3.514 2.839 6.365 6.364 6.365 3.501 0 6.364-2.851 6.364-6.365 0-3.5-2.864-6.365-6.364-6.365zM406.889 88.663l-36.281 48.387v86.984c0 23.69-2.151 33.174-27.738 55.018l-0.026 0.013c-1.884 1.592-4.532 1.948-6.772 0.93-2.253-1.044-3.704-3.296-3.704-5.792v-96.443l-12.73 15.047v0.026l-11.355 13.443c-5.524 5.474-13.978 6.9-21.055 4.379-0.178-0.063-0.369-0.101-0.56-0.166-0.331-0.14-0.649-0.344-0.981-0.497-1.998-0.917-3.908-2.113-5.512-3.717-0.599-0.598-1.057-1.324-1.553-1.986-1.438-1.999-2.444-4.354-2.979-6.964-0.408-1.986-0.649-4.087-0.484-6.327 0.242-3.411 1.159-6.633 2.521-9.279 0.077-0.14 0.14-0.293 0.216-0.433 0.293-0.547 0.663-0.993 0.993-1.476 0.267-0.369 0.522-0.801 0.814-1.133l14.474-20.953 11.648-16.779c0.739-1.069 1.133-2.343 1.133-3.615v-8.771c0-5.576 3.82-14.627 10.452-25.46h0.013c3.998-6.479 8.377-12.589 11.724-17.046 1.502-1.986 3.017-3.984 4.659-6.022 1.196-1.515 3.042-2.394 4.978-2.394h63.778c3.514 0 6.365 2.851 6.365 6.365 0 1.858-0.789 3.5-2.036 4.659zM166.889 217.67h89.111v-12.731h-89.111v12.731zM166.889 243.131h89.111v-12.731h-89.111v12.731zM166.889 268.59h89.111v-12.731h-89.111v12.731zM166.889 294.050h89.111v-12.731h-89.111v12.731zM166.889 319.51h50.92v-12.731h-50.92v12.731z" />
<glyph unicode="&#xe62a;" d="M338.745 383.16h-165.49c-17.554 0-31.826-14.284-31.826-31.825v-241.871c0-17.541 14.27-31.825 31.826-31.825h165.49c17.541 0 31.825 14.284 31.825 31.825v241.871c0 17.541-14.284 31.825-31.825 31.825zM256 364.065c3.514 0 6.365-2.851 6.365-6.364s-2.851-6.365-6.365-6.365c-3.513 0-6.364 2.851-6.364 6.365s2.851 6.364 6.364 6.364zM256 96.734c-7.040 0-12.731 5.704-12.731 12.73 0 7.039 5.69 12.73 12.731 12.73 7.027 0 12.731-5.69 12.731-12.73 0-7.027-5.704-12.73-12.731-12.73zM345.111 134.925c0-3.514-2.851-6.365-6.365-6.365h-165.49c-3.513 0-6.364 2.851-6.364 6.365v203.681c0 3.513 2.851 6.364 6.364 6.364h165.49c3.514 0 6.365-2.851 6.365-6.364v-203.681z" />
<glyph unicode="&#xe62b;" d="M193.18 296.171l-6.149-24.372-14.233 19.088-14.124-0.751-20.702-187.182 55.208-30.188 182.865 25.012-25.873 198.392zM278.788 388.252c-38.169 0-38.169-29.111-38.169-29.111v-52.081h14.232v52.081c0 0 0 15.847 23.937 15.847s23.937-15.847 23.937-15.847v-52.081h14.233v52.081c0 0 0.973 29.112-38.168 29.112zM244.501 379.029c-34.288 0-34.288-26.153-34.288-26.153v-46.781h12.784v46.786c0 0 0 14.238 21.505 14.238s21.504-14.238 21.504-14.238v-46.781h12.788v46.781c0 0 0.875 26.146-34.293 26.146z" horiz-adv-x="514" />
<glyph unicode="&#xe62c;" d="M420.435 248.248c0 14.675-11.935 26.609-26.609 26.609h-83.392c5.668 15.393 15.313 46.313 9.966 65.419-8.315 29.629-25.664 31.931-30.786 31.931-12.44 0-22.179-10.617-22.179-24.174 0-49.346-44.291-106.436-73.174-106.436-3.672 0-6.651-2.981-6.651-6.651v-113.089c0-3.312 2.434-6.12 5.708-6.586 18.786-2.674 29.922-5.296 39.754-7.611 14.223-3.339 24.507-5.761 47.67-5.761h73.174c17.655 0 26.609 6.718 26.609 19.957 0 5.481-1.663 10.563-4.497 14.795 10.351 3.632 17.801 13.531 17.801 25.119 0 5.481-1.663 10.565-4.496 14.795 10.351 3.632 17.801 13.53 17.801 25.119 0 5.682-1.783 10.95-4.829 15.274 11.163 5.361 18.134 20.542 18.134 31.293zM174.301 261.552h-66.522c-3.672 0-6.651-2.98-6.651-6.651v-159.654c0-3.672 2.981-6.652 6.651-6.652h66.522c3.672 0 6.651 2.981 6.651 6.652v159.654c0 3.659-2.98 6.651-6.651 6.651zM147.693 115.203c-3.672 0-6.651 2.981-6.651 6.651s2.981 6.651 6.651 6.651 6.651-2.981 6.651-6.651-2.98-6.651-6.651-6.651z" horiz-adv-x="516" />
<glyph unicode="&#xe62d;" d="M352.647 191.741c-20.399 0-38.298-10.553-48.634-26.469l-90.243 45.128c2.371 6.404 3.569 13.118 3.569 20.001s-1.198 13.583-3.582 20l90.244 45.128c10.348-15.915 28.247-26.469 48.645-26.469 32.023 0 57.988 25.966 57.988 57.989s-25.966 57.988-57.988 57.988-57.988-25.966-57.988-57.988c0-7.035 1.315-13.75 3.608-19.987l-90.373-45.192c-10.631 16.469-28.659 26.521-48.542 26.521-31.971 0-57.989-26.018-57.989-57.989s26.017-57.989 57.989-57.989c19.883 0 37.911 10.038 48.542 26.521l90.373-45.192c-2.294-6.249-3.608-12.95-3.608-19.986 0-32.023 25.966-57.988 57.988-57.988s57.988 25.966 57.988 57.988-25.966 57.988-57.988 57.988z" />
<glyph unicode="&#xe62e;" d="M310.095 289.412l-73.766-73.766-34.424 34.425-24.589-24.589 59.012-59.012 98.353 98.353-24.589 24.589z" />
<glyph unicode="&#xe62f;" d="M342.029 362.182c-1.902 0.992-4.198 0.841-5.962-0.393-20.39-14.231-37.204-20.574-54.514-20.574-20.608 0-39.903 9.284-52.935 25.475-2.19 2.722-6.989 2.722-9.18 0-12.997-16.191-32.291-25.475-52.9-25.475-17.333 0-34.148 6.342-54.514 20.574-1.764 1.234-4.047 1.384-5.962 0.393-1.903-0.992-3.102-2.964-3.102-5.109v-170.82c0-0.519 0.069-1.038 0.207-1.534 0.716-2.606 18.752-64.259 119.326-92.445 0.508-0.15 1.026-0.219 1.556-0.219 0.518 0 1.049 0.069 1.556 0.219 100.587 28.173 118.612 89.838 119.326 92.445 0.138 0.495 0.208 1.015 0.208 1.534v170.82c0 2.145-1.2 4.117-3.115 5.109zM275.947 172.379h-103.792c-3.183 0-5.766 2.584-5.766 5.766 0 35.163 18.52 52.139 36.477 59.185-8.142 6.343-13.412 16.203-13.412 27.298 0 19.074 15.522 34.597 34.597 34.597s34.597-15.522 34.597-34.597c0-11.095-5.27-20.954-13.412-27.298 17.956-7.046 36.477-24.022 36.477-59.185 0-3.195-2.584-5.766-5.766-5.766z" horiz-adv-x="448" />
<glyph unicode="&#xe630;" d="M428.517 223.385h-322.687c-3.873 0-7.016 3.142-7.016 7.016s3.142 7.016 7.016 7.016h322.687c3.872 0 7.015-3.143 7.015-7.016s-3.142-7.016-7.015-7.016zM281.205 69.056c-1.642 0-3.297 0.575-4.63 1.753l-175.374 154.328c-1.516 1.334-2.385 3.241-2.385 5.261s0.87 3.929 2.385 5.261l175.374 154.328c2.89 2.581 7.338 2.273 9.892-0.631 2.568-2.904 2.286-7.338-0.631-9.892l-169.383-149.068 169.383-149.068c2.919-2.553 3.199-6.987 0.631-9.892-1.389-1.572-3.311-2.385-5.261-2.385z" horiz-adv-x="535" />
<glyph unicode="&#xe631;" d="M105.831 237.416h322.687c3.858 0 7.015-3.143 7.015-7.016s-3.156-7.016-7.015-7.016h-322.687c-3.873 0-7.016 3.143-7.016 7.016s3.142 7.016 7.016 7.016zM253.145 391.744c1.642 0 3.297-0.575 4.63-1.754l175.374-154.328c1.515-1.333 2.385-3.241 2.385-5.261s-0.87-3.929-2.385-5.261l-175.374-154.328c-2.89-2.581-7.338-2.273-9.892 0.632-2.567 2.904-2.286 7.338 0.631 9.892l169.383 149.068-169.383 149.067c-2.919 2.553-3.199 6.987-0.631 9.892 1.389 1.571 3.311 2.385 5.261 2.385z" horiz-adv-x="535" />
<glyph unicode="&#xe632;" d="M212.766 64.658h86.474c3.978 0 7.207 3.228 7.207 7.207v86.474c0 3.979-3.228 7.207-7.207 7.207h-86.475c-3.963 0-7.207-3.228-7.207-7.207v-86.474c0-3.978 3.242-7.207 7.207-7.207zM328.062 64.658h86.475c3.978 0 7.207 3.228 7.207 7.207v86.474c0 3.979-3.228 7.207-7.207 7.207h-86.475c-3.963 0-7.207-3.228-7.207-7.207v-86.474c0-3.978 3.242-7.207 7.207-7.207zM97.463 64.658h86.475c3.979 0 7.207 3.228 7.207 7.207v86.474c0 3.979-3.227 7.207-7.207 7.207h-86.475c-3.963 0-7.206-3.228-7.206-7.207v-86.474c0-3.978 3.242-7.207 7.206-7.207zM212.766 179.957h86.474c3.978 0 7.207 3.228 7.207 7.207v86.475c0 3.979-3.228 7.207-7.207 7.207h-86.475c-3.963 0-7.207-3.227-7.207-7.207v-86.474c0-3.978 3.242-7.207 7.207-7.207zM328.062 179.957h86.475c3.978 0 7.207 3.228 7.207 7.207v86.475c0 3.979-3.228 7.207-7.207 7.207h-86.475c-3.963 0-7.207-3.227-7.207-7.207v-86.474c0-3.978 3.242-7.207 7.207-7.207zM97.463 179.957h86.475c3.979 0 7.207 3.228 7.207 7.207v86.475c0 3.979-3.227 7.207-7.207 7.207h-86.475c-3.963 0-7.206-3.227-7.206-7.207v-86.474c0-3.978 3.242-7.207 7.206-7.207zM212.766 295.256h86.474c3.978 0 7.207 3.228 7.207 7.207v86.474c0 3.979-3.228 7.207-7.207 7.207h-86.475c-3.963 0-7.207-3.226-7.207-7.207v-86.474c0-3.979 3.242-7.207 7.207-7.207zM328.062 295.256h86.475c3.978 0 7.207 3.228 7.207 7.207v86.474c0 3.979-3.228 7.207-7.207 7.207h-86.475c-3.963 0-7.207-3.226-7.207-7.207v-86.474c0-3.979 3.242-7.207 7.207-7.207zM97.463 295.256h86.475c3.979 0 7.207 3.228 7.207 7.207v86.474c0 3.979-3.227 7.207-7.207 7.207h-86.475c-3.963 0-7.206-3.226-7.206-7.207v-86.474c0-3.979 3.242-7.207 7.206-7.207z" />
<glyph unicode="&#xe633;" d="M104.805 79.204c1.397-1.397 3.222-2.081 5.046-2.081 1.811 0 3.635 0.685 5.031 2.081l25.202 25.202 5.046-5.031c1.383-1.411 3.207-2.096 5.031-2.096s3.649 0.699 5.046 2.096c2.78 2.78 2.78 7.284 0 10.063l-20.17 20.17c-2.78 2.765-7.299 2.765-10.078 0-2.78-2.793-2.78-7.298 0-10.079l5.046-5.046-25.202-25.188c-2.766-2.793-2.766-7.313 0-10.092zM135.052 149.763l40.311-40.326c1.34-1.325 3.15-2.081 5.046-2.081 1.882 0 3.691 0.755 5.031 2.081l136.998 136.998-50.389 50.389-136.998-136.984c-2.78-2.793-2.78-7.284 0-10.079zM332.517 256.529l74.665 74.664c1.34 1.354 2.081 3.15 2.081 5.031 0 1.895-0.755 3.72-2.081 5.046l-40.311 40.311c-2.793 2.793-7.298 2.793-10.079 0l-5.545-5.544c-5.788 3.849-12.572 5.915-19.671 5.915-9.522 0-18.474-3.706-25.202-10.448l-80.623-80.623c-2.78-2.793-2.78-7.298 0-10.078 1.397-1.397 3.221-2.096 5.046-2.096s3.649 0.699 5.031 2.096l80.651 80.623c6.315 6.329 16.278 7.641 24.204 4.062l-58.556-58.557 50.389-50.402z" />
<glyph unicode="&#xe634;" d="M249.757 283.796v57.531l-146.862-96.901 146.862-96.901v57.017c58.771-0.029 113.279-2.78 159.349-79.339 0 48.636-8.61 157.239-159.349 158.593z" />
<glyph unicode="&#xe635;" d="M164.382 226.782l148.167-148.167c1.993-1.993 5.242-1.993 7.224 0l25.546 25.546c1.993 1.993 1.993 5.231 0 7.224l-119.004 119.015 119.014 119.004c1.993 1.993 1.993 5.231 0 7.224l-25.546 25.546c-1.002 1.002-2.319 1.512-3.618 1.512s-2.616-0.511-3.618-1.503l-148.167-148.167c-1.993-1.993-1.993-5.242 0-7.235z" />
<glyph unicode="&#xe636;" d="M347.697 234.018l-148.167 148.167c-1.993 1.993-5.232 1.993-7.224 0l-25.546-25.546c-1.993-1.993-1.993-5.231 0-7.225l119.004-119.014-119.014-119.004c-1.993-1.993-1.993-5.231 0-7.224l25.546-25.546c1.012-1.002 2.32-1.512 3.618-1.512 1.308 0 2.616 0.51 3.617 1.503l148.167 148.168c1.993 1.993 1.993 5.242 0 7.234z" />
<glyph unicode="&#xe637;" d="M325.748 332.087h-139.456c-44.858 0-81.349-36.492-81.349-81.349s36.492-81.349 81.349-81.349h5.085v-35.59c0-2.057 1.238-3.904 3.138-4.701 0.627-0.262 1.29-0.384 1.946-0.384 1.325 0 2.62 0.517 3.596 1.488l39.182 39.188h86.509c44.858 0 81.349 36.492 81.349 81.349s-36.492 81.349-81.349 81.349z" horiz-adv-x="513" />
<glyph unicode="&#xe638;" d="M369.807 250.519l-213.095 131.371c-2.785 1.211-5.743 1.787-8.701 1.787-4.187 0-8.393-1.191-12.042-3.591-6.146-4.033-9.853-10.928-9.853-18.304v-262.763c0-7.376 3.707-14.251 9.853-18.284 3.649-2.381 7.856-3.611 12.042-3.611 2.958 0 5.916 0.576 8.701 1.825l213.076 131.372c8.009 3.457 13.195 11.39 13.195 20.109s-5.185 16.632-13.175 20.090z" horiz-adv-x="510" />
<glyph unicode="&#xe639;" d="M365.891 235.234l-171.396 146.909c-1.29 1.111-2.9 1.648-4.637 1.52-1.686-0.128-3.257-0.919-4.369-2.21l-28.267-32.981c-2.299-2.683-1.981-6.707 0.702-9.005l127.213-109.087-127.213-109.036c-2.683-2.312-3.002-6.336-0.702-9.005l28.268-32.981c1.277-1.482 3.054-2.236 4.854-2.236 1.47 0 2.938 0.498 4.151 1.533l171.396 146.871c1.418 1.226 2.236 3.002 2.236 4.854 0 1.877-0.817 3.641-2.236 4.854z" horiz-adv-x="509" />
<glyph unicode="&#xe63a;" d="M219.213 370.791c10.701-10.445 115.251-120.218 115.251-120.218 5.735-5.581 8.576-12.877 8.576-20.173s-2.841-14.592-8.576-20.173c0 0-104.55-109.773-115.251-120.192-10.701-10.445-29.927-11.161-41.369 0-11.417 11.136-12.314 26.675 0 40.32l95.949 100.045-95.923 100.045c-12.314 13.67-11.417 29.209 0 40.345s30.669 10.445 41.344 0z" />
<glyph unicode="&#xe63b;" d="M256 77.123c-84.519 0-153.277 68.757-153.277 153.277s68.757 153.277 153.277 153.277c84.519 0 153.277-68.757 153.277-153.277s-68.757-153.277-153.277-153.277zM256 370.903c-77.468 0-140.503-63.036-140.503-140.503s63.036-140.503 140.503-140.503 140.503 63.036 140.503 140.503-63.036 140.503-140.503 140.503zM211.831 146.698c-1.993 0-3.959 0.919-5.199 2.67-2.056 2.874-1.38 6.86 1.482 8.915l101.291 72.359-101.533 79.78c-2.772 2.184-3.257 6.195-1.072 8.966 2.171 2.759 6.169 3.271 8.966 1.072l108.226-85.042c1.584-1.239 2.49-3.155 2.44-5.159s-1.034-3.883-2.67-5.058l-108.226-77.316c-1.125-0.793-2.427-1.188-3.704-1.188z" />
<glyph unicode="&#xe63c;" d="M256 358.105l33.797-95.773h94.61l-78.401-61.618 2.849-8.533 30.553-91.66-83.408 61.157-83.383-61.157 33.4 100.192-7.089 5.543-71.324 56.074h94.609l3.002 8.519 30.784 87.252zM256 383.677c-2.708 0-5.122-1.699-6.016-4.254l-36.825-104.317h-104.049c-2.721 0-5.135-1.711-6.029-4.291s-0.051-5.428 2.095-7.102l85.874-67.48-36.901-110.691c-0.881-2.631 0.051-5.543 2.299-7.178 1.111-0.83 2.427-1.239 3.756-1.239s2.657 0.408 3.781 1.239l92.017 67.48 92.043-67.48c1.111-0.83 2.427-1.239 3.755-1.239s2.644 0.408 3.768 1.226c2.248 1.649 3.18 4.547 2.299 7.178l-36.901 110.692 85.873 67.48c2.146 1.674 2.988 4.522 2.094 7.102s-3.308 4.304-6.041 4.304h-104.049l-36.812 104.317c-0.919 2.554-3.32 4.254-6.029 4.254v0z" />
<glyph unicode="&#xe63d;" d="M292.787 370.791c-10.701-10.445-115.251-120.218-115.251-120.218-5.734-5.581-8.576-12.877-8.576-20.173s2.841-14.592 8.576-20.173c0 0 104.551-109.773 115.251-120.192 10.701-10.445 29.926-11.161 41.37 0 11.418 11.136 12.313 26.675 0 40.32l-95.949 100.045 95.923 100.045c12.313 13.67 11.418 29.209 0 40.345s-30.669 10.445-41.344 0z" />
<glyph unicode="&#xe63e;" d="M408.933 270.813c-0.907 2.58-3.308 4.291-6.041 4.291h-104.049l-36.812 104.317c-0.919 2.554-3.32 4.253-6.029 4.253s-5.122-1.699-6.016-4.253l-36.825-104.317h-104.049c-2.721 0-5.135-1.711-6.029-4.291s-0.051-5.428 2.095-7.102l85.874-67.48-36.901-110.691c-0.881-2.631 0.051-5.543 2.299-7.178 2.236-1.635 5.288-1.635 7.536 0.013l92.017 67.467 92.043-67.48c1.111-0.83 2.427-1.239 3.755-1.239s2.644 0.408 3.768 1.226c2.248 1.649 3.18 4.547 2.299 7.178l-36.901 110.692 85.874 67.48c2.146 1.687 2.988 4.523 2.094 7.115z" />
<glyph unicode="&#xe63f;" d="M204.907 383.677v-76.842c1.673 0.090 3.32 0.204 5.046 0.204 29.187 0 51.347-13.22 56.47-33.67 1.392-5.569 1.66-11.407 1.072-17.423h33.209v-60.583l58.169 60.583h50.402v127.731h-204.369zM276.221 318.751h-13.834v13.834h13.834v-13.834zM320.401 318.751h-13.834v13.834h13.834v-13.834zM364.571 318.751h-13.834v13.834h13.834v-13.834zM306.466 118.034c-5.493 12.493-47.26 30.923-69.639 40.043v17.856c1.099 0.907 2.312 2.146 3.524 3.73 0.038 0.051 0.090 0.115 0.128 0.178 0.524 0.69 1.034 1.457 1.546 2.299 0.141 0.217 0.268 0.435 0.395 0.651 0.435 0.754 0.856 1.558 1.266 2.414 0.141 0.306 0.293 0.613 0.435 0.933 0.422 0.919 0.804 1.942 1.188 3.014 0.102 0.293 0.217 0.549 0.32 0.843 0.447 1.392 0.869 2.887 1.239 4.497 0.077 0.332 0.141 0.74 0.204 1.060 0.281 1.315 0.524 2.67 0.728 4.113 0.102 0.651 0.167 1.366 0.242 2.057 0.179 1.622 0.357 3.271 0.446 5.084 0.907 0.613 1.737 1.392 2.517 2.274 0.192 0.204 0.37 0.396 0.536 0.613 0.767 0.933 1.482 1.954 2.082 3.129 0.013 0.013 0.025 0.026 0.025 0.039 0.089 0.166 0.153 0.37 0.231 0.536 1.686 3.5 2.67 7.842 2.67 12.071 0 1.507-0.166 2.925-0.384 4.317-0.063 0.357-0.153 0.74-0.243 1.112-0.217 0.996-0.499 1.942-0.83 2.836-0.129 0.332-0.255 0.665-0.395 0.983-0.446 1.022-0.983 1.967-1.596 2.822-0.064 0.102-0.115 0.217-0.192 0.306-0.754 0.996-1.609 1.877-2.567 2.619 0.511 1.226 1.060 2.657 1.596 4.176 0.716 1.993 1.29 3.947 1.762 5.85 0.115 0.484 0.231 0.983 0.332 1.47 1.393 6.502 1.43 12.555-0.013 18.304-3.627 14.587-20.934 24-44.055 24-2.082 0-4.113-0.102-6.118-0.255-6.029-0.484-12.287-1.724-17.971-3.896-0.038-0.013-0.077-0.025-0.128-0.038-1.277-0.499-2.49-1.125-3.717-1.711-1.839-0.919-3.577-1.916-5.148-3.014-0.179-0.141-0.395-0.255-0.588-0.395-1.060-0.766-1.993-1.622-2.925-2.478-0.345-0.332-0.702-0.639-1.034-0.983-0.766-0.779-1.443-1.61-2.095-2.452-0.817-1.072-1.649-2.147-2.286-3.36-1.622 0.077-2.964-0.089-4.279-0.306-0.549-0.089-1.112-0.192-1.622-0.32-0.881-0.242-1.686-0.524-2.427-0.869-0.345-0.166-0.74-0.32-1.048-0.499-0.74-0.422-1.38-0.894-1.942-1.392-0.192-0.167-0.435-0.32-0.6-0.485-0.651-0.639-1.201-1.303-1.622-1.942-0.013-0.025-0.051-0.051-0.064-0.077-0.025-0.038-0.025-0.089-0.051-0.129-0.588-0.919-1.034-1.891-1.354-2.912-0.102-0.306-0.141-0.626-0.23-0.919-0.192-0.804-0.37-1.622-0.446-2.477-0.038-0.32-0.051-0.639-0.051-0.958-0.038-0.894-0.025-1.801 0.039-2.721 0.025-0.281 0.051-0.549 0.077-0.83 0.115-1.022 0.281-2.070 0.511-3.117 0.025-0.167 0.064-0.345 0.102-0.524 1.15-5.135 3.386-10.333 5.288-14.599-1.112-0.779-2.121-1.724-3.014-2.798-0.115-0.129-0.217-0.281-0.332-0.422-0.702-0.894-1.303-1.891-1.839-2.951-0.141-0.268-0.306-0.499-0.435-0.779-0.536-1.175-0.933-2.452-1.251-3.794-0.115-0.435-0.192-0.881-0.281-1.341-0.256-1.443-0.46-2.925-0.46-4.508 0-1.636 0.179-3.219 0.484-4.752 0.025-0.115 0.038-0.243 0.064-0.37 1.009-4.714 3.398-8.75 6.821-11.253l0.473-0.346c0.613-0.396 1.226-0.766 1.877-1.072 0.115-1.916 0.32-3.666 0.549-5.39 0.077-0.562 0.141-1.136 0.23-1.673 0.256-1.635 0.562-3.18 0.907-4.599 0.038-0.166 0.064-0.32 0.102-0.473 0.869-3.41 1.953-6.259 3.168-8.686l0.013-0.013c2.44-4.853 5.326-7.83 7.664-9.656v-17.652c-22.365-9.12-64.133-27.551-69.614-40.043-0.038-0.063-0.090-0.128-0.115-0.204-0.332-0.817-0.524-1.622-0.524-2.389v-38.319h204.369v38.319c0 0.766-0.192 1.572-0.524 2.401-0.026 0.063-0.077 0.128-0.102 0.192z" />
<glyph unicode="&#xe640;" d="M162.186 123.361l-54.624 54.625 54.63 54.63 54.625-54.627-54.63-54.63zM497.759 258.61c0-43.535-35.293-78.829-78.829-78.829h-332.55c-43.535 0-78.829 35.296-78.829 78.829s35.294 78.829 78.829 78.829h332.55c43.534 0 78.829-35.293 78.829-78.829z" horiz-adv-x="507" />
</font>
</defs>
</svg>
