<?xml version="1.0" standalone="no"?>
<!DOCTYPE svg PUBLIC "-//W3C//DTD SVG 1.1//EN" "http://www.w3.org/Graphics/SVG/1.1/DTD/svg11.dtd" >
<svg xmlns="http://www.w3.org/2000/svg">
<metadata>
Created by FontPrep 20130207 at Mon Jun  9 13:33:34 2014
 By Aleksander Windak
Copyright (c) 2006 The Hoefler Type Foundry, Inc., dba Hoefler &#38; Frere-Jones. All Rights Reserved.
</metadata>
<defs>
<font id="a374d9526f1512e89d9a14ae32cfc900" horiz-adv-x='1024' >
  <font-face 
    font-family="Vitesse-Book"
    font-weight="325"
    font-stretch="normal"
    units-per-em="2048"
    panose-1="0 0 0 0 0 0 0 0 0 0"
    ascent="1638"
    descent="-410"
    x-height="1096"
    cap-height="1434"
    bbox="-74 -618 2073 2107"
    underline-thickness="102"
    underline-position="-102"
    unicode-range="U+0020-2212"
  />
<missing-glyph horiz-adv-x="1015" 
d="M508 492l-367 -799h733zM918 1384l-353 -770l353 -770v1540zM98 -156l353 770l-353 770v-1540zM141 1536l367 -799l366 799h-733zM-4 -410v2048h1024v-2048h-1024z" />
    <glyph glyph-name="fi" unicode="fi" horiz-adv-x="1396" 
d="M670 1346h-146q-57 0 -82 -24t-24 -144v-82h233v-131h-231v-836h184v-129h-512v129h180v836h-180v131h180v86q0 182 56 237t166 56h176v-129zM1327 0h-508v129h185v836h-185v131h332v-967h176v-129zM981 1286v197h176v-197h-176z" />
    <glyph glyph-name="fl" unicode="fl" horiz-adv-x="1376" 
d="M670 1346h-146q-57 0 -82 -24t-24 -144v-82h233v-131h-231v-836h184v-129h-512v129h180v836h-180v131h180v86q0 182 56 237t166 56h176v-129zM1311 0h-512v129h186v1214h-186v132h331v-1346h181v-129z" />
    <glyph glyph-name=".notdef" horiz-adv-x="1015" 
d="M508 492l-367 -799h733zM918 1384l-353 -770l353 -770v1540zM98 -156l353 770l-353 770v-1540zM141 1536l367 -799l366 799h-733zM-4 -410v2048h1024v-2048h-1024z" />
    <glyph glyph-name=".null" horiz-adv-x="0" 
 />
    <glyph glyph-name="nonmarkingreturn" horiz-adv-x="681" 
 />
    <glyph glyph-name="space" unicode=" " horiz-adv-x="524" 
 />
    <glyph glyph-name="exclam" unicode="!" horiz-adv-x="581" 
d="M199 207h184v-207h-184v207zM195 1434h194v-76l-55 -948h-70l-69 948v76z" />
    <glyph glyph-name="quotedbl" unicode="&#x22;" horiz-adv-x="815" 
d="M489 1434h207v-39l-61 -488h-84l-62 488v39zM119 1434h207v-39l-62 -488h-84l-61 488v39z" />
    <glyph glyph-name="numbersign" unicode="#" horiz-adv-x="1540" 
d="M610 946l-100 -426h418l102 426h-420zM221 1073h281l88 361h145l-88 -361h408l88 361h145l-88 -361h252v-133h-283l-100 -414h250v-133h-283l-94 -393h-145l96 393h-408l-96 -393h-145l94 393h-250v133h283l100 414h-250v133z" />
    <glyph glyph-name="dollar" unicode="$" horiz-adv-x="1357" 
d="M614 1296h-129q-83 0 -119 -36t-36 -213q0 -94 7 -132t33 -63t124 -35l120 -12v491zM739 137h148q82 0 119 36t36 220q0 100 -7 138t-33 64t-123 36l-140 12v-506zM743 -184h-133v184h-161q-158 0 -220 61q-41 41 -57 113t-18 258h157q3 -141 11 -191t34 -77t113 -27h145
v518l-161 17q-158 14 -204 61q-47 47 -61 111t-14 198q0 135 19 209q18 74 63 119q63 63 215 64h139v163h133v-163h136q156 0 215 -60q43 -42 59 -112t18 -250h-155q-2 219 -39 252q-31 33 -113 32h-125v-503l181 -17q156 -14 202 -60t60 -113q16 -67 16 -208t-18 -214
t-64 -118q-63 -63 -211 -63h-162v-184z" />
    <glyph glyph-name="percent" unicode="%" horiz-adv-x="1716" 
d="M1577 362q0 -146 -16 -212t-56 -101q-49 -49 -155 -49h-103q-106 0 -155 49q-72 67 -72 313t72 314q49 49 155 49h103q106 0 155 -49q39 -35 55 -102t17 -212zM1264 111h69q55 0 84 24q33 33 33 227t-33 228q-29 25 -84 24h-69q-57 0 -82 -24q-35 -31 -35 -228t35 -227
q25 -24 82 -24zM430 -6h-129l518 756l467 690h131l-516 -752zM696 1071q0 -145 -16 -212t-61 -109t-148 -41h-102q-106 0 -156 49q-39 36 -55 102t-17 211q0 145 17 212q16 67 55 101q49 49 156 50h102q101 0 147 -42t62 -110q16 -66 16 -211zM455 819q57 0 82 25
q35 32 35 228t-35 226q-25 25 -82 25h-70q-57 0 -87 -29q-30 -30 -30 -224t30 -222t87 -29h70z" />
    <glyph glyph-name="ampersand" unicode="&#x26;" horiz-adv-x="1474" 
d="M571 131q59 0 88 15t62 63l90 133q-68 80 -189 216q-122 136 -130 144l-64 -14q-78 -12 -111 -49t-33 -189t11 -203q10 -52 41 -84t151 -32h84zM674 1434h131q147 0 195 -48t64 -122q15 -72 15 -228h-153q0 203 -35 236q-27 29 -111 28h-94q-94 0 -125 -32t-31 -180
q0 -150 22 -201t85 -121l248 -287h14l207 340h237v-139h-151l-205 -313l205 -228h164v-139h-248l-199 227h-12l-68 -104q-47 -69 -95 -97t-132 -28h-147q-176 0 -244 68q-45 48 -63 124t-17 231q0 155 12 215t61 108t214 71q-45 79 -45 229t14 219t55 109q62 62 232 62z" />
    <glyph glyph-name="quotesingle" unicode="'" horiz-adv-x="444" 
d="M119 1434h207v-39l-62 -488h-84l-61 488v39z" />
    <glyph glyph-name="parenleft" unicode="(" horiz-adv-x="790" 
d="M201 563q0 313 16 428q12 74 73 175q60 101 204 288h114q-205 -350 -223 -442q-20 -117 -20 -449t20 -448q18 -92 223 -443h-114q-144 186 -204 288t-73 175q-16 115 -16 428z" />
    <glyph glyph-name="parenright" unicode=")" horiz-adv-x="790" 
d="M590 563q0 -326 -19 -428q-10 -74 -70 -173t-204 -290h-117q206 342 226 447t20 445t-20 444t-226 446h117q143 -190 203 -290t71 -173q19 -102 19 -428z" />
    <glyph glyph-name="asterisk" unicode="*" horiz-adv-x="974" 
d="M723 1364l-162 -213l-53 31l104 245zM846 1149v-127l-266 33v61zM723 807l-111 -64l-104 246l53 31zM252 1364l113 63l104 -245l-55 -31zM129 1149l266 -33v-61l-266 -33v127zM252 807l162 213l55 -31l-104 -246z" />
    <glyph glyph-name="plus" unicode="+" horiz-adv-x="1052" 
d="M594 1143v-332h332v-135h-332v-332h-135v332h-332v135h332v332h135z" />
    <glyph glyph-name="comma" unicode="," horiz-adv-x="438" 
d="M121 215h203v-207q0 -76 -45 -127l-170 -200l-58 45l139 200q14 23 15 58v16h-84v215z" />
    <glyph glyph-name="hyphen" unicode="-" horiz-adv-x="845" 
d="M713 575h-578v152h578v-152z" />
    <glyph glyph-name="period" unicode="." horiz-adv-x="432" 
d="M117 215h198v-215h-198v215z" />
    <glyph glyph-name="slash" unicode="/" horiz-adv-x="960" 
d="M76 -328h-150l836 1782h149z" />
    <glyph glyph-name="zero" unicode="0" horiz-adv-x="1400" 
d="M535 141h331q102 0 144 37q31 31 44 135q13 103 13 403t-13 404t-44 135q-41 37 -144 37h-331q-107 0 -141 -34t-47 -138t-13 -403t13 -403t47 -139q34 -34 141 -34zM877 1434q178 0 242 -64t88 -193q24 -128 24 -460t-24 -460q-25 -129 -89 -193t-241 -64h-353
q-180 0 -248 70q-61 59 -83 186q-23 127 -23 461t23 461q23 128 87 192t244 64h353z" />
    <glyph glyph-name="one" unicode="1" horiz-adv-x="954" 
d="M602 135h272v-135h-718v135h295v1153l-271 -98l-45 131l305 115h162v-1301z" />
    <glyph glyph-name="two" unicode="2" horiz-adv-x="1351" 
d="M1171 1081q0 -117 -13 -171t-50 -99q-45 -59 -197 -121l-440 -174q-78 -35 -120 -76t-42 -190v-113h733v309h150v-446h-1034v231q0 135 17 199t69 116t174 101l444 176q78 33 115 76t37 183t-43 178q-31 33 -119 32h-344q-84 0 -121 -37t-39 -243h-158q2 170 20 242
t64 116q61 63 218 64h378q158 0 224 -66q43 -42 60 -106t17 -181z" />
    <glyph glyph-name="three" unicode="3" horiz-adv-x="1325" 
d="M866 1434q145 0 205 -60q86 -86 86 -307q0 -153 -46 -223t-142 -99v-2q111 -23 155 -97t45 -238q0 -260 -86 -347q-61 -61 -209 -61h-419q-156 0 -217 59q-47 49 -66 128q-18 79 -22 259h157q8 -229 45 -266t129 -37h353q96 0 127 31q43 42 43 230t-48 239
q-35 35 -131 35h-321v133h309q96 0 137 41t41 200t-45 208q-33 31 -123 30h-329q-92 0 -127 -30q-41 -43 -50 -246h-157q4 152 22 232t72 134q54 53 209 54h403z" />
    <glyph glyph-name="four" unicode="4" horiz-adv-x="1366" 
d="M850 551v758h-35l-547 -758h582zM999 1434v-883h252v-125h-252v-295h252v-131h-676v131h275v295h-754v59q0 55 35 105l557 774q49 70 109 70h202z" />
    <glyph glyph-name="five" unicode="5" horiz-adv-x="1329" 
d="M838 141q86 0 128 42t42 259q0 216 -42 260t-137 43h-225q-141 0 -291 -98l-137 49l49 738h912v-144h-770l-35 -502h14q68 56 125 76t154 21h233q162 0 227 -66q49 -49 67 -127t19 -246q0 -168 -19 -248t-67 -128q-70 -70 -221 -70h-420q-156 0 -208 51t-68 121t-18 242
h159q2 -201 39 -242q31 -31 119 -31h371z" />
    <glyph glyph-name="six" unicode="6" horiz-adv-x="1372" 
d="M551 686q-96 0 -217 -68q2 -236 15 -320t50 -121q37 -36 138 -36h342q92 0 131 39q47 43 47 236q0 115 -10 162t-33 71q-41 37 -144 37h-319zM856 1292h-317q-97 0 -135 -37t-54 -143t-16 -395v-6q94 71 143 93t119 21h305q168 0 236 -67q45 -45 63 -116t18 -219
t-21 -224q-22 -76 -71 -125q-72 -74 -233 -74h-383q-160 0 -226 68t-90 192t-24 448t27 455t88 195q76 76 260 76h340q154 0 215 -62q45 -44 62 -112t20 -224h-160q-4 184 -40 220t-126 36z" />
    <glyph glyph-name="seven" unicode="7" horiz-adv-x="1269" 
d="M297 1300v-299h-150v433h1022v-105l-639 -1329h-168l631 1300h-696z" />
    <glyph glyph-name="eight" unicode="8" horiz-adv-x="1347" 
d="M494 137h360q92 0 134 42t42 227t-51 233q-41 41 -137 41h-338q-94 0 -135 -41q-51 -47 -51 -233t42 -227q42 -42 134 -42zM332 1053q0 -158 49 -203q37 -41 137 -41h311q100 0 138 41q49 49 49 205t-49 205q-33 37 -127 36h-332q-94 1 -127 -36q-49 -49 -49 -207z
M868 1434q156 0 226 -70q45 -45 65 -113q21 -67 21 -201t-46 -204t-139 -101v-2q106 -25 154 -103q47 -79 47 -245q0 -233 -90 -323q-72 -72 -227 -72h-410q-156 0 -227 72q-90 90 -90 323q0 166 47 245t153 103v2q-92 31 -138 101t-46 204t20 202t66 112q70 70 225 70h389z
" />
    <glyph glyph-name="nine" unicode="9" horiz-adv-x="1372" 
d="M821 719q92 0 217 65q-2 254 -15 344t-50 127t-137 37h-340q-94 0 -138 -43t-43 -205t11 -211q10 -48 34 -75q39 -39 150 -39h311zM489 141h345q94 0 139 41q33 33 48 135t17 375q-94 -68 -143 -90t-119 -20h-287q-184 0 -253 69q-45 45 -64 118q-18 73 -18 229t21 235
q22 78 71 127q72 74 233 74h383q160 0 226 -68t91 -192q23 -124 23 -448t-26 -456t-96 -200q-69 -70 -253 -70h-366q-152 0 -217 63q-43 41 -60 109q-16 68 -18 215h158q4 -109 12 -149t31 -62q35 -35 122 -35z" />
    <glyph glyph-name="colon" unicode=":" horiz-adv-x="456" 
d="M145 1096h197v-215h-197v215zM145 215h197v-215h-197v215z" />
    <glyph glyph-name="semicolon" unicode=";" horiz-adv-x="444" 
d="M125 215h203v-207q0 -74 -47 -127l-170 -200l-58 45l140 200q16 27 16 58v16h-84v215zM127 1096h197v-215h-197v215z" />
    <glyph glyph-name="less" unicode="&#x3c;" horiz-adv-x="1036" 
d="M881 1034l-594 -293l594 -292v-154l-744 377v135l744 379v-152z" />
    <glyph glyph-name="equal" unicode="=" horiz-adv-x="1052" 
d="M139 483v146h774v-146h-774zM139 858v146h774v-146h-774z" />
    <glyph glyph-name="greater" unicode="&#x3e;" horiz-adv-x="1036" 
d="M156 295v149l594 293l-594 295v154l743 -379v-135z" />
    <glyph glyph-name="question" unicode="?" horiz-adv-x="1189" 
d="M752 1434q147 0 215 -64q76 -76 75 -287q0 -125 -15 -181t-58 -99t-219 -119q-78 -37 -113 -72t-39 -192h-125v59q2 109 13 159t48 87t158 89t147 78q25 26 33 62t8 152q0 118 -36 158q-33 29 -113 28h-280q-82 0 -114 -30t-34 -258h-160q1 178 17 252t66 126
q50 51 202 52h324zM444 207h185v-207h-185v207z" />
    <glyph glyph-name="at" unicode="@" horiz-adv-x="1923" 
d="M971 238q92 0 211 77v508q-117 82 -207 82h-98q-86 0 -117 -33q-43 -43 -43 -301t43 -301q31 -33 117 -32h94zM1462 188q92 0 131 40t57 134q17 94 17 297q0 508 -121 629q-48 48 -112 68t-195 20h-532q-139 0 -205 -22t-122 -80q-56 -57 -90 -215t-34 -496
q0 -337 34 -495t90 -216t123 -80t204 -22h837v-57h-842q-154 -1 -230 27t-134 85q-143 147 -143 757t143 759q59 57 135 85t229 28h543q147 0 221 -26t131 -81q131 -131 132 -668q0 -383 -89 -471q-63 -61 -167 -61h-52q-137 0 -225 125q-86 -76 -135 -100t-115 -25h-80
q-141 0 -196 57q-43 41 -63 124q-19 83 -19 263q0 179 19 263t63 124q55 57 196 58h80q66 0 112 -24t134 -99l29 123h96l-10 -225v-451q0 -86 34 -119q29 -33 121 -33z" />
    <glyph glyph-name="A" unicode="A" horiz-adv-x="1519" 
d="M733 1300l-213 -688h465l-213 688h-39zM580 137v-137h-533v137h172l397 1241q12 37 28 49t61 13h110q43 0 59 -12t29 -50l397 -1241h173v-137h-547v137h207l-109 344l-545 -2l-106 -342h207z" />
    <glyph glyph-name="B" unicode="B" horiz-adv-x="1404" 
d="M1247 410q0 -162 -20 -233t-66 -114q-63 -63 -213 -63h-850v137h201v1159h-201v138h844q150 0 211 -60q43 -44 62 -112t19 -209t-47 -210q-48 -69 -145 -95v-5q111 -23 158 -97t47 -236zM451 678v-541h464q96 0 125 29q43 43 43 238t-47 241q-33 33 -131 33h-454z
M451 811h442q98 0 131 33q47 43 47 212t-43 212q-29 29 -125 28h-452v-485z" />
    <glyph glyph-name="C" unicode="C" horiz-adv-x="1396" 
d="M924 0h-437q-156 0 -213 56t-77 184t-21 477q0 350 21 477q20 127 77 183t213 57h439q162 0 214 -52t69 -133q17 -80 22 -262h-156q-6 233 -47 275q-29 29 -123 28h-391q-96 0 -125 -28q-27 -28 -38 -134t-11 -411t11 -411t39 -134q28 -29 124 -29h391q92 0 119 27t37 86
t14 213h158q-5 -195 -23 -279t-71 -137t-215 -53z" />
    <glyph glyph-name="D" unicode="D" horiz-adv-x="1464" 
d="M453 1296v-1159h413q70 0 107 10t65 41q92 88 92 528t-92 529q-30 31 -66 41t-106 10h-413zM877 1434q195 0 284 -88q133 -137 133 -629t-133 -629q-90 -88 -284 -88h-779v137h201v1159h-201v138h779z" />
    <glyph glyph-name="E" unicode="E" horiz-adv-x="1353" 
d="M299 1296h-201v138h1102v-420h-151v282h-596v-485h450v-133h-450v-541h608v309h151v-446h-1114v137h201v1159z" />
    <glyph glyph-name="F" unicode="F" horiz-adv-x="1282" 
d="M299 1296h-201v138h1084v-420h-152v282h-577v-503h424v-134h-424v-522h215v-137h-570v137h201v1159z" />
    <glyph glyph-name="G" unicode="G" horiz-adv-x="1417" 
d="M514 1290q-96 0 -125 -28q-27 -28 -38 -134t-11 -411t11 -411t39 -134q28 -29 124 -29h399q98 0 125 28q27 27 38 101t11 269v45h-362v133h518v-133q0 -274 -18 -372q-19 -98 -75 -156t-214 -58h-449q-156 0 -213 56t-77 184t-21 477q0 350 21 477q20 127 77 183t213 57
h443q162 0 215 -56q49 -47 67 -126t23 -253h-158q-6 223 -40 257t-130 34h-393z" />
    <glyph glyph-name="H" unicode="H" horiz-adv-x="1593" 
d="M1294 1296v-1159h201v-137h-563v137h209v541h-688v-541h209v-137h-564v137h201v1159h-201v138h564v-138h-209v-485h688v485h-209v138h563v-138h-201z" />
    <glyph glyph-name="I" unicode="I" horiz-adv-x="794" 
d="M475 137h209v-137h-573v137h208v1159h-208v138h573v-138h-209v-1159z" />
    <glyph glyph-name="J" unicode="J" horiz-adv-x="1259" 
d="M836 1296h-213v138h563v-138h-197v-714q1 -250 -21 -354t-77 -160q-41 -38 -107 -54t-188 -16h-174q-174 0 -230 56t-76 140q-19 84 -24 263h156q8 -238 49 -279t135 -41h146q158 0 194 36t49 117q14 81 15 279v727z" />
    <glyph glyph-name="K" unicode="K" horiz-adv-x="1488" 
d="M453 680v-543h209v-137h-564v137h201v1159h-201v138h564v-138h-209v-487h209l421 491h-190v134h530v-138h-170l-477 -540l488 -619h176v-137h-549v133h188l-422 547h-204z" />
    <glyph glyph-name="L" unicode="L" horiz-adv-x="1263" 
d="M299 137v1159h-201v138h568v-138h-213v-1159h561v316h151v-453h-1067v137h201z" />
    <glyph glyph-name="M" unicode="M" horiz-adv-x="2007" 
d="M446 1300v-1163h170v-137h-518v137h201v1159h-201v138h451q35 0 47 -10t22 -46l377 -1231h25l375 1231q10 35 21 45t48 11h445v-138h-201v-1159h201v-137h-525v137h170v1163h-28l-398 -1245q-10 -35 -22 -45t-45 -10h-121q-33 0 -46 10t-24 45l-395 1245h-29z" />
    <glyph glyph-name="N" unicode="N" horiz-adv-x="1587" 
d="M1171 207v1089h-208v138h550v-138h-196v-1296h-180q-39 0 -56 10q-16 10 -32 45l-578 1200h-27v-1118h209v-137h-555v137h201v1159h-201v138h394q37 0 54 -12t34 -46l565 -1169h26z" />
    <glyph glyph-name="O" unicode="O" horiz-adv-x="1433" 
d="M340 717q0 -305 11 -411t39 -134q28 -29 124 -29h404q96 0 124 28t38 132q12 103 12 413t-12 414q-11 104 -39 132t-123 28h-404q-96 0 -125 -28q-27 -28 -38 -134t-11 -411zM487 1434h459q156 0 212 -56t78 -186q22 -129 22 -475t-22 -475q-22 -130 -78 -186t-212 -56
h-459q-156 0 -213 56t-77 184t-21 477q0 350 21 477q20 128 77 184t213 56z" />
    <glyph glyph-name="P" unicode="P" horiz-adv-x="1312" 
d="M1200 1014q0 -166 -20 -240t-74 -128t-199 -54h-454v-455h215v-137h-570v137h201v1159h-201v138h809q147 0 207 -62q46 -44 66 -118t20 -240zM453 729h415q96 0 125 29q43 47 43 257t-43 253q-29 29 -125 28h-415v-567z" />
    <glyph glyph-name="Q" unicode="Q" horiz-adv-x="1433" 
d="M340 716q0 -306 11 -412t40 -135q29 -30 123 -30h231l-135 293h160l123 -293h25q94 0 122 29t40 134q12 104 12 414t-12 414q-11 104 -39 132t-123 28h-404q-96 0 -125 -28q-27 -28 -38 -134t-11 -412zM487 1434h459q156 0 212 -56t78 -186q22 -129 22 -475t-22 -475
q-22 -130 -78 -186t-204 -56l103 -221h-158l-92 221h-320q-156 0 -213 56t-77 184t-21 477q0 350 21 477q20 128 77 184t213 56z" />
    <glyph glyph-name="R" unicode="R" horiz-adv-x="1443" 
d="M453 772h426q92 0 132 40t40 225t-45 231q-29 29 -125 28h-428v-524zM1405 139v-139h-215q-76 0 -102 26t-34 90t-14 251q-6 186 -51 231q-47 45 -155 45h-381v-506h209v-137h-564v137h201v1159h-201v138h826q146 0 200 -52t72 -122q18 -68 18 -232t-47 -232t-159 -91v-5
q106 -23 145 -84t45 -222t14 -255h193z" />
    <glyph glyph-name="S" unicode="S" horiz-adv-x="1366" 
d="M1202 395q0 -141 -18 -214t-66 -118q-63 -63 -209 -63h-463q-152 0 -208 59q-43 43 -60 115q-16 72 -18 258h157q3 -141 11 -190t32 -74t111 -25h414q90 0 124 34q33 34 33 175t-7 179t-31 63t-125 35l-422 41q-158 14 -211 69q-39 37 -53 103q-15 66 -15 200t19 209
q18 74 65 119q63 63 207 64h418q154 0 211 -60q43 -42 59 -112t19 -250h-158q-2 135 -10 182t-32 72t-112 24h-370q-88 0 -122 -32t-34 -169q0 -135 7 -173t31 -62t126 -35l422 -41q156 -14 202 -60t61 -114t15 -209z" />
    <glyph glyph-name="T" unicode="T" horiz-adv-x="1429" 
d="M793 137h211v-137h-578v137h211v1159h-375v-319h-151v457h1208v-457h-152v319h-374v-1159z" />
    <glyph glyph-name="U" unicode="U" horiz-adv-x="1570" 
d="M1147 1296h-209v138h559v-138h-197v-712q0 -250 -20 -352q-35 -181 -183 -217q-67 -15 -190 -15h-250q-221 0 -290 72q-57 55 -77 155q-19 100 -20 357v712h-196v138h559v-138h-209v-729q0 -195 15 -275t50 -116q35 -35 197 -35h203q159 0 195 35t50 113q13 78 13 278
v729z" />
    <glyph glyph-name="V" unicode="V" horiz-adv-x="1507" 
d="M47 1296v138h549v-138h-207l350 -1153h41l353 1153h-207v138h534v-138h-172l-393 -1241q-11 -37 -29 -49t-61 -12h-103q-43 0 -60 12t-30 49l-393 1241h-172z" />
    <glyph glyph-name="W" unicode="W" horiz-adv-x="2127" 
d="M1120 1440q44 0 62 -14t26 -50l283 -1224h33l233 1144h-196v138h512v-138h-172l-271 -1241q-8 -37 -26 -49t-62 -12h-94q-43 0 -62 13q-18 13 -26 50l-281 1223h-30l-279 -1223q-8 -37 -28 -50t-60 -13h-98q-43 0 -62 12q-18 12 -26 49l-269 1241h-172v138h527v-138h-197
l231 -1144h33l283 1224q8 37 26 50t62 14h100z" />
    <glyph glyph-name="X" unicode="X" horiz-adv-x="1482" 
d="M82 1296v138h547v-134h-191l305 -475h23l315 475h-190v134h526v-138h-176l-389 -559l399 -600h176v-137h-563v133h207l-315 498h-23l-323 -498h204v-133h-542v137h176l397 582l-387 577h-176z" />
    <glyph glyph-name="Y" unicode="Y" horiz-adv-x="1431" 
d="M29 1296v138h549v-134h-191l328 -561h14l338 561h-193v134h529v-138h-178l-434 -690v-469h210v-137h-575v137h211v465l-428 694h-180z" />
    <glyph glyph-name="Z" unicode="Z" horiz-adv-x="1349" 
d="M1067 133v307h152v-440h-1086v104l887 1196h-694v-296h-152v430h1055v-105l-889 -1196h727z" />
    <glyph glyph-name="bracketleft" unicode="[" horiz-adv-x="854" 
d="M201 1434h530v-129h-383v-1483h383v-129h-530v1741z" />
    <glyph glyph-name="backslash" unicode="\" horiz-adv-x="960" 
d="M885 -328l-836 1782h150l835 -1782h-149z" />
    <glyph glyph-name="bracketright" unicode="]" horiz-adv-x="854" 
d="M653 1434v-1741h-528v129h383v1483h-383v129h528z" />
    <glyph glyph-name="asciicircum" unicode="^" horiz-adv-x="1052" 
d="M174 979v10l303 451h96l304 -451v-10h-111l-242 340l-241 -340h-109z" />
    <glyph glyph-name="underscore" unicode="_" horiz-adv-x="1009" 
d="M-12 -256v123h1032v-123h-1032z" />
    <glyph glyph-name="grave" unicode="`" 
d="M702 1237h-137l-291 231v11h238l190 -232v-10z" />
    <glyph glyph-name="a" unicode="a" horiz-adv-x="1208" 
d="M549 127q74 0 131 20t149 78v287h-327q-150 0 -188 -39t-38 -161t33 -153q33 -32 121 -32h119zM829 780q1 131 -27 159t-116 28h-197q-96 0 -130 -34t-35 -165h-148q4 201 66 264t204 64h267q150 0 205 -58q37 -35 48 -87t11 -163v-659h176v-129h-324v139
q-106 -85 -164 -113t-139 -28h-129q-143 0 -207 64t-63 243q0 180 71 251q70 71 278 71t353 -25v178z" />
    <glyph glyph-name="b" unicode="b" horiz-adv-x="1277" 
d="M657 965q-68 0 -125 -22t-143 -77v-635q89 -55 147 -77t128 -23h120q109 0 144 35q35 36 45 108t10 274t-10 276t-41 102q-37 39 -148 39h-127zM389 1475v-525q111 90 169 119t142 29h115q167 0 225 -60t76 -154q18 -95 18 -336t-18 -336q-18 -94 -76 -154t-225 -60h-115
q-84 0 -142 29t-169 118v-145h-328v129h181v1214h-181v132h328z" />
    <glyph glyph-name="c" unicode="c" horiz-adv-x="1138" 
d="M461 0q-162 0 -219 57q-56 57 -76 153t-20 338q0 241 19 337t77 153t219 58h270q141 0 199 -58q39 -39 56 -102t20 -199h-148q-2 162 -36 194t-124 32h-221q-100 0 -130 -30t-41 -104q-11 -73 -11 -281t11 -282t41 -104t130 -29h223q92 0 126 34t36 204h146
q-2 -147 -18 -209t-66 -112q-49 -50 -191 -50h-272z" />
    <glyph glyph-name="d" unicode="d" horiz-adv-x="1277" 
d="M621 131q117 0 268 98v633q-89 57 -147 80t-126 23h-122q-109 0 -144 -35t-45 -109q-10 -75 -10 -273t10 -273t47 -109t142 -35h127zM889 0v145q-111 -91 -169 -119t-142 -28h-115q-164 0 -232 68q-51 51 -68 145t-17 337t17 337t68 145q68 68 232 68h115q82 0 141 -29
t170 -119v396h-189v129h336v-1346h181v-129h-328z" />
    <glyph glyph-name="e" unicode="e" horiz-adv-x="1157" 
d="M868 616q0 266 -49 316q-31 33 -131 33h-213q-98 0 -133 -33q-45 -47 -47 -316h573zM993 494h-698q2 -176 13 -241t39 -93t128 -29h240q86 0 121 33q33 35 36 172h146q-2 -123 -18 -180q-16 -56 -66 -106q-49 -50 -191 -50h-282q-162 0 -219 57q-56 57 -76 153t-20 338
q0 241 19 337t77 153t219 58h241q162 0 220 -58t76 -154q19 -97 20 -329v-37q0 -24 -25 -24z" />
    <glyph glyph-name="f" unicode="f" horiz-adv-x="712" 
d="M670 1346h-146q-57 0 -82 -24t-24 -144v-82h233v-131h-231v-836h184v-129h-512v129h180v836h-180v131h180v86q0 182 56 237t166 56h176v-129z" />
    <glyph glyph-name="g" unicode="g" horiz-adv-x="1277" 
d="M494 965q-109 0 -144 -35q-35 -34 -45 -102t-10 -243t10 -243t47 -102t142 -35h127q117 0 268 98v559q-89 57 -147 80t-126 23h-122zM420 -307q-123 0 -179 56t-57 210h142q2 -86 30 -117q29 -25 103 -24h293q76 0 106 30t31 160v211q-111 -90 -169 -119t-142 -28h-115
q-164 0 -232 67q-49 49 -67 141t-19 306q0 213 19 304q18 91 67 140q68 68 232 68h115q82 0 141 -29t170 -119v146h328v-131h-181v-940q0 -127 -13 -183t-52 -94q-55 -55 -193 -55h-358z" />
    <glyph glyph-name="h" unicode="h" horiz-adv-x="1310" 
d="M401 1475v-525q113 90 170 119t142 29h129q129 0 188 -58q57 -59 57 -219v-692h177v-129h-496v129h172v684q0 88 -32 120t-126 32h-112q-68 0 -125 -22t-144 -77v-737h172v-129h-499v129h180v1214h-180v132h327z" />
    <glyph glyph-name="i" unicode="i" horiz-adv-x="684" 
d="M616 0h-507v129h184v836h-184v131h331v-967h176v-129zM270 1286v197h176v-197h-176z" />
    <glyph glyph-name="j" unicode="j" horiz-adv-x="612" 
d="M176 -311q-45 0 -106 10v121h88q63 0 92 24q27 31 26 105v1016h-186v131h334v-1119q-1 -170 -60 -229t-188 -59zM252 1286v197h176v-197h-176z" />
    <glyph glyph-name="k" unicode="k" horiz-adv-x="1222" 
d="M1180 129v-129h-277l-360 489h-142v-360h172v-129h-499v129h180v1214h-180v132h327v-859h148l299 353h-170v127h489v-129h-155l-348 -402l333 -436h183z" />
    <glyph glyph-name="l" unicode="l" horiz-adv-x="663" 
d="M600 0h-512v129h186v1214h-186v132h332v-1346h180v-129z" />
    <glyph glyph-name="m" unicode="m" horiz-adv-x="1994" 
d="M420 1096v-146q113 90 170 119t141 29h119q129 0 188 -58q35 -39 47 -98q121 96 179 126t143 30h119q129 0 187 -58t59 -219v-692h176v-129h-494v129h172v684q0 86 -32 119t-126 33h-104q-68 0 -126 -22t-144 -77q2 -14 2 -45v-692h172v-129h-490v129h170v684
q0 88 -32 120t-125 32h-103q-68 0 -124 -22t-144 -77v-737h170v-129h-498v129h180v836h-180v131h328z" />
    <glyph glyph-name="n" unicode="n" horiz-adv-x="1327" 
d="M420 1096v-146q113 90 170 119t141 29h127q130 0 188 -58t58 -219v-692h178v-129h-498v129h174v684q0 86 -32 119t-125 33h-113q-68 0 -124 -22t-144 -77v-737h172v-129h-500v129h180v836h-180v131h328z" />
    <glyph glyph-name="o" unicode="o" horiz-adv-x="1196" 
d="M477 963q-100 0 -130 -30q-30 -29 -41 -103t-11 -282t11 -282t41 -104t130 -29h242q100 0 130 30q30 29 41 103t11 282t-11 282t-41 103q-30 30 -130 30h-242zM461 0q-162 0 -219 57q-56 57 -76 153t-20 338q0 241 19 337t77 153t219 58h274q162 0 219 -58
q56 -58 76 -153q20 -96 20 -337t-18 -337q-20 -95 -78 -153t-219 -58h-274z" />
    <glyph glyph-name="p" unicode="p" horiz-adv-x="1277" 
d="M657 965q-68 0 -125 -22t-143 -77v-635q89 -55 147 -77t128 -23h120q109 0 144 35q35 36 45 108t10 274t-10 276t-41 102q-37 39 -148 39h-127zM815 1098q167 0 225 -60t76 -154q18 -95 19 -336q-1 -241 -19 -336q-18 -94 -76 -154t-225 -60h-115q-84 0 -142 29t-169 118
v-323h191v-129h-519v129h181v1143h-181v131h328v-146q111 90 169 119t142 29h115z" />
    <glyph glyph-name="q" unicode="q" horiz-adv-x="1277" 
d="M621 131q117 0 268 98v633q-89 57 -147 80t-126 23h-122q-109 0 -144 -35t-45 -109q-10 -75 -10 -273t10 -273t47 -109t142 -35h127zM145 548q0 243 18 337q17 94 68 145q68 68 232 68h115q82 0 141 -29t170 -119v146h328v-131h-181v-1143h181v-129h-517v129h189v323
q-111 -91 -169 -119t-142 -28h-115q-164 0 -232 68q-51 51 -68 145q-18 94 -18 337z" />
    <glyph glyph-name="r" unicode="r" horiz-adv-x="866" 
d="M420 129h182v-129h-510v129h180v836h-180v131h328v-178q104 112 156 146t118 34h119v-156h-135q-68 0 -121 -18t-137 -76v-719z" />
    <glyph glyph-name="s" unicode="s" horiz-adv-x="1107" 
d="M147 795q0 184 68 252q49 49 162 49h346q121 0 162 -41t54 -97t15 -186h-139q-4 143 -31 170t-94 27h-280q-63 0 -91 -28q-28 -27 -28 -137q1 -110 25 -134t106 -31l319 -35q135 -14 174 -53q53 -53 53 -243t-67 -259q-49 -49 -162 -49h-368q-127 0 -169 42t-55 96
q-12 54 -14 194h139q4 -156 29 -180t96 -25h308q65 0 93 28q28 27 28 143t-24 139q-23 23 -108 34l-315 33q-135 14 -171 50t-48 86t-13 155z" />
    <glyph glyph-name="t" unicode="t" horiz-adv-x="782" 
d="M690 127v-96l-102 -25q-90 -14 -146 -14q-106 0 -155 49t-49 174v750h-170v131h170v274h147v-274h307v-131h-307v-719q-1 -76 21 -98t98 -21h186z" />
    <glyph glyph-name="u" unicode="u" horiz-adv-x="1298" 
d="M909 0v145q-113 -91 -171 -119t-140 -28h-129q-129 0 -187 58t-59 218v691h-176v131h324v-813q1 -88 33 -120t124 -32h113q68 0 125 22t143 76v736h-192v131h340v-967h180v-129h-328z" />
    <glyph glyph-name="v" unicode="v" horiz-adv-x="1280" 
d="M47 965v131h467v-131h-162l281 -813h26l279 813h-162v131h455v-131h-146l-331 -920q-12 -31 -26 -41t-42 -10h-92q-31 0 -44 10t-24 41l-333 920h-146z" />
    <glyph glyph-name="w" unicode="w" horiz-adv-x="1769" 
d="M930 1098q31 0 45 -12t22 -42l226 -897h24l183 818h-162v131h442v-131h-145l-222 -918q-8 -33 -21 -43t-44 -10h-96q-31 0 -44 11t-22 42l-223 879h-23l-223 -879q-8 -31 -21 -42t-44 -11h-95q-31 0 -44 10t-21 43l-223 918h-146v131h453v-131h-162l182 -818h25l227 897
q10 53 66 54h86z" />
    <glyph glyph-name="x" unicode="x" horiz-adv-x="1236" 
d="M516 127v-127h-455v129h140l327 422l-317 416h-141v129h454v-127h-141l233 -328h13l241 328h-143v127h440v-129h-143l-315 -406l327 -432h140v-129h-469v127h157l-246 346h-10l-254 -346h162z" />
    <glyph glyph-name="y" unicode="y" horiz-adv-x="1277" 
d="M772 965v131h457v-131h-146l-428 -1153q-27 -70 -65 -97t-113 -27q-74 0 -217 15v121h207q45 0 63 47l45 125l-382 969h-146v131h469v-131h-160l287 -768h12l277 768h-160z" />
    <glyph glyph-name="z" unicode="z" horiz-adv-x="1140" 
d="M883 127v242h137v-369h-916v102l725 867h-555v-236h-137v363h887v-103l-727 -866h586z" />
    <glyph glyph-name="braceleft" unicode="{" horiz-adv-x="892" 
d="M381 732q0 40 -19 158q-18 118 -18 184t52 144q52 77 220 236h117q-141 -166 -188 -243t-47 -129t18 -166t19 -154q0 -88 -42 -130t-167 -67v-4q123 -25 166 -69t43 -134q-1 -38 -19 -154t-18 -164t47 -125t188 -243h-117q-168 160 -220 237t-52 141t18 183t18 161
t-22 63q-34 39 -227 59v94q188 20 225 58q25 24 25 64z" />
    <glyph glyph-name="bar" unicode="|" horiz-adv-x="638" 
d="M389 -328h-137v1925h137v-1925z" />
    <glyph glyph-name="braceright" unicode="}" horiz-adv-x="892" 
d="M512 393q0 -41 18 -160t18 -183t-51 -142q-52 -76 -221 -236h-116q141 166 188 243t47 125t-18 164t-19 154q0 90 43 134t168 69v4q-127 25 -169 67t-42 130q0 40 18 154t19 166q0 52 -47 129t-188 243h116q168 -160 220 -236t53 -144q-1 -66 -19 -184t-18 -158t25 -64
q43 -37 227 -58v-94q-190 -20 -229 -59q-23 -23 -23 -64z" />
    <glyph glyph-name="asciitilde" unicode="~" horiz-adv-x="909" 
d="M754 635q0 -105 -86 -105h-21q-47 0 -131 33l-237 92l-43 -123h-80v136q0 59 22 82q23 23 64 22h22q49 0 129 -33l238 -92l45 123h78v-135z" />
    <glyph glyph-name="uni00A0" unicode="&#xa0;" horiz-adv-x="524" 
 />
    <glyph glyph-name="exclamdown" unicode="&#xa1;" horiz-adv-x="581" 
d="M389 1227h-184v207h184v-207zM393 0h-194v76l55 948h70l69 -948v-76z" />
    <glyph glyph-name="cent" unicode="&#xa2;" horiz-adv-x="1163" 
d="M489 319h56v805h-56q-100 0 -129 -28t-41 -104t-12 -270t12 -268t41 -105q29 -30 129 -30zM477 190q-162 0 -219 58t-77 152q-19 96 -19 322t19 321t77 153t219 57h64v187h125v-187h82q141 0 198 -57q39 -37 56 -100t20 -189h-141q-8 154 -40 186t-120 31h-62v-805h64
q92 0 124 33t38 197h139q-2 -139 -19 -201t-67 -109q-50 -48 -188 -49h-84v-196h-125v196h-64z" />
    <glyph glyph-name="sterling" unicode="&#xa3;" horiz-adv-x="1384" 
d="M678 1296q-123 0 -165 -42t-42 -244v-232h408v-131h-408v-512h606v305h150v-440h-1112v135h198v512h-196v131h196v217q0 162 21 242q38 150 168 183q59 15 176 16h209q178 0 241 -64q48 -47 66 -122t20 -251h-153q-4 215 -49 263q-37 35 -146 34h-188z" />
    <glyph glyph-name="yen" unicode="&#xa5;" horiz-adv-x="1406" 
d="M1163 653v-133h-389v-383h211v-137h-569v137h211v383h-387v133h354l-379 643h-178v138h545v-134h-191l311 -563h13l319 563h-190v134h526v-138h-180l-385 -643h358z" />
    <glyph glyph-name="section" unicode="&#xa7;" horiz-adv-x="1339" 
d="M264 744q0 -92 28 -120t118 -36l522 -43q84 -5 114 25t31 120q-1 90 -27 119t-118 35l-522 43q-84 8 -109 -19q-37 -33 -37 -124zM125 735q0 154 55 208t152 56q-29 55 -29 181q1 126 65 190t218 66h202q134 0 180 -46t59 -101q13 -54 15 -185h-145q-2 143 -34 173
t-107 30h-160q-80 0 -112 -31t-32 -121t30 -120t114 -38l385 -32q131 -9 183 -61t52 -206t-54 -209q-56 -55 -154 -57q32 -57 32 -180q0 -122 -64 -188t-220 -66h-203q-129 0 -186 51q-37 39 -52 94q-14 55 -16 187h145q4 -141 34 -172t108 -31h159q84 0 114 30t30 119
t-31 123q-31 27 -113 35l-383 35q-135 10 -186 61t-51 205z" />
    <glyph glyph-name="dieresis" unicode="&#xa8;" 
d="M616 1288v195h170v-195h-170zM238 1288v195h170v-195h-170z" />
    <glyph glyph-name="copyright" unicode="&#xa9;" horiz-adv-x="1615" 
d="M924 334h-236q-86 0 -118 32t-44 102t-12 260q0 189 12 260t44 103t118 31h236q90 0 118 -28t39 -74q10 -45 13 -143h-90q-2 123 -27 147q-12 14 -68 14h-200q-53 0 -70 -16q-27 -25 -27 -294t27 -294q16 -16 70 -16h200q55 0 73 20t22 152h92q-4 -106 -14 -152t-40 -74
q-30 -30 -118 -30zM240 716q0 -452 120 -573q47 -49 112 -71t200 -21h272q135 1 200 21t109 69q123 127 123 577t-123 572q-47 49 -111 71t-198 21h-272q-135 0 -201 -20t-111 -70q-120 -124 -120 -576zM182 716q0 472 135 611q53 55 126 81t219 26h290q145 0 219 -26
t127 -81q134 -137 134 -610t-134 -611q-53 -54 -127 -80t-219 -26h-290q-144 0 -218 26t-127 80q-135 138 -135 610z" />
    <glyph glyph-name="ordfeminine" unicode="&#xaa;" horiz-adv-x="1060" 
d="M168 362v103h747v-103h-747zM481 745q86 0 197 70v195h-232q-106 0 -129 -24t-23 -110t23 -108q27 -23 89 -23h75zM410 1434h190q109 0 151 -42t42 -182v-460h122v-105h-237v98q-74 -61 -116 -80t-99 -20h-84q-107 0 -155 48t-48 178q0 131 52 183t196 52t254 -21v123
q0 88 -18 106t-78 19h-150q-61 -1 -82 -21t-20 -112h-117q2 144 48 190t149 46z" />
    <glyph glyph-name="guillemotleft" unicode="&#xab;" horiz-adv-x="1159" 
d="M549 498v100l315 328h176l-350 -377l352 -377h-178zM115 498v100l315 328h176l-350 -377l352 -377h-178z" />
    <glyph glyph-name="registered" unicode="&#xae;" horiz-adv-x="929" 
d="M551 643h-172q-129 0 -189 59q-76 80 -75 336q0 256 75 336q59 59 189 60h172q129 0 188 -60q76 -80 76 -336t-76 -336q-59 -59 -188 -59zM549 682q113 0 160 47q63 63 63 309t-63 310q-47 47 -160 47h-168q-113 0 -160 -47q-63 -64 -63 -310t63 -309q47 -47 160 -47h168
zM680 879v-48h-74q-25 1 -35 11t-12 80t-15 84t-46 14h-103v-141h62v-48h-176v48h59v338h-59v47h249q47 0 66 -19q25 -31 25 -109t-62 -94v-2q33 -6 44 -24t12 -64q1 -45 6 -73h59zM395 1067h113q29 0 41 12q12 11 12 63t-11 63t-40 12h-115v-150z" />
    <glyph glyph-name="macron" unicode="&#xaf;" 
d="M213 1249v125h598v-125h-598z" />
    <glyph glyph-name="degree" unicode="&#xb0;" horiz-adv-x="854" 
d="M721 1100q0 -130 -15 -188t-53 -95q-45 -51 -155 -51h-142q-109 0 -155 51q-37 37 -53 95q-15 58 -15 188t15 187q15 58 53 95q47 51 155 52h142q111 0 155 -52q37 -37 53 -95t15 -187zM369 874h116q59 0 84 25q33 37 33 201t-29 194t-88 31h-116q-59 0 -84 -25
q-33 -36 -33 -200t33 -201q25 -25 84 -25z" />
    <glyph glyph-name="plusminus" unicode="&#xb1;" horiz-adv-x="1052" 
d="M127 219v135h799v-135h-799zM594 1268v-334h332v-135h-332v-332h-135v332h-332v135h332v334h135z" />
    <glyph glyph-name="acute" unicode="&#xb4;" 
d="M270 1237v10l191 232h237v-11l-290 -231h-138z" />
    <glyph glyph-name="paragraph" unicode="&#xb6;" horiz-adv-x="1196" 
d="M109 1014q0 166 20 240t66 118q59 61 206 62h709v-138h-201v-1159h201v-137h-571v137h215v455h-353q-145 0 -198 54t-74 128q-20 74 -20 240z" />
    <glyph glyph-name="periodcentered" unicode="&#xb7;" horiz-adv-x="477" 
d="M139 758h199v-215h-199v215z" />
    <glyph glyph-name="cedilla" unicode="&#xb8;" 
d="M547 -74q96 0 131 -34t35 -126t-36 -128t-134 -35h-142l-90 65v29h215q42 0 58 13t16 53q0 41 -15 55t-59 14h-98v94h119z" />
    <glyph glyph-name="ordmasculine" unicode="&#xba;" horiz-adv-x="1030" 
d="M178 362v103h676v-103h-676zM444 756h144q74 0 96 22q41 41 41 260t-41 260q-25 25 -96 25h-144q-72 0 -96 -25q-39 -43 -39 -260t39 -260q22 -22 96 -22zM608 645h-184q-121 0 -166 45t-61 119q-17 75 -17 231t17 230q16 74 62 118t165 46h184q119 0 165 -46
q47 -46 63 -118t16 -231t-16 -233t-62 -117q-46 -44 -166 -44z" />
    <glyph glyph-name="guillemotright" unicode="&#xbb;" horiz-adv-x="1159" 
d="M610 498l-315 -326h-174l350 375l-352 379h176l315 -328v-100zM1044 498l-315 -326h-174l350 375l-352 379h176l315 -328v-100z" />
    <glyph glyph-name="questiondown" unicode="&#xbf;" horiz-adv-x="1189" 
d="M762 0h-324q-147 0 -215 63q-76 76 -76 287q0 125 16 181q15 55 58 99t219 120q78 38 113 72t39 192h125v-60q-1 -108 -13 -158t-49 -87t-157 -89t-147 -78q-26 -26 -34 -62t-8 -154t37 -156q33 -29 113 -29h280q82 0 114 31t34 258h160q-1 -178 -17 -253t-66 -126
t-202 -51zM745 1227h-184v207h184v-207z" />
    <glyph glyph-name="Agrave" unicode="&#xc0;" horiz-adv-x="1519" 
d="M862 1565h-137l-291 231v10h238l190 -231v-10zM733 1300l-213 -688h465l-213 688h-39zM580 137v-137h-533v137h172l397 1241q12 37 28 49t61 13h110q43 0 59 -12t29 -50l397 -1241h173v-137h-547v137h207l-109 344l-545 -2l-106 -342h207z" />
    <glyph glyph-name="Aacute" unicode="&#xc1;" horiz-adv-x="1519" 
d="M645 1565v10l191 231h237v-10l-291 -231h-137zM733 1300l-213 -688h465l-213 688h-39zM580 137v-137h-533v137h172l397 1241q12 37 28 49t61 13h110q43 0 59 -12t29 -50l397 -1241h173v-137h-547v137h207l-109 344l-545 -2l-106 -342h207z" />
    <glyph glyph-name="Acircumflex" unicode="&#xc2;" horiz-adv-x="1519" 
d="M426 1569v10l242 244h172l241 -244v-10h-123l-206 147l-207 -147h-119zM733 1300l-213 -688h465l-213 688h-39zM580 137v-137h-533v137h172l397 1241q12 37 28 49t61 13h110q43 0 59 -12t29 -50l397 -1241h173v-137h-547v137h207l-109 344l-545 -2l-106 -342h207z" />
    <glyph glyph-name="Atilde" unicode="&#xc3;" horiz-adv-x="1519" 
d="M455 1583v135q0 59 19 82t65 23h24q41 0 125 -31l242 -94l43 123h80v-135q1 -59 -19 -82t-65 -23h-25q-41 0 -125 31l-241 94l-43 -123h-80zM733 1300l-213 -688h465l-213 688h-39zM580 137v-137h-533v137h172l397 1241q12 37 28 49t61 13h110q43 0 59 -12t29 -50
l397 -1241h173v-137h-547v137h207l-109 344l-545 -2l-106 -342h207z" />
    <glyph glyph-name="Adieresis" unicode="&#xc4;" horiz-adv-x="1519" 
d="M858 1616v194h170v-194h-170zM479 1616v194h170v-194h-170zM733 1300l-213 -688h465l-213 688h-39zM580 137v-137h-533v137h172l397 1241q12 37 28 49t61 13h110q43 0 59 -12t29 -50l397 -1241h173v-137h-547v137h207l-109 344l-545 -2l-106 -342h207z" />
    <glyph glyph-name="Aring" unicode="&#xc5;" horiz-adv-x="1519" 
d="M831 1671h-147q-49 -1 -70 -21q-20 -20 -20 -92t22 -98q16 -16 68 -16h147q51 0 68 16q23 26 23 98t-21 92t-70 21zM733 1300l-213 -688h465l-213 688h-39zM580 137v-137h-533v137h172l391 1223q-47 8 -73 39q-49 49 -49 157t44 155q44 46 140 46h172q96 0 140 -46
t44 -155q0 -173 -121 -194l393 -1225h173v-137h-547v137h207l-109 344l-545 -2l-106 -342h207z" />
    <glyph glyph-name="AE" unicode="&#xc6;" horiz-adv-x="2072" 
d="M1022 1303h-21l-393 -691h414v691zM821 133h201v348h-487l-199 -348h201v-133h-525v137h166l664 1159h-236v138h1317v-420h-151v282h-596v-485h450v-133h-450v-541h608v309h149v-446h-1112v133z" />
    <glyph glyph-name="Ccedilla" unicode="&#xc7;" horiz-adv-x="1396" 
d="M727 -74q96 0 131 -34t35 -126t-36 -128t-134 -35h-141l-90 65v29h215q43 0 58 13t15 53q0 41 -15 55t-58 14h-99v94h119zM924 0h-437q-156 0 -213 56t-77 184t-21 477q0 350 21 477q20 127 77 183t213 57h439q162 0 214 -52t69 -133q17 -80 22 -262h-156q-6 233 -47 275
q-29 29 -123 28h-391q-96 0 -125 -28q-27 -28 -38 -134t-11 -411t11 -411t39 -134q28 -29 124 -29h391q92 0 119 27t37 86t14 213h158q-5 -195 -23 -279t-71 -137t-215 -53z" />
    <glyph glyph-name="Egrave" unicode="&#xc8;" horiz-adv-x="1353" 
d="M782 1565h-137l-291 231v10h238l190 -231v-10zM299 1296h-201v138h1102v-420h-151v282h-596v-485h450v-133h-450v-541h608v309h151v-446h-1114v137h201v1159z" />
    <glyph glyph-name="Eacute" unicode="&#xc9;" horiz-adv-x="1353" 
d="M299 1296h-201v138h1102v-420h-151v282h-596v-485h450v-133h-450v-541h608v309h151v-446h-1114v137h201v1159zM565 1565v10l191 231h237v-10l-291 -231h-137z" />
    <glyph glyph-name="Ecircumflex" unicode="&#xca;" horiz-adv-x="1353" 
d="M346 1569v10l242 244h172l241 -244v-10h-122l-207 147l-207 -147h-119zM299 1296h-201v138h1102v-420h-151v282h-596v-485h450v-133h-450v-541h608v309h151v-446h-1114v137h201v1159z" />
    <glyph glyph-name="Edieresis" unicode="&#xcb;" horiz-adv-x="1353" 
d="M299 1296h-201v138h1102v-420h-151v282h-596v-485h450v-133h-450v-541h608v309h151v-446h-1114v137h201v1159zM778 1616v194h170v-194h-170zM399 1616v194h170v-194h-170z" />
    <glyph glyph-name="Igrave" unicode="&#xcc;" horiz-adv-x="794" 
d="M508 1565h-137l-291 231v10h237l191 -231v-10zM475 137h209v-137h-573v137h208v1159h-208v138h573v-138h-209v-1159z" />
    <glyph glyph-name="Iacute" unicode="&#xcd;" horiz-adv-x="794" 
d="M287 1565v10l190 231h238v-10l-291 -231h-137zM475 137h209v-137h-573v137h208v1159h-208v138h573v-138h-209v-1159z" />
    <glyph glyph-name="Icircumflex" unicode="&#xce;" horiz-adv-x="794" 
d="M70 1569v10l241 244h172l242 -244v-10h-123l-207 147l-207 -147h-118zM475 137h209v-137h-573v137h208v1159h-208v138h573v-138h-209v-1159z" />
    <glyph glyph-name="Idieresis" unicode="&#xcf;" horiz-adv-x="794" 
d="M502 1616v194h170v-194h-170zM123 1616v194h170v-194h-170zM475 137h209v-137h-573v137h208v1159h-208v138h573v-138h-209v-1159z" />
    <glyph glyph-name="Eth" unicode="&#xd0;" horiz-adv-x="1462" 
d="M750 672h-297v-535h411q72 0 108 10t66 41q90 90 90 528t-90 529q-30 31 -66 41t-108 10h-411v-493h297v-131zM877 1434q195 0 284 -88q66 -68 99 -211q32 -143 32 -417t-32 -418t-99 -212q-90 -88 -284 -88h-779v137h201v535h-201v131h201v493h-201v138h779z" />
    <glyph glyph-name="Ntilde" unicode="&#xd1;" horiz-adv-x="1587" 
d="M502 1583v135q0 59 19 82t65 23h24q41 0 125 -31l242 -94l43 123h80v-135q0 -59 -20 -82t-64 -23h-25q-41 0 -125 31l-241 94l-43 -123h-80zM1171 207v1089h-208v138h550v-138h-196v-1296h-180q-39 0 -56 10q-16 10 -32 45l-578 1200h-27v-1118h209v-137h-555v137h201
v1159h-201v138h394q37 0 54 -12t34 -46l565 -1169h26z" />
    <glyph glyph-name="Ograve" unicode="&#xd2;" horiz-adv-x="1433" 
d="M825 1565h-137l-291 231v10h238l190 -231v-10zM340 717q0 -305 11 -411t39 -134q28 -29 124 -29h404q96 0 124 28t38 132q12 103 12 413t-12 414q-11 104 -39 132t-123 28h-404q-96 0 -125 -28q-27 -28 -38 -134t-11 -411zM487 1434h459q156 0 212 -56t78 -186
q22 -129 22 -475t-22 -475q-22 -130 -78 -186t-212 -56h-459q-156 0 -213 56t-77 184t-21 477q0 350 21 477q20 128 77 184t213 56z" />
    <glyph glyph-name="Oacute" unicode="&#xd3;" horiz-adv-x="1433" 
d="M340 717q0 -305 11 -411t39 -134q28 -29 124 -29h404q96 0 124 28t38 132q12 103 12 413t-12 414q-11 104 -39 132t-123 28h-404q-96 0 -125 -28q-27 -28 -38 -134t-11 -411zM487 1434h459q156 0 212 -56t78 -186q22 -129 22 -475t-22 -475q-22 -130 -78 -186t-212 -56
h-459q-156 0 -213 56t-77 184t-21 477q0 350 21 477q20 128 77 184t213 56zM606 1565v10l191 231h237v-10l-291 -231h-137z" />
    <glyph glyph-name="Ocircumflex" unicode="&#xd4;" horiz-adv-x="1433" 
d="M387 1569v10l242 244h172l241 -244v-10h-122l-207 147l-207 -147h-119zM340 717q0 -305 11 -411t39 -134q28 -29 124 -29h404q96 0 124 28t38 132q12 103 12 413t-12 414q-11 104 -39 132t-123 28h-404q-96 0 -125 -28q-27 -28 -38 -134t-11 -411zM487 1434h459
q156 0 212 -56t78 -186q22 -129 22 -475t-22 -475q-22 -130 -78 -186t-212 -56h-459q-156 0 -213 56t-77 184t-21 477q0 350 21 477q20 128 77 184t213 56z" />
    <glyph glyph-name="Otilde" unicode="&#xd5;" horiz-adv-x="1433" 
d="M416 1583v135q0 59 19 82t65 23h24q41 0 125 -31l242 -94l43 123h80v-135q0 -59 -20 -82t-64 -23h-25q-41 0 -125 31l-241 94l-43 -123h-80zM340 717q0 -305 11 -411t39 -134q28 -29 124 -29h404q96 0 124 28t38 132q12 103 12 413t-12 414q-11 104 -39 132t-123 28h-404
q-96 0 -125 -28q-27 -28 -38 -134t-11 -411zM487 1434h459q156 0 212 -56t78 -186q22 -129 22 -475t-22 -475q-22 -130 -78 -186t-212 -56h-459q-156 0 -213 56t-77 184t-21 477q0 350 21 477q20 128 77 184t213 56z" />
    <glyph glyph-name="Odieresis" unicode="&#xd6;" horiz-adv-x="1433" 
d="M340 717q0 -305 11 -411t39 -134q28 -29 124 -29h404q96 0 124 28t38 132q12 103 12 413t-12 414q-11 104 -39 132t-123 28h-404q-96 0 -125 -28q-27 -28 -38 -134t-11 -411zM487 1434h459q156 0 212 -56t78 -186q22 -129 22 -475t-22 -475q-22 -130 -78 -186t-212 -56
h-459q-156 0 -213 56t-77 184t-21 477q0 350 21 477q20 128 77 184t213 56zM819 1616v194h170v-194h-170zM440 1616v194h170v-194h-170z" />
    <glyph glyph-name="multiply" unicode="&#xd7;" horiz-adv-x="1052" 
d="M268 1098l258 -260l258 260l95 -97l-258 -258l258 -258l-95 -96l-258 260l-258 -260l-96 96l258 258l-258 258z" />
    <glyph glyph-name="Oslash" unicode="&#xd8;" horiz-adv-x="1433" 
d="M1040 1263q0 1 -2 1l-524 -1121h404q96 0 124 28t38 132q12 103 12 413t-12 414t-38 132q-2 0 -2 1zM340 717q0 -305 11 -411t38 -134v-2l2 -2l527 1122h-404q-96 0 -125 -28q-27 -28 -38 -134t-11 -411zM487 1434h496l51 108h146l-64 -135q16 -8 43 -31q55 -55 77 -184
t22 -475t-22 -475q-22 -130 -78 -186t-212 -56h-497l-52 -109h-145l63 136q-92 46 -118 213q-20 127 -21 477q0 350 21 477q20 128 77 184t213 56z" />
    <glyph glyph-name="Ugrave" unicode="&#xd9;" horiz-adv-x="1570" 
d="M893 1565h-137l-291 231v10h237l191 -231v-10zM1147 1296h-209v138h559v-138h-197v-712q0 -250 -20 -352q-35 -181 -183 -217q-67 -15 -190 -15h-250q-221 0 -290 72q-57 55 -77 155q-19 100 -20 357v712h-196v138h559v-138h-209v-729q0 -195 15 -275t50 -116
q35 -35 197 -35h203q159 0 195 35t50 113q13 78 13 278v729z" />
    <glyph glyph-name="Uacute" unicode="&#xda;" horiz-adv-x="1570" 
d="M1147 1296h-209v138h559v-138h-197v-712q0 -250 -20 -352q-35 -181 -183 -217q-67 -15 -190 -15h-250q-221 0 -290 72q-57 55 -77 155q-19 100 -20 357v712h-196v138h559v-138h-209v-729q0 -195 15 -275t50 -116q35 -35 197 -35h203q159 0 195 35t50 113q13 78 13 278
v729zM676 1565v10l190 231h238v-10l-291 -231h-137z" />
    <glyph glyph-name="Ucircumflex" unicode="&#xdb;" horiz-adv-x="1570" 
d="M457 1569v10l241 244h172l242 -244v-10h-123l-207 147l-207 -147h-118zM1147 1296h-209v138h559v-138h-197v-712q0 -250 -20 -352q-35 -181 -183 -217q-67 -15 -190 -15h-250q-221 0 -290 72q-57 55 -77 155q-19 100 -20 357v712h-196v138h559v-138h-209v-729
q0 -195 15 -275t50 -116q35 -35 197 -35h203q159 0 195 35t50 113q13 78 13 278v729z" />
    <glyph glyph-name="Udieresis" unicode="&#xdc;" horiz-adv-x="1570" 
d="M1147 1296h-209v138h559v-138h-197v-712q0 -250 -20 -352q-35 -181 -183 -217q-67 -15 -190 -15h-250q-221 0 -290 72q-57 55 -77 155q-19 100 -20 357v712h-196v138h559v-138h-209v-729q0 -195 15 -275t50 -116q35 -35 197 -35h203q159 0 195 35t50 113q13 78 13 278
v729zM889 1616v194h170v-194h-170zM510 1616v194h170v-194h-170z" />
    <glyph glyph-name="Yacute" unicode="&#xdd;" horiz-adv-x="1431" 
d="M614 1565v10l191 231h237v-10l-290 -231h-138zM29 1296v138h549v-134h-191l328 -561h14l338 561h-193v134h529v-138h-178l-434 -690v-469h210v-137h-575v137h211v465l-428 694h-180z" />
    <glyph glyph-name="Thorn" unicode="&#xde;" horiz-adv-x="1300" 
d="M451 461h413q94 0 125 31q43 43 43 230t-43 230q-29 29 -125 29h-413v-520zM903 328h-452v-195h215v-133h-572v137h201v1159h-201v138h572v-134h-215v-184h452q145 0 199 -54t74 -123t20 -217t-20 -218t-66 -115q-60 -61 -207 -61z" />
    <glyph glyph-name="germandbls" unicode="&#xdf;" horiz-adv-x="1275" 
d="M1087 1100q1 -141 -39 -207t-133 -92q129 -16 179 -95q50 -80 49 -260t-21 -258t-65 -122q-66 -66 -234 -66h-231v127h205q113 0 147 35q47 47 47 267t-41 261t-153 41h-164v133h127q98 0 138 40t40 197t-45 197q-31 33 -129 33h-178q-88 0 -126 -38t-38 -160v-1133h-328
v129h180v836h-180v131h180v37q0 185 70 255t213 70h238q154 0 213 -57q79 -80 79 -301z" />
    <glyph glyph-name="agrave" unicode="&#xe0;" horiz-adv-x="1208" 
d="M702 1237h-137l-291 231v11h238l190 -232v-10zM549 127q74 0 131 20t149 78v287h-327q-150 0 -188 -39t-38 -161t33 -153q33 -32 121 -32h119zM829 780q1 131 -27 159t-116 28h-197q-96 0 -130 -34t-35 -165h-148q4 201 66 264t204 64h267q150 0 205 -58q37 -35 48 -87
t11 -163v-659h176v-129h-324v139q-106 -85 -164 -113t-139 -28h-129q-143 0 -207 64t-63 243q0 180 71 251q70 71 278 71t353 -25v178z" />
    <glyph glyph-name="aacute" unicode="&#xe1;" horiz-adv-x="1208" 
d="M483 1237v10l191 232h237v-11l-290 -231h-138zM549 127q74 0 131 20t149 78v287h-327q-150 0 -188 -39t-38 -161t33 -153q33 -32 121 -32h119zM829 780q1 131 -27 159t-116 28h-197q-96 0 -130 -34t-35 -165h-148q4 201 66 264t204 64h267q150 0 205 -58q37 -35 48 -87
t11 -163v-659h176v-129h-324v139q-106 -85 -164 -113t-139 -28h-129q-143 0 -207 64t-63 243q0 180 71 251q70 71 278 71t353 -25v178z" />
    <glyph glyph-name="acircumflex" unicode="&#xe2;" horiz-adv-x="1208" 
d="M264 1241v10l242 244h172l242 -244v-10h-123l-207 148l-207 -148h-119zM549 127q74 0 131 20t149 78v287h-327q-150 0 -188 -39t-38 -161t33 -153q33 -32 121 -32h119zM829 780q1 131 -27 159t-116 28h-197q-96 0 -130 -34t-35 -165h-148q4 201 66 264t204 64h267
q150 0 205 -58q37 -35 48 -87t11 -163v-659h176v-129h-324v139q-106 -85 -164 -113t-139 -28h-129q-143 0 -207 64t-63 243q0 180 71 251q70 71 278 71t353 -25v178z" />
    <glyph glyph-name="atilde" unicode="&#xe3;" horiz-adv-x="1208" 
d="M293 1255v136q0 59 19 82t65 22h24q41 0 125 -31l242 -94l43 123h80v-135q1 -59 -19 -82t-65 -23h-25q-41 0 -125 31l-241 94l-43 -123h-80zM549 127q74 0 131 20t149 78v287h-327q-150 0 -188 -39t-38 -161t33 -153q33 -32 121 -32h119zM829 780q1 131 -27 159t-116 28
h-197q-96 0 -130 -34t-35 -165h-148q4 201 66 264t204 64h267q150 0 205 -58q37 -35 48 -87t11 -163v-659h176v-129h-324v139q-106 -85 -164 -113t-139 -28h-129q-143 0 -207 64t-63 243q0 180 71 251q70 71 278 71t353 -25v178z" />
    <glyph glyph-name="adieresis" unicode="&#xe4;" horiz-adv-x="1208" 
d="M696 1288v195h170v-195h-170zM317 1288v195h170v-195h-170zM549 127q74 0 131 20t149 78v287h-327q-150 0 -188 -39t-38 -161t33 -153q33 -32 121 -32h119zM829 780q1 131 -27 159t-116 28h-197q-96 0 -130 -34t-35 -165h-148q4 201 66 264t204 64h267q150 0 205 -58
q37 -35 48 -87t11 -163v-659h176v-129h-324v139q-106 -85 -164 -113t-139 -28h-129q-143 0 -207 64t-63 243q0 180 71 251q70 71 278 71t353 -25v178z" />
    <glyph glyph-name="aring" unicode="&#xe5;" horiz-adv-x="1208" 
d="M666 1563h-148q-50 0 -70 -21q-20 -20 -20 -92t23 -98q16 -16 67 -17h148q51 0 67 17q23 26 23 98t-20 92t-70 21zM678 1247h-172q-96 0 -135 43q-49 49 -49 158t44 155t140 46h172q96 0 140 -46t44 -155t-49 -158q-39 -43 -135 -43zM549 127q74 0 131 20t149 78v287
h-327q-150 0 -188 -39t-38 -161t33 -153q33 -32 121 -32h119zM829 780q1 131 -27 159t-116 28h-197q-96 0 -130 -34t-35 -165h-148q4 201 66 264t204 64h267q150 0 205 -58q37 -35 48 -87t11 -163v-659h176v-129h-324v139q-106 -85 -164 -113t-139 -28h-129q-143 0 -207 64
t-63 243q0 180 71 251q70 71 278 71t353 -25v178z" />
    <glyph glyph-name="ae" unicode="&#xe6;" horiz-adv-x="1839" 
d="M1550 618q0 264 -49 314q-31 33 -131 33h-215q-100 0 -138 -39t-40 -308h573zM502 508q-150 0 -188 -38t-38 -159t33 -153t121 -31h119q77 0 137 23t158 86q-14 88 -15 272h-327zM1384 1096q162 0 220 -58t76 -152q19 -95 20 -327v-37q0 -25 -25 -24h-698q2 -178 13 -244
t39 -94t128 -29h240q86 0 121 33q33 35 36 172h146q-2 -123 -18 -180q-16 -56 -66 -106q-49 -50 -191 -50h-278q-162 0 -223 61q-43 41 -64 103q-125 -104 -185 -135t-149 -31h-129q-143 0 -207 64t-63 243q0 180 68 244q76 76 313 76q164 0 321 -27v182q1 131 -27 159
t-116 28h-197q-96 0 -130 -34t-35 -165h-148q4 201 66 264t204 64h242q152 0 207 -58q2 -4 7 -9t9 -10t9 -11q52 87 243 88h221z" />
    <glyph glyph-name="ccedilla" unicode="&#xe7;" horiz-adv-x="1138" 
d="M588 -74q96 0 131 -34t35 -126t-36 -128t-134 -35h-142l-90 65v29h215q43 0 59 13t15 53q0 41 -15 55t-59 14h-98v94h119zM461 0q-162 0 -219 57q-56 57 -76 153t-20 338q0 241 19 337t77 153t219 58h270q141 0 199 -58q39 -39 56 -102t20 -199h-148q-2 162 -36 194
t-124 32h-221q-100 0 -130 -30t-41 -104q-11 -73 -11 -281t11 -282t41 -104t130 -29h223q92 0 126 34t36 204h146q-2 -147 -18 -209t-66 -112q-49 -50 -191 -50h-272z" />
    <glyph glyph-name="egrave" unicode="&#xe8;" horiz-adv-x="1157" 
d="M698 1237h-137l-291 231v11h238l190 -232v-10zM868 616q0 266 -49 316q-31 33 -131 33h-213q-98 0 -133 -33q-45 -47 -47 -316h573zM993 494h-698q2 -176 13 -241t39 -93t128 -29h240q86 0 121 33q33 35 36 172h146q-2 -123 -18 -180q-16 -56 -66 -106q-49 -50 -191 -50
h-282q-162 0 -219 57q-56 57 -76 153t-20 338q0 241 19 337t77 153t219 58h241q162 0 220 -58t76 -154q19 -97 20 -329v-37q0 -24 -25 -24z" />
    <glyph glyph-name="eacute" unicode="&#xe9;" horiz-adv-x="1157" 
d="M479 1237v10l191 232h237v-11l-291 -231h-137zM868 616q0 266 -49 316q-31 33 -131 33h-213q-98 0 -133 -33q-45 -47 -47 -316h573zM993 494h-698q2 -176 13 -241t39 -93t128 -29h240q86 0 121 33q33 35 36 172h146q-2 -123 -18 -180q-16 -56 -66 -106q-49 -50 -191 -50
h-282q-162 0 -219 57q-56 57 -76 153t-20 338q0 241 19 337t77 153t219 58h241q162 0 220 -58t76 -154q19 -97 20 -329v-37q0 -24 -25 -24z" />
    <glyph glyph-name="ecircumflex" unicode="&#xea;" horiz-adv-x="1157" 
d="M260 1241v10l242 244h172l241 -244v-10h-122l-207 148l-207 -148h-119zM868 616q0 266 -49 316q-31 33 -131 33h-213q-98 0 -133 -33q-45 -47 -47 -316h573zM993 494h-698q2 -176 13 -241t39 -93t128 -29h240q86 0 121 33q33 35 36 172h146q-2 -123 -18 -180
q-16 -56 -66 -106q-49 -50 -191 -50h-282q-162 0 -219 57q-56 57 -76 153t-20 338q0 241 19 337t77 153t219 58h241q162 0 220 -58t76 -154q19 -97 20 -329v-37q0 -24 -25 -24z" />
    <glyph glyph-name="edieresis" unicode="&#xeb;" horiz-adv-x="1157" 
d="M313 1288v195h170v-195h-170zM692 1288v195h170v-195h-170zM868 616q0 266 -49 316q-31 33 -131 33h-213q-98 0 -133 -33q-45 -47 -47 -316h573zM993 494h-698q2 -176 13 -241t39 -93t128 -29h240q86 0 121 33q33 35 36 172h146q-2 -123 -18 -180q-16 -56 -66 -106
q-49 -50 -191 -50h-282q-162 0 -219 57q-56 57 -76 153t-20 338q0 241 19 337t77 153t219 58h241q162 0 220 -58t76 -154q19 -97 20 -329v-37q0 -24 -25 -24z" />
    <glyph glyph-name="igrave" unicode="&#xec;" horiz-adv-x="684" 
d="M440 1237h-137l-291 231v11h238l190 -232v-10zM616 0h-507v129h184v836h-184v131h331v-967h176v-129z" />
    <glyph glyph-name="iacute" unicode="&#xed;" horiz-adv-x="684" 
d="M616 0h-507v129h184v836h-184v131h331v-967h176v-129zM223 1237v10l191 232h237v-11l-291 -231h-137z" />
    <glyph glyph-name="icircumflex" unicode="&#xee;" horiz-adv-x="684" 
d="M4 1241v10l242 244h172l241 -244v-10h-122l-207 148l-207 -148h-119zM616 0h-507v129h184v836h-184v131h331v-967h176v-129z" />
    <glyph glyph-name="idieresis" unicode="&#xef;" horiz-adv-x="684" 
d="M616 0h-507v129h184v836h-184v131h331v-967h176v-129zM436 1288v195h170v-195h-170zM57 1288v195h170v-195h-170z" />
    <glyph glyph-name="eth" unicode="&#xf0;" horiz-adv-x="1208" 
d="M719 133q100 0 131 31q31 30 41 108t10 256t-2 232q-88 57 -145 79t-127 21h-150q-102 0 -131 -29t-40 -95t-11 -238t11 -239t41 -97t130 -29h242zM1051 643q1 -332 -17 -428q-18 -95 -78 -155t-221 -60h-274q-162 0 -219 57q-56 57 -76 147t-20 293q0 204 19 293t77 146
t219 57h129q82 1 139 -27t168 -118q-3 133 -23 192t-120 189l-295 -101v117l223 76l-125 154h125l111 -115l274 94v-117l-193 -65q117 -129 147 -213t30 -416z" />
    <glyph glyph-name="ntilde" unicode="&#xf1;" horiz-adv-x="1327" 
d="M387 1255v136q-1 59 19 82t65 22h25q41 0 125 -31l241 -94l43 123h80v-135q0 -59 -19 -82t-65 -23h-24q-41 0 -125 31l-242 94l-43 -123h-80zM420 1096v-146q113 90 170 119t141 29h127q130 0 188 -58t58 -219v-692h178v-129h-498v129h174v684q0 86 -32 119t-125 33h-113
q-68 0 -124 -22t-144 -77v-737h172v-129h-500v129h180v836h-180v131h328z" />
    <glyph glyph-name="ograve" unicode="&#xf2;" horiz-adv-x="1196" 
d="M707 1237h-138l-290 231v11h237l191 -232v-10zM477 963q-100 0 -130 -30q-30 -29 -41 -103t-11 -282t11 -282t41 -104t130 -29h242q100 0 130 30q30 29 41 103t11 282t-11 282t-41 103q-30 30 -130 30h-242zM461 0q-162 0 -219 57q-56 57 -76 153t-20 338q0 241 19 337
t77 153t219 58h274q162 0 219 -58q56 -58 76 -153q20 -96 20 -337t-18 -337q-20 -95 -78 -153t-219 -58h-274z" />
    <glyph glyph-name="oacute" unicode="&#xf3;" horiz-adv-x="1196" 
d="M477 963q-100 0 -130 -30q-30 -29 -41 -103t-11 -282t11 -282t41 -104t130 -29h242q100 0 130 30q30 29 41 103t11 282t-11 282t-41 103q-30 30 -130 30h-242zM461 0q-162 0 -219 57q-56 57 -76 153t-20 338q0 241 19 337t77 153t219 58h274q162 0 219 -58
q56 -58 76 -153q20 -96 20 -337t-18 -337q-20 -95 -78 -153t-219 -58h-274zM489 1237v10l191 232h238v-11l-291 -231h-138z" />
    <glyph glyph-name="ocircumflex" unicode="&#xf4;" horiz-adv-x="1196" 
d="M270 1241v10l242 244h172l242 -244v-10h-123l-207 148l-207 -148h-119zM477 963q-100 0 -130 -30q-30 -29 -41 -103t-11 -282t11 -282t41 -104t130 -29h242q100 0 130 30q30 29 41 103t11 282t-11 282t-41 103q-30 30 -130 30h-242zM461 0q-162 0 -219 57q-56 57 -76 153
t-20 338q0 241 19 337t77 153t219 58h274q162 0 219 -58q56 -58 76 -153q20 -96 20 -337t-18 -337q-20 -95 -78 -153t-219 -58h-274z" />
    <glyph glyph-name="otilde" unicode="&#xf5;" horiz-adv-x="1196" 
d="M299 1255v136q0 59 19 82t65 22h25q41 0 124 -31l242 -94l43 123h80v-135q0 -59 -19 -82t-65 -23h-25q-41 0 -124 31l-242 94l-43 -123h-80zM477 963q-100 0 -130 -30q-30 -29 -41 -103t-11 -282t11 -282t41 -104t130 -29h242q100 0 130 30q30 29 41 103t11 282t-11 282
t-41 103q-30 30 -130 30h-242zM461 0q-162 0 -219 57q-56 57 -76 153t-20 338q0 241 19 337t77 153t219 58h274q162 0 219 -58q56 -58 76 -153q20 -96 20 -337t-18 -337q-20 -95 -78 -153t-219 -58h-274z" />
    <glyph glyph-name="odieresis" unicode="&#xf6;" horiz-adv-x="1196" 
d="M477 963q-100 0 -130 -30q-30 -29 -41 -103t-11 -282t11 -282t41 -104t130 -29h242q100 0 130 30q30 29 41 103t11 282t-11 282t-41 103q-30 30 -130 30h-242zM461 0q-162 0 -219 57q-56 57 -76 153t-20 338q0 241 19 337t77 153t219 58h274q162 0 219 -58
q56 -58 76 -153q20 -96 20 -337t-18 -337q-20 -95 -78 -153t-219 -58h-274zM702 1288v195h170v-195h-170zM324 1288v195h170v-195h-170z" />
    <glyph glyph-name="divide" unicode="&#xf7;" horiz-adv-x="1052" 
d="M434 975v186h182v-186h-182zM434 326v186h182v-186h-182zM127 676v135h799v-135h-799z" />
    <glyph glyph-name="oslash" unicode="&#xf8;" horiz-adv-x="1196" 
d="M477 963q-100 0 -130 -30q-30 -29 -41 -103t-11 -276t9 -278t32 -102l414 789h-273zM719 133q100 0 130 30q30 29 41 103t11 278t-10 278t-35 102l-416 -791q0 -2 18 -1t19 1h242zM461 0q-63 0 -88 4l-58 -106h-139l80 145l-18 18q-52 53 -72 149t-20 338q0 241 19 337
t77 153t219 58h274q57 0 82 -4l62 116h139l-84 -153l24 -21q52 -53 72 -149t20 -337t-18 -337q-20 -95 -78 -153t-219 -58h-274z" />
    <glyph glyph-name="ugrave" unicode="&#xf9;" horiz-adv-x="1298" 
d="M733 1237h-137l-291 231v11h238l190 -232v-10zM909 0v145q-113 -91 -171 -119t-140 -28h-129q-129 0 -187 58t-59 218v691h-176v131h324v-813q1 -88 33 -120t124 -32h113q68 0 125 22t143 76v736h-192v131h340v-967h180v-129h-328z" />
    <glyph glyph-name="uacute" unicode="&#xfa;" horiz-adv-x="1298" 
d="M516 1237v10l191 232h237v-11l-291 -231h-137zM909 0v145q-113 -91 -171 -119t-140 -28h-129q-129 0 -187 58t-59 218v691h-176v131h324v-813q1 -88 33 -120t124 -32h113q68 0 125 22t143 76v736h-192v131h340v-967h180v-129h-328z" />
    <glyph glyph-name="ucircumflex" unicode="&#xfb;" horiz-adv-x="1298" 
d="M297 1241v10l242 244h172l241 -244v-10h-123l-206 148l-207 -148h-119zM909 0v145q-113 -91 -171 -119t-140 -28h-129q-129 0 -187 58t-59 218v691h-176v131h324v-813q1 -88 33 -120t124 -32h113q68 0 125 22t143 76v736h-192v131h340v-967h180v-129h-328z" />
    <glyph glyph-name="udieresis" unicode="&#xfc;" horiz-adv-x="1298" 
d="M350 1288v195h170v-195h-170zM729 1288v195h170v-195h-170zM909 0v145q-113 -91 -171 -119t-140 -28h-129q-129 0 -187 58t-59 218v691h-176v131h324v-813q1 -88 33 -120t124 -32h113q68 0 125 22t143 76v736h-192v131h340v-967h180v-129h-328z" />
    <glyph glyph-name="yacute" unicode="&#xfd;" horiz-adv-x="1253" 
d="M528 1237v10l191 232h237v-11l-290 -231h-138zM760 965v131h457v-131h-146l-428 -1153q-27 -70 -65 -97t-113 -27q-74 0 -217 15v121h207q45 0 63 47l45 125l-383 969h-145v131h469v-131h-160l287 -768h12l277 768h-160z" />
    <glyph glyph-name="thorn" unicode="&#xfe;" horiz-adv-x="1259" 
d="M639 965q-68 0 -125 -22t-143 -77v-635q88 -55 146 -77t128 -23h121q110 0 144 35q34 36 44 108t10 274t-10 276t-41 102q-37 39 -147 39h-127zM223 -178v1521h-180v132h328v-525q111 90 169 119t142 29h115q166 0 224 -60q59 -60 77 -154q18 -95 18 -336t-18 -336
q-18 -94 -77 -154t-224 -60h-115q-84 0 -142 29t-169 118v-323h190v-129h-518v129h180z" />
    <glyph glyph-name="ydieresis" unicode="&#xff;" horiz-adv-x="1253" 
d="M362 1288v195h170v-195h-170zM741 1288v195h170v-195h-170zM760 965v131h457v-131h-146l-428 -1153q-27 -70 -65 -97t-113 -27q-74 0 -217 15v121h207q45 0 63 47l45 125l-383 969h-145v131h469v-131h-160l287 -768h12l277 768h-160z" />
    <glyph glyph-name="Amacron" unicode="&#x100;" horiz-adv-x="1519" 
d="M455 1577v125h598v-125h-598zM733 1300l-213 -688h465l-213 688h-39zM580 137v-137h-533v137h172l397 1241q12 37 28 49t61 13h110q43 0 59 -12t29 -50l397 -1241h173v-137h-547v137h207l-109 344l-545 -2l-106 -342h207z" />
    <glyph glyph-name="amacron" unicode="&#x101;" horiz-adv-x="1208" 
d="M293 1249v125h598v-125h-598zM549 127q74 0 131 20t149 78v287h-327q-150 0 -188 -39t-38 -161t33 -153q33 -32 121 -32h119zM829 780q1 131 -27 159t-116 28h-197q-96 0 -130 -34t-35 -165h-148q4 201 66 264t204 64h267q150 0 205 -58q37 -35 48 -87t11 -163v-659h176
v-129h-324v139q-106 -85 -164 -113t-139 -28h-129q-143 0 -207 64t-63 243q0 180 71 251q70 71 278 71t353 -25v178z" />
    <glyph glyph-name="Abreve" unicode="&#x102;" horiz-adv-x="1519" 
d="M754 1679q174 0 204 144h107q-8 -123 -88 -192t-223 -69t-224 69q-80 69 -88 192h107q31 -144 205 -144zM733 1300l-213 -688h465l-213 688h-39zM580 137v-137h-533v137h172l397 1241q12 37 28 49t61 13h110q43 0 59 -12t29 -50l397 -1241h173v-137h-547v137h207
l-109 344l-545 -2l-106 -342h207z" />
    <glyph glyph-name="abreve" unicode="&#x103;" horiz-adv-x="1208" 
d="M592 1352q174 0 205 143h106q-8 -123 -88 -191t-223 -69q-143 0 -223 69t-88 191h106q31 -143 205 -143zM549 127q74 0 131 20t149 78v287h-327q-150 0 -188 -39t-38 -161t33 -153q33 -32 121 -32h119zM829 780q1 131 -27 159t-116 28h-197q-96 0 -130 -34t-35 -165h-148
q4 201 66 264t204 64h267q150 0 205 -58q37 -35 48 -87t11 -163v-659h176v-129h-324v139q-106 -85 -164 -113t-139 -28h-129q-143 0 -207 64t-63 243q0 180 71 251q70 71 278 71t353 -25v178z" />
    <glyph glyph-name="Aogonek" unicode="&#x104;" horiz-adv-x="1519" 
d="M733 1300l-213 -688h465l-213 688h-39zM580 137v-137h-533v137h172l397 1241q12 37 28 49t61 13h110q43 0 59 -12t29 -50l397 -1241h173v-137h-232q-57 -53 -77 -85q-20 -31 -19 -105q0 -74 14 -89q16 -12 43 -12h72q27 0 43 12q14 15 14 111h113q0 -96 -9 -137t-36 -67
t-103 -25h-122q-76 -1 -112 33t-36 134t24 138q24 39 85 92h-209v137h207l-109 344l-545 -2l-106 -342h207z" />
    <glyph glyph-name="aogonek" unicode="&#x105;" horiz-adv-x="1208" 
d="M549 127q74 0 131 20t149 78v287h-327q-150 0 -188 -39t-38 -161t33 -153q33 -32 121 -32h119zM1022 -168h113q1 -96 -9 -137t-36 -67t-103 -25h-123q-76 -1 -112 33t-35 134q0 100 24 139q24 40 88 93v137q-106 -85 -164 -113t-139 -28h-129q-143 0 -207 64t-63 243
q0 180 71 251q70 71 278 71t353 -25v178q1 131 -27 159t-116 28h-197q-96 0 -130 -34t-35 -165h-148q4 201 66 264t204 64h267q150 0 205 -58q37 -35 48 -87t11 -163v-659h176v-129h-221q-56 -53 -76 -85q-20 -31 -20 -105t14 -88t43 -13h72q27 0 43 12q14 15 14 111z" />
    <glyph glyph-name="Cacute" unicode="&#x106;" horiz-adv-x="1396" 
d="M924 0h-437q-156 0 -213 56t-77 184t-21 477q0 350 21 477q20 127 77 183t213 57h439q162 0 214 -52t69 -133q17 -80 22 -262h-156q-6 233 -47 275q-29 29 -123 28h-391q-96 0 -125 -28q-27 -28 -38 -134t-11 -411t11 -411t39 -134q28 -29 124 -29h391q92 0 119 27t37 86
t14 213h158q-5 -195 -23 -279t-71 -137t-215 -53zM604 1565v10l191 231h237v-10l-291 -231h-137z" />
    <glyph glyph-name="cacute" unicode="&#x107;" horiz-adv-x="1138" 
d="M461 0q-162 0 -219 57q-56 57 -76 153t-20 338q0 241 19 337t77 153t219 58h270q141 0 199 -58q39 -39 56 -102t20 -199h-148q-2 162 -36 194t-124 32h-221q-100 0 -130 -30t-41 -104q-11 -73 -11 -281t11 -282t41 -104t130 -29h223q92 0 126 34t36 204h146
q-2 -147 -18 -209t-66 -112q-49 -50 -191 -50h-272zM475 1237v10l191 232h237v-11l-291 -231h-137z" />
    <glyph glyph-name="Cdotaccent" unicode="&#x10a;" horiz-adv-x="1396" 
d="M625 1614v196h176v-196h-176zM924 0h-437q-156 0 -213 56t-77 184t-21 477q0 350 21 477q20 127 77 183t213 57h439q162 0 214 -52t69 -133q17 -80 22 -262h-156q-6 233 -47 275q-29 29 -123 28h-391q-96 0 -125 -28q-27 -28 -38 -134t-11 -411t11 -411t39 -134
q28 -29 124 -29h391q92 0 119 27t37 86t14 213h158q-5 -195 -23 -279t-71 -137t-215 -53z" />
    <glyph glyph-name="cdotaccent" unicode="&#x10b;" horiz-adv-x="1138" 
d="M496 1286v197h176v-197h-176zM461 0q-162 0 -219 57q-56 57 -76 153t-20 338q0 241 19 337t77 153t219 58h270q141 0 199 -58q39 -39 56 -102t20 -199h-148q-2 162 -36 194t-124 32h-221q-100 0 -130 -30t-41 -104q-11 -73 -11 -281t11 -282t41 -104t130 -29h223
q92 0 126 34t36 204h146q-2 -147 -18 -209t-66 -112q-49 -50 -191 -50h-272z" />
    <glyph glyph-name="Ccaron" unicode="&#x10c;" horiz-adv-x="1396" 
d="M383 1823h123l207 -148l207 148h118v-11l-241 -243h-172l-242 243v11zM924 0h-437q-156 0 -213 56t-77 184t-21 477q0 350 21 477q20 127 77 183t213 57h439q162 0 214 -52t69 -133q17 -80 22 -262h-156q-6 233 -47 275q-29 29 -123 28h-391q-96 0 -125 -28
q-27 -28 -38 -134t-11 -411t11 -411t39 -134q28 -29 124 -29h391q92 0 119 27t37 86t14 213h158q-5 -195 -23 -279t-71 -137t-215 -53z" />
    <glyph glyph-name="ccaron" unicode="&#x10d;" horiz-adv-x="1138" 
d="M254 1495h123l207 -147l207 147h118v-10l-241 -244h-172l-242 244v10zM461 0q-162 0 -219 57q-56 57 -76 153t-20 338q0 241 19 337t77 153t219 58h270q141 0 199 -58q39 -39 56 -102t20 -199h-148q-2 162 -36 194t-124 32h-221q-100 0 -130 -30t-41 -104
q-11 -73 -11 -281t11 -282t41 -104t130 -29h223q92 0 126 34t36 204h146q-2 -147 -18 -209t-66 -112q-49 -50 -191 -50h-272z" />
    <glyph glyph-name="Dcaron" unicode="&#x10e;" horiz-adv-x="1464" 
d="M367 1823h122l207 -148l207 148h119v-11l-242 -243h-172l-241 243v11zM453 1296v-1159h413q70 0 107 10t65 41q92 88 92 528t-92 529q-30 31 -66 41t-106 10h-413zM877 1434q195 0 284 -88q133 -137 133 -629t-133 -629q-90 -88 -284 -88h-779v137h201v1159h-201v138h779
z" />
    <glyph glyph-name="dcaron" unicode="&#x10f;" horiz-adv-x="1368" 
d="M1184 1475h178v-156q0 -74 -10 -112t-43 -93l-76 -145l-57 22l47 180q6 27 6 47t-6 50l-39 168v39zM621 131q117 0 268 98v633q-89 57 -147 80t-126 23h-122q-109 0 -144 -35t-45 -109q-10 -75 -10 -273t10 -273t47 -109t142 -35h127zM889 0v145q-111 -91 -169 -119
t-142 -28h-115q-164 0 -232 68q-51 51 -68 145t-17 337t17 337t68 145q68 68 232 68h115q82 0 141 -29t170 -119v396h-189v129h336v-1346h181v-129h-328z" />
    <glyph glyph-name="Dcroat" unicode="&#x110;" horiz-adv-x="1462" 
d="M750 672h-297v-535h411q72 0 108 10t66 41q90 90 90 528t-90 529q-30 31 -66 41t-108 10h-411v-493h297v-131zM877 1434q195 0 284 -88q66 -68 99 -211q32 -143 32 -417t-32 -418t-99 -212q-90 -88 -284 -88h-779v137h201v535h-201v131h201v493h-201v138h779z" />
    <glyph glyph-name="dcroat" unicode="&#x111;" horiz-adv-x="1277" 
d="M621 131q117 0 268 98v633q-89 57 -147 80t-126 23h-122q-109 0 -144 -35t-45 -109q-10 -75 -10 -273t10 -273t47 -109t142 -35h127zM145 548q0 243 18 337q17 94 68 145q68 68 232 68h115q82 0 141 -29t170 -119v201h-314v123h314v72h-189v129h336v-201h181v-123h-181
v-1022h181v-129h-328v145q-111 -91 -169 -119t-142 -28h-115q-164 0 -232 68q-51 51 -68 145q-18 94 -18 337z" />
    <glyph glyph-name="Emacron" unicode="&#x112;" horiz-adv-x="1353" 
d="M375 1577v125h598v-125h-598zM299 1296h-201v138h1102v-420h-151v282h-596v-485h450v-133h-450v-541h608v309h151v-446h-1114v137h201v1159z" />
    <glyph glyph-name="emacron" unicode="&#x113;" horiz-adv-x="1157" 
d="M289 1249v125h598v-125h-598zM868 616q0 266 -49 316q-31 33 -131 33h-213q-98 0 -133 -33q-45 -47 -47 -316h573zM993 494h-698q2 -176 13 -241t39 -93t128 -29h240q86 0 121 33q33 35 36 172h146q-2 -123 -18 -180q-16 -56 -66 -106q-49 -50 -191 -50h-282
q-162 0 -219 57q-56 57 -76 153t-20 338q0 241 19 337t77 153t219 58h241q162 0 220 -58t76 -154q19 -97 20 -329v-37q0 -24 -25 -24z" />
    <glyph glyph-name="Ebreve" unicode="&#x114;" horiz-adv-x="1353" 
d="M674 1679q174 0 205 144h106q-8 -123 -88 -192t-223 -69t-223 70q-80 68 -89 191h107q31 -144 205 -144zM299 1296h-201v138h1102v-420h-151v282h-596v-485h450v-133h-450v-541h608v309h151v-446h-1114v137h201v1159z" />
    <glyph glyph-name="ebreve" unicode="&#x115;" horiz-adv-x="1157" 
d="M588 1352q174 0 205 143h106q-8 -123 -88 -191t-223 -69q-143 0 -223 69t-89 191h107q31 -143 205 -143zM868 616q0 266 -49 316q-31 33 -131 33h-213q-98 0 -133 -33q-45 -47 -47 -316h573zM993 494h-698q2 -176 13 -241t39 -93t128 -29h240q86 0 121 33q33 35 36 172
h146q-2 -123 -18 -180q-16 -56 -66 -106q-49 -50 -191 -50h-282q-162 0 -219 57q-56 57 -76 153t-20 338q0 241 19 337t77 153t219 58h241q162 0 220 -58t76 -154q19 -97 20 -329v-37q0 -24 -25 -24z" />
    <glyph glyph-name="Edotaccent" unicode="&#x116;" horiz-adv-x="1353" 
d="M586 1614v196h176v-196h-176zM299 1296h-201v138h1102v-420h-151v282h-596v-485h450v-133h-450v-541h608v309h151v-446h-1114v137h201v1159z" />
    <glyph glyph-name="edotaccent" unicode="&#x117;" horiz-adv-x="1157" 
d="M500 1286v197h176v-197h-176zM868 616q0 266 -49 316q-31 33 -131 33h-213q-98 0 -133 -33q-45 -47 -47 -316h573zM993 494h-698q2 -176 13 -241t39 -93t128 -29h240q86 0 121 33q33 35 36 172h146q-2 -123 -18 -180q-16 -56 -66 -106q-49 -50 -191 -50h-282
q-162 0 -219 57q-56 57 -76 153t-20 338q0 241 19 337t77 153t219 58h241q162 0 220 -58t76 -154q19 -97 20 -329v-37q0 -24 -25 -24z" />
    <glyph glyph-name="Eogonek" unicode="&#x118;" horiz-adv-x="1353" 
d="M299 1296h-201v138h1102v-420h-151v282h-596v-485h450v-133h-450v-541h608v309h151v-446h-223q-57 -53 -77 -85q-20 -31 -19 -105q0 -74 14 -88t43 -13h72q27 0 43 12q14 14 14 111h113q0 -96 -9 -137t-36 -67t-103 -25h-122q-76 -1 -112 33t-36 134t24 138q24 39 85 92
h-785v137h201v1159z" />
    <glyph glyph-name="eogonek" unicode="&#x119;" horiz-adv-x="1157" 
d="M868 616q0 266 -49 316q-31 33 -131 33h-213q-98 0 -133 -33q-45 -47 -47 -316h573zM887 -168h112q0 -96 -9 -137t-36 -67t-102 -25h-123q-75 -1 -111 33t-36 134t23 138q23 39 85 92h-229q-162 0 -219 57q-56 57 -76 153t-20 338q0 241 19 337t77 153t219 58h241
q162 0 220 -58t76 -154q19 -97 20 -329v-37q0 -25 -25 -24h-698q2 -176 13 -241t39 -93t128 -29h240q86 0 121 33q33 35 36 172h146q-2 -123 -18 -180q-16 -56 -62 -102q-45 -46 -139 -52q-57 -49 -77 -84q-20 -34 -22 -108q0 -74 14 -88t44 -13h71q27 0 43 12q15 15 15 111
z" />
    <glyph glyph-name="Ecaron" unicode="&#x11a;" horiz-adv-x="1353" 
d="M344 1823h123l207 -148l207 148h118v-11l-241 -243h-172l-242 243v11zM299 1296h-201v138h1102v-420h-151v282h-596v-485h450v-133h-450v-541h608v309h151v-446h-1114v137h201v1159z" />
    <glyph glyph-name="ecaron" unicode="&#x11b;" horiz-adv-x="1157" 
d="M258 1495h123l207 -147l207 147h118v-10l-241 -244h-172l-242 244v10zM868 616q0 266 -49 316q-31 33 -131 33h-213q-98 0 -133 -33q-45 -47 -47 -316h573zM993 494h-698q2 -176 13 -241t39 -93t128 -29h240q86 0 121 33q33 35 36 172h146q-2 -123 -18 -180
q-16 -56 -66 -106q-49 -50 -191 -50h-282q-162 0 -219 57q-56 57 -76 153t-20 338q0 241 19 337t77 153t219 58h241q162 0 220 -58t76 -154q19 -97 20 -329v-37q0 -24 -25 -24z" />
    <glyph glyph-name="Gbreve" unicode="&#x11e;" horiz-adv-x="1417" 
d="M713 1679q174 0 205 144h106q-8 -123 -88 -192t-223 -69t-224 69q-80 69 -88 192h107q31 -144 205 -144zM514 1290q-96 0 -125 -28q-27 -28 -38 -134t-11 -411t11 -411t39 -134q28 -29 124 -29h399q98 0 125 28q27 27 38 101t11 269v45h-362v133h518v-133
q0 -274 -18 -372q-19 -98 -75 -156t-214 -58h-449q-156 0 -213 56t-77 184t-21 477q0 350 21 477q20 127 77 183t213 57h443q162 0 215 -56q49 -47 67 -126t23 -253h-158q-6 223 -40 257t-130 34h-393z" />
    <glyph glyph-name="gbreve" unicode="&#x11f;" horiz-adv-x="1277" 
d="M651 1352q174 0 205 143h107q-9 -123 -89 -191t-223 -69q-143 0 -223 69t-88 191h106q31 -143 205 -143zM494 965q-109 0 -144 -35q-35 -34 -45 -102t-10 -243t10 -243t47 -102t142 -35h127q117 0 268 98v559q-89 57 -147 80t-126 23h-122zM420 -307q-123 0 -179 56
t-57 210h142q2 -86 30 -117q29 -25 103 -24h293q76 0 106 30t31 160v211q-111 -90 -169 -119t-142 -28h-115q-164 0 -232 67q-49 49 -67 141t-19 306q0 213 19 304q18 91 67 140q68 68 232 68h115q82 0 141 -29t170 -119v146h328v-131h-181v-940q0 -127 -13 -183t-52 -94
q-55 -55 -193 -55h-358z" />
    <glyph glyph-name="Gdotaccent" unicode="&#x120;" horiz-adv-x="1417" 
d="M625 1614v196h176v-196h-176zM514 1290q-96 0 -125 -28q-27 -28 -38 -134t-11 -411t11 -411t39 -134q28 -29 124 -29h399q98 0 125 28q27 27 38 101t11 269v45h-362v133h518v-133q0 -274 -18 -372q-19 -98 -75 -156t-214 -58h-449q-156 0 -213 56t-77 184t-21 477
q0 350 21 477q20 127 77 183t213 57h443q162 0 215 -56q49 -47 67 -126t23 -253h-158q-6 223 -40 257t-130 34h-393z" />
    <glyph glyph-name="gdotaccent" unicode="&#x121;" horiz-adv-x="1277" 
d="M563 1286v197h176v-197h-176zM494 965q-109 0 -144 -35q-35 -34 -45 -102t-10 -243t10 -243t47 -102t142 -35h127q117 0 268 98v559q-89 57 -147 80t-126 23h-122zM420 -307q-123 0 -179 56t-57 210h142q2 -86 30 -117q29 -25 103 -24h293q76 0 106 30t31 160v211
q-111 -90 -169 -119t-142 -28h-115q-164 0 -232 67q-49 49 -67 141t-19 306q0 213 19 304q18 91 67 140q68 68 232 68h115q82 0 141 -29t170 -119v146h328v-131h-181v-940q0 -127 -13 -183t-52 -94q-55 -55 -193 -55h-358z" />
    <glyph glyph-name="Gcommaaccent" unicode="&#x122;" horiz-adv-x="1417" 
d="M514 1290q-96 0 -125 -28q-27 -28 -38 -134t-11 -411t11 -411t39 -134q28 -29 124 -29h399q98 0 125 28q27 27 38 101t11 269v45h-362v133h518v-133q0 -274 -18 -372q-19 -98 -75 -156t-214 -58h-449q-156 0 -213 56t-77 184t-21 477q0 350 21 477q20 127 77 183t213 57
h443q162 0 215 -56q49 -47 67 -126t23 -253h-158q-6 223 -40 257t-130 34h-393zM623 -143h182v-187q0 -68 -41 -114l-148 -174l-51 40l119 175q14 23 14 51v14h-75v195z" />
    <glyph glyph-name="gcommaaccent" unicode="&#x123;" horiz-adv-x="1277" 
d="M741 1272h-182v186q0 68 41 115l148 174l51 -41l-119 -174q-14 -20 -14 -51v-15h75v-194zM494 965q-109 0 -144 -35q-35 -34 -45 -102t-10 -243t10 -243t47 -102t142 -35h127q117 0 268 98v559q-89 57 -147 80t-126 23h-122zM420 -307q-123 0 -179 56t-57 210h142
q2 -86 30 -117q29 -25 103 -24h293q76 0 106 30t31 160v211q-111 -90 -169 -119t-142 -28h-115q-164 0 -232 67q-49 49 -67 141t-19 306q0 213 19 304q18 91 67 140q68 68 232 68h115q82 0 141 -29t170 -119v146h328v-131h-181v-940q0 -127 -13 -183t-52 -94
q-55 -55 -193 -55h-358z" />
    <glyph glyph-name="Hbar" unicode="&#x126;" horiz-adv-x="1593" 
d="M453 786h688v197h-688v-197zM1495 983h-201v-846h201v-137h-563v137h209v516h-688v-516h209v-137h-564v137h201v846h-201v127h201v186h-201v138h564v-138h-209v-186h688v186h-209v138h563v-138h-201v-186h201v-127z" />
    <glyph glyph-name="hbar" unicode="&#x127;" horiz-adv-x="1310" 
d="M401 1475v-201h316v-123h-316v-201q113 90 170 119t142 29h129q129 0 188 -58q57 -59 57 -219v-692h177v-129h-496v129h172v684q0 88 -32 120t-126 32h-112q-68 0 -125 -22t-144 -77v-737h172v-129h-499v129h180v1022h-180v123h180v69h-180v132h327z" />
    <glyph glyph-name="Imacron" unicode="&#x12a;" horiz-adv-x="794" 
d="M98 1577v125h598v-125h-598zM475 137h209v-137h-573v137h208v1159h-208v138h573v-138h-209v-1159z" />
    <glyph glyph-name="imacron" unicode="&#x12b;" horiz-adv-x="684" 
d="M33 1249v125h598v-125h-598zM616 0h-507v129h184v836h-184v131h331v-967h176v-129z" />
    <glyph glyph-name="Ibreve" unicode="&#x12c;" horiz-adv-x="794" 
d="M397 1679q174 0 205 144h107q-8 -123 -88 -192q-79 -69 -223 -69t-224 70q-80 68 -88 191h107q30 -144 204 -144zM475 137h209v-137h-573v137h208v1159h-208v138h573v-138h-209v-1159z" />
    <glyph glyph-name="ibreve" unicode="&#x12d;" horiz-adv-x="684" 
d="M332 1352q174 0 205 143h106q-8 -123 -88 -191t-223 -69q-143 0 -223 69t-89 191h107q31 -143 205 -143zM616 0h-507v129h184v836h-184v131h331v-967h176v-129z" />
    <glyph glyph-name="Iogonek" unicode="&#x12e;" horiz-adv-x="794" 
d="M535 -168h112q0 -96 -9 -137t-36 -67t-102 -25h-123q-76 -1 -112 33t-36 134q-1 100 23 138q24 39 86 92h-227v137h208v1159h-208v138h573v-138h-209v-1159h209v-137h-240q-57 -53 -76 -85q-20 -31 -20 -105t14 -88t44 -13h71q27 0 43 12q15 15 15 111z" />
    <glyph glyph-name="iogonek" unicode="&#x12f;" horiz-adv-x="684" 
d="M270 1286v197h176v-197h-176zM475 -168h113q0 -96 -9 -137t-36 -67t-103 -25h-123q-75 -1 -111 33t-36 134t24 138q24 39 85 92h-170v129h184v836h-184v131h331v-967h176v-129h-231q-57 -53 -77 -85q-20 -31 -19 -105q0 -74 14 -89q16 -12 43 -12h72q29 -1 43 13t14 110z
" />
    <glyph glyph-name="Idotaccent" unicode="&#x130;" horiz-adv-x="794" 
d="M309 1614v196h176v-196h-176zM475 137h209v-137h-573v137h208v1159h-208v138h573v-138h-209v-1159z" />
    <glyph glyph-name="dotlessi" unicode="&#x131;" horiz-adv-x="684" 
d="M616 0h-507v129h184v836h-184v131h331v-967h176v-129z" />
    <glyph glyph-name="Kcommaaccent" unicode="&#x136;" horiz-adv-x="1488" 
d="M678 -143h182v-187q0 -68 -41 -114l-147 -174l-51 40l118 175q14 23 15 51v14h-76v195zM453 680v-543h209v-137h-564v137h201v1159h-201v138h564v-138h-209v-487h209l421 491h-190v134h530v-138h-170l-477 -540l488 -619h176v-137h-549v133h188l-422 547h-204z" />
    <glyph glyph-name="kcommaaccent" unicode="&#x137;" horiz-adv-x="1222" 
d="M537 -143h182v-187q0 -68 -41 -114l-148 -174l-51 40l119 175q14 23 14 51v14h-75v195zM1180 129v-129h-277l-360 489h-142v-360h172v-129h-499v129h180v1214h-180v132h327v-859h148l299 353h-170v127h489v-129h-155l-348 -402l333 -436h183z" />
    <glyph glyph-name="Lacute" unicode="&#x139;" horiz-adv-x="1263" 
d="M299 137v1159h-201v138h568v-138h-213v-1159h561v316h151v-453h-1067v137h201zM291 1552v11l190 231h238v-10l-291 -232h-137z" />
    <glyph glyph-name="lacute" unicode="&#x13a;" horiz-adv-x="663" 
d="M600 0h-512v129h186v1214h-186v132h332v-1346h180v-129zM238 1565v10l190 231h238v-10l-291 -231h-137z" />
    <glyph glyph-name="Lcommaaccent" unicode="&#x13b;" horiz-adv-x="1263" 
d="M299 137v1159h-201v138h568v-138h-213v-1159h561v316h151v-453h-1067v137h201zM553 -143h182v-187q0 -68 -41 -114l-147 -174l-51 40l118 175q14 23 15 51v14h-76v195z" />
    <glyph glyph-name="lcommaaccent" unicode="&#x13c;" horiz-adv-x="663" 
d="M600 0h-512v129h186v1214h-186v132h332v-1346h180v-129zM256 -143h182v-187q0 -68 -41 -114l-147 -174l-51 40l118 175q14 23 15 51v14h-76v195z" />
    <glyph glyph-name="Lcaron" unicode="&#x13d;" horiz-adv-x="1263" 
d="M780 1434h178v-156q0 -74 -10 -112t-43 -93l-76 -145l-57 22l47 180q6 26 6 46t-6 51l-39 168v39zM299 137v1159h-201v138h568v-138h-213v-1159h561v316h151v-453h-1067v137h201z" />
    <glyph glyph-name="lcaron" unicode="&#x13e;" horiz-adv-x="753" 
d="M567 1475h178v-156q0 -74 -10 -112t-43 -93l-76 -145l-57 22l47 180q6 27 6 47t-6 50l-39 168v39zM600 0h-512v129h186v1214h-186v132h332v-1346h180v-129z" />
    <glyph glyph-name="Ldot" unicode="&#x13f;" horiz-adv-x="1265" 
d="M299 137v1159h-201v138h568v-138h-213v-1159h561v316h151v-453h-1067v137h201zM932 729v197h176v-197h-176z" />
    <glyph glyph-name="ldot" unicode="&#x140;" horiz-adv-x="747" 
d="M600 0h-512v129h186v1214h-186v132h332v-1346h180v-129zM633 604v197h176v-197h-176z" />
    <glyph glyph-name="Lslash" unicode="&#x141;" horiz-adv-x="1290" 
d="M315 137v504l-198 -57v135l198 57v520h-200v138h567v-138h-213v-475l373 111v-135l-373 -111v-549h561v316h152v-453h-1067v137h200z" />
    <glyph glyph-name="lslash" unicode="&#x142;" horiz-adv-x="663" 
d="M600 0h-512v129h186v549l-184 -53v135l184 53v530h-186v132h332v-619l180 55v-137l-180 -53v-592h180v-129z" />
    <glyph glyph-name="Nacute" unicode="&#x143;" horiz-adv-x="1587" 
d="M1171 207v1089h-208v138h550v-138h-196v-1296h-180q-39 0 -56 10q-16 10 -32 45l-578 1200h-27v-1118h209v-137h-555v137h201v1159h-201v138h394q37 0 54 -12t34 -46l565 -1169h26zM692 1565v10l191 231h237v-10l-291 -231h-137z" />
    <glyph glyph-name="nacute" unicode="&#x144;" horiz-adv-x="1327" 
d="M578 1237v10l190 232h238v-11l-291 -231h-137zM420 1096v-146q113 90 170 119t141 29h127q130 0 188 -58t58 -219v-692h178v-129h-498v129h174v684q0 86 -32 119t-125 33h-113q-68 0 -124 -22t-144 -77v-737h172v-129h-500v129h180v836h-180v131h328z" />
    <glyph glyph-name="Ncommaaccent" unicode="&#x145;" horiz-adv-x="1587" 
d="M1171 207v1089h-208v138h550v-138h-196v-1296h-180q-39 0 -56 10q-16 10 -32 45l-578 1200h-27v-1118h209v-137h-555v137h201v1159h-201v138h394q37 0 54 -12t34 -46l565 -1169h26zM711 -143h182v-187q0 -68 -41 -114l-147 -174l-52 40l119 175q14 23 14 51v14h-75v195z
" />
    <glyph glyph-name="ncommaaccent" unicode="&#x146;" horiz-adv-x="1327" 
d="M598 -143h182v-187q0 -68 -41 -114l-147 -174l-51 40l118 175q14 23 15 51v14h-76v195zM420 1096v-146q113 90 170 119t141 29h127q130 0 188 -58t58 -219v-692h178v-129h-498v129h174v684q0 86 -32 119t-125 33h-113q-68 0 -124 -22t-144 -77v-737h172v-129h-500v129
h180v836h-180v131h328z" />
    <glyph glyph-name="Ncaron" unicode="&#x147;" horiz-adv-x="1587" 
d="M471 1823h123l207 -148l207 148h118v-11l-241 -243h-172l-242 243v11zM1171 207v1089h-208v138h550v-138h-196v-1296h-180q-39 0 -56 10q-16 10 -32 45l-578 1200h-27v-1118h209v-137h-555v137h201v1159h-201v138h394q37 0 54 -12t34 -46l565 -1169h26z" />
    <glyph glyph-name="ncaron" unicode="&#x148;" horiz-adv-x="1327" 
d="M356 1495h123l207 -147l207 147h119v-10l-242 -244h-172l-242 244v10zM420 1096v-146q113 90 170 119t141 29h127q130 0 188 -58t58 -219v-692h178v-129h-498v129h174v684q0 86 -32 119t-125 33h-113q-68 0 -124 -22t-144 -77v-737h172v-129h-500v129h180v836h-180v131
h328z" />
    <glyph glyph-name="Omacron" unicode="&#x14c;" horiz-adv-x="1433" 
d="M340 717q0 -305 11 -411t39 -134q28 -29 124 -29h404q96 0 124 28t38 132q12 103 12 413t-12 414q-11 104 -39 132t-123 28h-404q-96 0 -125 -28q-27 -28 -38 -134t-11 -411zM487 1434h459q156 0 212 -56t78 -186q22 -129 22 -475t-22 -475q-22 -130 -78 -186t-212 -56
h-459q-156 0 -213 56t-77 184t-21 477q0 350 21 477q20 128 77 184t213 56zM416 1577v125h598v-125h-598z" />
    <glyph glyph-name="omacron" unicode="&#x14d;" horiz-adv-x="1196" 
d="M477 963q-100 0 -130 -30q-30 -29 -41 -103t-11 -282t11 -282t41 -104t130 -29h242q100 0 130 30q30 29 41 103t11 282t-11 282t-41 103q-30 30 -130 30h-242zM461 0q-162 0 -219 57q-56 57 -76 153t-20 338q0 241 19 337t77 153t219 58h274q162 0 219 -58
q56 -58 76 -153q20 -96 20 -337t-18 -337q-20 -95 -78 -153t-219 -58h-274zM299 1249v125h598v-125h-598z" />
    <glyph glyph-name="Obreve" unicode="&#x14e;" horiz-adv-x="1433" 
d="M715 1679q174 0 205 144h106q-8 -123 -88 -192t-223 -69t-223 70q-80 68 -89 191h107q31 -144 205 -144zM340 717q0 -305 11 -411t39 -134q28 -29 124 -29h404q96 0 124 28t38 132q12 103 12 413t-12 414q-11 104 -39 132t-123 28h-404q-96 0 -125 -28q-27 -28 -38 -134
t-11 -411zM487 1434h459q156 0 212 -56t78 -186q22 -129 22 -475t-22 -475q-22 -130 -78 -186t-212 -56h-459q-156 0 -213 56t-77 184t-21 477q0 350 21 477q20 128 77 184t213 56z" />
    <glyph glyph-name="obreve" unicode="&#x14f;" horiz-adv-x="1196" 
d="M598 1352q174 0 205 143h106q-8 -123 -88 -191t-223 -69q-143 0 -223 69t-88 191h106q31 -143 205 -143zM477 963q-100 0 -130 -30q-30 -29 -41 -103t-11 -282t11 -282t41 -104t130 -29h242q100 0 130 30q30 29 41 103t11 282t-11 282t-41 103q-30 30 -130 30h-242z
M461 0q-162 0 -219 57q-56 57 -76 153t-20 338q0 241 19 337t77 153t219 58h274q162 0 219 -58q56 -58 76 -153q20 -96 20 -337t-18 -337q-20 -95 -78 -153t-219 -58h-274z" />
    <glyph glyph-name="Ohungarumlaut" unicode="&#x150;" horiz-adv-x="1433" 
d="M340 717q0 -305 11 -411t39 -134q28 -29 124 -29h404q96 0 124 28t38 132q12 103 12 413t-12 414q-11 104 -39 132t-123 28h-404q-96 0 -125 -28q-27 -28 -38 -134t-11 -411zM487 1434h459q156 0 212 -56t78 -186q22 -129 22 -475t-22 -475q-22 -130 -78 -186t-212 -56
h-459q-156 0 -213 56t-77 184t-21 477q0 350 21 477q20 128 77 184t213 56zM831 1565v10l191 231h223v-10l-282 -231h-132zM455 1565v10l190 231h223v-10l-282 -231h-131z" />
    <glyph glyph-name="ohungarumlaut" unicode="&#x151;" horiz-adv-x="1196" 
d="M477 963q-100 0 -130 -30q-30 -29 -41 -103t-11 -282t11 -282t41 -104t130 -29h242q100 0 130 30q30 29 41 103t11 282t-11 282t-41 103q-30 30 -130 30h-242zM461 0q-162 0 -219 57q-56 57 -76 153t-20 338q0 241 19 337t77 153t219 58h274q162 0 219 -58
q56 -58 76 -153q20 -96 20 -337t-18 -337q-20 -95 -78 -153t-219 -58h-274zM713 1237v10l190 232h223v-11l-282 -231h-131zM336 1237v10l190 232h224v-11l-283 -231h-131z" />
    <glyph glyph-name="OE" unicode="&#x152;" horiz-adv-x="2031" 
d="M1892 0h-1321q-195 0 -284 88q-133 137 -133 629t133 629q90 88 284 88h1311v-420h-151v282h-596v-485h450v-133h-450v-541h608v309h149v-446zM582 137h399v1159h-399q-70 0 -107 -10t-65 -41q-92 -88 -92 -528t92 -529q30 -31 66 -41t106 -10z" />
    <glyph glyph-name="oe" unicode="&#x153;" horiz-adv-x="1912" 
d="M1624 616q0 160 -11 226t-38 90q-31 33 -131 33h-213q-98 0 -133 -33q-45 -47 -47 -316h573zM477 963q-100 0 -130 -30q-30 -29 -41 -103t-11 -282t11 -282t41 -104t130 -29h242q100 0 130 30q30 29 41 103t11 282t-11 282t-41 103q-30 30 -130 30h-242zM461 0
q-162 0 -219 57q-56 57 -76 153t-20 338q0 241 19 337t77 153t219 58h256q158 0 219 -62q29 -33 39 -53q18 31 41 53q61 61 219 62h223q162 0 219 -58t77 -154q20 -97 20 -329v-37q0 -25 -25 -24h-698q2 -174 13 -240t39 -94t128 -29h239q88 0 121 33t37 172h146
q-2 -123 -18 -180t-58 -99q-55 -57 -199 -57h-264q-158 0 -219 61q-23 18 -41 52q-54 -113 -258 -113h-256z" />
    <glyph glyph-name="Racute" unicode="&#x154;" horiz-adv-x="1443" 
d="M453 772h426q92 0 132 40t40 225t-45 231q-29 29 -125 28h-428v-524zM1405 139v-139h-215q-76 0 -102 26t-34 90t-14 251q-6 186 -51 231q-47 45 -155 45h-381v-506h209v-137h-564v137h201v1159h-201v138h826q146 0 200 -52t72 -122q18 -68 18 -232t-47 -232t-159 -91v-5
q106 -23 145 -84t45 -222t14 -255h193zM602 1565v10l191 231h237v-10l-291 -231h-137z" />
    <glyph glyph-name="racute" unicode="&#x155;" horiz-adv-x="874" 
d="M346 1237v10l191 232h237v-11l-291 -231h-137zM420 129h182v-129h-510v129h180v836h-180v131h328v-178q104 112 156 146t118 34h119v-156h-135q-68 0 -121 -18t-137 -76v-719z" />
    <glyph glyph-name="Rcommaaccent" unicode="&#x156;" horiz-adv-x="1443" 
d="M453 772h426q92 0 132 40t40 225t-45 231q-29 29 -125 28h-428v-524zM1405 139v-139h-215q-76 0 -102 26t-34 90t-14 251q-6 186 -51 231q-47 45 -155 45h-381v-506h209v-137h-564v137h201v1159h-201v138h826q146 0 200 -52t72 -122q18 -68 18 -232t-47 -232t-159 -91v-5
q106 -23 145 -84t45 -222t14 -255h193zM645 -143h182v-187q0 -68 -41 -114l-147 -174l-51 40l119 175q14 23 14 51v14h-76v195z" />
    <glyph glyph-name="rcommaaccent" unicode="&#x157;" horiz-adv-x="866" 
d="M252 -143h182v-187q0 -68 -41 -114l-147 -174l-51 40l118 175q14 23 15 51v14h-76v195zM420 129h182v-129h-510v129h180v836h-180v131h328v-178q104 112 156 146t118 34h119v-156h-135q-68 0 -121 -18t-137 -76v-719z" />
    <glyph glyph-name="Rcaron" unicode="&#x158;" horiz-adv-x="1443" 
d="M381 1823h123l207 -148l207 148h118v-11l-241 -243h-172l-242 243v11zM453 772h426q92 0 132 40t40 225t-45 231q-29 29 -125 28h-428v-524zM1405 139v-139h-215q-76 0 -102 26t-34 90t-14 251q-6 186 -51 231q-47 45 -155 45h-381v-506h209v-137h-564v137h201v1159h-201
v138h826q146 0 200 -52t72 -122q18 -68 18 -232t-47 -232t-159 -91v-5q106 -23 145 -84t45 -222t14 -255h193z" />
    <glyph glyph-name="rcaron" unicode="&#x159;" horiz-adv-x="866" 
d="M127 1495h123l207 -147l207 147h118v-10l-241 -244h-172l-242 244v10zM420 129h182v-129h-510v129h180v836h-180v131h328v-178q104 112 156 146t118 34h119v-156h-135q-68 0 -121 -18t-137 -76v-719z" />
    <glyph glyph-name="Sacute" unicode="&#x15a;" horiz-adv-x="1366" 
d="M1202 395q0 -141 -18 -214t-66 -118q-63 -63 -209 -63h-463q-152 0 -208 59q-43 43 -60 115q-16 72 -18 258h157q3 -141 11 -190t32 -74t111 -25h414q90 0 124 34q33 34 33 175t-7 179t-31 63t-125 35l-422 41q-158 14 -211 69q-39 37 -53 103q-15 66 -15 200t19 209
q18 74 65 119q63 63 207 64h418q154 0 211 -60q43 -42 59 -112t19 -250h-158q-2 135 -10 182t-32 72t-112 24h-370q-88 0 -122 -32t-34 -169q0 -135 7 -173t31 -62t126 -35l422 -41q156 -14 202 -60t61 -114t15 -209zM573 1565v10l191 231h237v-10l-290 -231h-138z" />
    <glyph glyph-name="sacute" unicode="&#x15b;" horiz-adv-x="1107" 
d="M147 795q0 184 68 252q49 49 162 49h346q121 0 162 -41t54 -97t15 -186h-139q-4 143 -31 170t-94 27h-280q-63 0 -91 -28q-28 -27 -28 -137q1 -110 25 -134t106 -31l319 -35q135 -14 174 -53q53 -53 53 -243t-67 -259q-49 -49 -162 -49h-368q-127 0 -169 42t-55 96
q-12 54 -14 194h139q4 -156 29 -180t96 -25h308q65 0 93 28q28 27 28 143t-24 139q-23 23 -108 34l-315 33q-135 14 -171 50t-48 86t-13 155zM444 1237v10l191 232h237v-11l-290 -231h-138z" />
    <glyph glyph-name="Scedilla" unicode="&#x15e;" horiz-adv-x="1366" 
d="M707 -74q96 0 131 -34q34 -34 34 -126t-36 -128t-134 -35h-141l-90 65v29h215q43 0 58 13q16 13 16 53q0 41 -16 55t-58 14h-98v94h119zM1202 395q0 -141 -18 -214t-66 -118q-63 -63 -209 -63h-463q-152 0 -208 59q-43 43 -60 115q-16 72 -18 258h157q3 -141 11 -190
t32 -74t111 -25h414q90 0 124 34q33 34 33 175t-7 179t-31 63t-125 35l-422 41q-158 14 -211 69q-39 37 -53 103q-15 66 -15 200t19 209q18 74 65 119q63 63 207 64h418q154 0 211 -60q43 -42 59 -112t19 -250h-158q-2 135 -10 182t-32 72t-112 24h-370q-88 0 -122 -32
t-34 -169q0 -135 7 -173t31 -62t126 -35l422 -41q156 -14 202 -60t61 -114t15 -209z" />
    <glyph glyph-name="scedilla" unicode="&#x15f;" horiz-adv-x="1107" 
d="M571 -74q96 0 131 -34t35 -126t-36 -128t-134 -35h-141l-90 65v29h215q43 0 58 13t15 53q0 41 -14 55q-16 14 -59 14h-98v94h118zM147 795q0 184 68 252q49 49 162 49h346q121 0 162 -41t54 -97t15 -186h-139q-4 143 -31 170t-94 27h-280q-63 0 -91 -28q-28 -27 -28 -137
q1 -110 25 -134t106 -31l319 -35q135 -14 174 -53q53 -53 53 -243t-67 -259q-49 -49 -162 -49h-368q-127 0 -169 42t-55 96q-12 54 -14 194h139q4 -156 29 -180t96 -25h308q65 0 93 28q28 27 28 143t-24 139q-23 23 -108 34l-315 33q-135 14 -171 50t-48 86t-13 155z" />
    <glyph glyph-name="Scaron" unicode="&#x160;" horiz-adv-x="1366" 
d="M352 1823h123l207 -148l207 148h119v-11l-242 -243h-172l-242 243v11zM1202 395q0 -141 -18 -214t-66 -118q-63 -63 -209 -63h-463q-152 0 -208 59q-43 43 -60 115q-16 72 -18 258h157q3 -141 11 -190t32 -74t111 -25h414q90 0 124 34q33 34 33 175t-7 179t-31 63
t-125 35l-422 41q-158 14 -211 69q-39 37 -53 103q-15 66 -15 200t19 209q18 74 65 119q63 63 207 64h418q154 0 211 -60q43 -42 59 -112t19 -250h-158q-2 135 -10 182t-32 72t-112 24h-370q-88 0 -122 -32t-34 -169q0 -135 7 -173t31 -62t126 -35l422 -41q156 -14 202 -60
t61 -114t15 -209z" />
    <glyph glyph-name="scaron" unicode="&#x161;" horiz-adv-x="1107" 
d="M223 1495h123l207 -147l207 147h119v-10l-242 -244h-172l-242 244v10zM147 795q0 184 68 252q49 49 162 49h346q121 0 162 -41t54 -97t15 -186h-139q-4 143 -31 170t-94 27h-280q-63 0 -91 -28q-28 -27 -28 -137q1 -110 25 -134t106 -31l319 -35q135 -14 174 -53
q53 -53 53 -243t-67 -259q-49 -49 -162 -49h-368q-127 0 -169 42t-55 96q-12 54 -14 194h139q4 -156 29 -180t96 -25h308q65 0 93 28q28 27 28 143t-24 139q-23 23 -108 34l-315 33q-135 14 -171 50t-48 86t-13 155z" />
    <glyph glyph-name="Tcommaaccent" unicode="&#x162;" horiz-adv-x="1429" 
d="M793 137h211v-137h-578v137h211v1159h-375v-319h-151v457h1208v-457h-152v319h-374v-1159zM625 -143h182v-187q0 -68 -41 -114l-148 -174l-51 40l119 175q14 23 14 51v14h-75v195z" />
    <glyph glyph-name="tcommaaccent" unicode="&#x163;" horiz-adv-x="782" 
d="M690 127v-96l-102 -25q-90 -14 -146 -14q-106 0 -155 49t-49 174v750h-170v131h170v274h147v-274h307v-131h-307v-719q-1 -76 21 -98t98 -21h186zM334 -143h182v-187q0 -68 -41 -114l-147 -174l-52 40l119 175q14 23 15 51v14h-76v195z" />
    <glyph glyph-name="Tcaron" unicode="&#x164;" horiz-adv-x="1429" 
d="M383 1823h123l207 -148l207 148h118v-11l-241 -243h-172l-242 243v11zM793 137h211v-137h-578v137h211v1159h-375v-319h-151v457h1208v-457h-152v319h-374v-1159z" />
    <glyph glyph-name="tcaron" unicode="&#x165;" horiz-adv-x="782" 
d="M530 1726h179v-155q-1 -74 -11 -112t-43 -93l-75 -145l-58 22l47 180q6 27 6 46t-6 51l-39 168v38zM690 127v-96l-102 -25q-90 -14 -146 -14q-106 0 -155 49t-49 174v750h-170v131h170v274h147v-274h307v-131h-307v-719q-1 -76 21 -98t98 -21h186z" />
    <glyph glyph-name="Umacron" unicode="&#x16a;" horiz-adv-x="1570" 
d="M485 1577v125h598v-125h-598zM1147 1296h-209v138h559v-138h-197v-712q0 -250 -20 -352q-35 -181 -183 -217q-67 -15 -190 -15h-250q-221 0 -290 72q-57 55 -77 155q-19 100 -20 357v712h-196v138h559v-138h-209v-729q0 -195 15 -275t50 -116q35 -35 197 -35h203
q159 0 195 35t50 113q13 78 13 278v729z" />
    <glyph glyph-name="umacron" unicode="&#x16b;" horiz-adv-x="1298" 
d="M326 1249v125h598v-125h-598zM909 0v145q-113 -91 -171 -119t-140 -28h-129q-129 0 -187 58t-59 218v691h-176v131h324v-813q1 -88 33 -120t124 -32h113q68 0 125 22t143 76v736h-192v131h340v-967h180v-129h-328z" />
    <glyph glyph-name="Ubreve" unicode="&#x16c;" horiz-adv-x="1570" 
d="M784 1679q174 0 205 144h107q-8 -123 -88 -192t-224 -69t-223 70q-80 68 -88 191h107q30 -144 204 -144zM1147 1296h-209v138h559v-138h-197v-712q0 -250 -20 -352q-35 -181 -183 -217q-67 -15 -190 -15h-250q-221 0 -290 72q-57 55 -77 155q-19 100 -20 357v712h-196
v138h559v-138h-209v-729q0 -195 15 -275t50 -116q35 -35 197 -35h203q159 0 195 35t50 113q13 78 13 278v729z" />
    <glyph glyph-name="ubreve" unicode="&#x16d;" horiz-adv-x="1298" 
d="M625 1352q174 0 204 143h107q-8 -123 -88 -191t-223 -69q-143 0 -224 69q-80 69 -88 191h107q31 -143 205 -143zM909 0v145q-113 -91 -171 -119t-140 -28h-129q-129 0 -187 58t-59 218v691h-176v131h324v-813q1 -88 33 -120t124 -32h113q68 0 125 22t143 76v736h-192v131
h340v-967h180v-129h-328z" />
    <glyph glyph-name="Uring" unicode="&#x16e;" horiz-adv-x="1570" 
d="M1147 1296h-209v138h559v-138h-197v-712q0 -250 -20 -352q-35 -181 -183 -217q-67 -15 -190 -15h-250q-221 0 -290 72q-57 55 -77 155q-19 100 -20 357v712h-196v138h559v-138h-209v-729q0 -195 15 -275t50 -116q35 -35 197 -35h203q159 0 195 35t50 113q13 78 13 278
v729zM870 1575h-172q-96 0 -135 43q-49 49 -49 158q0 108 44 154t140 46h172q96 0 140 -46t45 -154q-1 -108 -45 -155q-44 -46 -140 -46zM858 1890h-147q-49 0 -70 -20t-21 -92t23 -99q16 -16 68 -16h147q51 0 68 16q22 27 22 99t-20 92t-70 20z" />
    <glyph glyph-name="uring" unicode="&#x16f;" horiz-adv-x="1298" 
d="M698 1563h-147q-49 0 -70 -21q-21 -20 -21 -92t23 -98q16 -16 68 -17h147q51 0 68 17q22 26 22 98t-20 92t-70 21zM711 1247h-172q-97 0 -141 46t-44 155t44 155t141 46h172q96 0 140 -46t44 -155t-49 -158q-39 -43 -135 -43zM909 0v145q-113 -91 -171 -119t-140 -28
h-129q-129 0 -187 58t-59 218v691h-176v131h324v-813q1 -88 33 -120t124 -32h113q68 0 125 22t143 76v736h-192v131h340v-967h180v-129h-328z" />
    <glyph glyph-name="Uhungarumlaut" unicode="&#x170;" horiz-adv-x="1570" 
d="M899 1565v10l191 231h223v-10l-283 -231h-131zM522 1565v10l191 231h223v-10l-283 -231h-131zM1147 1296h-209v138h559v-138h-197v-712q0 -250 -20 -352q-35 -181 -183 -217q-67 -15 -190 -15h-250q-221 0 -290 72q-57 55 -77 155q-19 100 -20 357v712h-196v138h559v-138
h-209v-729q0 -195 15 -275t50 -116q35 -35 197 -35h203q159 0 195 35t50 113q13 78 13 278v729z" />
    <glyph glyph-name="uhungarumlaut" unicode="&#x171;" horiz-adv-x="1298" 
d="M362 1237v10l191 232h223v-11l-282 -231h-132zM739 1237v10l191 232h223v-11l-283 -231h-131zM909 0v145q-113 -91 -171 -119t-140 -28h-129q-129 0 -187 58t-59 218v691h-176v131h324v-813q1 -88 33 -120t124 -32h113q68 0 125 22t143 76v736h-192v131h340v-967h180
v-129h-328z" />
    <glyph glyph-name="Uogonek" unicode="&#x172;" horiz-adv-x="1570" 
d="M1147 1296h-209v138h559v-138h-197v-712q0 -250 -20 -352q-35 -181 -183 -217q-67 -15 -190 -15h-63q-56 -53 -76 -85q-20 -31 -20 -105t14 -89q16 -12 43 -12h72q29 0 43 13t14 110h113q1 -96 -9 -137t-36 -67t-103 -25h-123q-76 -1 -112 33t-35 134q0 100 23 138
q23 39 85 92h-80q-221 0 -290 72q-57 55 -77 155q-19 100 -20 357v712h-196v138h559v-138h-209v-729q0 -195 15 -275t50 -116q35 -35 197 -35h203q159 0 195 35t50 113q13 78 13 278v729z" />
    <glyph glyph-name="uogonek" unicode="&#x173;" horiz-adv-x="1298" 
d="M1102 -168h112q0 -96 -9 -137t-35 -67t-103 -25h-123q-76 -1 -112 33t-35 134q0 100 24 139q24 40 88 93v143q-113 -91 -171 -119t-140 -28h-129q-129 0 -187 58t-59 218v691h-176v131h324v-813q1 -88 33 -120t124 -32h113q68 0 125 22t143 76v736h-192v131h340v-967h180
v-129h-225q-56 -53 -76 -85q-20 -31 -20 -105t14 -89q16 -12 43 -12h71q30 -1 44 13t14 110z" />
    <glyph glyph-name="Wcircumflex" unicode="&#x174;" horiz-adv-x="2127" 
d="M739 1569v10l242 244h172l242 -244v-10h-123l-207 147l-207 -147h-119zM1120 1440q44 0 62 -14t26 -50l283 -1224h33l233 1144h-196v138h512v-138h-172l-271 -1241q-8 -37 -26 -49t-62 -12h-94q-43 0 -62 13q-18 13 -26 50l-281 1223h-30l-279 -1223q-8 -37 -28 -50
t-60 -13h-98q-43 0 -62 12q-18 12 -26 49l-269 1241h-172v138h527v-138h-197l231 -1144h33l283 1224q8 37 26 50t62 14h100z" />
    <glyph glyph-name="wcircumflex" unicode="&#x175;" horiz-adv-x="1738" 
d="M541 1241v10l241 244h172l242 -244v-10h-123l-207 148l-207 -148h-118zM918 1098q31 0 45 -12t22 -42l225 -897h25l182 818h-162v131h443v-131h-146l-221 -918q-8 -33 -21 -43t-44 -10h-97q-31 0 -44 11t-21 42l-223 879h-23l-223 -879q-7 -31 -21 -42t-45 -11h-94
q-31 0 -44 10t-21 43l-224 918h-145v131h453v-131h-162l182 -818h25l227 897q10 53 65 54h87z" />
    <glyph glyph-name="Ycircumflex" unicode="&#x176;" horiz-adv-x="1431" 
d="M395 1569v10l242 244h172l242 -244v-10h-123l-207 147l-207 -147h-119zM29 1296v138h549v-134h-191l328 -561h14l338 561h-193v134h529v-138h-178l-434 -690v-469h210v-137h-575v137h211v465l-428 694h-180z" />
    <glyph glyph-name="ycircumflex" unicode="&#x177;" horiz-adv-x="1253" 
d="M309 1241v10l242 244h172l242 -244v-10h-123l-207 148l-207 -148h-119zM760 965v131h457v-131h-146l-428 -1153q-27 -70 -65 -97t-113 -27q-74 0 -217 15v121h207q45 0 63 47l45 125l-383 969h-145v131h469v-131h-160l287 -768h12l277 768h-160z" />
    <glyph glyph-name="Ydieresis" unicode="&#x178;" horiz-adv-x="1431" 
d="M827 1616v194h170v-194h-170zM449 1616v194h169v-194h-169zM29 1296v138h549v-134h-191l328 -561h14l338 561h-193v134h529v-138h-178l-434 -690v-469h210v-137h-575v137h211v465l-428 694h-180z" />
    <glyph glyph-name="Zacute" unicode="&#x179;" horiz-adv-x="1349" 
d="M1067 133v307h152v-440h-1086v104l887 1196h-694v-296h-152v430h1055v-105l-889 -1196h727zM573 1565v10l191 231h237v-10l-290 -231h-138z" />
    <glyph glyph-name="zacute" unicode="&#x17a;" horiz-adv-x="1140" 
d="M883 127v242h137v-369h-916v102l725 867h-555v-236h-137v363h887v-103l-727 -866h586zM459 1237v10l190 232h238v-11l-291 -231h-137z" />
    <glyph glyph-name="Zdotaccent" unicode="&#x17b;" horiz-adv-x="1349" 
d="M594 1614v196h176v-196h-176zM1067 133v307h152v-440h-1086v104l887 1196h-694v-296h-152v430h1055v-105l-889 -1196h727z" />
    <glyph glyph-name="zdotaccent" unicode="&#x17c;" horiz-adv-x="1140" 
d="M479 1286v197h176v-197h-176zM883 127v242h137v-369h-916v102l725 867h-555v-236h-137v363h887v-103l-727 -866h586z" />
    <glyph glyph-name="Zcaron" unicode="&#x17d;" horiz-adv-x="1349" 
d="M352 1823h123l207 -148l207 148h119v-11l-242 -243h-172l-242 243v11zM1067 133v307h152v-440h-1086v104l887 1196h-694v-296h-152v430h1055v-105l-889 -1196h727z" />
    <glyph glyph-name="zcaron" unicode="&#x17e;" horiz-adv-x="1140" 
d="M238 1495h122l207 -147l207 147h119v-10l-242 -244h-172l-241 244v10zM883 127v242h137v-369h-916v102l725 867h-555v-236h-137v363h887v-103l-727 -866h586z" />
    <glyph glyph-name="Aringacute" unicode="&#x1fa;" horiz-adv-x="1519" 
d="M659 1866v10l191 231h237v-10l-290 -231h-138zM831 1671h-147q-49 -1 -70 -21q-20 -20 -20 -92t22 -98q16 -16 68 -16h147q51 0 68 16q23 26 23 98t-21 92t-70 21zM733 1300l-213 -688h465l-213 688h-39zM580 137v-137h-533v137h172l391 1223q-47 8 -73 39
q-49 49 -49 157t44 155q44 46 140 46h172q96 0 140 -46t44 -155q0 -173 -121 -194l393 -1225h173v-137h-547v137h207l-109 344l-545 -2l-106 -342h207z" />
    <glyph glyph-name="aringacute" unicode="&#x1fb;" horiz-adv-x="1208" 
d="M492 1769v11l190 231h238v-10l-291 -232h-137zM666 1563h-148q-50 0 -70 -21q-20 -20 -20 -92t23 -98q16 -16 67 -17h148q51 0 67 17q23 26 23 98t-20 92t-70 21zM678 1247h-172q-96 0 -135 43q-49 49 -49 158t44 155t140 46h172q96 0 140 -46t44 -155t-49 -158
q-39 -43 -135 -43zM549 127q74 0 131 20t149 78v287h-327q-150 0 -188 -39t-38 -161t33 -153q33 -32 121 -32h119zM829 780q1 131 -27 159t-116 28h-197q-96 0 -130 -34t-35 -165h-148q4 201 66 264t204 64h267q150 0 205 -58q37 -35 48 -87t11 -163v-659h176v-129h-324v139
q-106 -85 -164 -113t-139 -28h-129q-143 0 -207 64t-63 243q0 180 71 251q70 71 278 71t353 -25v178z" />
    <glyph glyph-name="AEacute" unicode="&#x1fc;" horiz-adv-x="2093" 
d="M1159 1565v10l191 231h237v-10l-291 -231h-137zM1036 1303h-20l-393 -691h413v691zM836 133h200v348h-487l-199 -348h201v-133h-524v137h166l663 1159h-235v138h1316v-420h-151v282h-596v-485h450v-133h-450v-541h608v309h150v-446h-1112v133z" />
    <glyph glyph-name="aeacute" unicode="&#x1fd;" horiz-adv-x="1839" 
d="M799 1237v10l190 232h238v-11l-291 -231h-137zM1550 618q0 264 -49 314q-31 33 -131 33h-215q-100 0 -138 -39t-40 -308h573zM502 508q-150 0 -188 -38t-38 -159t33 -153t121 -31h119q77 0 137 23t158 86q-14 88 -15 272h-327zM1384 1096q162 0 220 -58t76 -152
q19 -95 20 -327v-37q0 -25 -25 -24h-698q2 -178 13 -244t39 -94t128 -29h240q86 0 121 33q33 35 36 172h146q-2 -123 -18 -180q-16 -56 -66 -106q-49 -50 -191 -50h-278q-162 0 -223 61q-43 41 -64 103q-125 -104 -185 -135t-149 -31h-129q-143 0 -207 64t-63 243
q0 180 68 244q76 76 313 76q164 0 321 -27v182q1 131 -27 159t-116 28h-197q-96 0 -130 -34t-35 -165h-148q4 201 66 264t204 64h242q152 0 207 -58q2 -4 7 -9t9 -10t9 -11q52 87 243 88h221z" />
    <glyph glyph-name="Oslashacute" unicode="&#x1fe;" horiz-adv-x="1433" 
d="M606 1565v10l191 231h237v-10l-291 -231h-137zM1040 1263q0 1 -2 1l-524 -1121h404q96 0 124 28t38 132q12 103 12 413t-12 414t-38 132q-2 0 -2 1zM340 717q0 -305 11 -411t38 -134v-2l2 -2l527 1122h-404q-96 0 -125 -28q-27 -28 -38 -134t-11 -411zM487 1434h496
l51 108h146l-64 -135q16 -8 43 -31q55 -55 77 -184t22 -475t-22 -475q-22 -130 -78 -186t-212 -56h-497l-52 -109h-145l63 136q-92 46 -118 213q-20 127 -21 477q0 350 21 477q20 128 77 184t213 56z" />
    <glyph glyph-name="oslashacute" unicode="&#x1ff;" horiz-adv-x="1196" 
d="M489 1237v10l191 232h238v-11l-291 -231h-138zM477 963q-100 0 -130 -30q-30 -29 -41 -103t-11 -276t9 -278t32 -102l414 789h-273zM719 133q100 0 130 30q30 29 41 103t11 278t-10 278t-35 102l-416 -791q0 -2 18 -1t19 1h242zM461 0q-63 0 -88 4l-58 -106h-139l80 145
l-18 18q-52 53 -72 149t-20 338q0 241 19 337t77 153t219 58h274q57 0 82 -4l62 116h139l-84 -153l24 -21q52 -53 72 -149t20 -337t-18 -337q-20 -95 -78 -153t-219 -58h-274z" />
    <glyph glyph-name="Scommaaccent" unicode="&#x218;" horiz-adv-x="1366" 
d="M1202 395q0 -141 -18 -214t-66 -118q-63 -63 -209 -63h-463q-152 0 -208 59q-43 43 -60 115q-16 72 -18 258h157q3 -141 11 -190t32 -74t111 -25h414q90 0 124 34q33 34 33 175t-7 179t-31 63t-125 35l-422 41q-158 14 -211 69q-39 37 -53 103q-15 66 -15 200t19 209
q18 74 65 119q63 63 207 64h418q154 0 211 -60q43 -42 59 -112t19 -250h-158q-2 135 -10 182t-32 72t-112 24h-370q-88 0 -122 -32t-34 -169q0 -135 7 -173t31 -62t126 -35l422 -41q156 -14 202 -60t61 -114t15 -209zM592 -143h182v-187q0 -68 -41 -114l-147 -174l-51 40
l118 175q14 23 15 51v14h-76v195z" />
    <glyph glyph-name="scommaaccent" unicode="&#x219;" horiz-adv-x="1107" 
d="M147 795q0 184 68 252q49 49 162 49h346q121 0 162 -41t54 -97t15 -186h-139q-4 143 -31 170t-94 27h-280q-63 0 -91 -28q-28 -27 -28 -137q1 -110 25 -134t106 -31l319 -35q135 -14 174 -53q53 -53 53 -243t-67 -259q-49 -49 -162 -49h-368q-127 0 -169 42t-55 96
q-12 54 -14 194h139q4 -156 29 -180t96 -25h308q65 0 93 28q28 27 28 143t-24 139q-23 23 -108 34l-315 33q-135 14 -171 50t-48 86t-13 155zM465 -143h182v-187q0 -68 -41 -114l-147 -174l-51 40l118 175q14 23 15 51v14h-76v195z" />
    <glyph glyph-name="schwa" unicode="&#x259;" horiz-adv-x="1157" 
d="M295 479q0 -266 49 -315q31 -33 131 -33h213q98 0 133 33q45 49 47 315h-573zM145 578q0 25 25 24h698q-2 176 -13 241t-39 93t-128 29h-239q-86 0 -121 -33q-33 -35 -37 -172h-146q2 123 19 180q16 57 57 98q57 57 199 58h282q162 0 220 -58t76 -153q20 -96 20 -337
t-20 -337q-20 -95 -76 -153q-57 -58 -220 -58h-241q-162 0 -219 57q-56 57 -76 155t-21 329v37z" />
    <glyph glyph-name="circumflex" unicode="&#x2c6;" 
d="M184 1241v10l242 244h172l242 -244v-10h-123l-207 148l-207 -148h-119z" />
    <glyph glyph-name="caron" unicode="&#x2c7;" 
d="M184 1495h123l207 -147l207 147h119v-10l-242 -244h-172l-242 244v10z" />
    <glyph glyph-name="breve" unicode="&#x2d8;" 
d="M512 1352q174 0 205 143h106q-8 -123 -88 -191t-223 -69q-143 0 -223 69t-88 191h106q31 -143 205 -143z" />
    <glyph glyph-name="dotaccent" unicode="&#x2d9;" 
d="M424 1286v197h176v-197h-176z" />
    <glyph glyph-name="ring" unicode="&#x2da;" 
d="M598 1247h-172q-94 0 -139 46t-45 155t44 155t140 46h172q96 0 140 -46t44 -155t-45 -155t-139 -46zM586 1563h-148q-50 0 -70 -21q-20 -20 -20 -92t23 -98q16 -16 67 -17h148q51 0 67 17q23 26 23 98t-20 92t-70 21z" />
    <glyph glyph-name="ogonek" unicode="&#x2db;" 
d="M610 -168h113q0 -96 -9 -137t-36 -67t-103 -25h-122q-76 -1 -112 33t-36 134t31 148q31 49 156 143l47 -45q-71 -63 -93 -98q-22 -34 -22 -108t14 -89q16 -12 43 -12h72q29 -1 43 13t14 110z" />
    <glyph glyph-name="tilde" unicode="&#x2dc;" 
d="M213 1255v136q0 59 19 82t65 22h25q41 0 124 -31l242 -94l43 123h80v-135q0 -59 -19 -82t-65 -23h-25q-41 0 -124 31l-242 94l-43 -123h-80z" />
    <glyph glyph-name="hungarumlaut" unicode="&#x2dd;" 
d="M487 1237v10l191 232h223v-11l-283 -231h-131zM111 1237v10l190 232h223v-11l-282 -231h-131z" />
    <glyph glyph-name="commaaccent" unicode="&#x326;" 
d="M438 -143h183v-187q0 -68 -41 -114l-148 -174l-51 40l119 175q14 23 14 51v14h-76v195z" />
    <glyph glyph-name="Wgrave" unicode="&#x1e80;" horiz-adv-x="2127" 
d="M1176 1565h-138l-290 231v10h237l191 -231v-10zM1120 1440q44 0 62 -14t26 -50l283 -1224h33l233 1144h-196v138h512v-138h-172l-271 -1241q-8 -37 -26 -49t-62 -12h-94q-43 0 -62 13q-18 13 -26 50l-281 1223h-30l-279 -1223q-8 -37 -28 -50t-60 -13h-98q-43 0 -62 12
q-18 12 -26 49l-269 1241h-172v138h527v-138h-197l231 -1144h33l283 1224q8 37 26 50t62 14h100z" />
    <glyph glyph-name="wgrave" unicode="&#x1e81;" horiz-adv-x="1738" 
d="M977 1237h-137l-291 231v11h237l191 -232v-10zM918 1098q31 0 45 -12t22 -42l225 -897h25l182 818h-162v131h443v-131h-146l-221 -918q-8 -33 -21 -43t-44 -10h-97q-31 0 -44 11t-21 42l-223 879h-23l-223 -879q-7 -31 -21 -42t-45 -11h-94q-31 0 -44 10t-21 43l-224 918
h-145v131h453v-131h-162l182 -818h25l227 897q10 53 65 54h87z" />
    <glyph glyph-name="Wacute" unicode="&#x1e82;" horiz-adv-x="2127" 
d="M1120 1440q44 0 62 -14t26 -50l283 -1224h33l233 1144h-196v138h512v-138h-172l-271 -1241q-8 -37 -26 -49t-62 -12h-94q-43 0 -62 13q-18 13 -26 50l-281 1223h-30l-279 -1223q-8 -37 -28 -50t-60 -13h-98q-43 0 -62 12q-18 12 -26 49l-269 1241h-172v138h527v-138h-197
l231 -1144h33l283 1224q8 37 26 50t62 14h100zM958 1565v10l191 231h237v-10l-290 -231h-138z" />
    <glyph glyph-name="wacute" unicode="&#x1e83;" horiz-adv-x="1738" 
d="M918 1098q31 0 45 -12t22 -42l225 -897h25l182 818h-162v131h443v-131h-146l-221 -918q-8 -33 -21 -43t-44 -10h-97q-31 0 -44 11t-21 42l-223 879h-23l-223 -879q-7 -31 -21 -42t-45 -11h-94q-31 0 -44 10t-21 43l-224 918h-145v131h453v-131h-162l182 -818h25l227 897
q10 53 65 54h87zM760 1237v10l190 232h238v-11l-291 -231h-137z" />
    <glyph glyph-name="Wdieresis" unicode="&#x1e84;" horiz-adv-x="2127" 
d="M1120 1440q44 0 62 -14t26 -50l283 -1224h33l233 1144h-196v138h512v-138h-172l-271 -1241q-8 -37 -26 -49t-62 -12h-94q-43 0 -62 13q-18 13 -26 50l-281 1223h-30l-279 -1223q-8 -37 -28 -50t-60 -13h-98q-43 0 -62 12q-18 12 -26 49l-269 1241h-172v138h527v-138h-197
l231 -1144h33l283 1224q8 37 26 50t62 14h100zM1171 1616v194h170v-194h-170zM793 1616v194h170v-194h-170z" />
    <glyph glyph-name="wdieresis" unicode="&#x1e85;" horiz-adv-x="1738" 
d="M918 1098q31 0 45 -12t22 -42l225 -897h25l182 818h-162v131h443v-131h-146l-221 -918q-8 -33 -21 -43t-44 -10h-97q-31 0 -44 11t-21 42l-223 879h-23l-223 -879q-7 -31 -21 -42t-45 -11h-94q-31 0 -44 10t-21 43l-224 918h-145v131h453v-131h-162l182 -818h25l227 897
q10 53 65 54h87zM973 1288v195h170v-195h-170zM594 1288v195h170v-195h-170z" />
    <glyph glyph-name="Ygrave" unicode="&#x1ef2;" horiz-adv-x="1431" 
d="M831 1565h-137l-291 231v10h238l190 -231v-10zM29 1296v138h549v-134h-191l328 -561h14l338 561h-193v134h529v-138h-178l-434 -690v-469h210v-137h-575v137h211v465l-428 694h-180z" />
    <glyph glyph-name="ygrave" unicode="&#x1ef3;" horiz-adv-x="1265" 
d="M745 1237h-137l-291 231v11h238l190 -232v-10zM760 965v131h457v-131h-146l-428 -1153q-27 -70 -65 -97t-113 -27q-74 0 -217 15v121h207q45 0 63 47l45 125l-383 969h-145v131h469v-131h-160l287 -768h12l277 768h-160z" />
    <glyph glyph-name="enspace" unicode="&#x2002;" 
 />
    <glyph glyph-name="emspace" unicode="&#x2003;" horiz-adv-x="2048" 
 />
    <glyph glyph-name="threeperemspace" unicode="&#x2004;" horiz-adv-x="681" 
 />
    <glyph glyph-name="fourperemspace" unicode="&#x2005;" horiz-adv-x="512" 
 />
    <glyph glyph-name="thinspace" unicode="&#x2009;" horiz-adv-x="272" 
 />
    <glyph glyph-name="hairspace" unicode="&#x200a;" horiz-adv-x="153" 
 />
    <glyph glyph-name="endash" unicode="&#x2013;" horiz-adv-x="1120" 
d="M987 578h-852v147h852v-147z" />
    <glyph glyph-name="emdash" unicode="&#x2014;" horiz-adv-x="2021" 
d="M1888 580h-1753v143h1753v-143z" />
    <glyph glyph-name="quoteleft" unicode="&#x2018;" horiz-adv-x="436" 
d="M311 924h-202v206q0 74 45 127l172 203l57 -45l-139 -203q-16 -27 -17 -57v-16h84v-215z" />
    <glyph glyph-name="quoteright" unicode="&#x2019;" horiz-adv-x="436" 
d="M125 1434h203v-207q0 -74 -45 -127l-172 -203l-58 45l140 203q16 23 16 57v17h-84v215z" />
    <glyph glyph-name="quotesinglbase" unicode="&#x201a;" horiz-adv-x="452" 
d="M133 215h203v-207q0 -74 -45 -127l-172 -200l-58 45l140 200q16 27 16 58v16h-84v215z" />
    <glyph glyph-name="quotedblleft" unicode="&#x201c;" horiz-adv-x="804" 
d="M680 924h-203v206q0 74 45 127l170 203l58 -45l-140 -203q-14 -23 -14 -57v-16h84v-215zM311 924h-202v206q0 74 45 127l172 203l57 -45l-139 -203q-16 -27 -17 -57v-16h84v-215z" />
    <glyph glyph-name="quotedblright" unicode="&#x201d;" horiz-adv-x="804" 
d="M125 1434h203v-207q0 -74 -45 -127l-172 -203l-58 45l140 203q16 23 16 57v17h-84v215zM492 1434h202v-207q0 -76 -45 -127l-170 -203l-57 45l139 203q14 20 14 57v17h-83v215z" />
    <glyph glyph-name="quotedblbase" unicode="&#x201e;" horiz-adv-x="821" 
d="M133 215h203v-207q0 -74 -45 -127l-172 -200l-58 45l140 200q16 27 16 58v16h-84v215zM500 215h202v-207q0 -76 -45 -127l-170 -200l-57 45l139 200q14 23 15 58v16h-84v215z" />
    <glyph glyph-name="dagger" unicode="&#x2020;" horiz-adv-x="983" 
d="M565 766l-43 -526h-61l-43 526l37 246h73zM569 1434l-41 -275h-73l-43 275h157zM831 1159v-147l-260 43v61zM150 1159l260 -43v-61l-260 -43v147z" />
    <glyph glyph-name="daggerdbl" unicode="&#x2021;" horiz-adv-x="999" 
d="M573 717l-36 -295h-74l-37 295l37 295h74zM580 0h-160l43 274h74zM840 274l-260 43v62l260 43v-148zM160 274v148l260 -43v-62zM580 1434l-43 -275h-74l-43 275h160zM840 1159v-147l-260 43v61zM160 1159l260 -43v-61l-260 -43v147z" />
    <glyph glyph-name="bullet" unicode="&#x2022;" horiz-adv-x="983" 
d="M244 744q0 110 10 156t41 77t115 31h163q84 0 114 -31t40 -77t10 -157t-10 -157t-40 -76q-30 -31 -114 -31h-163q-84 0 -115 31t-41 77q-10 47 -10 157z" />
    <glyph glyph-name="ellipsis" unicode="&#x2026;" horiz-adv-x="1280" 
d="M971 213h192v-213h-192v213zM545 213h192v-213h-192v213zM117 213h194v-213h-194v213z" />
    <glyph glyph-name="guilsinglleft" unicode="&#x2039;" horiz-adv-x="729" 
d="M115 498v100l315 328h176l-350 -377l352 -377h-178z" />
    <glyph glyph-name="guilsinglright" unicode="&#x203a;" horiz-adv-x="729" 
d="M610 498l-315 -326h-174l350 375l-352 379h176l315 -328v-100z" />
    <glyph glyph-name="fraction" unicode="&#x2044;" horiz-adv-x="1159" 
d="M152 -6h-132l519 756l469 690h131l-518 -752z" />
    <glyph glyph-name="Euro" unicode="&#x20ac;" horiz-adv-x="1437" 
d="M856 846h-455v-246h455v-135h-453q6 -254 48 -295q31 -31 124 -31h377q94 0 123 33q23 23 33 83t14 214h156q-4 -195 -22 -279t-72 -137q-53 -53 -215 -53h-416q-156 0 -207 51t-73 135t-29 279h-146v135h144v246h-144v135h148q8 188 28 269t72 132t207 52h418
q162 0 214 -52t69 -133q17 -80 22 -262h-154q-6 236 -42 272t-128 35h-377q-94 0 -124 -30q-41 -41 -48 -283h453v-135z" />
    <glyph glyph-name="published" unicode="&#x2117;" horiz-adv-x="1615" 
d="M240 716q0 -452 120 -573q47 -49 112 -71t200 -21h272q135 1 200 21t109 69q123 127 123 577t-123 572q-47 49 -111 71t-198 21h-272q-135 0 -201 -20t-111 -70q-120 -124 -120 -576zM182 716q0 472 135 611q53 55 126 81t219 26h290q145 0 219 -26t127 -81
q134 -137 134 -610t-134 -611q-53 -54 -127 -80t-219 -26h-290q-144 0 -218 26t-127 80q-135 138 -135 610zM1118 890q0 -148 -47 -198q-33 -33 -117 -33h-245v-243h114v-82h-313v82h111v626h-111v80h444q84 0 117 -32q47 -52 47 -200zM709 739h223q53 0 67 15q25 26 25 138
t-20 131t-72 19h-223v-303z" />
    <glyph glyph-name="servicemark" unicode="&#x2120;" horiz-adv-x="1935" 
d="M817 645v80h109v629h-109v80h252q23 0 31 -8t14 -27l203 -651h12l201 651q6 20 14 27t31 8h248v-80h-109v-629h109v-80h-293v80h90v618h-14l-215 -663q-7 -20 -15 -28t-30 -7h-56q-20 0 -28 6t-15 29l-215 663h-16v-618h92v-80h-291zM688 863q0 -134 -41 -176t-121 -42
h-252q-84 0 -112 29q-28 30 -36 68q-9 38 -11 141h94q2 -119 18 -137t66 -17h215q51 0 68 18q18 17 18 107t-18 108t-70 25l-225 25q-88 8 -122 41t-34 165t41 174t121 42h229q82 0 111 -29t37 -67t10 -136h-94q0 106 -23 133q-14 14 -61 15h-193q-47 0 -64 -18t-17 -106
t16 -104t71 -24l226 -23q84 -12 116 -39q37 -39 37 -173z" />
    <glyph glyph-name="trademark" unicode="&#x2122;" horiz-adv-x="2039" 
d="M922 725h108v629h-108v80h252q22 0 30 -8t15 -27l200 -651h15l200 651q6 20 14 27t31 8h246v-80h-106v-629h106v-80h-293v80h92v618h-14l-215 -663q-6 -20 -14 -28t-31 -7h-55q-23 0 -31 7t-14 28l-215 663h-15v-618h92v-80h-290v80zM508 725h113v-80h-324v80h117v629
h-197v-172h-90v252h666v-252h-91v172h-194v-629z" />
    <glyph glyph-name="minus" unicode="&#x2212;" horiz-adv-x="1052" 
d="M127 676v135h799v-135h-799z" />
    <glyph glyph-name="aring.alt" horiz-adv-x="1208" 
d="M666 1329h-148q-50 -1 -70 -21t-20 -92t23 -98q16 -16 67 -16h148q51 0 67 16q23 26 23 98t-20 92t-70 21zM549 127q74 0 131 20t149 78v287h-327q-150 0 -188 -39t-38 -161t33 -153q33 -32 121 -32h119zM829 780q1 131 -27 159t-116 28h-197q-96 0 -130 -34t-35 -165
h-148q4 201 70 268q39 39 98 51q-22 39 -22 137t44 145q44 46 140 46h172q96 0 140 -46q44 -45 44 -143t-26 -143q47 -10 83 -45t47 -87t11 -163v-659h176v-129h-324v139q-106 -85 -164 -113t-139 -28h-129q-143 0 -207 64t-63 243q0 180 71 251q70 71 278 71t353 -25v178z
" />
    <glyph glyph-name="aringacute.alt" horiz-adv-x="1208" 
d="M492 1534v10l190 232h238v-11l-291 -231h-137zM666 1329h-148q-50 -1 -70 -21t-20 -92t23 -98q16 -16 67 -16h148q51 0 67 16q23 26 23 98t-20 92t-70 21zM549 127q74 0 131 20t149 78v287h-327q-150 0 -188 -39t-38 -161t33 -153q33 -32 121 -32h119zM829 780
q1 131 -27 159t-116 28h-197q-96 0 -130 -34t-35 -165h-148q4 201 70 268q39 39 98 51q-22 39 -22 137t44 145q44 46 140 46h172q96 0 140 -46q44 -45 44 -143t-26 -143q47 -10 83 -45t47 -87t11 -163v-659h176v-129h-324v139q-106 -85 -164 -113t-139 -28h-129
q-143 0 -207 64t-63 243q0 180 71 251q70 71 278 71t353 -25v178z" />
    <glyph glyph-name="registered.alt" horiz-adv-x="1615" 
d="M240 716q0 -452 120 -573q47 -49 112 -71t200 -21h272q135 1 200 21t109 69q123 127 123 577t-123 572q-47 49 -111 71t-198 21h-272q-135 0 -201 -20t-111 -70q-120 -124 -120 -576zM182 716q0 472 135 611q53 55 126 81t219 26h290q145 0 219 -26t127 -81
q134 -137 134 -610t-134 -611q-53 -54 -127 -80t-219 -26h-290q-144 0 -218 26t-127 80q-135 138 -135 610zM674 760h219q51 0 70 16q25 25 25 127q0 103 -21 121q-20 18 -72 18h-221v-282zM1190 416v-82h-123q-41 0 -61 20t-23 193q-2 85 -28 111t-85 26h-196v-270h110v-80
h-309v80h109v628h-109v80h447q82 0 122 -41t39 -153t-25 -154q-24 -43 -87 -53v-2q59 -14 81 -48t25 -113q2 -79 6 -142h107z" />
    <glyph glyph-name="hfjslug" horiz-adv-x="1421" 
d="M872 580q-33 0 -32 34q0 12 9 24t23 11q14 0 24 -11t9 -24q0 -34 -33 -34zM997 612h-22v35h22q20 0 21 -16q-1 -19 -21 -19zM659 823q-33 0 -33 45t33 78l41 -80q-16 -43 -41 -43zM645 1056q0 30 29 29q27 -1 27 -35t-31 -69q-25 45 -25 75zM494 662l28 -97h17l22 70h2
l23 -70h16l29 97h-17l-20 -72h-2l-23 72h-14l-23 -72h-2l-20 72h-16zM270 662v-95h17v66l51 -66h14v95h-16v-66l-51 66h-15zM395 662v-95h70v15h-53v26h47v15h-47v24h53v15h-70zM750 567h16v35l37 60h-19l-26 -46l-27 46h-18l37 -60v-35zM872 565q20 1 34 15q33 33 1 68
q-15 16 -35 16t-34 -16t-14 -34q0 -20 14 -34t34 -15zM1034 631q0 31 -35 31h-41v-95h17v31h24l21 -31h18l-24 35q20 8 20 29zM1071 662v-95h16v25l17 16l31 -41h20l-41 54l37 41h-21l-40 -50h-3v50h-16zM729 1047q0 63 -55 63q-25 0 -41 -18q-35 -39 12 -125
q-47 -37 -47 -83q0 -91 59 -89q39 0 60 49h2l24 -49l25 12l-35 65q13 29 27 80l-27 6q-8 -37 -16 -61h-2l-33 64q47 43 47 86zM985 799q63 0 64 73v281h-33v-281q0 -45 -33 -45q-16 0 -41 11v-31q20 -8 43 -8zM377 1153v-352h31v162h96v-162h31v352h-31v-162h-96v162h-31z
M819 1153v-352h31v160h78v28h-78v135h88v29h-119zM1319 -410h-426l-16 29h-334l-17 -29h-424v621q29 0 48 19q18 19 18 46q0 26 -20 46t-46 20v1135h205l62 161h684l59 -161h207v-1887z" />
    <glyph glyph-name="caron.alt" 
d="M428 1475h178v-156q0 -74 -10 -112t-43 -93l-76 -145l-57 22l47 180q6 27 6 47t-6 50l-39 168v39z" />
    <glyph glyph-name="NUL" horiz-adv-x="0" 
 />
    <glyph glyph-name="wiredslug" horiz-adv-x="1843" 
d="M1434 410v819h-205v-819h-205v-205h205v205h205zM1638 0h-1433v1434h1433v-1434zM819 410h-205v-205h205v205zM819 410h205v819h-205v-819zM614 410v819h-204v-819h204z" />
    </font>
</defs>
</svg>
