<?xml version="1.0" encoding="utf-8"?>
<!-- Generator: Adobe Illustrator 15.0.2, SVG Export Plug-In . SVG Version: 6.00 Build 0)  -->
<!DOCTYPE svg PUBLIC "-//W3C//DTD SVG 1.1//EN" "http://www.w3.org/Graphics/SVG/1.1/DTD/svg11.dtd">
<svg version="1.1" id="Layer_1" xmlns="http://www.w3.org/2000/svg" xmlns:xlink="http://www.w3.org/1999/xlink" x="0px" y="0px"
	 width="72px" height="72px" viewBox="0 0 72 72" enable-background="new 0 0 72 72" xml:space="preserve">
<g>
	<path fill="#DDDDDD" d="M36,68.75c-18.196,0-33-14.804-33-33s14.804-33,33-33s32.999,14.804,32.999,33S54.196,68.75,36,68.75z"/>
	<path fill="#808080" d="M36,4.95c16.982,0,30.799,13.817,30.799,30.8S52.982,66.55,36,66.55c-16.983,0-30.8-13.816-30.8-30.8
		S19.017,4.95,36,4.95 M36,0.55c-19.441,0-35.2,15.76-35.2,35.2s15.759,35.2,35.2,35.2c19.439,0,35.199-15.76,35.199-35.2
		S55.439,0.55,36,0.55L36,0.55z"/>
</g>
<rect x="37" y="14" fill="#FFFFFF" width="6" height="3"/>
<ellipse fill="#39B54A" cx="37.875" cy="16.208" rx="1.875" ry="1.792"/>
<path fill="#808080" d="M46,11V8h-3h-3v3h-3v3h3h3v3h-3h-3v-3h-3h-3h-3h-3v3v3h3h3h3h3v3h3v3v3h-3h-3v3h-3v3h-3v3h-3v3v3v3v3v3h3h3
	v3h3h3v3v3h3h3h3v3h-3h-3h-3h-3v-3h-3h-3v-3h-3v3v3h3h3v3h3h3h3h3h3h3v-3v-3v-3h-3h-3h-3v-3h3v-3h3h3v-3v-3v-3v-3v-3v-3v-3h-3v-3h-3
	v-3v-3h3v-3v-3h3v-3v-3H46z M31,47v-3v-3h3v-3h3h3h3v3v3v3h-3v3h-3h-3h-3V47z"/>
</svg>
