<svg xmlns="http://www.w3.org/2000/svg" viewBox="0 0 32 32"><path fill="#DA6" d="M28.985 15.148c-1.04-.206-2.368.553-3.325.156-.975-.404-1.376-1.882-2.242-2.46-.872-.585-2.39-.393-3.13-1.133-.74-.738-.547-2.256-1.13-3.13-.58-.865-2.06-1.266-2.462-2.24-.397-.958.362-2.284.156-3.325-.138-.7-.762-1.366-1.13-2.065-.297-.56-.877-.903-1.507-.833C5.93 1.037-.452 8.27.025 16.907.47 24.94 7.06 31.53 15.093 31.975c8.637.477 15.87-5.904 16.79-14.19.07-.63-.273-1.21-.833-1.506-.7-.37-1.364-.994-2.065-1.132z"/><circle fill="#843" cx="7" cy="12" r="2"/><circle fill="#843" cx="16" cy="17" r="2"/><circle fill="#843" cx="25" cy="21" r="2"/><circle fill="#843" cx="12" cy="24" r="2"/><circle fill="#DA6" cx="26" cy="8" r="2"/><circle fill="#DA6" cx="30" cy="2" r="2"/></svg>