<svg xmlns="http://www.w3.org/2000/svg" width="12px" height="11px" viewBox="0 0 528 450"><g transform="scale(0.1,-0.1)" fill="#999"><path d="m2137 -6a2250 2250 0 1 1 925 -4353c185 119 209 363 50 515c-49 47 -140 84 -208 84c-37 0 -126 -16 -164 -30a1620 1620 0 1 0 1070 1850c40 -194 51 -199 -245 99c-164 165 -275 269 -301 281c-79 39 -177 22 -250 -42c-72 -64 -96 -177 -54 -262c997 -1016 1039 -1054 1083 -1066c56 -15 114 -9 161 17c903 877 1040 1019 1052 1048c62 148 -53 315 -216 315c-30 0 -66 -8 -88 -19c-20 -10 -135 -114 -254 -231c-191 -186 -218 -208 -222 -188c-3 13 -10 57 -16 98a2250 2250 0 0 1 -2323 1884z"/></g></svg>