<?xml version="1.0" encoding="utf-8"?>
<!DOCTYPE svg PUBLIC "-//W3C//DTD SVG 1.1//EN" "http://www.w3.org/Graphics/SVG/1.1/DTD/svg11.dtd">
<svg style="width:42px;height:42px;" version="1.1" id="图形" xmlns="http://www.w3.org/2000/svg" xmlns:xlink="http://www.w3.org/1999/xlink" x="0px" y="0px" width="1024px" height="1024px" viewBox="0 0 1024 1024" enable-background="new 0 0 1024 1024" xml:space="preserve">
  <path class="svgpath" data-index="path_0" fill="#D44137" d="M427.52 599.04c-6.4 5.12-8.96 15.36-5.12 21.76 3.84 6.4 11.52 6.4 19.2 1.28 6.4-5.12 8.96-15.36 5.12-21.76C444.16 595.2 435.2 592.64 427.52 599.04z" />
<path class="svgpath" data-index="path_1" fill="#D44137" d="M426.24 482.56c-108.8 5.12-197.12 64-197.12 138.24 0 74.24 88.32 129.28 197.12 124.16 108.8-5.12 197.12-74.24 197.12-148.48C623.36 523.52 535.04 477.44 426.24 482.56zM500.48 668.16c-33.28 43.52-99.84 65.28-162.56 29.44-30.72-16.64-29.44-49.92-29.44-49.92s-12.8-103.68 97.28-116.48C514.56 518.4 533.76 624.64 500.48 668.16z" />
<path class="svgpath" data-index="path_2" fill="#D44137" d="M376.32 613.12c-20.48 2.56-34.56 20.48-34.56 37.12 0 17.92 16.64 29.44 37.12 26.88 20.48-2.56 37.12-17.92 37.12-35.84C414.72 624.64 399.36 610.56 376.32 613.12z" />
<path class="svgpath" data-index="path_3" fill="#D44137" d="M512 0C229.12 0 0 229.12 0 512c0 282.88 229.12 512 512 512s512-229.12 512-512C1024 229.12 794.88 0 512 0zM720.64 646.4C675.84 742.4 528.64 789.76 418.56 780.8c-103.68-8.96-238.08-43.52-252.16-171.52 0 0-7.68-57.6 47.36-133.12 0 0 79.36-112.64 172.8-144.64 92.16-32 103.68 21.76 103.68 53.76-5.12 26.88-14.08 43.52 20.48 32 0 0 90.88-43.52 129.28-5.12 30.72 30.72 5.12 72.96 5.12 72.96s-12.8 14.08 12.8 19.2C684.8 510.72 765.44 549.12 720.64 646.4zM631.04 378.88c-10.24 0-17.92-7.68-17.92-17.92 0-10.24 7.68-17.92 17.92-17.92 0 0 111.36-20.48 98.56 101.12 0 1.28 0 1.28 0 2.56-1.28 8.96-8.96 15.36-17.92 15.36-10.24 0-17.92-7.68-17.92-17.92C693.76 442.88 711.68 360.96 631.04 378.88zM820.48 476.16 820.48 476.16c-2.56 20.48-12.8 21.76-25.6 21.76-14.08 0-25.6-8.96-25.6-24.32 0-12.8 5.12-25.6 5.12-25.6 1.28-5.12 14.08-38.4-7.68-88.32-39.68-67.84-120.32-69.12-129.28-65.28-8.96 3.84-23.04 5.12-23.04 5.12-14.08 0-25.6-11.52-25.6-26.88 0-12.8 7.68-23.04 19.2-25.6 0 0 0 0 0 0 1.28 0 1.28-1.28 2.56-1.28 11.52-2.56 51.2-10.24 89.6-1.28C768 263.68 862.72 331.52 820.48 476.16z" />

</svg>
