<?xml version="1.0" encoding="utf-8"?>
<!-- Generator: Adobe Illustrator 18.0.0, SVG Export Plug-In . SVG Version: 6.00 Build 0)  -->
<!DOCTYPE svg PUBLIC "-//W3C//DTD SVG 1.1//EN" "http://www.w3.org/Graphics/SVG/1.1/DTD/svg11.dtd">
<svg version="1.1" id="图形" xmlns="http://www.w3.org/2000/svg" xmlns:xlink="http://www.w3.org/1999/xlink" x="0px" y="0px"
	 width="1031px" height="1024px" viewBox="0 0 1031 1024" enable-background="new 0 0 1031 1024" xml:space="preserve">
<path fill="#2BCE6D" d="M515.7,0.2C233.8,0.2,5.2,228.8,5.2,510.7c0,282,228.6,510.5,510.5,510.5s510.5-228.6,510.5-510.5
	C1026.3,228.8,797.7,0.2,515.7,0.2z M419.2,640.1c-30.8,0-53.2-5-82.4-13.3l-84,42.4l24.1-71.5c-59.1-41.6-94-94-94-158
	C183,326.5,289.5,240,419.2,240c114.8,0,217.1,68.2,237.1,164.7c-8.3-1.7-15.8-2.5-22.5-2.5c-113.1,0-200.5,84.8-200.5,187.2
	c0,17.5,2.5,33.3,6.7,49.9C433.4,640.1,425.9,640.1,419.2,640.1z M766.1,721.6l16.6,59.9l-63.2-35.8c-24.1,5-47.4,12.5-71.5,12.5
	c-111.5,0-199.6-76.5-199.6-171.4S536.5,415.5,648,415.5c105.6,0,200.5,76.5,200.5,171.4C848.5,640.1,812.7,687.5,766.1,721.6z"/>
</svg>
