<svg xmlns="http://www.w3.org/2000/svg" width="1060" height="210" viewBox="0 0 1060 210"><defs><style>.a{opacity:0.3;}.b{fill:#7bc9f0;}</style></defs><title>bg-hero</title><g class="a"><path class="b" d="M334.62,184h-15.5v-15.5h0.37a15.12,15.12,0,0,1,15.05,15.13Zm-14.68-.74h14a14.52,14.52,0,0,0-4.21-9.81A14.2,14.2,0,0,0,320,169.2v14h-0.07Z"/><path class="b" d="M364.8,198.35H350V183.52h0.37a14.36,14.36,0,0,1,10.18,4.28,14.71,14.71,0,0,1,4.28,10.26v0.3Zm-14.09-.74h13.36a13.64,13.64,0,0,0-4.06-9.37,13.79,13.79,0,0,0-9.3-4.06v13.43Z"/><path class="b" d="M403.47,169.28H388.63V154.45H389a14.36,14.36,0,0,1,10.18,4.28A14.71,14.71,0,0,1,403.47,169v0.3Zm-14.09-.74h13.36a13.64,13.64,0,0,0-4.06-9.37,13.79,13.79,0,0,0-9.3-4.06v13.43Z"/><path class="b" d="M319.93,198.72h-15.5v-0.37a15.12,15.12,0,0,1,15.13-15.05h0.37v15.42ZM305.17,198h14V184a14.52,14.52,0,0,0-9.81,4.21A14.19,14.19,0,0,0,305.17,198Z"/><path class="b" d="M319.86,213.48h-0.37a15.12,15.12,0,0,1-15.05-15.13V198h15.5v15.5h-0.07Zm-14.68-14.76a14.52,14.52,0,0,0,4.21,9.81,14.2,14.2,0,0,0,9.74,4.21v-14H305.17Z"/><path class="b" d="M100.55,198.72H85.05v-0.37a15.12,15.12,0,0,1,15.13-15.05h0.37v15.42ZM85.79,198h14V184A14.38,14.38,0,0,0,85.79,198Z"/><path class="b" d="M115.31,213.55h-0.37a15.12,15.12,0,0,1-15.05-15.13v-0.37h15.5v15.5h-0.07Zm-14.76-14.83a14.52,14.52,0,0,0,4.21,9.81,14.2,14.2,0,0,0,9.74,4.21v-14H100.55Z"/><path class="b" d="M6.63,99.24H-8.87V98.87A15,15,0,0,1-4.44,88.25a15,15,0,0,1,10.7-4.43H6.63V99.24Zm-14.76-.74h14v-14a14.52,14.52,0,0,0-9.81,4.21A15,15,0,0,0-8.13,98.51Z"/><path class="b" d="M21.39,114.08H21A15.12,15.12,0,0,1,6,98.95V98.58h15.5v15.5H21.39ZM6.7,99.24a14.52,14.52,0,0,0,4.21,9.81,14.2,14.2,0,0,0,9.74,4.21v-14H6.7Z"/><path class="b" d="M250.57,140.5h-15.5v-0.37a15.12,15.12,0,0,1,15.13-15.05h0.37V140.5Zm-14.76-.74h14v-14a14.52,14.52,0,0,0-9.81,4.21A14.86,14.86,0,0,0,235.81,139.76Z"/><path class="b" d="M100.7,139.76h-0.37a15.12,15.12,0,0,1-15.05-15.13v-0.37h15.5ZM85.94,125a14.52,14.52,0,0,0,4.21,9.81A14.2,14.2,0,0,0,99.88,139V125H85.94Z"/><path class="b" d="M319.12,198.72v-15.5h15.5v0.37a15.12,15.12,0,0,1-15.13,15.05ZM319.86,184v14a14.52,14.52,0,0,0,9.81-4.21,14.2,14.2,0,0,0,4.21-9.74h-14V184Z"/><path class="b" d="M601,110.24H585.5v-0.37a15.12,15.12,0,0,1,15.13-15.05H601v15.42Zm-14.76-.74h14v-14a14.52,14.52,0,0,0-9.81,4.21A15,15,0,0,0,586.24,109.51Z"/><path class="b" d="M601,125.08h-0.37a15.12,15.12,0,0,1-15.05-15.13v-0.37h15.5v15.5H601Zm-14.68-14.83a14.52,14.52,0,0,0,4.21,9.81,14.2,14.2,0,0,0,9.74,4.21v-14H586.32Z"/><path class="b" d="M600.26,110.24V94.75h15.5v0.37a15.12,15.12,0,0,1-15.13,15.05ZM601,95.56v14a14.52,14.52,0,0,0,9.81-4.21A14.2,14.2,0,0,0,615,95.63H601V95.56Z"/><path class="b" d="M150.88,198.72h-15.5v-0.37a15.12,15.12,0,0,1,15.13-15.05h0.37v15.42ZM136.12,198h14V184a14.52,14.52,0,0,0-9.81,4.21A14.86,14.86,0,0,0,136.12,198Z"/><path class="b" d="M192.86,184.26h-15.5v-0.37a15.12,15.12,0,0,1,15.13-15.05h0.37v15.42Zm-14.76-.74h14v-14a14.52,14.52,0,0,0-9.81,4.21A14.86,14.86,0,0,0,178.1,183.52Z"/><path class="b" d="M229.48,13.27H214V12.9A15.12,15.12,0,0,1,229.11-2.15h0.37V13.27Zm-14.76-.74h14v-14a14.52,14.52,0,0,0-9.81,4.21A14.19,14.19,0,0,0,214.72,12.53Z"/><path class="b" d="M76.69,13.27H61.2V12.9A15.12,15.12,0,0,1,76.32-2.15h0.37V13.27Zm-14.76-.74H76v-14A14.38,14.38,0,0,0,61.93,12.53Z"/><path class="b" d="M61.79,28H46.29V27.66A15.12,15.12,0,0,1,61.42,12.6h0.37V28ZM47,27.29H61v-14a14.52,14.52,0,0,0-9.81,4.21A14.19,14.19,0,0,0,47,27.29Z"/><path class="b" d="M228.67,13.27V-2.23h15.5v0.37a15,15,0,0,1-4.43,10.63A15,15,0,0,1,229,13.2Zm0.74-14.76v14a14.52,14.52,0,0,0,9.81-4.21,14.2,14.2,0,0,0,4.21-9.74h-14V-1.49Z"/><path class="b" d="M240.68,198.72h-15.5v-0.37a15.12,15.12,0,0,1,15.13-15.05h0.37v15.42ZM225.92,198h14V184A14.38,14.38,0,0,0,225.92,198Z"/><path class="b" d="M254.92,213.48h-15V198h30v0.37A15,15,0,0,1,265.47,209a15.15,15.15,0,0,1-10.18,4.43h0Zm-14.24-.74h14.24a14.57,14.57,0,0,0,10-4.21,14.2,14.2,0,0,0,4.21-9.74H240.68v13.95h0Z"/><path class="b" d="M114.86,154.52H100V139h30v0.37A15,15,0,0,1,125.49,150a15.15,15.15,0,0,1-10.18,4.43h0Zm-14.17-.74h14.24a14.57,14.57,0,0,0,10-4.21,14.2,14.2,0,0,0,4.21-9.74H100.7v13.95Z"/><path class="b" d="M90.93,28H76V12.53h30V12.9a15,15,0,0,1-4.43,10.63A15.15,15.15,0,0,1,91.3,28h0Zm-14.24-.74H90.93a14.57,14.57,0,0,0,10-4.21,14.2,14.2,0,0,0,4.21-9.74H76.69V27.29Z"/><path class="b" d="M39.57,13.27H4.52L19.36-1.56H39.5A7.48,7.48,0,0,1,47,5.89,7.35,7.35,0,0,1,39.57,13.27ZM6.29,12.53H39.57a6.72,6.72,0,1,0,0-13.43H19.72Z"/><path class="b" d="M212.86,198.72H177.81l14.83-14.83h20.22A7.42,7.42,0,1,1,212.86,198.72ZM179.58,198h33.28a6.72,6.72,0,1,0,0-13.43H193Z"/><path class="b" d="M134.35,183.67H99.29l14.83-14.83h20.15a7.48,7.48,0,0,1,7.45,7.45A7.35,7.35,0,0,1,134.35,183.67Zm-33.28-.74h33.28a6.72,6.72,0,1,0,0-13.43H114.5Z"/><path class="b" d="M235.07,125h-15.5v-0.37a15.12,15.12,0,0,1,15.13-15.05h0.37V125Zm-14.76-.74h14v-14a14.52,14.52,0,0,0-9.81,4.21A14.19,14.19,0,0,0,220.31,124.27Z"/><path class="b" d="M301.37,139.76H301a15.12,15.12,0,0,1-15.05-15.13v-0.37h15.5v15.5h-0.07ZM286.69,125a14.52,14.52,0,0,0,4.21,9.81,14.2,14.2,0,0,0,9.74,4.21V125H286.69Z"/><path class="b" d="M144.23,139.76h-15.5v-0.37a15.12,15.12,0,0,1,15.13-15.05h0.37v15.42ZM129.4,139h14V125a14.52,14.52,0,0,0-9.81,4.21A14.86,14.86,0,0,0,129.4,139Z"/><path class="b" d="M-10.36,153.86H-10.8a7.48,7.48,0,0,1-7.45-7.45A7.43,7.43,0,0,1-10.8,139H4.47Zm-0.44-14.09a6.74,6.74,0,0,0-6.72,6.72,6.74,6.74,0,0,0,6.72,6.72h0.15L2.7,139.84H-10.8v-0.07Z"/><path class="b" d="M473.57,184.33H438.52l14.83-14.83h20.15a7.48,7.48,0,0,1,7.45,7.45A7.31,7.31,0,0,1,473.57,184.33Zm-33.21-.74h33.28a6.72,6.72,0,0,0,0-13.43H453.79Z"/><path class="b" d="M384.5,184.33H349.45l14.83-14.83h20.15a7.48,7.48,0,0,1,7.45,7.45A7.35,7.35,0,0,1,384.5,184.33Zm-33.28-.74H384.5a6.72,6.72,0,0,0,0-13.43H364.65Z"/><path class="b" d="M37,139.76H2l14.83-14.83H36.94a7.48,7.48,0,0,1,7.45,7.45A7.35,7.35,0,0,1,37,139.76ZM3.73,139H37a6.72,6.72,0,1,0,0-13.43H17.16Z"/><path class="b" d="M570,213.48h-15.5v-0.37a15.12,15.12,0,0,1,15.13-15.05H570v15.42Zm-14.76-.74h14v-14a14.52,14.52,0,0,0-9.81,4.21A14.86,14.86,0,0,0,555.26,212.74Z"/><path class="b" d="M569.28,213.48V198h15.5v0.37a15.12,15.12,0,0,1-15.13,15.05ZM570,198.72v14a14.52,14.52,0,0,0,9.81-4.21A14.2,14.2,0,0,0,584,198.8H570v-0.07Z"/><path class="b" d="M472.24,213.48h-15.5v-0.37a15.12,15.12,0,0,1,15.13-15.05h0.37v15.42Zm-14.76-.74h14v-14a14.52,14.52,0,0,0-9.81,4.21A14.86,14.86,0,0,0,457.48,212.74Z"/><path class="b" d="M471.5,213.48V198H487v0.37a15.12,15.12,0,0,1-15.13,15.05Zm0.74-14.76v14a14.52,14.52,0,0,0,9.81-4.21,14.2,14.2,0,0,0,4.21-9.74h-14v-0.07Z"/><path class="b" d="M154.47,13.27H105.32L120.16-1.56h34.31a7.48,7.48,0,0,1,7.45,7.45A7.37,7.37,0,0,1,154.47,13.27Zm-47.37-.74h47.37a6.72,6.72,0,0,0,0-13.43h-34Z"/><path class="b" d="M53.47,213.48H-9.77L5.06,198.65H53.47A7.42,7.42,0,1,1,53.47,213.48ZM-8,212.74H53.47a6.72,6.72,0,1,0,0-13.43H5.36Z"/><path class="b" d="M86.16,169.28H66a7.45,7.45,0,1,1,0-14.91h35.05ZM66,155.11a6.72,6.72,0,1,0,0,13.43H85.86l13.36-13.36H66v-0.07Z"/><path class="b" d="M41.22,169.28H21.07a7.45,7.45,0,1,1,0-14.91H56.13ZM21.07,155.11a6.72,6.72,0,1,0,0,13.43H40.92l13.36-13.36H21.07v-0.07Z"/><path class="b" d="M206.59,154.52H158.18a7.45,7.45,0,1,1,0-14.91h63.24Zm-48.41-14.09a6.72,6.72,0,1,0,0,13.43h48l13.36-13.36h-61.4v-0.07Z"/><path class="b" d="M422.5,184.33H408.34l14.91-14.91h0.15A7.48,7.48,0,0,1,422.5,184.33Zm-12.4-.74h12.4a6.71,6.71,0,0,0,1-13.36Z"/><path class="b" d="M395.35,198.35H395.2a7.4,7.4,0,0,1,.89-14.76h14.09Zm0.74-14a6.74,6.74,0,0,0-6.72,6.72,6.61,6.61,0,0,0,5.68,6.57l13.28-13.28H396.09Z"/><path class="b" d="M-2.74,49.87H-2.88a7.42,7.42,0,0,1-6.57-7.38A7.43,7.43,0,0,1-2,35H12.17ZM-2,35.7a6.74,6.74,0,0,0-6.72,6.72A6.74,6.74,0,0,0-3,49.06L10.4,35.7H-2Z"/><path class="b" d="M5.65,199.39H5.5a7.4,7.4,0,0,1,.89-14.76H20.48Zm0.74-14a6.74,6.74,0,0,0-6.72,6.72,6.61,6.61,0,0,0,5.68,6.57l13.28-13.28H6.39Z"/><path class="b" d="M1.81,169.28H-12.28L2.48,154.52H2.63a7.47,7.47,0,0,1,6.57,7.31A7.42,7.42,0,0,1,1.81,169.28Zm-12.32-.74H1.81a6.74,6.74,0,0,0,6.72-6.72,6.61,6.61,0,0,0-5.68-6.57Z"/><path class="b" d="M72.29,199.39a7.45,7.45,0,1,1,7.45-7.45A7.48,7.48,0,0,1,72.29,199.39Zm0-14.09A6.72,6.72,0,1,0,79,192,6.74,6.74,0,0,0,72.29,185.29Z"/></g><g class="a"><path class="b" d="M923.76,203h-15.5v-15.5h0.37a15.12,15.12,0,0,1,15.05,15.13Zm-14.68-.74h14a14.52,14.52,0,0,0-4.21-9.81,14.2,14.2,0,0,0-9.74-4.21v14h-0.07Z"/><path class="b" d="M909.07,217.75h-15.5v-0.37a15.12,15.12,0,0,1,15.13-15.05h0.37v15.42ZM894.32,217h14V203a14.52,14.52,0,0,0-9.81,4.21A14.19,14.19,0,0,0,894.32,217Z"/><path class="b" d="M908.26,217.75v-15.5h15.5v0.37a15.12,15.12,0,0,1-15.13,15.05ZM909,203v14a14.52,14.52,0,0,0,9.81-4.21,14.2,14.2,0,0,0,4.21-9.74H909V203Z"/><path class="b" d="M1057.23,102.09h-0.44a7.45,7.45,0,1,1,0-14.91h15.27ZM1056.79,88a6.72,6.72,0,1,0,0,13.43h0.15l13.36-13.36h-13.5V88Z"/><path class="b" d="M998,188H963l14.83-14.83H998a7.48,7.48,0,0,1,7.45,7.45A7.37,7.37,0,0,1,998,188Zm-33.21-.74H998a6.72,6.72,0,1,0,0-13.43H978.19Z"/><path class="b" d="M989.92,217.8v-15.5h15.5v0.37a15.12,15.12,0,0,1-15.13,15.05ZM990.66,203v14a14.52,14.52,0,0,0,9.81-4.21,14.2,14.2,0,0,0,4.21-9.74h-14V203Z"/><path class="b" d="M1072.94,217.8H1009.7L1024.53,203h48.41A7.42,7.42,0,1,1,1072.94,217.8Zm-61.47-.74h61.47a6.72,6.72,0,0,0,0-13.43h-48.11Z"/><path class="b" d="M1060.69,173.6h-20.15a7.45,7.45,0,1,1,0-14.91h35.05Zm-20.15-14.17a6.72,6.72,0,1,0,0,13.43h19.85l13.36-13.36h-33.21v-0.07Z"/><path class="b" d="M1025.12,203.71H1025a7.4,7.4,0,0,1,.89-14.76H1040Zm0.74-14a6.74,6.74,0,0,0-6.72,6.72,6.61,6.61,0,0,0,5.68,6.57l13.28-13.28h-12.25Z"/><path class="b" d="M1021.28,173.6h-14.09l14.76-14.76h0.15A7.4,7.4,0,0,1,1021.28,173.6Zm-12.32-.74h12.32a6.74,6.74,0,0,0,6.72-6.72,6.61,6.61,0,0,0-5.68-6.57Z"/></g></svg>