<?xml version="1.0" encoding="UTF-8" standalone="no"?>
<svg width="320px" height="501px" viewBox="0 0 320 501" version="1.1" xmlns="http://www.w3.org/2000/svg" xmlns:xlink="http://www.w3.org/1999/xlink">
    <!-- Generator: Sketch 3.8.2 (29753) - http://www.bohemiancoding.com/sketch -->
    <title>sprites</title>
    <desc>Created with Sketch.</desc>
    <defs>
        <linearGradient x1="100%" y1="-17.4283222%" x2="0%" y2="127.903435%" id="linearGradient-1">
            <stop stop-color="#2CDAFF" offset="0%"></stop>
            <stop stop-color="#7230E5" offset="100%"></stop>
        </linearGradient>
    </defs>
    <g id="Sprites" stroke="none" stroke-width="1" fill="none" fill-rule="evenodd">
        <g id="sprites">
            <g id="ico-edit" transform="translate(21.000000, 342.000000)" fill="#74746F">
                <polygon id="Shape" points="1.6 6.1 0.9 9.3 4.1 8.6"></polygon>
                <rect id="Rectangle-path" transform="translate(5.474560, 4.884930) rotate(45.000000) translate(-5.474560, -4.884930) " x="3.72457678" y="2.33495445" width="3.49996643" height="5.09995109"></rect>
                <path d="M8.1,0.3 C7.7,0.3 7.3,0.4 7,0.7 L6.3,1.4 L8.8,3.9 L9.5,3.2 C9.7,2.9 9.9,2.5 9.9,2.1 C9.9,1.1 9.1,0.3 8.1,0.3 L8.1,0.3 Z" id="Shape"></path>
            </g>
            <g id="ico-rss" transform="translate(80.000000, 321.000000)">
                <rect id="Rectangle-path" fill="#FE6502" x="0" y="0" width="14" height="14"></rect>
                <path d="M3.5,9.5 C2.7,9.5 2.1,10.1 2.1,10.9 C2.1,11.7 2.7,12.3 3.5,12.3 C4.3,12.3 4.9,11.7 4.9,10.9 C4.9,10.2 4.3,9.5 3.5,9.5 L3.5,9.5 Z M2.1,5.5 L2.1,7.5 C3.4,7.5 4.6,8 5.5,8.9 C6.4,9.8 6.9,11 6.9,12.3 L8.9,12.3 C9,8.5 5.9,5.5 2.1,5.5 L2.1,5.5 Z M2.1,1.9 L2.1,3.9 C6.7,3.9 10.5,7.7 10.5,12.3 L12.5,12.3 C12.5,6.6 7.8,1.9 2.1,1.9 L2.1,1.9 Z" id="Shape" fill="#FFFFFF"></path>
            </g>
            <g id="ico-flag" transform="translate(60.000000, 321.000000)">
                <g id="normal" transform="translate(0.000000, 20.000000)">
                    <rect id="Rectangle-path" fill="#C9CBCF" x="0" y="0" width="2" height="14"></rect>
                    <rect id="Rectangle-path" fill="#D6D8DB" x="3" y="1" width="10" height="8"></rect>
                </g>
                <g id="active">
                    <rect id="Rectangle-path" fill="#D35F5F" x="0" y="0" width="2" height="14"></rect>
                    <rect id="Rectangle-path" fill="#F89393" x="3" y="1" width="10" height="8"></rect>
                </g>
            </g>
            <g id="ico-x" transform="translate(100.000000, 446.000000)">
                <circle id="Oval" fill="#DD3C4C" cx="7" cy="6.8" r="6.5"></circle>
                <path d="M10.2,8.7 L10.2,8.7 L8.3,6.8 L10.2,4.9 L10.2,4.9 C10.2,4.9 10.2,4.9 10.2,4.8 L10.2,4.6 L9.3,3.7 C9.2,3.6 9.2,3.6 9.1,3.7 L9,3.7 L9,3.7 L7.1,5.6 L5.2,3.7 L5.2,3.7 C5.2,3.7 5.2,3.7 5.1,3.7 L4.9,3.7 L4,4.6 C3.9,4.7 3.9,4.7 4,4.8 L4,4.9 L4,4.9 L5.9,6.8 L4,8.7 L4,8.7 C4,8.7 4,8.7 4,8.8 L4,9 L4.9,9.9 C5,10 5,10 5.1,9.9 L5.2,9.9 L5.2,9.9 L7.1,8 L9,9.9 L9,9.9 L9.1,9.9 L9.3,9.9 L10.2,9 L10.2,8.7 C10.2,8.8 10.2,8.8 10.2,8.7 L10.2,8.7 Z" id="Shape" fill="#FFFFFF"></path>
            </g>
            <g id="avatar" transform="translate(0.000000, 401.000000)" fill="#C9CBCF">
                <path d="M0,0 L0,31 L3,31 C3.7,25.5 7.1,20.9 12,19 L12,18 C9.9,16.8 8.7,14.7 9,12 C8.7,8.7 11.7,5.7 16,6 C19.3,5.7 22.3,8.7 22,12 C22.3,14.7 21.1,16.8 19,18 L19,19 C23.9,20.9 27.3,25.5 28,31 L31,31 L31,0 L0,0 L0,0 Z" id="Shape"></path>
            </g>
            <polygon id="ico-check-small" fill="#44CB71" points="22.4 325 22.4 328.5 26.5 332.1 33.4 325.9 33.4 322.1 26.5 328.3"></polygon>
            <polygon id="ico-arrow-right" fill="#6C737A" points="7 387.5 0 381 0 394"></polygon>
            <polygon id="ico-arrow-right" fill="#6C737A" points="54 474.5 47 468 47 481"></polygon>
            <polygon id="ico-arrow-left" fill="#6C737A" points="7 474.5 14 481 14 468"></polygon>
            <polygon id="ico-arrow-down" fill="#6C737A" points="26.5 391 33 384 20 384"></polygon>
            <g id="ico-upvote-small" transform="translate(0.000000, 323.000000)">
                <polygon id="Shape" fill="#3C3F44" points="6.5 0.3 0 7.3 13 7.3"></polygon>
                <polygon id="Shape" fill="#D6D8DB" points="6.5 19.3 0 26.3 13 26.3"></polygon>
            </g>
            <g id="drag" transform="translate(47.000000, 368.000000)" fill="#93999F">
                <rect id="Rectangle-path" x="0" y="0" width="2" height="2"></rect>
                <rect id="Rectangle-path" x="3" y="3" width="2" height="2"></rect>
                <rect id="Rectangle-path" x="9" y="3" width="2" height="2"></rect>
                <rect id="Rectangle-path" x="15" y="3" width="2" height="2"></rect>
                <rect id="Rectangle-path" x="21" y="3" width="2" height="2"></rect>
                <rect id="Rectangle-path" x="6" y="0" width="2" height="2"></rect>
                <rect id="Rectangle-path" x="12" y="0" width="2" height="2"></rect>
                <rect id="Rectangle-path" x="18" y="0" width="2" height="2"></rect>
                <rect id="Rectangle-path" x="24" y="0" width="2" height="2"></rect>
            </g>
            <g id="ico-x" transform="translate(40.000000, 320.000000)">
                <g id="normal">
                    <circle id="Oval" fill="#D6D8DB" cx="7.2" cy="7.1" r="6.5"></circle>
                    <path d="M10.4,9.1 L10.4,9.1 L8.5,7.2 L10.4,5.3 L10.4,5.3 C10.4,5.3 10.4,5.3 10.4,5.2 L10.4,5 L9.5,4.1 C9.4,4 9.4,4 9.3,4.1 L9.2,4.1 L9.2,4.1 L7.2,5.9 L5.3,4 L5.3,4 C5.3,4 5.3,4 5.2,4 L5,4 L4.1,4.9 C4,5 4,5 4.1,5.1 L4.1,5.2 L4.1,5.2 L6,7.1 L4.1,9 L4.1,9 C4.1,9 4.1,9 4.1,9.1 L4.1,9.3 L5,10.2 C5.1,10.3 5.1,10.3 5.2,10.2 L5.3,10.2 L5.3,10.2 L7.2,8.3 L9.1,10.2 L9.1,10.2 L9.2,10.2 L9.4,10.2 L10.3,9.3 C10.4,9.3 10.4,9.2 10.4,9.1 L10.4,9.1 L10.4,9.1 Z" id="Shape" fill="#FFFFFF"></path>
                </g>
                <g id="active" transform="translate(0.000000, 21.000000)">
                    <circle id="Oval" fill="#DD3C4C" cx="7.2" cy="6.9" r="6.5"></circle>
                    <path d="M10.4,8.8 L10.4,8.8 L8.5,6.9 L10.4,5 L10.4,5 C10.4,5 10.4,5 10.4,4.9 L10.4,4.7 L9.5,3.8 C9.4,3.7 9.4,3.7 9.3,3.8 L9.2,3.8 L9.2,3.8 L7.3,5.7 L5.4,3.8 L5.4,3.8 C5.4,3.8 5.4,3.8 5.3,3.8 L5.1,3.8 L4.2,4.7 C4.1,4.8 4.1,4.8 4.2,4.9 L4.2,5 L4.2,5 L6.1,6.9 L4.2,8.8 L4.2,8.8 C4.2,8.8 4.2,8.8 4.2,8.9 L4.2,9.1 L5.1,10 C5.2,10.1 5.2,10.1 5.3,10 L5.4,10 L5.4,10 L7.3,8.1 L9.2,10 L9.2,10 L9.3,10 L9.5,10 L10.4,9.1 L10.4,8.8 C10.4,8.9 10.4,8.8 10.4,8.8 L10.4,8.8 Z" id="Shape" fill="#FFFFFF"></path>
                </g>
            </g>
            <g id="tick-active" transform="translate(42.000000, 271.000000)">
                <circle id="bg-copy" fill="#49BD70" transform="translate(18.000000, 18.000000) scale(1, -1) translate(-18.000000, -18.000000) " cx="18" cy="18" r="18"></circle>
                <path d="M9.875,12 L8,12 L8,22 L11.75,22 L11.75,15.75 L28,15.75 L28,12 L9.875,12 Z" id="Check" fill="#FFFFFF" transform="translate(18.000000, 17.000000) scale(1, -1) rotate(-313.000000) translate(-18.000000, -17.000000) "></path>
            </g>
            <g id="Tick-Normal" transform="translate(2.000000, 271.000000)">
                <circle id="bg-copy" fill="#EFF0F1" transform="translate(18.000000, 18.000000) scale(1, -1) translate(-18.000000, -18.000000) " cx="18" cy="18" r="18"></circle>
                <path d="M9.875,12 L8,12 L8,22 L11.75,22 L11.75,15.75 L28,15.75 L28,12 L9.875,12 Z" id="Check" fill="#FFFFFF" transform="translate(18.000000, 17.000000) scale(1, -1) rotate(-313.000000) translate(-18.000000, -17.000000) "></path>
            </g>
            <g id="downvote-normal" transform="translate(2.000000, 225.000000)">
                <circle id="Background" fill="#F0F0F0" cx="18" cy="18" r="18"></circle>
                <circle id="Background" fill="#EFF0F1" cx="18" cy="18" r="18"></circle>
                <g id="Group" stroke-width="1" transform="translate(18.313708, 16.313708) scale(1, -1) rotate(-315.000000) translate(-18.313708, -16.313708) translate(10.313708, 8.313708)" fill="#93999F">
                    <rect id="Rectangle-99" x="1.77635684e-14" y="1.42108547e-14" width="4" height="16"></rect>
                    <rect id="Rectangle-99" transform="translate(8.000000, 2.000000) rotate(-90.000000) translate(-8.000000, -2.000000) " x="6" y="-6" width="4" height="16"></rect>
                </g>
            </g>
            <g id="Downvote-Active" transform="translate(42.000000, 225.000000)">
                <circle id="Background" fill="#4861E7" cx="18" cy="18" r="18"></circle>
                <g id="Group" stroke-width="1" transform="translate(18.313708, 15.606602) scale(1, -1) rotate(-315.000000) translate(-18.313708, -15.606602) translate(9.813708, 7.106602)" fill="#FFFFFF">
                    <rect id="Rectangle-99" x="0.707106781" y="0.707106781" width="4" height="16"></rect>
                    <rect id="Rectangle-99" transform="translate(8.707107, 2.707107) rotate(-90.000000) translate(-8.707107, -2.707107) " x="6.70710678" y="-5.29289322" width="4" height="16"></rect>
                </g>
            </g>
            <g id="Upvote-Active" transform="translate(42.000000, 174.000000)">
                <path d="M18,36 C27.9411255,36 36,27.9411255 36,18 C36,8.0588745 27.9411255,0 18,0 C8.0588745,0 0,8.0588745 0,18 C0,27.9411255 8.0588745,36 18,36 Z" id="Background" fill="#4861E7"></path>
                <g id="Group" stroke-width="1" transform="translate(18.313708, 21.313708) rotate(-315.000000) translate(-18.313708, -21.313708) translate(10.313708, 13.313708)" fill="#FFFFFF">
                    <rect id="Rectangle-99" x="1.77635684e-14" y="1.59872116e-14" width="4" height="16"></rect>
                    <rect id="Rectangle-99" transform="translate(8.000000, 2.000000) rotate(-90.000000) translate(-8.000000, -2.000000) " x="6" y="-6" width="4" height="16"></rect>
                </g>
            </g>
            <g id="star-active" transform="translate(47.000000, 122.000000)" stroke-width="2" stroke="#FFD12B" fill="#FFD12B">
                <polygon id="Star-1" points="12 16.6799998 4.94657697 21.7082039 7.54905567 13.4461995 0.587321804 8.29179607 9.24916512 8.21380061 12 0 14.7508349 8.21380061 23.4126782 8.29179607 16.4509443 13.4461995 19.053423 21.7082039"></polygon>
            </g>
            <g id="star-normal" transform="translate(6.000000, 122.000000)" stroke-width="2" stroke="#D6D8DB">
                <polygon id="Star-1" points="12 16.6799998 4.94657697 21.7082039 7.54905567 13.4461995 0.587321804 8.29179607 9.24916512 8.21380061 12 0 14.7508349 8.21380061 23.4126782 8.29179607 16.4509443 13.4461995 19.053423 21.7082039"></polygon>
            </g>
            <g id="badges" transform="translate(62.000000, 404.000000)">
                <g id="badge-gold" transform="translate(48.000000, 0.000000)" fill="#FFC801">
                    <path d="M10.0379044,1 L8.69615715,1.78608494 C9.60749701,3.34501962 10.1771106,4.79915743 10.1771106,6.99989151 C10.1771106,9.20084257 9.60749701,10.6551974 8.69615715,12.214132 L10.0379044,13 C11.1645527,11.5590974 12,9.58075831 12,6.99989151 C12,4.41924169 11.1645527,2.44111957 10.0379044,1 L10.0379044,1 Z M3.96209564,1 C2.83544728,2.44111957 2,4.41924169 2,6.99989151 C2,9.58075831 2.83544728,11.5590974 3.96209564,13 L5.30384285,12.214132 C4.39250299,10.6551974 3.82288937,9.20084257 3.82288937,6.99989151 C3.82288937,4.79915743 4.39250299,3.34501962 5.30384285,1.78608494 L3.96209564,1 Z" id="Fill-1"></path>
                </g>
                <g id="badge-silver" transform="translate(24.000000, 0.000000)" fill="#B4B8BC">
                    <path d="M10.0379044,1 L8.69615715,1.78608494 C9.60749701,3.34501962 10.1771106,4.79915743 10.1771106,6.99989151 C10.1771106,9.20084257 9.60749701,10.6551974 8.69615715,12.214132 L10.0379044,13 C11.1645527,11.5590974 12,9.58075831 12,6.99989151 C12,4.41924169 11.1645527,2.44111957 10.0379044,1 L10.0379044,1 Z M3.96209564,1 C2.83544728,2.44111957 2,4.41924169 2,6.99989151 C2,9.58075831 2.83544728,11.5590974 3.96209564,13 L5.30384285,12.214132 C4.39250299,10.6551974 3.82288937,9.20084257 3.82288937,6.99989151 C3.82288937,4.79915743 4.39250299,3.34501962 5.30384285,1.78608494 L3.96209564,1 Z" id="Fill-1"></path>
                </g>
                <g id="badge-bronze" fill="#E3A06B">
                    <path d="M10.0379044,1 L8.69615715,1.78608494 C9.60749701,3.34501962 10.1771106,4.79915743 10.1771106,6.99989151 C10.1771106,9.20084257 9.60749701,10.6551974 8.69615715,12.214132 L10.0379044,13 C11.1645527,11.5590974 12,9.58075831 12,6.99989151 C12,4.41924169 11.1645527,2.44111957 10.0379044,1 L10.0379044,1 Z M3.96209564,1 C2.83544728,2.44111957 2,4.41924169 2,6.99989151 C2,9.58075831 2.83544728,11.5590974 3.96209564,13 L5.30384285,12.214132 C4.39250299,10.6551974 3.82288937,9.20084257 3.82288937,6.99989151 C3.82288937,4.79915743 4.39250299,3.34501962 5.30384285,1.78608494 L3.96209564,1 Z" id="Fill-1"></path>
                </g>
            </g>
            <g id="upvote-normal" transform="translate(2.000000, 174.000000)">
                <circle id="Background" fill="#EFF0F1" cx="18" cy="18" r="18"></circle>
                <g id="Group" stroke-width="1" transform="translate(18.313708, 20.313708) rotate(-315.000000) translate(-18.313708, -20.313708) translate(10.313708, 12.313708)" fill="#93999F">
                    <rect id="Rectangle-99" x="6.39488462e-14" y="-6.66133815e-14" width="4" height="16"></rect>
                    <rect id="Rectangle-99" transform="translate(8.000000, 2.000000) rotate(-90.000000) translate(-8.000000, -2.000000) " x="6" y="-6" width="4" height="16"></rect>
                </g>
            </g>
            <g id="Logo" fill="url(#linearGradient-1)">
                <path d="M157.156395,0 L151.564729,3.14433978 C155.362694,9.38007847 157.736531,15.1966297 157.736531,23.9995661 C157.736531,32.8033703 155.362694,38.6207894 151.564729,44.8565281 L157.156395,48 C161.851648,42.2363896 165.333333,34.3230333 165.333333,23.9995661 C165.333333,13.6769667 161.851648,5.76447828 157.156395,0 L157.156395,0 Z M139.782041,21.4488582 C136.722351,20.7675701 136.51179,20.5575424 136.51179,18.9858065 C136.51179,17.833258 137.038629,17.2569837 139.254327,17.2569837 C141.259464,17.2569837 144.055297,17.5711574 146.323416,17.9903448 L147.009269,12.1208527 C144.741149,11.5445784 141.153746,11.2824778 139.201905,11.2824778 C131.499385,11.2824778 129.389405,13.5363697 129.389405,18.9337335 C129.389405,23.7018822 129.96954,25.378632 136.194637,26.898295 C140.309754,27.8946246 140.362176,28.1037843 140.362176,29.7284611 C140.362176,31.2481241 139.992602,31.8764713 137.724482,31.8764713 C134.876227,31.8764713 132.080394,31.3522701 129.96954,30.7239228 L128.756848,36.3313143 C131.288824,37.1696892 135.298223,37.8509773 138.094056,37.8509773 C145.427002,37.8509773 147.641826,34.9687381 147.641826,29.7284611 C147.641826,24.6452709 147.114986,23.073535 139.782041,21.4488582 L139.782041,21.4488582 Z M119.33489,17.7282442 C120.812314,17.7282442 123.027137,17.9903448 124.610278,18.3565914 L125.559987,12.0687797 C122.974716,11.4925055 121.128592,11.2824778 119.33489,11.2824778 C110.999813,11.2824778 107.571423,14.3747446 107.571423,21.6588859 L107.571423,27.4754371 C107.571423,34.7587105 110.999813,37.8509773 119.33489,37.8509773 C121.128592,37.8509773 122.974716,37.6409496 125.559987,37.0646754 L124.610278,30.7759958 C122.764154,31.1951832 121.286731,31.4052109 119.33489,31.4052109 C116.275201,31.4052109 115.167352,30.1997216 115.167352,27.5795831 L115.167352,21.5530041 C115.167352,18.9337335 116.275201,17.7282442 119.33489,17.7282442 L119.33489,17.7282442 Z M96.651074,31.0910373 C95.4899296,31.6143707 94.3820807,31.9814852 92.799814,31.9814852 C91.322391,31.9814852 90.7422556,31.4052109 90.7422556,29.9905618 C90.7422556,28.5750448 91.3748128,28.1558573 93.0112489,28.1558573 L96.651074,28.1558573 L96.651074,31.0910373 Z M93.3799493,11.2824778 C90.425977,11.2824778 86.574717,11.8066791 84.1475845,12.540908 L85.1505896,18.1995046 C87.5768484,17.7282442 89.844968,17.4661435 92.1139612,17.4661435 C96.1757824,17.4661435 96.651074,18.3565914 96.651074,20.9767299 L96.651074,22.9164482 L91.1118298,22.9164482 C85.8364424,22.9164482 83.4626054,24.9594446 83.4626054,30.0947077 C83.4626054,34.4445369 85.4144463,37.8509773 90.1621203,37.8509773 C91.9025263,37.8509773 94.5410937,37.326776 97.4941924,35.7020992 L98.0219059,37.326776 L104.247003,37.326776 L104.247003,21.0296707 C104.247003,13.9555572 102.295162,11.2824778 93.3799493,11.2824778 L93.3799493,11.2824778 Z M74.1743239,11.2824778 C70.6402162,11.2824778 66.7898299,12.3308804 63.8882794,13.7455295 C62.9909918,12.1737936 61.4611469,11.2824778 59.1930273,11.2824778 C56.239055,11.2824778 52.1239383,12.2258665 48.9594048,13.7455295 L48.1678345,11.8066791 L42.5228729,11.8066791 L42.5228729,37.326776 L50.1196755,37.326776 L50.1196755,20.4533965 C51.7543641,19.5629486 54.2872141,18.6195599 55.6589196,18.6195599 C56.9773297,18.6195599 57.5050431,19.2999801 57.5050431,20.4533965 L57.5050431,37.326776 L65.1018457,37.326776 L65.1018457,20.4533965 C66.7365343,19.5629486 69.2685106,18.6195599 70.6402162,18.6195599 C71.9594999,18.6195599 72.4863397,19.2999801 72.4863397,20.4533965 L72.4863397,37.326776 L80.0831422,37.326776 L80.0831422,19.4570669 C80.0831422,14.5318314 78.5532973,11.2824778 74.1743239,11.2824778 L74.1743239,11.2824778 Z M30.9175448,21.5530041 L24.2704518,21.5530041 L24.2704518,20.4533965 C24.2704518,18.6716329 25.1144438,17.2040429 27.7521376,17.2040429 C30.3898313,17.2040429 30.9175448,18.6716329 30.9175448,20.4533965 L30.9175448,21.5530041 Z M27.6997157,11.2824778 C19.1532036,11.2824778 16.6736492,15.9994214 16.6736492,21.5009312 L16.6736492,27.4754371 C16.6736492,33.7632488 19.8399301,37.8509773 28.1741336,37.8509773 C31.1324744,37.8509773 34.1991538,37.3163614 36.4847473,36.6585062 C36.9705233,36.518777 37.4213513,36.3729727 37.8276208,36.2263005 L36.7206457,30.566836 C34.4516525,31.2481241 31.2871189,31.6673116 28.913282,31.6673116 C25.4307225,31.6673116 24.2704518,30.8810096 24.2704518,27.9466975 L24.2704518,27.2124686 L38.0923513,27.2124686 L38.0923513,21.8680456 C38.0923513,16.313595 36.2453541,11.2824778 27.6997157,11.2824778 L27.6997157,11.2824778 Z M8.1760642,0 C3.48081212,5.76447828 0,13.6769667 0,23.9995661 C0,34.3230333 3.48081212,42.2363896 8.1760642,48 L13.7677303,44.8565281 C9.96976583,38.6207894 7.59592885,32.8033703 7.59592885,23.9995661 C7.59592885,15.1966297 9.96976583,9.38007847 13.7677303,3.14433978 L8.1760642,0 Z" id="Fill-1"></path>
            </g>
        </g>
    </g>
</svg>