<svg xmlns="http://www.w3.org/2000/svg" width="282.9" height="60" viewBox="0 0 282.9 60"><defs><style>.a{fill:#444;}.b{fill:#c6c6c6;}.c{fill:#cecece;}.d{fill:#2d89d5;}</style></defs><title>wmd-buttons</title><path class="a" d="M128,14.4h8.6V16H128V14.4Zm0-5.3h8.6v1.7H128V9.1Zm0-5.2h8.6V5.6H128V3.9ZM125.4,3V6.5h-0.9V3.9h-0.9V3h1.8Zm-0.9,7.1v0.7h1.7v0.9h-2.6v-2l1.7-.8V8.2h-1.7V7.4h2.6v2Zm1.7,2.5V17h-2.6V16.1h1.7V15.3h-1.7V14.4h1.7V13.5h-1.7V12.6h2.6Z"/><path class="a" d="M204.3,7.4l4.5,4.6V9.3c1.3,0,4.7,0,4.7,3.7a4,4,0,0,1-3.1,4,5.94,5.94,0,0,0,4.9-5.9c0-5.7-5.8-5.7-6.6-5.7V3Z"/><path class="a" d="M235.3,7.4L230.8,12V9.3c-1.3,0-4.7,0-4.7,3.7a4,4,0,0,0,3.1,4,5.94,5.94,0,0,1-4.9-5.9c0-5.7,5.8-5.7,6.6-5.7V3Z"/><path class="a" d="M57.6,4h0a3.32,3.32,0,0,0-4.7,0l-3,3a3.32,3.32,0,0,0,0,4.7h0a1.38,1.38,0,0,0,.4.3l1.1-1.1c-0.1-.1-0.3-0.2-0.4-0.3h0a1.75,1.75,0,0,1,0-2.5l3-3a1.75,1.75,0,0,1,2.5,0h0a1.75,1.75,0,0,1,0,2.5L55.1,9a5.84,5.84,0,0,1,.4,1.8l2.1-2.1a3.52,3.52,0,0,0,0-4.7h0ZM53.2,8.3L52.9,8,51.8,9.1c0.1,0.1.3,0.2,0.4,0.3h0a1.75,1.75,0,0,1,0,2.5l-3,3a1.75,1.75,0,0,1-2.5,0h0a1.75,1.75,0,0,1,0-2.5L48,11a5.84,5.84,0,0,1-.4-1.8l-2.1,2.1a3.32,3.32,0,0,0,0,4.7h0a3.32,3.32,0,0,0,4.7,0l3-3a3.52,3.52,0,0,0,0-4.7h0Z"/><path class="a" d="M148.9,3.9h8.7V5.7h-8.7V3.9Zm0,5.2h8.7v1.8h-8.7V9.1Zm0,5.3h8.7v1.8h-8.7V14.4Zm-5.3-9.6a1.8,1.8,0,1,1,1.8,1.8A1.93,1.93,0,0,1,143.6,4.8Zm0,5.2a1.8,1.8,0,1,1,1.8,1.8A1.79,1.79,0,0,1,143.6,10Zm0,5.2a1.8,1.8,0,1,1,1.8,1.8A1.79,1.79,0,0,1,143.6,15.2Z"/><path class="a" d="M65.6,8.5A3.42,3.42,0,0,1,69.1,12a3.42,3.42,0,0,1-3.5,3.5A3.48,3.48,0,0,1,62.1,12V11.5a7,7,0,0,1,7-7v2A4.69,4.69,0,0,0,65.6,8c-0.2.2-.3,0.4-0.5,0.6A0.75,0.75,0,0,1,65.6,8.5Zm9,0A3.42,3.42,0,0,1,78.1,12a3.42,3.42,0,0,1-3.5,3.5A3.48,3.48,0,0,1,71.1,12V11.5a7.09,7.09,0,0,1,7-7v2A4.69,4.69,0,0,0,74.6,8c-0.2.2-.3,0.4-0.5,0.6A0.75,0.75,0,0,1,74.6,8.5Z"/><path class="b" d="M250,3a7,7,0,1,0,7,7A7,7,0,0,0,250,3Zm0.9,11.4h-1.8V12.6h1.8v1.8Zm2.6-4.4-2.6,1.8h-1.8V10.9l2.6-1.8V8.2h-4.4V6.5h5.2a0.9,0.9,0,0,1,.9.9V10h0.1Z"/><path class="a" d="M13.1,9.6A4.52,4.52,0,0,0,14,7a4,4,0,0,0-4-4H5V17h6A4,4,0,0,0,13.1,9.6ZM8,5H9.6a1.83,1.83,0,0,1,1.6,2A1.83,1.83,0,0,1,9.6,9H8V5Zm2.5,10H8V11h2.5a1.9,1.9,0,0,1,1.7,2A1.9,1.9,0,0,1,10.5,15Z"/><path class="a" d="M39.5,3V4h-2l-5,12h2v1h-7V16h2l5-12h-2V3h7Z"/><path class="a" d="M86.7,9.2V6.1A1.61,1.61,0,0,1,87.2,5a1.67,1.67,0,0,1,1.1-.4V3A3.23,3.23,0,0,0,85,6.1V8.4a0.79,0.79,0,0,1-.8.8H83.4v1.6h0.8a0.74,0.74,0,0,1,.8.8v2.3A3.23,3.23,0,0,0,88.3,17V15.4a2.1,2.1,0,0,1-1.1-.4,1.61,1.61,0,0,1-.5-1.1V10.8a0.79,0.79,0,0,0-.8-0.8,0.79,0.79,0,0,0,.8-0.8h0Z"/><path class="b" d="M165.1,12h10v2h-10V12Zm-3-3h16v2h-16V9Zm0,6h16v2h-16V15Z"/><rect class="a" x="162.1" y="3" width="16" height="2"/><rect class="a" x="165.1" y="6" width="10" height="2"/><rect class="a" x="183.6" y="9" width="2.3" height="2"/><rect class="a" x="187" y="9" width="2.3" height="2"/><path class="b" d="M186.6,12h10v2h-10V12Zm-3,3h16v2h-16V15Z"/><rect class="b" x="183.6" y="3" width="16" height="2"/><rect class="b" x="186.6" y="6" width="10" height="2"/><rect class="a" x="190.4" y="9" width="2.3" height="2"/><rect class="a" x="193.8" y="9" width="2.3" height="2"/><rect class="a" x="197.2" y="8.9" width="2.3" height="2"/><path class="a" d="M93.6,10.8v3.1a1.61,1.61,0,0,1-.5,1.1,1.5,1.5,0,0,1-1.1.4V17a3.14,3.14,0,0,0,3.2-3.1V11.6a0.79,0.79,0,0,1,.8-0.8h0.8V9.2H96a0.74,0.74,0,0,1-.8-0.8V6.1A3.23,3.23,0,0,0,91.9,3V4.6A2.1,2.1,0,0,1,93,5a1.61,1.61,0,0,1,.5,1.1V9.2a0.79,0.79,0,0,0,.8.8,0.77,0.77,0,0,0-.7.8h0Z"/><path class="a" d="M118.2,4V16h-15V4h15m1-1h-17V17h17V3h0Z"/><path class="a" d="M113.9,6.8a1.6,1.6,0,1,1,1.6,1.6A1.64,1.64,0,0,1,113.9,6.8Z"/><polygon class="a" points="117.1 14.8 104.4 14.8 107.5 6.2 111.8 11.6 113.9 10 117.1 14.8"/><polygon class="a" points="268.5 9.8 267.7 9 265 11.5 267.7 14 268.5 13.2 266.7 11.5 268.5 9.8"/><polygon class="a" points="270.4 13.2 271.2 14 274 11.5 271.2 9 270.4 9.8 272.2 11.5 270.4 13.2"/><polygon class="a" points="271.3 3 271.3 7.7 276 7.7 271.3 3"/><path class="a" d="M275,6.7V16H264V4h8.3l-1-1H264a1,1,0,0,0-1,1V16a1,1,0,0,0,1,1h11a1.08,1.08,0,0,0,1-1V7.7Z"/><path class="c" d="M128,34.4h8.6V36H128V34.4Zm0-5.3h8.6v1.7H128V29.1Zm0-5.2h8.6v1.7H128V23.9Zm-2.6-.9v3.5h-0.9V23.9h-0.9V23h1.8Zm-0.9,7.1v0.7h1.7v0.9h-2.6v-2l1.7-.8V28.2h-1.7V27.4h2.6v2Zm1.7,2.5V37h-2.6V36.1h1.7V35.3h-1.7V34.4h1.7V33.5h-1.7V32.6h2.6Z"/><path class="c" d="M204.3,27.4l4.5,4.6V29.3c1.3,0,4.7,0,4.7,3.7a4,4,0,0,1-3.1,4,5.94,5.94,0,0,0,4.9-5.9c0-5.7-5.8-5.7-6.6-5.7V23Z"/><path class="c" d="M235.3,27.4L230.8,32V29.3c-1.3,0-4.7,0-4.7,3.7a4,4,0,0,0,3.1,4,5.94,5.94,0,0,1-4.9-5.9c0-5.7,5.8-5.7,6.6-5.7V23Z"/><path class="c" d="M57.6,24h0a3.32,3.32,0,0,0-4.7,0l-3,3a3.32,3.32,0,0,0,0,4.7h0a1.38,1.38,0,0,0,.4.3l1.1-1.1c-0.1-.1-0.3-0.2-0.4-0.3h0a1.75,1.75,0,0,1,0-2.5l3-3a1.75,1.75,0,0,1,2.5,0h0a1.75,1.75,0,0,1,0,2.5L55.1,29a5.84,5.84,0,0,1,.4,1.8l2.1-2.1a3.52,3.52,0,0,0,0-4.7h0Zm-4.4,4.3L52.9,28l-1.1,1.1c0.1,0.1.3,0.2,0.4,0.3h0a1.75,1.75,0,0,1,0,2.5l-3,3a1.75,1.75,0,0,1-2.5,0h0a1.75,1.75,0,0,1,0-2.5L48,31a5.84,5.84,0,0,1-.4-1.8l-2.1,2.1a3.32,3.32,0,0,0,0,4.7h0a3.32,3.32,0,0,0,4.7,0l3-3a3.52,3.52,0,0,0,0-4.7h0Z"/><path class="c" d="M148.9,23.9h8.7v1.8h-8.7V23.9Zm0,5.2h8.7v1.8h-8.7V29.1Zm0,5.3h8.7v1.8h-8.7V34.4Zm-5.3-9.6a1.8,1.8,0,1,1,1.8,1.8A1.93,1.93,0,0,1,143.6,24.8Zm0,5.2a1.8,1.8,0,1,1,1.8,1.8A1.79,1.79,0,0,1,143.6,30Zm0,5.2a1.8,1.8,0,1,1,1.8,1.8A1.79,1.79,0,0,1,143.6,35.2Z"/><path class="c" d="M65.6,28.5a3.5,3.5,0,0,1,0,7A3.48,3.48,0,0,1,62.1,32V31.5a7,7,0,0,1,7-7v2A4.69,4.69,0,0,0,65.6,28c-0.2.2-.3,0.4-0.5,0.6A0.75,0.75,0,0,1,65.6,28.5Zm9,0a3.5,3.5,0,0,1,0,7A3.48,3.48,0,0,1,71.1,32V31.5a7.09,7.09,0,0,1,7-7v2A4.69,4.69,0,0,0,74.6,28c-0.2.2-.3,0.4-0.5,0.6A0.75,0.75,0,0,1,74.6,28.5Z"/><path class="c" d="M250,23a7,7,0,1,0,7,7A7,7,0,0,0,250,23Zm0.9,11.4h-1.8V32.6h1.8v1.8Zm2.6-4.4-2.6,1.8h-1.8V30.9l2.6-1.8V28.2h-4.4V26.5h5.2a0.9,0.9,0,0,1,.9.9V30h0.1Z"/><path class="c" d="M13.1,29.6A4.52,4.52,0,0,0,14,27a4,4,0,0,0-4-4H5V37h6A4,4,0,0,0,13.1,29.6ZM8,25H9.6a1.83,1.83,0,0,1,1.6,2,1.83,1.83,0,0,1-1.6,2H8V25Zm2.5,10H8V31h2.5A2,2,0,0,1,10.5,35Z"/><path class="c" d="M39.5,23v1h-2l-5,12h2v1h-7V36h2l5-12h-2V23h7Z"/><path class="c" d="M86.7,29.2V26.1a1.61,1.61,0,0,1,.5-1.1,1.67,1.67,0,0,1,1.1-.4V23A3.23,3.23,0,0,0,85,26.1v2.3a0.79,0.79,0,0,1-.8.8H83.4v1.6h0.8a0.74,0.74,0,0,1,.8.8v2.3A3.23,3.23,0,0,0,88.3,37V35.4a2.1,2.1,0,0,1-1.1-.4,1.61,1.61,0,0,1-.5-1.1V30.8a0.79,0.79,0,0,0-.8-0.8,0.79,0.79,0,0,0,.8-0.8h0Z"/><path class="c" d="M165.1,32h10v2h-10V32Zm-3-3h16v2h-16V29Zm0,6h16v2h-16V35Z"/><rect class="c" x="162.1" y="23" width="16" height="2"/><rect class="c" x="165.1" y="26" width="10" height="2"/><rect class="c" x="183.6" y="29" width="2.3" height="2"/><rect class="c" x="187" y="29" width="2.3" height="2"/><path class="c" d="M186.6,32h10v2h-10V32Zm-3,3h16v2h-16V35Z"/><rect class="c" x="183.6" y="23" width="16" height="2"/><rect class="c" x="186.6" y="26" width="10" height="2"/><rect class="c" x="190.4" y="29" width="2.3" height="2"/><rect class="c" x="193.8" y="29" width="2.3" height="2"/><rect class="c" x="197.2" y="28.9" width="2.3" height="2"/><path class="c" d="M93.6,30.8v3.1a1.61,1.61,0,0,1-.5,1.1,1.5,1.5,0,0,1-1.1.4V37a3.14,3.14,0,0,0,3.2-3.1V31.6a0.79,0.79,0,0,1,.8-0.8h0.8V29.2H96a0.74,0.74,0,0,1-.8-0.8V26.1A3.36,3.36,0,0,0,91.9,23v1.6A2.1,2.1,0,0,1,93,25a1.61,1.61,0,0,1,.5,1.1v3.1a0.79,0.79,0,0,0,.8.8,0.77,0.77,0,0,0-.7.8h0Z"/><path class="c" d="M118.2,24V36h-15V24h15m1-1h-17V37h17V23h0Z"/><path class="c" d="M113.9,26.8a1.6,1.6,0,1,1,1.6,1.6A1.64,1.64,0,0,1,113.9,26.8Z"/><polygon class="c" points="117.1 34.8 104.4 34.8 107.5 26.2 111.8 31.6 113.9 30 117.1 34.8"/><polygon class="c" points="268.5 29.8 267.7 29 265 31.5 267.7 34 268.5 33.2 266.7 31.5 268.5 29.8"/><polygon class="c" points="270.4 33.2 271.2 34 274 31.5 271.2 29 270.4 29.8 272.2 31.5 270.4 33.2"/><polygon class="c" points="271.3 23 271.3 27.7 276 27.7 271.3 23"/><path class="c" d="M275,26.7V36H264V24h8.3l-1-1H264a1,1,0,0,0-1,1V36a1,1,0,0,0,1,1h11a1.08,1.08,0,0,0,1-1V27.7Z"/><path class="d" d="M128,54.4h8.6V56H128V54.4Zm0-5.3h8.6v1.7H128V49.1Zm0-5.2h8.6v1.7H128V43.9Zm-2.6-.9v3.5h-0.9V43.9h-0.9V43h1.8Zm-0.9,7.1v0.7h1.7v0.9h-2.6v-2l1.7-.8V48.2h-1.7V47.4h2.6v2Zm1.7,2.5V57h-2.6V56.1h1.7V55.3h-1.7V54.4h1.7V53.5h-1.7V52.6h2.6Z"/><path class="d" d="M204.3,47.4l4.5,4.6V49.3c1.3,0,4.7,0,4.7,3.7a4,4,0,0,1-3.1,4,5.94,5.94,0,0,0,4.9-5.9c0-5.7-5.8-5.7-6.6-5.7V43Z"/><path class="d" d="M235.3,47.4L230.8,52V49.3c-1.3,0-4.7,0-4.7,3.7a4,4,0,0,0,3.1,4,5.94,5.94,0,0,1-4.9-5.9c0-5.7,5.8-5.7,6.6-5.7V43Z"/><path class="d" d="M57.6,44h0a3.32,3.32,0,0,0-4.7,0l-3,3a3.32,3.32,0,0,0,0,4.7h0a1.38,1.38,0,0,0,.4.3l1.1-1.1c-0.1-.1-0.3-0.2-0.4-0.3h0a1.75,1.75,0,0,1,0-2.5l3-3a1.75,1.75,0,0,1,2.5,0h0a1.75,1.75,0,0,1,0,2.5L55.1,49a5.84,5.84,0,0,1,.4,1.8l2.1-2.1a3.52,3.52,0,0,0,0-4.7h0Zm-4.4,4.3L52.9,48l-1.1,1.1c0.1,0.1.3,0.2,0.4,0.3h0a1.75,1.75,0,0,1,0,2.5l-3,3a1.75,1.75,0,0,1-2.5,0h0a1.75,1.75,0,0,1,0-2.5L48,51a5.84,5.84,0,0,1-.4-1.8l-2.1,2.1a3.32,3.32,0,0,0,0,4.7h0a3.32,3.32,0,0,0,4.7,0l3-3a3.52,3.52,0,0,0,0-4.7h0Z"/><path class="d" d="M148.9,43.9h8.7v1.8h-8.7V43.9Zm0,5.2h8.7v1.8h-8.7V49.1Zm0,5.3h8.7v1.8h-8.7V54.4Zm-5.3-9.6a1.8,1.8,0,1,1,1.8,1.8A1.93,1.93,0,0,1,143.6,44.8Zm0,5.2a1.8,1.8,0,1,1,1.8,1.8A1.79,1.79,0,0,1,143.6,50Zm0,5.2a1.8,1.8,0,1,1,1.8,1.8A1.79,1.79,0,0,1,143.6,55.2Z"/><path class="d" d="M65.6,48.5a3.5,3.5,0,0,1,0,7A3.48,3.48,0,0,1,62.1,52V51.5a7,7,0,0,1,7-7v2A4.69,4.69,0,0,0,65.6,48c-0.2.2-.3,0.4-0.5,0.6A0.75,0.75,0,0,1,65.6,48.5Zm9,0a3.5,3.5,0,0,1,0,7A3.48,3.48,0,0,1,71.1,52V51.5a7.09,7.09,0,0,1,7-7v2A4.69,4.69,0,0,0,74.6,48c-0.2.2-.3,0.4-0.5,0.6A0.75,0.75,0,0,1,74.6,48.5Z"/><path class="d" d="M250,43a7,7,0,1,0,7,7A7,7,0,0,0,250,43Zm0.9,11.4h-1.8V52.6h1.8v1.8Zm2.6-4.4-2.6,1.8h-1.8V50.9l2.6-1.8V48.2h-4.4V46.5h5.2a0.9,0.9,0,0,1,.9.9V50h0.1Z"/><path class="d" d="M13.1,49.6A4.52,4.52,0,0,0,14,47a4,4,0,0,0-4-4H5V57h6A4,4,0,0,0,13.1,49.6ZM8,45H9.6a2,2,0,0,1,0,4H8V45Zm2.5,10H8V51h2.5A2,2,0,0,1,10.5,55Z"/><path class="d" d="M39.5,43v1h-2l-5,12h2v1h-7V56h2l5-12h-2V43h7Z"/><path class="d" d="M86.7,49.2V46.1a1.61,1.61,0,0,1,.5-1.1,1.67,1.67,0,0,1,1.1-.4V43A3.23,3.23,0,0,0,85,46.1v2.3a0.79,0.79,0,0,1-.8.8H83.4v1.6h0.8a0.74,0.74,0,0,1,.8.8v2.3A3.23,3.23,0,0,0,88.3,57V55.4a2.1,2.1,0,0,1-1.1-.4,1.61,1.61,0,0,1-.5-1.1V50.8a0.79,0.79,0,0,0-.8-0.8,0.79,0.79,0,0,0,.8-0.8h0Z"/><path class="d" d="M165.1,52h10v2h-10V52Zm-3-3h16v2h-16V49Zm0,6h16v2h-16V55Z"/><rect class="d" x="162.1" y="43" width="16" height="2"/><rect class="d" x="165.1" y="46" width="10" height="2"/><rect class="d" x="183.6" y="49" width="2.3" height="2"/><rect class="d" x="187" y="49" width="2.3" height="2"/><path class="d" d="M186.6,52h10v2h-10V52Zm-3,3h16v2h-16V55Z"/><rect class="d" x="183.6" y="43" width="16" height="2"/><rect class="d" x="186.6" y="46" width="10" height="2"/><rect class="d" x="190.4" y="49" width="2.3" height="2"/><rect class="d" x="193.8" y="49" width="2.3" height="2"/><rect class="d" x="197.2" y="48.9" width="2.3" height="2"/><path class="d" d="M93.6,50.8v3.1a1.61,1.61,0,0,1-.5,1.1,1.5,1.5,0,0,1-1.1.4V57a3.14,3.14,0,0,0,3.2-3.1V51.6a0.79,0.79,0,0,1,.8-0.8h0.8V49.2H96a0.74,0.74,0,0,1-.8-0.8V46.1A3.36,3.36,0,0,0,91.9,43v1.6A2.1,2.1,0,0,1,93,45a1.61,1.61,0,0,1,.5,1.1v3.1a0.79,0.79,0,0,0,.8.8,0.77,0.77,0,0,0-.7.8h0Z"/><path class="d" d="M118.2,44V56h-15V44h15m1-1h-17V57h17V43h0Z"/><path class="d" d="M113.9,46.8a1.6,1.6,0,1,1,1.6,1.6A1.64,1.64,0,0,1,113.9,46.8Z"/><polygon class="d" points="117.1 54.8 104.4 54.8 107.5 46.2 111.8 51.6 113.9 50 117.1 54.8"/><polygon class="d" points="268.5 49.8 267.7 49 265 51.5 267.7 54 268.5 53.2 266.7 51.5 268.5 49.8"/><polygon class="d" points="270.4 53.2 271.2 54 274 51.5 271.2 49 270.4 49.8 272.2 51.5 270.4 53.2"/><polygon class="d" points="271.3 43 271.3 47.7 276 47.7 271.3 43"/><path class="d" d="M275,46.7V56H264V44h8.3l-1-1H264a1,1,0,0,0-1,1V56a1,1,0,0,0,1,1h11a1.08,1.08,0,0,0,1-1V47.7Z"/></svg>