<?xml version="1.0" encoding="utf-8"?>
<!-- Generator: Adobe Illustrator 16.0.4, SVG Export Plug-In . SVG Version: 6.00 Build 0)  -->
<!DOCTYPE svg PUBLIC "-//W3C//DTD SVG 1.1//EN" "http://www.w3.org/Graphics/SVG/1.1/DTD/svg11.dtd">
<svg version="1.1" id="Layer_1" xmlns="http://www.w3.org/2000/svg" xmlns:xlink="http://www.w3.org/1999/xlink" x="0px" y="0px"
	 viewBox="0 0 98 20" enable-background="new 0 0 98 20" xml:space="preserve">
<g>
	<g>
		<path fill="#707070" d="M30.953,9.619c0.992-0.56,1.423-1.345,1.423-2.552V5.409c0-2.417-1.416-3.592-4.326-3.592h-5.915
			c-0.224,0-0.406,0.186-0.406,0.416v15.533c0,0.229,0.182,0.416,0.406,0.416h6.336c2.824,0,4.444-1.405,4.444-3.856V12.62
			C32.915,11.159,32.19,10.068,30.953,9.619z M29.611,13.942c0,1.034-0.436,1.384-1.726,1.384h-2.852V4.674h2.665
			c1.208,0,1.374,0.538,1.374,1.12v1.418c0,0.92-0.418,1.312-1.398,1.312h-0.578c-0.224,0-0.406,0.187-0.406,0.416v1.953
			c0,0.229,0.182,0.416,0.406,0.416h1.047c1.042,0,1.468,0.414,1.468,1.432V13.942z M2.099,9.802L2.099,9.802
			c0.484,0,0.949-0.054,1.344-0.157c0.045-0.011,0.078-0.051,0.081-0.098c0.06-0.763,0.271-1.53,0.613-2.216
			c0.013-0.027,0.016-0.058,0.006-0.086s-0.03-0.052-0.056-0.064C3.696,6.995,3.292,6.75,2.918,6.472
			c-0.574-0.427-1.06-0.911-1.406-1.398C1.487,5.038,1.443,5.021,1.401,5.03S1.328,5.074,1.319,5.117
			C1.192,5.786,1.014,6.483,0.79,7.19C0.561,7.911,0.299,8.596,0.011,9.226c-0.023,0.051-0.005,0.111,0.042,0.141
			C0.39,9.577,1.104,9.802,2.099,9.802z M4.346,13.227c0.029-0.036,0.033-0.088,0.009-0.128c-0.315-0.528-0.547-1.103-0.688-1.704
			c-0.035-0.15-0.065-0.305-0.089-0.459c-0.005-0.029-0.021-0.055-0.044-0.072c-0.024-0.018-0.054-0.023-0.083-0.018
			c-0.421,0.086-0.889,0.131-1.352,0.131c-0.709,0-1.38-0.099-1.94-0.285c-0.041-0.014-0.085-0.002-0.114,0.031
			c-0.028,0.033-0.035,0.08-0.017,0.119c0.281,0.619,0.537,1.291,0.761,1.998c0.229,0.721,0.41,1.432,0.538,2.115
			c0.01,0.053,0.054,0.09,0.105,0.09h0.009c0.395-0.033,1.102-0.283,1.905-0.881C3.739,13.873,4.084,13.549,4.346,13.227z
			 M10.2,1.244c-0.033-0.077-0.1-0.132-0.18-0.149L4.891,0.003C4.788-0.018,4.683,0.027,4.626,0.117S4.573,0.324,4.635,0.411
			l0.771,1.076C4.982,1.873,4.518,2.257,4.03,2.62C3.432,3.064,2.827,3.461,2.233,3.797C2.185,3.825,2.165,3.884,2.186,3.937
			C2.337,4.31,2.787,4.922,3.592,5.521c0.392,0.292,0.799,0.527,1.179,0.683c0.013,0.005,0.026,0.008,0.04,0.008
			c0.031,0,0.061-0.014,0.082-0.039c0.525-0.63,1.175-1.136,1.901-1.491l0.26,1.339c0.021,0.105,0.103,0.187,0.206,0.205
			C7.273,6.229,7.288,6.23,7.302,6.23c0.088,0,0.172-0.048,0.218-0.127l2.667-4.623C10.228,1.408,10.233,1.32,10.2,1.244z
			 M5.195,14.191c-0.021-0.021-0.048-0.033-0.078-0.032c-0.029,0.001-0.057,0.014-0.077,0.036c-0.292,0.322-0.645,0.64-1.02,0.918
			c-0.574,0.428-1.174,0.752-1.733,0.938c-0.041,0.014-0.07,0.05-0.074,0.095c-0.004,0.043,0.018,0.085,0.055,0.106
			c0.582,0.331,1.174,0.721,1.762,1.157c0.608,0.453,1.17,0.926,1.67,1.408c0.021,0.02,0.047,0.029,0.073,0.029
			c0.025,0,0.051-0.01,0.071-0.027c0.305-0.273,0.739-0.908,1.044-1.869c0.149-0.47,0.242-0.939,0.269-1.359
			C7.16,15.544,7.133,15.5,7.09,15.482C6.386,15.186,5.731,14.739,5.195,14.191z M16.503,10.198c-0.483,0-0.948,0.054-1.343,0.157
			c-0.045,0.012-0.077,0.051-0.081,0.098c-0.06,0.764-0.271,1.529-0.613,2.217c-0.014,0.025-0.016,0.057-0.006,0.086
			c0.01,0.027,0.03,0.051,0.057,0.063c0.391,0.186,0.795,0.431,1.169,0.709c0.574,0.428,1.06,0.911,1.407,1.398
			c0.02,0.029,0.053,0.046,0.087,0.046c0.007,0,0.015-0.002,0.023-0.003c0.042-0.009,0.074-0.044,0.083-0.087
			c0.127-0.668,0.305-1.365,0.53-2.073c0.229-0.721,0.49-1.405,0.778-2.035c0.023-0.052,0.005-0.112-0.041-0.142
			C18.213,10.423,17.499,10.198,16.503,10.198z M14.258,6.773c-0.03,0.036-0.033,0.087-0.009,0.128
			c0.315,0.528,0.547,1.102,0.688,1.704c0.035,0.15,0.065,0.304,0.089,0.458c0.004,0.03,0.021,0.056,0.044,0.073
			c0.024,0.018,0.054,0.024,0.083,0.018c0.421-0.086,0.888-0.131,1.351-0.131c0.709,0,1.381,0.099,1.94,0.285
			c0.011,0.004,0.022,0.005,0.033,0.005h0.001c0.06,0.003,0.109-0.049,0.109-0.11c0-0.025-0.008-0.048-0.021-0.066
			c-0.278-0.613-0.531-1.278-0.752-1.978c-0.229-0.72-0.409-1.432-0.538-2.116c-0.01-0.055-0.06-0.093-0.114-0.089
			c-0.394,0.033-1.102,0.282-1.906,0.88C14.865,6.127,14.52,6.451,14.258,6.773z M13.408,5.841c0.02,0.021,0.047,0.032,0.076,0.032
			h0.002c0.03,0,0.057-0.013,0.077-0.035c0.292-0.322,0.645-0.641,1.019-0.919c0.574-0.428,1.174-0.752,1.734-0.938
			c0.041-0.014,0.069-0.051,0.073-0.094c0.004-0.044-0.017-0.086-0.055-0.107c-0.582-0.331-1.174-0.72-1.762-1.158
			c-0.607-0.452-1.169-0.926-1.669-1.407c-0.041-0.039-0.103-0.04-0.145-0.003c-0.305,0.274-0.739,0.909-1.043,1.87
			c-0.148,0.469-0.242,0.938-0.269,1.359c-0.003,0.047,0.024,0.091,0.066,0.109C12.217,4.847,12.872,5.293,13.408,5.841z
			 M15.011,14.479c-0.391-0.291-0.799-0.527-1.179-0.684c-0.043-0.018-0.092-0.005-0.122,0.031c-0.525,0.631-1.175,1.137-1.902,1.49
			l-0.26-1.338c-0.02-0.105-0.102-0.188-0.206-0.205c-0.103-0.018-0.207,0.031-0.26,0.123L8.417,18.52
			c-0.042,0.072-0.046,0.16-0.014,0.236c0.033,0.077,0.1,0.133,0.18,0.149l5.129,1.092c0.018,0.003,0.034,0.005,0.052,0.005
			c0.139,0.003,0.255-0.115,0.255-0.259c0-0.07-0.027-0.133-0.07-0.179l-0.752-1.051c0.423-0.387,0.888-0.771,1.375-1.133
			c0.599-0.445,1.204-0.842,1.798-1.178c0.047-0.027,0.068-0.088,0.047-0.139C16.266,15.69,15.816,15.078,15.011,14.479z
			 M38.663,5.88c-1.214,0-2.692,0.197-3.764,0.5c-0.199,0.057-0.325,0.258-0.292,0.467l0.281,1.784
			c0.018,0.111,0.079,0.21,0.168,0.275c0.09,0.065,0.202,0.089,0.31,0.067c0.997-0.199,2.026-0.309,2.898-0.309
			c1.731,0,2.008,0.375,2.008,1.577v1.047h-2.571c-2.457,0-3.505,1.038-3.505,3.472c0,2.328,1.149,3.663,3.153,3.663
			c1.159,0,2.32-0.329,3.295-0.933l0.103,0.386c0.048,0.181,0.209,0.307,0.392,0.307h1.937c0.224,0,0.406-0.187,0.406-0.415v-7.479
			C43.482,7.075,42.176,5.88,38.663,5.88z M40.272,15.207c-0.397,0.217-1.117,0.528-1.984,0.528c-0.748,0-0.975-0.233-0.975-1
			c0-0.743,0.141-0.976,1.022-0.976h1.938V15.207z M59.564,5.88c-1.294,0-3.09,0.476-4.523,1.191
			C54.602,6.28,53.852,5.88,52.809,5.88c-1.271,0-3.003,0.449-4.465,1.153l-0.175-0.613c-0.051-0.177-0.209-0.299-0.39-0.299h-1.776
			c-0.224,0-0.406,0.186-0.406,0.416v11.231c0,0.229,0.182,0.415,0.406,0.415H48.4c0.225,0,0.406-0.187,0.406-0.415V9.989
			c0.864-0.45,2.078-0.916,2.805-0.916c0.54,0,0.741,0.206,0.741,0.759v7.935c0,0.229,0.182,0.415,0.405,0.415h2.398
			c0.225,0,0.406-0.187,0.406-0.415V9.984c0.865-0.491,2.15-0.911,2.805-0.911c0.541,0,0.741,0.206,0.741,0.759v7.935
			c0,0.229,0.182,0.415,0.405,0.415h2.398c0.225,0,0.406-0.187,0.406-0.415V9.52C62.318,7.104,61.392,5.88,59.564,5.88z
			 M70.964,5.88c-1.188,0-2.39,0.301-3.204,0.614V1.938c0-0.23-0.182-0.416-0.406-0.416h-2.398c-0.224,0-0.405,0.186-0.405,0.416
			V17.64c0,0.2,0.14,0.373,0.333,0.409c1.479,0.275,3.227,0.374,4.274,0.374c4.506,0,5.429-1.964,5.429-4.913v-3.437
			C74.586,7.291,73.367,5.88,70.964,5.88z M71.376,13.605c0,1.301-0.321,1.961-2.078,1.961c-0.607,0-1.112-0.024-1.538-0.075V9.346
			c0.66-0.303,1.59-0.609,2.336-0.609c0.91,0,1.28,0.366,1.28,1.264V13.605z M81.203,5.88c-3.367,0-5.147,1.658-5.147,4.794v2.956
			c0,3.136,1.78,4.793,5.147,4.793s5.146-1.657,5.146-4.793v-2.956C86.35,7.538,84.57,5.88,81.203,5.88z M83.141,13.726
			c0,1.29-0.58,1.841-1.938,1.841s-1.938-0.551-1.938-1.841v-3.147c0-1.291,0.58-1.841,1.938-1.841s1.938,0.551,1.938,1.841V13.726z
			 M92.852,5.88c-3.367,0-5.147,1.658-5.147,4.794v2.956c0,3.136,1.78,4.793,5.147,4.793s5.147-1.657,5.147-4.793v-2.956
			C97.999,7.538,96.219,5.88,92.852,5.88z M94.789,13.726c0,1.29-0.58,1.841-1.938,1.841s-1.938-0.551-1.938-1.841v-3.147
			c0-1.291,0.58-1.841,1.938-1.841s1.938,0.551,1.938,1.841V13.726z"/>
	</g>
</g>
</svg>
