<?xml version="1.0" encoding="utf-8"?>
<!-- Generator: Adobe Illustrator 16.0.4, SVG Export Plug-In . SVG Version: 6.00 Build 0)  -->
<!DOCTYPE svg PUBLIC "-//W3C//DTD SVG 1.1//EN" "http://www.w3.org/Graphics/SVG/1.1/DTD/svg11.dtd">
<svg version="1.1" id="Layer_1" xmlns="http://www.w3.org/2000/svg" xmlns:xlink="http://www.w3.org/1999/xlink" x="0px" y="0px"
	 viewBox="0 0 120 18" enable-background="new 0 0 120 18" xml:space="preserve">
<g>
	<g>
		<path fill="#707070" d="M37.772,4.423c-3.292,0-5.033,1.566-5.033,4.529v2.794c0,2.963,1.741,4.528,5.033,4.528
			s5.033-1.565,5.033-4.528V8.952C42.805,5.989,41.064,4.423,37.772,4.423z M39.667,11.836c0,1.22-0.567,1.74-1.895,1.74
			s-1.895-0.521-1.895-1.74V8.861c0-1.219,0.567-1.739,1.895-1.739s1.895,0.521,1.895,1.739V11.836z M51.32,4.423
			c-1.243,0-2.936,0.425-4.366,1.089l-0.171-0.579c-0.05-0.167-0.205-0.283-0.381-0.283h-1.737c-0.219,0-0.397,0.176-0.397,0.394
			v10.611c0,0.217,0.178,0.394,0.397,0.394h2.345c0.219,0,0.397-0.177,0.397-0.394V8.306C48.252,7.88,49.439,7.44,50.15,7.44
			c0.528,0,0.725,0.195,0.725,0.717v7.497c0,0.217,0.178,0.394,0.397,0.394h2.345c0.219,0,0.397-0.177,0.397-0.394V7.862
			C54.014,5.58,53.108,4.423,51.32,4.423z M60.927,2.608c0.286,0,0.724,0.044,1.141,0.115c0.105,0.018,0.214-0.008,0.302-0.07
			c0.086-0.063,0.143-0.158,0.158-0.264l0.238-1.707c0.027-0.198-0.1-0.385-0.295-0.435C61.838,0.088,61.111,0,60.422,0
			c-2.507,0-3.726,1.177-3.726,3.598v1.376h-1.302c-0.22,0-0.397,0.176-0.397,0.394v1.754c0,0.217,0.177,0.393,0.397,0.393h1.302
			v8.141c0,0.217,0.178,0.394,0.397,0.394h2.345c0.219,0,0.397-0.177,0.397-0.394V7.514h2.303c0.207,0,0.38-0.159,0.395-0.365
			l0.002-1.754c0-0.129-0.03-0.216-0.105-0.296c-0.076-0.08-0.181-0.125-0.291-0.125h-2.303V3.757
			C59.835,2.909,60,2.608,60.927,2.608z M66.709,0.305h-2.344c-0.22,0-0.398,0.176-0.398,0.393v14.957
			c0,0.217,0.179,0.394,0.398,0.394h2.344c0.22,0,0.397-0.177,0.397-0.394V0.698C67.106,0.48,66.929,0.305,66.709,0.305z
			 M78.195,4.65H75.85c-0.219,0-0.396,0.176-0.396,0.394v7.349c-0.846,0.426-2.033,0.865-2.743,0.865
			c-0.528,0-0.725-0.194-0.725-0.717V5.043c0-0.217-0.178-0.394-0.397-0.394h-2.345c-0.22,0-0.397,0.176-0.397,0.394v7.792
			c0,2.281,0.906,3.438,2.694,3.438c1.243,0,2.936-0.425,4.366-1.089l0.171,0.58c0.05,0.167,0.204,0.282,0.381,0.282h1.737
			c0.219,0,0.396-0.177,0.396-0.394V5.043C78.592,4.826,78.414,4.65,78.195,4.65z M84.76,4.423c-3.143,0-4.805,1.551-4.805,4.484
			v2.929c0,3.028,1.557,4.438,4.896,4.438c1.361,0,2.811-0.235,3.977-0.646c0.188-0.066,0.297-0.258,0.256-0.45l-0.346-1.661
			c-0.023-0.107-0.089-0.201-0.184-0.257c-0.094-0.057-0.208-0.072-0.314-0.042c-1.075,0.301-2.102,0.447-3.137,0.447
			c-1.709,0-2.009-0.546-2.009-1.693v-0.399h5.819c0.219,0,0.396-0.176,0.396-0.394V9.043C89.311,5.891,87.864,4.423,84.76,4.423z
			 M86.31,9.011h-3.215V8.634c0-1.094,0.536-1.603,1.688-1.603c1.271,0,1.526,0.613,1.526,1.603V9.011z M97.783,4.423
			c-1.242,0-2.936,0.425-4.366,1.089l-0.171-0.579c-0.049-0.167-0.205-0.283-0.381-0.283h-1.736c-0.22,0-0.397,0.176-0.397,0.394
			v10.611c0,0.217,0.178,0.394,0.397,0.394h2.345c0.22,0,0.397-0.177,0.397-0.394V8.306c0.844-0.426,2.031-0.866,2.742-0.866
			c0.528,0,0.725,0.195,0.725,0.717v7.497c0,0.217,0.178,0.394,0.396,0.394h2.346c0.219,0,0.396-0.177,0.396-0.394V7.862
			C100.477,5.58,99.57,4.423,97.783,4.423z M106.986,7.145c0.409,0,1.291,0.062,2.04,0.232c0.108,0.024,0.222,0.003,0.312-0.059
			c0.091-0.062,0.152-0.158,0.169-0.266l0.278-1.837c0.029-0.194-0.091-0.379-0.28-0.435c-0.902-0.264-1.959-0.357-2.589-0.357
			c-3.542,0-4.987,1.28-4.987,4.416v3.021c0,3.136,1.445,4.415,4.987,4.415c0.862,0,1.854-0.137,2.591-0.356
			c0.189-0.056,0.308-0.241,0.278-0.434l-0.278-1.84c-0.017-0.109-0.078-0.205-0.17-0.267c-0.09-0.062-0.203-0.083-0.312-0.059
			c-0.673,0.153-1.379,0.233-2.04,0.233c-1.488,0-1.918-0.375-1.918-1.671V8.816C105.068,7.52,105.498,7.145,106.986,7.145z
			 M115.449,4.423c-3.143,0-4.805,1.551-4.805,4.484v2.929c0,3.028,1.556,4.438,4.896,4.438c1.361,0,2.811-0.235,3.977-0.646
			c0.188-0.066,0.296-0.258,0.256-0.45l-0.347-1.661c-0.022-0.107-0.089-0.201-0.183-0.257c-0.094-0.057-0.208-0.072-0.314-0.042
			c-1.076,0.301-2.102,0.447-3.137,0.447c-1.709,0-2.01-0.546-2.01-1.693v-0.399h5.82c0.219,0,0.396-0.176,0.396-0.394V9.043
			C120,5.891,118.554,4.423,115.449,4.423z M116.998,9.011h-3.215V8.634c0-1.094,0.537-1.603,1.688-1.603
			c1.271,0,1.526,0.613,1.526,1.603V9.011z M27.767,3.309c0.939,0,2.239,0.128,3.476,0.342c0.107,0.019,0.217-0.007,0.304-0.071
			s0.144-0.16,0.158-0.266l0.265-2.043c0.026-0.199-0.104-0.386-0.301-0.432c-1.242-0.294-2.66-0.456-3.994-0.456
			c-3.72,0-5.606,1.531-5.606,4.552v6.813c0,3.021,1.886,4.552,5.606,4.552c1.334,0,2.752-0.162,3.994-0.456
			c0.197-0.047,0.327-0.232,0.301-0.432l-0.265-2.043c-0.014-0.107-0.07-0.203-0.158-0.267s-0.198-0.089-0.304-0.071
			c-1.237,0.215-2.537,0.342-3.476,0.342c-1.845,0-2.467-0.535-2.467-2.125V5.435C25.299,3.846,25.922,3.309,27.767,3.309z
			 M14.319,12.072c-0.254-0.496-0.555-0.997-0.907-1.507c-0.252-0.366-0.523-0.722-0.805-1.069
			c-0.115-0.142-0.067-0.318,0.021-0.406c0.086-0.087,0.174-0.175,0.262-0.265c1.208-1.219,2.456-2.479,3.414-3.841
			c1.018-1.449,1.582-2.823,1.725-4.237c0.014-0.142-0.051-0.292-0.167-0.38C17.785,0.31,17.693,0.279,17.6,0.279
			c-0.051,0-0.104,0.01-0.153,0.028c-0.929,0.352-1.871,0.619-2.732,0.817c-0.175,0.041-0.317,0.17-0.376,0.325
			c-0.627,1.701-2.228,3.32-3.908,5.016c-0.067,0.063-0.162,0.147-0.315,0.147c-0.153,0-0.247-0.081-0.315-0.147
			c-1.68-1.696-3.281-3.31-3.908-5.01C5.833,1.3,5.691,1.171,5.516,1.13c-0.861-0.199-1.804-0.488-2.731-0.84
			c-0.05-0.019-0.103-0.028-0.154-0.028c-0.093,0-0.185,0.03-0.261,0.087c-0.118,0.09-0.181,0.234-0.167,0.38
			C2.346,2.144,2.91,3.536,3.929,4.984c0.957,1.362,2.206,2.623,3.413,3.841c2.225,2.246,4.326,4.368,4.51,6.828
			c0.017,0.222,0.203,0.394,0.429,0.394h2.613c0.118,0,0.23-0.047,0.312-0.132c0.081-0.084,0.124-0.198,0.118-0.313
			c-0.023-0.465-0.091-0.928-0.201-1.393l0.001-0.002c-0.003-0.014-0.005-0.027-0.005-0.041c0-0.096,0.074-0.173,0.171-0.173
			c0.008,0,0.016,0.001,0.024,0.003c2.134,0.309,3.483,0.803,3.485,1.348c0,0,0,0,0,0.001c0,0.513-1.213,1.286-3.185,1.853
			l-0.001,0.001c-0.175,0.05-0.303,0.206-0.303,0.394c0,0.225,0.188,0.408,0.421,0.408c0.032,0,0.063-0.004,0.093-0.01
			c2.65-0.607,4.407-1.627,4.407-2.779C20.23,13.844,17.855,12.623,14.319,12.072z M7.311,10.738
			c-0.053-0.055-0.161-0.129-0.305-0.129c-0.195,0-0.311,0.125-0.354,0.19c-0.285,0.431-0.534,0.854-0.749,1.274
			C2.371,12.625,0,13.846,0,15.211c0,1.153,1.745,2.171,4.399,2.777h0.004C4.435,17.996,4.467,18,4.5,18
			c0.232,0,0.421-0.184,0.421-0.408c0-0.187-0.128-0.342-0.302-0.392l-0.001-0.003c-1.972-0.566-3.185-1.34-3.185-1.853
			c0-0.001,0-0.001,0-0.001c0.002-0.544,1.348-1.037,3.476-1.347c0.007-0.001,0.015-0.003,0.022-0.003
			c0.098,0,0.173,0.08,0.173,0.175c0,0.015-0.002,0.028-0.006,0.042L5.1,14.213c-0.11,0.463-0.177,0.925-0.2,1.387
			c-0.005,0.115,0.038,0.23,0.119,0.315c0.081,0.084,0.195,0.132,0.312,0.132h2.614c0.224,0,0.414-0.174,0.43-0.395
			c0.057-0.758,0.296-1.517,0.729-2.314c0.15-0.275,0.033-0.535-0.053-0.646C8.622,12.139,8.095,11.549,7.311,10.738z M9.814,4.346
			c0.104,0.099,0.22,0.118,0.301,0.118h0.001c0.081,0,0.198-0.019,0.301-0.118c0.922-0.887,1.417-1.922,1.525-2.209
			c0.016-0.042,0.032-0.09,0.032-0.157c0-0.229-0.193-0.394-0.396-0.394c-0.167,0-0.642,0.049-1.461,0.049h-0.005
			c-0.819,0-1.293-0.049-1.46-0.049c-0.202,0-0.396,0.164-0.396,0.394c0,0.067,0.016,0.115,0.032,0.157
			C8.397,2.424,8.892,3.459,9.814,4.346z"/>
	</g>
</g>
</svg>
