<?xml version="1.0" encoding="utf-8"?>
<!-- Generator: Adobe Illustrator 16.0.4, SVG Export Plug-In . SVG Version: 6.00 Build 0)  -->
<!DOCTYPE svg PUBLIC "-//W3C//DTD SVG 1.1//EN" "http://www.w3.org/Graphics/SVG/1.1/DTD/svg11.dtd">
<svg version="1.1" id="Layer_1" xmlns="http://www.w3.org/2000/svg" xmlns:xlink="http://www.w3.org/1999/xlink" x="0px" y="0px"
	 viewBox="0 0 56 22" enable-background="new 0 0 56 22" xml:space="preserve">
<g>
	<g>
		<path fill="#707070" d="M27.954,5.309H25.54c-0.217,0-0.394,0.178-0.394,0.398v14.858c0,0.219,0.176,0.398,0.394,0.398h2.414
			c0.218,0,0.394-0.18,0.394-0.398V5.707C28.348,5.486,28.172,5.309,27.954,5.309z M55.984,20.445L51.352,5.587
			c-0.051-0.166-0.203-0.278-0.375-0.278h-3.67c-0.172,0-0.324,0.113-0.375,0.278l-4.249,13.628L40.068,15.4
			c1.447-0.607,2.181-1.879,2.181-3.784v-2c0-2.98-1.538-4.309-4.987-4.309h-5.98c-0.217,0-0.394,0.178-0.394,0.398v14.858
			c0,0.219,0.177,0.398,0.394,0.398h2.414c0.217,0,0.394-0.18,0.394-0.398v-4.66h2.471l3.36,4.887
			c0.074,0.107,0.194,0.172,0.323,0.172h2.886c0,0,0.001,0,0.002,0h2.07c0.176,0,0.328-0.117,0.378-0.285L48.769,9.75
			c0,0,0.083-0.273,0.372-0.273c0.294,0,0.365,0.284,0.365,0.284l1.48,5.183h-2.033c-0.176,0-0.332,0.117-0.379,0.289l-0.57,2.051
			c-0.033,0.121-0.01,0.25,0.064,0.35c0.075,0.098,0.191,0.156,0.314,0.156h3.431l0.892,2.895c0.051,0.166,0.203,0.279,0.375,0.279
			h2.528c0.126,0,0.243-0.061,0.317-0.164C56,20.697,56.021,20.566,55.984,20.445z M39.048,11.365c0,1.264-0.479,1.692-1.899,1.692
			h-3.06V8.202h3.06c1.582,0,1.899,0.629,1.899,1.646V11.365z M22.3,5.309h-2.444c-0.207,0-0.375,0.17-0.375,0.379v11.627
			c0,1.461-1.101,1.941-1.846,1.979c-0.101,0.006-0.217,0.07-0.282,0.164c-0.064,0.096-0.082,0.215-0.049,0.326l0.594,1.953
			C17.947,21.896,18.118,22,18.395,22c2.338,0,4.28-1.857,4.28-4.346V5.688c0-0.101-0.04-0.197-0.11-0.268S22.399,5.309,22.3,5.309z
			 M3.375,4.006c0.751,0,1.359-0.616,1.359-1.375c0-0.761-0.607-1.375-1.359-1.375c-0.75,0-1.358,0.614-1.358,1.375
			C2.017,3.39,2.625,4.006,3.375,4.006z M12.303,4.006c0.749,0,1.358-0.616,1.358-1.375c0-0.761-0.609-1.375-1.358-1.375
			c-0.751,0-1.358,0.614-1.358,1.375C10.944,3.39,11.551,4.006,12.303,4.006z M7.839,2.751c0.751,0,1.359-0.616,1.359-1.376
			C9.198,0.614,8.59,0,7.839,0C7.088,0,6.48,0.614,6.48,1.375C6.48,2.135,7.088,2.751,7.839,2.751z M15.256,5
			c-0.051,0-0.103,0.01-0.152,0.029c-0.92,0.356-1.854,0.626-2.707,0.827c-0.174,0.042-0.314,0.172-0.373,0.329
			c-0.621,1.722-2.208,3.36-3.872,5.077C8.085,11.325,7.992,11.41,7.84,11.41c-0.152,0-0.245-0.082-0.313-0.149
			c-1.664-1.717-3.25-3.35-3.872-5.072C3.596,6.033,3.456,5.902,3.282,5.861C2.429,5.66,1.492,5.381,0.574,5.025
			C0.524,5.007,0.473,4.997,0.421,4.997c-0.092,0-0.181,0.029-0.257,0.087C0.046,5.175-0.014,5.323,0,5.465
			c0.141,1.431,0.7,2.831,1.709,4.297c0.949,1.379,2.186,2.654,3.383,3.889c2.204,2.275,4.287,4.422,4.469,6.912
			c0.017,0.225,0.202,0.398,0.425,0.398h2.59c0.117,0,0.228-0.047,0.309-0.133c0.08-0.086,0.123-0.201,0.117-0.318
			c-0.082-1.666-0.701-3.332-1.894-5.098c-0.25-0.369-0.518-0.73-0.798-1.082c-0.114-0.143-0.066-0.322,0.021-0.412
			c0.086-0.088,0.172-0.178,0.259-0.268c1.196-1.234,2.434-2.51,3.382-3.889c1.009-1.466,1.568-2.857,1.709-4.289
			c0.015-0.144-0.05-0.296-0.165-0.385C15.439,5.03,15.349,5,15.256,5z M5.061,15.588C5,15.523,4.909,15.457,4.758,15.457
			c-0.193,0-0.308,0.135-0.351,0.201c-1.089,1.678-1.652,3.26-1.73,4.85c-0.005,0.117,0.037,0.234,0.118,0.32
			c0.08,0.084,0.193,0.133,0.31,0.133H5.69c0.222,0,0.41-0.176,0.426-0.4c0.057-0.766,0.292-1.533,0.722-2.342
			c0.148-0.279,0.033-0.541-0.053-0.652C6.359,17.006,5.837,16.408,5.061,15.588z M7.541,9.116c0.102,0.101,0.218,0.119,0.298,0.119
			H7.84c0.08,0,0.196-0.019,0.299-0.119C9.052,8.218,9.542,7.17,9.65,6.879C9.666,6.836,9.682,6.788,9.682,6.72
			c0-0.232-0.192-0.398-0.392-0.398c-0.166,0-0.636,0.049-1.448,0.049H7.837c-0.812,0-1.282-0.049-1.447-0.049
			c-0.2,0-0.392,0.166-0.392,0.398c0,0.068,0.016,0.116,0.032,0.159C6.137,7.17,6.627,8.218,7.541,9.116z"/>
	</g>
</g>
</svg>
