<?xml version="1.0" encoding="utf-8"?>
<!-- Generator: Adobe Illustrator 17.1.0, SVG Export Plug-In . SVG Version: 6.00 Build 0)  -->
<!DOCTYPE svg PUBLIC "-//W3C//DTD SVG 1.1//EN" "http://www.w3.org/Graphics/SVG/1.1/DTD/svg11.dtd">
<svg version="1.1" id="Layer_1" xmlns="http://www.w3.org/2000/svg" xmlns:xlink="http://www.w3.org/1999/xlink" x="0px" y="0px"
	 width="283.6px" height="255.1px" viewBox="0 0 283.6 255.1" style="enable-background:new 0 0 283.6 255.1;" xml:space="preserve"
	>
<g style="opacity:0.2;">
	<path style="fill:#5AACDE;" d="M233.1,217c11.5-17.5,18.3-38.5,18.3-61c-0.1-61.4-49.8-111.1-111.1-111.1S29.2,94.6,29.2,156
		c0,22.5,6.7,43.5,18.3,61H233.1z"/>
</g>
<g>
	<g>
		<path style="fill:#59AEE0;" d="M214.5,214.5H66c-2.2,0-4-1.8-4-4v-85.1h156.6v85.1C218.5,212.7,216.8,214.5,214.5,214.5z"/>
	</g>
	<g>
		<path style="fill:#205182;" d="M214.5,216.5H66c-3.3,0-6-2.7-6-6v-85.1c0-1.1,0.9-2,2-2h156.6c1.1,0,2,0.9,2,2v85.1
			C220.5,213.8,217.9,216.5,214.5,216.5z M64,127.4v83.1c0,1.1,0.9,2,2,2h148.6c1.1,0,2-0.9,2-2v-83.1H64z"/>
	</g>
	<g style="opacity:0.2;enable-background:new    ;">
		<path style="fill:#205182;" d="M198.6,163.5H82c-11,0-20-8.9-20-20V114c0-1.1,0.9-2,2-2h152.6c1.1,0,2,0.9,2,2v29.5
			C218.5,154.6,209.6,163.5,198.6,163.5z"/>
	</g>
	<g>
		<path style="fill:#59AEE0;" d="M198.6,159.5H82c-11,0-20-8.9-20-20V110c0-1.1,0.9-2,2-2h152.6c1.1,0,2,0.9,2,2v29.5
			C218.5,150.6,209.6,159.5,198.6,159.5z"/>
	</g>
	<g>
		<path style="fill:#205182;" d="M198.6,161.5H82c-12.1,0-22-9.9-22-22V110c0-2.2,1.8-4,4-4h152.6c2.2,0,4,1.8,4,4v29.5
			C220.5,151.7,210.7,161.5,198.6,161.5z M64,110.1v29.5c0,9.9,8.1,18,18,18h116.6c9.9,0,18-8.1,18-18v-29.5H64z"/>
	</g>
	<g>
		<path style="fill:#FEBD1B;" d="M128,148.8h20.2v10.7H128V148.8z"/>
	</g>
	<g>
		<path style="fill:#205182;" d="M148.3,161.5h-20.2c-1.1,0-2-0.9-2-2v-10.7c0-1.1,0.9-2,2-2h20.2c1.1,0,2,0.9,2,2v10.7
			C150.3,160.7,149.4,161.5,148.3,161.5z M130,157.5h16.2v-6.7H130V157.5z"/>
	</g>
	<g style="opacity:0.2;enable-background:new    ;">
		<path style="fill:#205182;" d="M128,154.2h20.2v5.4H128V154.2z"/>
	</g>
	<g>
		<path style="fill:#FEBD1B;" d="M128,159.2h20.2v9H128V159.2z"/>
	</g>
	<g>
		<path style="fill:#205182;" d="M148.3,170.2h-20.2c-1.1,0-2-0.9-2-2v-9c0-1.1,0.9-2,2-2h20.2c1.1,0,2,0.9,2,2v9
			C150.3,169.3,149.4,170.2,148.3,170.2z M130,166.2h16.2v-5H130V166.2z"/>
	</g>
	<g>
		<path style="fill:#FEBD1B;" d="M138.1,184.1c-4,0-7.2-3.2-7.2-7.2V168h14.5v8.9C145.4,180.9,142.2,184.1,138.1,184.1z"/>
	</g>
	<g>
		<path style="fill:#205182;" d="M138.1,186.1c-5.1,0-9.2-4.1-9.2-9.2V168c0-1.1,0.9-2,2-2h14.5c1.1,0,2,0.9,2,2v8.9
			C147.4,182,143.2,186.1,138.1,186.1z M132.9,170v6.9c0,2.9,2.4,5.2,5.2,5.2s5.2-2.4,5.2-5.2V170H132.9z"/>
	</g>
	<g>
		<path style="fill:#59AEE0;" d="M138.1,136.6c-5.6,0-10.1,4.5-10.1,10.1v2.1h20.2v-2.1C148.3,141.1,143.7,136.6,138.1,136.6z"/>
	</g>
	<g>
		<path style="fill:#205182;" d="M148.3,150.8h-20.2c-1.1,0-2-0.9-2-2v-2.1c0-6.7,5.4-12.1,12.1-12.1s12.1,5.4,12.1,12.1v2.1
			C150.3,149.9,149.4,150.8,148.3,150.8L148.3,150.8z M130,146.8h16.2v-0.1c0-4.5-3.6-8.1-8.1-8.1s-8.1,3.6-8.1,8.1V146.8L130,146.8
			z"/>
	</g>
	<g style="opacity:0.2;">
		<g>
			<path style="fill:#205182;" d="M66,214.5h148.6c1.6,0,3-1,3.6-2.3l-10-8.4c-3.6-3-8.2-4.7-12.9-4.7h-110c-4.7,0-9.3,1.7-12.9,4.7
				l-10,8.4C63,213.5,64.4,214.5,66,214.5z"/>
		</g>
	</g>
	<g style="opacity:0.2;">
		<g>
			<path style="fill:#205182;" d="M62,107.1h156.2v8.7H62V107.1z"/>
		</g>
	</g>
	<g>
		<g>
			<path style="fill:#59AEE0;" d="M104.3,102.6h21.5v5.2h-21.5V102.6z"/>
		</g>
		<g>
			<path style="fill:#205182;" d="M125.8,109.8h-21.5c-1.1,0-2-0.9-2-2v-5.2c0-1.1,0.9-2,2-2h21.5c1.1,0,2,0.9,2,2v5.2
				C127.8,108.9,126.9,109.8,125.8,109.8z M106.3,105.8h17.5v-1.2h-17.5V105.8z"/>
		</g>
	</g>
	<g>
		<g>
			<path style="fill:#59AEE0;" d="M154.1,102.6h21.5v5.2h-21.5V102.6z"/>
		</g>
		<g>
			<path style="fill:#205182;" d="M175.6,109.8h-21.5c-1.1,0-2-0.9-2-2v-5.2c0-1.1,0.9-2,2-2h21.5c1.1,0,2,0.9,2,2v5.2
				C177.6,108.9,176.7,109.8,175.6,109.8z M156.1,105.8h17.5v-1.2h-17.5V105.8z"/>
		</g>
	</g>
	<g>
		<g>
			<path style="fill:#3773B1;" d="M120.7,102.3h-10.1V90.9c0-5.6,4.5-10.1,10.1-10.1V102.3z"/>
		</g>
		<g>
			<path style="fill:#205182;" d="M120.7,104.3h-10.1c-1.1,0-2-0.9-2-2V90.9c0-6.7,5.4-12.1,12.1-12.1c1.1,0,2,0.9,2,2v21.5
				C122.7,103.4,121.8,104.3,120.7,104.3z M112.6,100.3h6.1V83.1c-3.5,0.9-6.1,4.1-6.1,7.8C112.6,90.9,112.6,100.3,112.6,100.3z"/>
		</g>
		<g>
			<path style="fill:#3773B1;" d="M159.8,90.9h10.1v11.3h-10.1V90.9z"/>
		</g>
		<g>
			<path style="fill:#205182;" d="M169.9,104.3h-10.1c-1.1,0-2-0.9-2-2V90.9c0-1.1,0.9-2,2-2h10.1c1.1,0,2,0.9,2,2v11.4
				C171.9,103.4,171,104.3,169.9,104.3z M161.8,100.3h6.1V93h-6.1V100.3z"/>
		</g>
		<g>
			<g>
				<path style="fill:#3773B1;" d="M110.6,90.9h59.3c0-5.6-4.5-10.1-10.1-10.1h-39.1C115.2,80.9,110.6,85.4,110.6,90.9z"/>
			</g>
			<g>
				<path style="fill:#205182;" d="M169.9,92.9h-59.3c-1.1,0-2-0.9-2-2c0-6.7,5.4-12.1,12.1-12.1h39.1c6.7,0,12.1,5.4,12.1,12.1
					C171.9,92,171,92.9,169.9,92.9z M112.9,88.9h54.7c-0.9-3.5-4.1-6.1-7.8-6.1h-39.1C117,82.9,113.8,85.4,112.9,88.9z"/>
			</g>
		</g>
	</g>
</g>
<g>
	<rect x="10" y="213" style="fill:#1E5182;" width="260" height="4"/>
</g>
</svg>
