<?xml version="1.0" encoding="utf-8"?>
<!-- Generator: Adobe Illustrator 16.0.3, SVG Export Plug-In . SVG Version: 6.00 Build 0)  -->
<!DOCTYPE svg PUBLIC "-//W3C//DTD SVG 1.1//EN" "http://www.w3.org/Graphics/SVG/1.1/DTD/svg11.dtd">
<svg version="1.1" id="Layer_1" xmlns="http://www.w3.org/2000/svg" xmlns:xlink="http://www.w3.org/1999/xlink" x="0px" y="0px"
	 width="120px" height="137px" viewBox="0 0 120 137" enable-background="new 0 0 120 137" xml:space="preserve">
<circle fill="#CCCCCC" cx="18.909" cy="79.774" r="2.5"/>
<circle fill="#CCCCCC" cx="33.942" cy="87.291" r="2.499"/>
<circle fill="#CCCCCC" cx="41.459" cy="109.84" r="2.5"/>
<circle fill="#CCCCCC" cx="71.541" cy="109.84" r="2.5"/>
<circle fill="#CCCCCC" cx="64.024" cy="117.356" r="2.5"/>
<circle fill="#CCCCCC" cx="94.09" cy="102.323" r="2.501"/>
<circle fill="#CCCCCC" cx="86.574" cy="79.774" r="2.5"/>
<circle fill="#CCCCCC" cx="71.541" cy="79.774" r="2.501"/>
<circle fill="#CCCCCC" cx="41.459" cy="79.774" r="2.501"/>
<circle fill="#CCCCCC" cx="56.492" cy="94.807" r="1.879"/>
<path fill="#CCCCCC" d="M56.492,92.307c1.38,0,2.504,1.12,2.504,2.5s-1.125,2.5-2.504,2.5c-1.381,0-2.5-1.12-2.5-2.5
	S55.11,92.307,56.492,92.307z"/>
<circle fill="#CCCCCC" cx="71.541" cy="94.807" r="2.5"/>
<circle fill="#CCCCCC" cx="11.394" cy="64.741" r="2.5"/>
<circle fill="#CCCCCC" cx="3.877" cy="57.224" r="2.5"/>
<circle fill="#CCCCCC" cx="18.909" cy="49.708" r="2.5"/>
<circle fill="#CCCCCC" cx="13.272" cy="34.676" r="2.5"/>
<circle fill="#CCCCCC" cx="64.024" cy="132.39" r="2.5"/>
<circle fill="#CCCCCC" cx="33.942" cy="49.708" r="2.5"/>
<circle fill="#CCCCCC" cx="26.426" cy="19.643" r="2.5"/>
<circle fill="#CCCCCC" cx="41.459" cy="12.126" r="2.5"/>
<path fill="#CCCCCC" d="M56.492,17.144c1.378,0,2.502,1.118,2.502,2.498s-1.124,2.499-2.502,2.499c-1.38,0-2.498-1.119-2.498-2.499
	S55.112,17.144,56.492,17.144z"/>
<circle fill="#CCCCCC" cx="64.024" cy="4.609" r="2.5"/>
<circle fill="#CCCCCC" cx="86.574" cy="19.642" r="2.5"/>
<circle fill="#CCCCCC" cx="71.541" cy="34.676" r="2.5"/>
<circle fill="#CCCCCC" cx="84.694" cy="32.796" r="2.5"/>
<circle fill="#CCCCCC" cx="101.607" cy="49.708" r="2.5"/>
<circle fill="#CCCCCC" cx="71.541" cy="57.224" r="2.5"/>
<circle fill="#CCCCCC" cx="41.459" cy="64.741" r="2.5"/>
<g>
	
		<polyline fill="none" stroke="#CCCCCC" stroke-width="2" stroke-linecap="round" stroke-linejoin="round" stroke-miterlimit="10" points="
		94.09,87.291 79.058,102.324 64.024,102.324 56.492,94.807 	"/>
	
		<line fill="none" stroke="#CCCCCC" stroke-width="2" stroke-linecap="round" stroke-linejoin="round" stroke-miterlimit="10" x1="79.058" y1="72.258" x2="71.541" y2="79.773"/>
	
		<polyline fill="none" stroke="#CCCCCC" stroke-width="2" stroke-linecap="round" stroke-linejoin="round" stroke-miterlimit="10" points="
		318.788,42.191 109.123,42.191 94.09,27.159 79.058,27.159 64.024,12.125 48.976,12.125 41.459,12.125 	"/>
	
		<polyline fill="none" stroke="#CCCCCC" stroke-width="2" stroke-linecap="round" stroke-linejoin="round" stroke-miterlimit="10" points="
		318.788,57.225 94.09,57.225 79.058,42.191 64.024,42.191 48.976,27.159 33.942,27.159 26.426,19.642 	"/>
	
		<polyline fill="none" stroke="#CCCCCC" stroke-width="2" stroke-linecap="round" stroke-linejoin="round" stroke-miterlimit="10" points="
		101.607,49.708 109.123,42.191 94.09,42.191 84.694,32.796 	"/>
	
		<line fill="none" stroke="#CCCCCC" stroke-width="2" stroke-linecap="round" stroke-linejoin="round" stroke-miterlimit="10" x1="79.058" y1="27.159" x2="71.541" y2="34.675"/>
	
		<polyline fill="none" stroke="#CCCCCC" stroke-width="2" stroke-linecap="round" stroke-linejoin="round" stroke-miterlimit="10" points="
		71.541,42.191 56.492,57.225 48.976,57.225 33.942,57.225 3.877,57.225 	"/>
	
		<polyline fill="none" stroke="#CCCCCC" stroke-width="2" stroke-linecap="round" stroke-linejoin="round" stroke-miterlimit="10" points="
		94.09,57.225 79.058,72.258 64.024,72.258 56.492,64.741 41.459,64.741 	"/>
	
		<polyline fill="none" stroke="#CCCCCC" stroke-width="2" stroke-linecap="round" stroke-linejoin="round" stroke-miterlimit="10" points="
		86.574,64.741 79.058,57.225 73.42,57.225 	"/>
	
		<polyline fill="none" stroke="#CCCCCC" stroke-width="2" stroke-linecap="round" stroke-linejoin="round" stroke-miterlimit="10" points="
		318.788,72.258 109.123,72.258 94.09,87.291 79.058,87.291 64.024,87.291 48.976,72.258 33.942,72.258 26.426,79.773 
		18.909,79.773 	"/>
	
		<polyline fill="none" stroke="#CCCCCC" stroke-width="2" stroke-linecap="round" stroke-linejoin="round" stroke-miterlimit="10" points="
		64.024,42.191 26.426,42.191 18.909,49.708 	"/>
	
		<line fill="none" stroke="#CCCCCC" stroke-width="2" stroke-linecap="round" stroke-linejoin="round" stroke-miterlimit="10" x1="64.024" y1="12.125" x2="56.492" y2="19.642"/>
	
		<polyline fill="none" stroke="#CCCCCC" stroke-width="2" stroke-linecap="round" stroke-linejoin="round" stroke-miterlimit="10" points="
		56.492,42.191 48.976,49.708 33.942,49.708 	"/>
	
		<polyline fill="none" stroke="#CCCCCC" stroke-width="2" stroke-linecap="round" stroke-linejoin="round" stroke-miterlimit="10" points="
		33.942,72.258 26.426,64.741 11.394,64.741 	"/>
	
		<polyline fill="none" stroke="#CCCCCC" stroke-width="2" stroke-linecap="round" stroke-linejoin="round" stroke-miterlimit="10" points="
		64.024,87.291 48.976,87.291 41.459,79.773 	"/>
	
		<polyline fill="none" stroke="#CCCCCC" stroke-width="2" stroke-linecap="round" stroke-linejoin="round" stroke-miterlimit="10" points="
		109.123,72.258 94.09,72.258 86.574,79.773 	"/>
	
		<polyline fill="none" stroke="#CCCCCC" stroke-width="2" stroke-linecap="round" stroke-linejoin="round" stroke-miterlimit="10" points="
		64.024,102.324 48.976,102.324 33.942,87.291 	"/>
	
		<line fill="none" stroke="#CCCCCC" stroke-width="2" stroke-linecap="round" stroke-linejoin="round" stroke-miterlimit="10" x1="48.976" y1="102.324" x2="41.459" y2="109.84"/>
	
		<polyline fill="none" stroke="#CCCCCC" stroke-width="2" stroke-linecap="round" stroke-linejoin="round" stroke-miterlimit="10" points="
		318.788,87.291 109.123,87.291 94.09,102.324 	"/>
	
		<polyline fill="none" stroke="#CCCCCC" stroke-width="2" stroke-linecap="round" stroke-linejoin="round" stroke-miterlimit="10" points="
		71.541,109.84 86.574,109.84 94.09,117.357 109.123,102.324 318.788,102.324 	"/>
	
		<line fill="none" stroke="#CCCCCC" stroke-width="2" stroke-linecap="round" stroke-linejoin="round" stroke-miterlimit="10" x1="64.024" y1="102.324" x2="56.492" y2="94.807"/>
	
		<line fill="none" stroke="#CCCCCC" stroke-width="2" stroke-linecap="round" stroke-linejoin="round" stroke-miterlimit="10" x1="79.058" y1="102.324" x2="71.541" y2="94.807"/>
	
		<line fill="none" stroke="#CCCCCC" stroke-width="2" stroke-linecap="round" stroke-linejoin="round" stroke-miterlimit="10" x1="79.058" y1="117.357" x2="64.024" y2="132.391"/>
	
		<polyline fill="none" stroke="#CCCCCC" stroke-width="2" stroke-linecap="round" stroke-linejoin="round" stroke-miterlimit="10" points="
		94.09,117.357 79.058,117.357 64.024,117.357 	"/>
	
		<polyline fill="none" stroke="#CCCCCC" stroke-width="2" stroke-linecap="round" stroke-linejoin="round" stroke-miterlimit="10" points="
		318.788,27.159 109.123,27.159 94.09,12.125 86.574,19.642 	"/>
	
		<polyline fill="none" stroke="#CCCCCC" stroke-width="2" stroke-linecap="round" stroke-linejoin="round" stroke-miterlimit="10" points="
		94.09,12.125 86.574,4.609 64.024,4.609 	"/>
	
		<polyline fill="none" stroke="#CCCCCC" stroke-width="2" stroke-linecap="round" stroke-linejoin="round" stroke-miterlimit="10" points="
		33.942,42.191 26.426,34.675 13.272,34.675 	"/>
</g>
</svg>
