<?xml version="1.0" encoding="utf-8"?>
<!-- Generator: Adobe Illustrator 17.1.0, SVG Export Plug-In . SVG Version: 6.00 Build 0)  -->
<!DOCTYPE svg PUBLIC "-//W3C//DTD SVG 1.1//EN" "http://www.w3.org/Graphics/SVG/1.1/DTD/svg11.dtd">
<svg version="1.1" id="Layer_1" xmlns="http://www.w3.org/2000/svg" xmlns:xlink="http://www.w3.org/1999/xlink" x="0px" y="0px"
	 width="283.6px" height="255.1px" viewBox="0 0 283.6 255.1" style="enable-background:new 0 0 283.6 255.1;" xml:space="preserve"
	>
<path style="opacity:0.2;fill:#5AACDE;" d="M232.8,217c11.5-17.5,18.3-38.5,18.3-61C251,94.6,201.3,44.9,140,44.9
	S28.9,94.6,28.9,156c0,22.5,6.7,43.5,18.3,61H232.8z"/>
<g>
	<g>
		<rect x="10" y="214" style="fill:#1F5182;" width="260" height="3"/>
	</g>
	<g>
		<g>
			<g id="XMLID_2_">
				<g>
					<defs>
						<rect id="SVGID_1_" x="170.6" y="176.4" width="54.3" height="40.2"/>
					</defs>
					<clipPath id="SVGID_2_">
						<use xlink:href="#SVGID_1_"  style="overflow:visible;"/>
					</clipPath>
					<g style="clip-path:url(#SVGID_2_);">
						<defs>
							<rect id="SVGID_3_" x="122.1" y="120.9" width="151.2" height="151.2"/>
						</defs>
						<clipPath id="SVGID_4_">
							<use xlink:href="#SVGID_3_"  style="overflow:visible;"/>
						</clipPath>
						<g style="clip-path:url(#SVGID_4_);">
							<defs>
								<rect id="SVGID_5_" x="122.1" y="120.9" width="151.2" height="151.2"/>
							</defs>
							<clipPath id="SVGID_6_">
								<use xlink:href="#SVGID_5_"  style="overflow:visible;"/>
							</clipPath>
							<g style="clip-path:url(#SVGID_6_);">
								<path style="fill:#4AC6C6;" d="M223.8,215.4h-52v-8.9c0-9.8,7.9-17.7,17.7-17.7H206c9.8,0,17.7,7.9,17.7,17.7V215.4z"/>
							</g>
							<g style="clip-path:url(#SVGID_6_);">
								<path style="fill:#205081;" d="M223.8,216.6h-52c-0.7,0-1.2-0.5-1.2-1.2v-8.9c0-10.4,8.5-18.9,18.9-18.9H206
									c10.4,0,18.9,8.5,18.9,18.9v8.9C224.9,216,224.4,216.6,223.8,216.6z M172.9,214.2h49.6v-7.7c0-9.1-7.4-16.5-16.5-16.5h-16.5
									c-9.1,0-16.5,7.4-16.5,16.5V214.2z"/>
							</g>
							<g style="opacity:0.2;clip-path:url(#SVGID_6_);">
								<g>
									<defs>
										<rect id="SVGID_7_" x="175.5" y="189" width="44.6" height="24"/>
									</defs>
									<clipPath id="SVGID_8_">
										<use xlink:href="#SVGID_7_"  style="overflow:visible;"/>
									</clipPath>
									<g style="clip-path:url(#SVGID_8_);">
										<path style="fill:#205081;" d="M216.3,194.3c-1-2.6-3.4-4.4-6.2-4.6l-12.4-0.7l-12.4,0.7c-2.8,0.2-5.2,2-6.2,4.6l-3.7,10
											h5.7c1,0,16.6,8.8,16.6,8.8s15-8.8,16-8.8h6.3L216.3,194.3z"/>
									</g>
								</g>
							</g>
							<g style="clip-path:url(#SVGID_6_);">
								<path style="fill:#4AC6C6;" d="M213.9,190.7c-1-2.6-3.4-4.4-6.2-4.6l-10-0.7l-10,0.7c-2.8,0.2-5.2,2-6.2,4.6l-3.7,10h7.4
									c1,0,1.6,2.5,2.9,3.4c1.3,0.9,9.6,5.4,9.6,5.4s8.4-4.3,9.6-5.4c1.2-1,1.9-3.4,2.9-3.4h7.4L213.9,190.7z"/>
							</g>
							<g style="clip-path:url(#SVGID_6_);">
								<path style="fill:#205081;" d="M197.8,210.7c-0.2,0-0.4,0-0.6-0.1c-0.9-0.5-8.4-4.6-9.7-5.5c-0.8-0.6-1.3-1.4-1.8-2.2
									c-0.2-0.3-0.4-0.7-0.6-0.9h-7.2c-0.4,0-0.7-0.2-1-0.5c-0.2-0.3-0.3-0.7-0.1-1.1l3.7-10c1.1-3.1,4-5.2,7.2-5.4l10-0.7
									c0.1,0,0.1,0,0.2,0l10,0.7c3.2,0.2,6.1,2.3,7.2,5.4l3.7,10c0.1,0.4,0.1,0.8-0.1,1.1c-0.2,0.3-0.6,0.5-1,0.5h-7.2
									c-0.2,0.2-0.5,0.7-0.7,1.1c-0.4,0.7-0.9,1.5-1.5,2c-1.2,1.1-8.4,4.8-9.8,5.5C198.1,210.6,197.9,210.7,197.8,210.7z
									 M179.6,199.5h5.7c1.2,0,1.8,1.1,2.4,2.1c0.3,0.6,0.7,1.2,1.1,1.5c0.9,0.6,6.3,3.6,8.9,5c3.2-1.7,8.1-4.3,8.8-4.9
									c0.4-0.3,0.7-0.9,1.1-1.5c0.7-1.1,1.4-2.2,2.6-2.2h5.7l-3.1-8.4c-0.8-2.2-2.8-3.7-5.2-3.8l-9.9-0.6l-9.9,0.6
									c-2.3,0.2-4.3,1.7-5.2,3.8L179.6,199.5z"/>
							</g>
							<g style="clip-path:url(#SVGID_6_);">
								<path style="fill:#CC8352;" d="M188.3,177.6v14.2c0,5.2,9.5,17.7,9.5,17.7s9.5-12.5,9.5-17.7v-14.2H188.3z"/>
							</g>
							<g style="clip-path:url(#SVGID_6_);">
								<path style="fill:#205081;" d="M197.8,210.7c-0.4,0-0.7-0.2-0.9-0.5c-1-1.3-9.7-13-9.7-18.4v-14.2c0-0.7,0.5-1.2,1.2-1.2
									h18.9c0.7,0,1.2,0.5,1.2,1.2v14.2c0,5.5-8.7,17.1-9.7,18.4C198.5,210.5,198.1,210.7,197.8,210.7z M189.5,178.8v13
									c0,3.5,5.3,11.6,8.3,15.7c3-4.1,8.3-12.2,8.3-15.7v-13H189.5z"/>
							</g>
							<g style="opacity:0.2;clip-path:url(#SVGID_6_);">
								<g>
									<defs>
										<rect id="SVGID_9_" x="188.3" y="177.6" width="18.9" height="12.3"/>
									</defs>
									<clipPath id="SVGID_10_">
										<use xlink:href="#SVGID_9_"  style="overflow:visible;"/>
									</clipPath>
									<g style="clip-path:url(#SVGID_10_);">
										<path style="fill:#205081;" d="M188.3,188.3c2.8,1,5.8,1.5,8.9,1.6c3.5,0.1,6.8-0.5,10-1.5v-10.7h-18.9V188.3z"/>
									</g>
								</g>
							</g>
						</g>
					</g>
				</g>
			</g>
			<g id="XMLID_1_">
				<g>
					<defs>
						<rect id="SVGID_11_" x="153.2" y="81.3" width="89.1" height="108.1"/>
					</defs>
					<clipPath id="SVGID_12_">
						<use xlink:href="#SVGID_11_"  style="overflow:visible;"/>
					</clipPath>
					<g style="clip-path:url(#SVGID_12_);">
						<defs>
							<rect id="SVGID_13_" x="122.1" y="59.7" width="151.2" height="151.2"/>
						</defs>
						<clipPath id="SVGID_14_">
							<use xlink:href="#SVGID_13_"  style="overflow:visible;"/>
						</clipPath>
						<g style="clip-path:url(#SVGID_14_);">
							<defs>
								<rect id="SVGID_15_" x="122.1" y="59.7" width="151.2" height="151.2"/>
							</defs>
							<clipPath id="SVGID_16_">
								<use xlink:href="#SVGID_15_"  style="overflow:visible;"/>
							</clipPath>
							<g style="clip-path:url(#SVGID_16_);">
								<path style="fill:#3572B0;" d="M241.1,112.1c0-9-7.3-16.3-16.3-16.3c-0.3,0-0.5,0-0.8,0c-1.4-7.6-8.1-13.3-16-13.3
									c-4.1,0-7.8,1.5-10.7,4c-2.9-2.5-6.6-4-10.7-4c-8,0-14.6,5.7-16,13.3c-8.9,0.1-16.1,7.4-16.1,16.3c0,3.7,1.3,7.2,3.4,9.9
									c-2.1,2.8-3.4,6.2-3.4,9.9c0,9,7.3,16.3,16.3,16.3c8.1,0,14.9-6,16.1-13.8h21.8c1.2,7.8,8,13.8,16.1,13.8
									c9,0,16.3-7.3,16.3-16.3c0-3.7-1.3-7.2-3.4-9.9C239.9,119.3,241.1,115.8,241.1,112.1"/>
							</g>
							<g style="clip-path:url(#SVGID_16_);">
								<path style="fill:#205081;" d="M224.8,149.5c-8.3,0-15.4-5.7-17.1-13.8h-19.9c-1.7,8-8.8,13.8-17.1,13.8
									c-9.7,0-17.5-7.9-17.5-17.5c0-3.6,1.1-7,3.1-9.9c-2-2.9-3.1-6.4-3.1-9.9c0-9.2,7.2-16.9,16.3-17.5c1.9-7.8,8.9-13.3,17-13.3
									c3.9,0,7.7,1.3,10.7,3.7c3.1-2.4,6.8-3.7,10.7-3.7c8.1,0,15.1,5.5,17,13.3c9.6,0.1,17.4,7.9,17.4,17.5c0,3.6-1.1,7-3.1,9.9
									c2,2.9,3.1,6.4,3.1,9.9C242.3,141.6,234.5,149.5,224.8,149.5z M186.8,133.3h21.8c0.6,0,1.1,0.4,1.2,1
									c1.2,7.4,7.5,12.8,15,12.8c8.4,0,15.1-6.8,15.1-15.1c0-3.4-1.1-6.6-3.1-9.2c-0.3-0.4-0.3-1,0-1.4c2.1-2.7,3.1-5.9,3.1-9.2
									c0-8.4-6.8-15.1-15.1-15.1c-0.2,0-0.5,0-0.7,0c-0.6,0-1.1-0.4-1.2-1c-1.3-7.1-7.6-12.3-14.9-12.3c-3.7,0-7.2,1.3-9.9,3.7
									c-0.4,0.4-1.1,0.4-1.6,0c-2.8-2.4-6.3-3.7-9.9-3.7c-7.3,0-13.5,5.2-14.9,12.3c-0.1,0.6-0.6,1-1.1,1
									c-8.2,0.1-14.9,6.9-14.9,15.1c0,3.4,1.1,6.6,3.1,9.2c0.3,0.4,0.3,1,0,1.4c-2.1,2.7-3.1,5.9-3.1,9.2
									c0,8.4,6.8,15.1,15.1,15.1c7.5,0,13.8-5.4,15-12.8C185.8,133.8,186.3,133.3,186.8,133.3z"/>
							</g>
							<g style="opacity:0.6;clip-path:url(#SVGID_16_);">
								<g>
									<defs>
										<rect id="SVGID_17_" x="170.5" y="82.5" width="54.3" height="13.4"/>
									</defs>
									<clipPath id="SVGID_18_">
										<use xlink:href="#SVGID_17_"  style="overflow:visible;"/>
									</clipPath>
									<g style="clip-path:url(#SVGID_18_);">
										<path style="fill:#59AFE1;" d="M186.5,86c4.1,0,7.8,1.5,10.7,4c2.9-2.5,6.6-4,10.7-4c8,0,10.7,2.6,16.8,9.7
											c0.2,0.2-0.5,0-0.8,0c-1.4-7.6-8.1-13.3-16-13.3c-4.1,0-7.8,1.5-10.7,4c-2.9-2.5-6.6-4-10.7-4c-8,0-14.6,5.7-16,13.3
											C175.1,88.8,178.6,86,186.5,86"/>
									</g>
								</g>
							</g>
							<g style="clip-path:url(#SVGID_16_);">
								<path style="fill:#205081;" d="M224.8,149.5c-8.3,0-15.4-5.7-17.1-13.8h-19.9c-1.7,8-8.8,13.8-17.1,13.8
									c-9.7,0-17.5-7.9-17.5-17.5c0-3.6,1.1-7,3.1-9.9c-2-2.9-3.1-6.4-3.1-9.9c0-9.2,7.2-16.9,16.3-17.5c1.9-7.8,8.9-13.3,17-13.3
									c3.9,0,7.7,1.3,10.7,3.7c3.1-2.4,6.8-3.7,10.7-3.7c8.1,0,15.1,5.5,17,13.3c9.6,0.1,17.4,7.9,17.4,17.5c0,3.6-1.1,7-3.1,9.9
									c2,2.9,3.1,6.4,3.1,9.9C242.3,141.6,234.5,149.5,224.8,149.5z M186.8,133.3h21.8c0.6,0,1.1,0.4,1.2,1
									c1.2,7.4,7.5,12.8,15,12.8c8.4,0,15.1-6.8,15.1-15.1c0-3.4-1.1-6.6-3.1-9.2c-0.3-0.4-0.3-1,0-1.4c2.1-2.7,3.1-5.9,3.1-9.2
									c0-8.4-6.8-15.1-15.1-15.1c-0.2,0-0.5,0-0.7,0c-0.6,0-1.1-0.4-1.2-1c-1.3-7.1-7.6-12.3-14.9-12.3c-3.7,0-7.2,1.3-9.9,3.7
									c-0.4,0.4-1.1,0.4-1.6,0c-2.8-2.4-6.3-3.7-9.9-3.7c-7.3,0-13.5,5.2-14.9,12.3c-0.1,0.6-0.6,1-1.1,1
									c-8.2,0.1-14.9,6.9-14.9,15.1c0,3.4,1.1,6.6,3.1,9.2c0.3,0.4,0.3,1,0,1.4c-2.1,2.7-3.1,5.9-3.1,9.2
									c0,8.4,6.8,15.1,15.1,15.1c7.5,0,13.8-5.4,15-12.8C185.8,133.8,186.3,133.3,186.8,133.3z"/>
							</g>
							<g style="opacity:0.25;clip-path:url(#SVGID_16_);">
								<g>
									<defs>
										<rect id="SVGID_19_" x="154.4" y="108.8" width="86.7" height="39.5"/>
									</defs>
									<clipPath id="SVGID_20_">
										<use xlink:href="#SVGID_19_"  style="overflow:visible;"/>
									</clipPath>
									<g style="clip-path:url(#SVGID_20_);">
										<path style="fill:#205081;" d="M239,124c-0.2-0.2-0.3-0.3-0.5-0.4c-5.6-4.9-13.5-6.1-20.5-3.6c-1.2,0.4-2.4,0.6-3.7,0.6
											c-1.9,0-3.8-1.1-5.3-2.7c-8.5-8.3-20.9-11.4-32.1-7.3c-7.6,2.8-14,7.2-19.1,11.4c0,0,0,0.1,0.1,0.1
											c-2.3,3-3.6,6.8-3.4,10.9c0.5,8.2,7.1,14.8,15.3,15.3c8.6,0.5,15.8-5.6,17.1-13.7h21.8c1.3,8.3,8.9,14.6,17.8,13.7
											c7.5-0.8,13.5-6.7,14.5-14.1C241.5,130.4,240.7,126.9,239,124"/>
									</g>
								</g>
							</g>
							<g style="clip-path:url(#SVGID_16_);">
								<path style="fill:#CC8352;" d="M169.4,139.1c-3.9,0-7.1,3.2-7.1,7.1c0,3.9,3.2,7.1,7.1,7.1V139.1z"/>
							</g>
							<g style="clip-path:url(#SVGID_16_);">
								<path style="fill:#205081;" d="M169.4,154.5c-4.6,0-8.3-3.7-8.3-8.3s3.7-8.3,8.3-8.3c0.7,0,1.2,0.5,1.2,1.2v14.2
									C170.6,154,170.1,154.5,169.4,154.5z M168.2,140.4c-2.7,0.5-4.7,2.9-4.7,5.8s2,5.2,4.7,5.8V140.4z"/>
							</g>
							<g style="clip-path:url(#SVGID_16_);">
								<path style="fill:#CC8352;" d="M227.3,139.1c3.9,0,7.1,3.2,7.1,7.1c0,3.9-3.2,7.1-7.1,7.1V139.1z"/>
							</g>
							<g style="clip-path:url(#SVGID_16_);">
								<path style="fill:#205081;" d="M227.3,154.5c-0.7,0-1.2-0.5-1.2-1.2v-14.2c0-0.7,0.5-1.2,1.2-1.2c4.6,0,8.3,3.7,8.3,8.3
									S231.9,154.5,227.3,154.5z M228.5,140.4V152c2.7-0.5,4.7-2.9,4.7-5.8S231.2,141,228.5,140.4z"/>
							</g>
							<g style="clip-path:url(#SVGID_16_);">
								<path style="fill:#CC8352;" d="M212.5,128.1c-9,0-13-7.1-13-7.1s-4.9,5.9-31.3,5.9v31.2c0,16.2,12.8,29.7,29,30
									c16.5,0.3,30-13.1,30-29.5v-30.4c0-2.2-2.3-3.6-4.3-2.6C220.5,126.8,216.9,128.1,212.5,128.1"/>
							</g>
							<g style="clip-path:url(#SVGID_16_);">
								<path style="fill:#205081;" d="M197.8,189.3c-0.2,0-0.3,0-0.5,0c-16.6-0.3-30.2-14.3-30.2-31.2v-31.2c0-0.7,0.5-1.2,1.2-1.2
									c25.2,0,30.4-5.4,30.4-5.5c0.3-0.3,0.6-0.4,1-0.4c0.4,0,0.7,0.3,0.9,0.6c0.1,0.3,3.8,6.5,11.9,6.5c3.4,0,6.8-0.8,10-2.4
									c0.6-0.3,1.2-0.4,1.9-0.4c2.3,0,4.1,1.9,4.1,4.1v30.4C228.5,175.6,214.7,189.3,197.8,189.3z M169.4,128.1v30.1
									c0,15.6,12.5,28.6,27.9,28.8c0.2,0,0.3,0,0.5,0c15.6,0,28.4-12.7,28.4-28.4v-30.4c0-1.1-0.9-1.8-1.8-1.8
									c-0.3,0-0.5,0.1-0.8,0.2c-3.5,1.8-7.2,2.6-11,2.6c-7.4,0-11.6-4.4-13.2-6.5c-0.9,0.6-2.5,1.5-5.1,2.3
									C188.3,127,179.9,128,169.4,128.1z"/>
							</g>
							<g style="clip-path:url(#SVGID_16_);">
								<path style="fill:#205081;" d="M197.3,163.6c-3,0-5.4-2.4-5.4-5.4c0-2.6,1.8-4.7,4.2-5.3v-7.6c0-0.7,0.5-1.2,1.2-1.2
									s1.2,0.5,1.2,1.2v8.7c0,0.7-0.5,1.2-1.2,1.2c-1.7,0-3,1.4-3,3c0,1.7,1.4,3,3,3c0.7,0,1.2,0.5,1.2,1.2
									S197.9,163.6,197.3,163.6z"/>
							</g>
							<g style="clip-path:url(#SVGID_16_);">
								<path style="fill:#205081;" d="M197.8,174.9c3.4,0,6.3-2.5,7-5.7c0.1-0.7-0.4-1.4-1.2-1.4H192c-0.7,0-1.3,0.7-1.2,1.4
									C191.4,172.4,194.3,174.9,197.8,174.9"/>
							</g>
							<g style="clip-path:url(#SVGID_16_);">
								<path style="fill:#205081;" d="M188.9,144.7c0,1.6-1.3,3-3,3c-1.6,0-3-1.3-3-3s1.3-3,3-3
									C187.6,141.8,188.9,143.1,188.9,144.7"/>
							</g>
							<g style="clip-path:url(#SVGID_16_);">
								<path style="fill:#205081;" d="M212.5,144.7c0,1.6-1.3,3-3,3s-3-1.3-3-3s1.3-3,3-3S212.5,143.1,212.5,144.7"/>
							</g>
							<g style="clip-path:url(#SVGID_16_);">
								<path style="fill:#205081;" d="M189.4,140c-0.6,0-1.1-0.4-1.2-1c-0.2-1.4-1.8-2.6-3.5-2.6c-1.7,0-3.3,1.1-3.6,2.6
									c-0.1,0.6-0.7,1.1-1.4,1c-0.6-0.1-1.1-0.7-1-1.4c0.4-2.5,3-4.5,5.9-4.5c2.8,0,5.4,2,5.8,4.5c0.1,0.6-0.3,1.3-1,1.4
									C189.6,140,189.5,140,189.4,140z"/>
							</g>
							<g style="clip-path:url(#SVGID_16_);">
								<path style="fill:#205081;" d="M215.4,140c-0.6,0-1.1-0.4-1.2-1c-0.2-1.4-1.8-2.6-3.5-2.6c-1.7,0-3.3,1.1-3.6,2.6
									c-0.1,0.6-0.7,1.1-1.4,1c-0.6-0.1-1.1-0.7-1-1.4c0.4-2.5,3-4.5,5.9-4.5c2.8,0,5.4,2,5.8,4.5c0.1,0.6-0.3,1.3-1,1.4
									C215.6,140,215.5,140,215.4,140z"/>
							</g>
							<g style="opacity:0.1;clip-path:url(#SVGID_16_);">
								<g>
									<defs>
										<rect id="SVGID_21_" x="211.9" y="161.9" width="15.2" height="22.6"/>
									</defs>
									<clipPath id="SVGID_22_">
										<use xlink:href="#SVGID_21_"  style="overflow:visible;"/>
									</clipPath>
									<g style="clip-path:url(#SVGID_22_);">
										<path style="fill:#205081;" d="M211.9,173.7v10.8c8.2-4.5,14.1-12.9,15.2-22.6h-3.4C217.2,161.9,211.9,167.2,211.9,173.7"
											/>
									</g>
								</g>
							</g>
							<g style="opacity:0.1;clip-path:url(#SVGID_16_);">
								<g>
									<defs>
										<rect id="SVGID_23_" x="168.5" y="161.9" width="15.1" height="22.6"/>
									</defs>
									<clipPath id="SVGID_24_">
										<use xlink:href="#SVGID_23_"  style="overflow:visible;"/>
									</clipPath>
									<g style="clip-path:url(#SVGID_24_);">
										<path style="fill:#205081;" d="M171.8,161.9h-3.3c1.2,9.7,7,18,15.1,22.6v-10.8C183.6,167.2,178.3,161.9,171.8,161.9"/>
									</g>
								</g>
							</g>
							<g style="opacity:0.1;clip-path:url(#SVGID_16_);">
								<g>
									<defs>
										<rect id="SVGID_25_" x="193" y="177.7" width="9.5" height="6.1"/>
									</defs>
									<clipPath id="SVGID_26_">
										<use xlink:href="#SVGID_25_"  style="overflow:visible;"/>
									</clipPath>
									<g style="clip-path:url(#SVGID_26_);">
										<path style="fill:#205081;" d="M202.5,179c0,2.6-2.1,4.7-4.7,4.7s-4.7-2.1-4.7-4.7s2.1-0.6,4.7-0.6S202.5,176.4,202.5,179
											"/>
									</g>
								</g>
							</g>
						</g>
					</g>
				</g>
			</g>
		</g>
		<g>
			<g id="XMLID_2731_">
				<g>
					<defs>
						<rect id="SVGID_27_" x="48.4" y="175.9" width="55.2" height="40.8"/>
					</defs>
					<clipPath id="SVGID_28_">
						<use xlink:href="#SVGID_27_"  style="overflow:visible;"/>
					</clipPath>
					<g style="clip-path:url(#SVGID_28_);">
						<defs>
							<rect id="SVGID_29_" x="-0.8" y="119.5" width="153.6" height="153.6"/>
						</defs>
						<clipPath id="SVGID_30_">
							<use xlink:href="#SVGID_29_"  style="overflow:visible;"/>
						</clipPath>
						<g style="clip-path:url(#SVGID_30_);">
							<defs>
								<rect id="SVGID_31_" x="-0.8" y="119.5" width="153.6" height="153.6"/>
							</defs>
							<clipPath id="SVGID_32_">
								<use xlink:href="#SVGID_31_"  style="overflow:visible;"/>
							</clipPath>
							<g style="clip-path:url(#SVGID_32_);">
								<path style="fill:#59AFE1;" d="M102.4,215.5H49.6v-9c0-9.9,8.1-18,18-18h16.8c9.9,0,18,8.1,18,18V215.5z"/>
							</g>
							<g style="clip-path:url(#SVGID_32_);">
								<path style="fill:#205081;" d="M102.4,216.7H49.6c-0.7,0-1.2-0.5-1.2-1.2v-9c0-10.6,8.6-19.2,19.2-19.2h16.8
									c10.6,0,19.2,8.6,19.2,19.2v9C103.6,216.1,103.1,216.7,102.4,216.7z M50.8,214.3h50.4v-7.8c0-9.3-7.5-16.8-16.8-16.8H67.6
									c-9.3,0-16.8,7.5-16.8,16.8V214.3z"/>
							</g>
							<g style="opacity:0.2;clip-path:url(#SVGID_32_);">
								<g>
									<defs>
										<rect id="SVGID_33_" x="63" y="188.5" width="26.1" height="14.9"/>
									</defs>
									<clipPath id="SVGID_34_">
										<use xlink:href="#SVGID_33_"  style="overflow:visible;"/>
									</clipPath>
									<g style="clip-path:url(#SVGID_34_);">
										<path style="fill:#205081;" d="M76,203.4c7.2,0,13.1-5.8,13.1-13.1v-1.2c-1.5-0.4-3-0.6-4.7-0.6H67.6
											c-1.6,0-3.2,0.2-4.7,0.6v1.2C63,197.5,68.8,203.4,76,203.4"/>
									</g>
								</g>
							</g>
							<g style="clip-path:url(#SVGID_32_);">
								<path style="fill:#FFE1A4;" d="M66.4,177.1v13.2c0,5.3,4.3,9.6,9.6,9.6c5.3,0,9.6-4.3,9.6-9.6v-13.2H66.4z"/>
							</g>
							<g style="clip-path:url(#SVGID_32_);">
								<path style="fill:#205081;" d="M76,201.1c-6,0-10.8-4.8-10.8-10.8v-13.2c0-0.7,0.5-1.2,1.2-1.2h19.2c0.7,0,1.2,0.5,1.2,1.2
									v13.2C86.8,196.2,82,201.1,76,201.1z M67.6,178.3v12c0,4.6,3.8,8.4,8.4,8.4c4.6,0,8.4-3.8,8.4-8.4v-12H67.6z"/>
							</g>
							<g style="opacity:0.1;clip-path:url(#SVGID_32_);">
								<g>
									<defs>
										<rect id="SVGID_35_" x="66.4" y="177.1" width="19.2" height="12.5"/>
									</defs>
									<clipPath id="SVGID_36_">
										<use xlink:href="#SVGID_35_"  style="overflow:visible;"/>
									</clipPath>
									<g style="clip-path:url(#SVGID_36_);">
										<path style="fill:#205081;" d="M66.4,187.9c2.9,1,5.9,1.5,9.1,1.6c3.5,0.1,6.9-0.5,10.1-1.6v-10.9H66.4V187.9z"/>
									</g>
								</g>
							</g>
							<g style="opacity:0.2;clip-path:url(#SVGID_32_);">
								<g>
									<defs>
										<rect id="SVGID_37_" x="84.4" y="207.7" width="10.2" height="2.4"/>
									</defs>
									<clipPath id="SVGID_38_">
										<use xlink:href="#SVGID_37_"  style="overflow:visible;"/>
									</clipPath>
									<g style="clip-path:url(#SVGID_38_);">
										<line style="fill:#FFBD17;" x1="84.4" y1="208.9" x2="94.6" y2="208.9"/>
									</g>
									<g style="clip-path:url(#SVGID_38_);">
										<rect x="84.4" y="207.7" style="fill:#205081;" width="10.2" height="2.4"/>
									</g>
								</g>
							</g>
						</g>
					</g>
				</g>
			</g>
			<g id="XMLID_10_">
				<g>
					<defs>
						<rect id="SVGID_39_" x="37.6" y="88.3" width="76.8" height="100.7"/>
					</defs>
					<clipPath id="SVGID_40_">
						<use xlink:href="#SVGID_39_"  style="overflow:visible;"/>
					</clipPath>
					<g style="clip-path:url(#SVGID_40_);">
						<defs>
							<rect id="SVGID_41_" x="-0.8" y="61.8" width="153.6" height="153.6"/>
						</defs>
						<clipPath id="SVGID_42_">
							<use xlink:href="#SVGID_41_"  style="overflow:visible;"/>
						</clipPath>
						<g style="clip-path:url(#SVGID_42_);">
							<defs>
								<rect id="SVGID_43_" x="-0.8" y="61.8" width="153.6" height="153.6"/>
							</defs>
							<clipPath id="SVGID_44_">
								<use xlink:href="#SVGID_43_"  style="overflow:visible;"/>
							</clipPath>
							<g style="clip-path:url(#SVGID_44_);">
								<path style="fill:#E89920;" d="M110.2,123.1c-0.3-18.6-15.5-33.6-34.2-33.6s-33.9,15-34.2,33.6h0v29.5h68.4L110.2,123.1
									L110.2,123.1z"/>
							</g>
							<g style="clip-path:url(#SVGID_44_);">
								<path style="fill:#205081;" d="M110.2,153.7H41.8c-0.7,0-1.2-0.5-1.2-1.2v-29.5c0-0.1,0-0.1,0-0.2c0.2-9.3,4-17.9,10.6-24.4
									c6.7-6.6,15.5-10.2,24.8-10.2c9.3,0,18.2,3.6,24.8,10.2c6.6,6.5,10.4,15.2,10.6,24.4c0,0.1,0,0.1,0,0.2v29.5
									C111.4,153.2,110.9,153.7,110.2,153.7z M43,151.3h66v-28.1c0-0.1,0-0.1,0-0.2c-0.2-8.7-3.6-16.8-9.8-22.9
									C93,94,84.8,90.7,76,90.7c-8.7,0-16.9,3.4-23.1,9.5c-6.2,6.1-9.7,14.3-9.8,22.9c0,0.1,0,0.1,0,0.2V151.3z"/>
							</g>
							<g style="clip-path:url(#SVGID_44_);">
								<path style="fill:#FFBD17;" d="M110.2,123.1c-0.3-18.6-15.5-33.6-34.2-33.6s-33.9,15-34.2,33.6h0v4.8h0
									c0.3-18.6,15.5-33.6,34.2-33.6s33.9,15,34.2,33.6h0L110.2,123.1L110.2,123.1z"/>
							</g>
							<g style="clip-path:url(#SVGID_44_);">
								<path style="fill:#205081;" d="M110.2,153.7H41.8c-0.7,0-1.2-0.5-1.2-1.2v-29.5c0-0.1,0-0.1,0-0.2c0.2-9.3,4-17.9,10.6-24.4
									c6.7-6.6,15.5-10.2,24.8-10.2c9.3,0,18.2,3.6,24.8,10.2c6.6,6.5,10.4,15.2,10.6,24.4c0,0.1,0,0.1,0,0.2v29.5
									C111.4,153.2,110.9,153.7,110.2,153.7z M43,151.3h66v-28.1c0-0.1,0-0.1,0-0.2c-0.2-8.7-3.6-16.8-9.8-22.9
									C93,94,84.8,90.7,76,90.7c-8.7,0-16.9,3.4-23.1,9.5c-6.2,6.1-9.7,14.3-9.8,22.9c0,0.1,0,0.1,0,0.2V151.3z"/>
							</g>
							<g style="opacity:0.1;clip-path:url(#SVGID_44_);">
								<g>
									<defs>
										<rect id="SVGID_45_" x="44.8" y="113.2" width="62.4" height="70.8"/>
									</defs>
									<clipPath id="SVGID_46_">
										<use xlink:href="#SVGID_45_"  style="overflow:visible;"/>
									</clipPath>
									<g style="clip-path:url(#SVGID_46_);">
										<path style="fill:#205081;" d="M86.8,120.7c0-5.1-9.3-9.6-13.3-6.5c-10,7.7-19.4,8-24.6,7.4c-2.2-0.3-4.1,1.4-4.1,3.6
											v27.1c0,17.1,13.6,31.4,30.7,31.7c17.5,0.3,31.7-13.8,31.7-31.2v-28.3v-4.1c0-3.3-3.5-5.4-6.4-3.9
											C97.1,118.4,86.8,121.1,86.8,120.7"/>
									</g>
								</g>
							</g>
							<g style="clip-path:url(#SVGID_44_);">
								<path style="fill:#205081;" d="M80.2,155.5h-8.4c-0.7,0-1.2-0.5-1.2-1.2s0.5-1.2,1.2-1.2h8.4c0.7,0,1.2,0.5,1.2,1.2
									S80.9,155.5,80.2,155.5z"/>
							</g>
							<g style="clip-path:url(#SVGID_44_);">
								<path style="fill:#FFE1A4;" d="M46,142.3c-4,0-7.2,3.2-7.2,7.2s3.2,7.2,7.2,7.2V142.3z"/>
							</g>
							<g style="clip-path:url(#SVGID_44_);">
								<path style="fill:#205081;" d="M46,157.9c-4.6,0-8.4-3.8-8.4-8.4c0-4.6,3.8-8.4,8.4-8.4c0.7,0,1.2,0.5,1.2,1.2v14.4
									C47.2,157.4,46.7,157.9,46,157.9z M44.8,143.6c-2.7,0.6-4.8,3-4.8,5.9c0,2.9,2.1,5.3,4.8,5.9V143.6z"/>
							</g>
							<g style="clip-path:url(#SVGID_44_);">
								<path style="fill:#FFE1A4;" d="M83.2,126.5c0-0.3,0-0.7,0-1.1c0-4.9-5.7-7.7-9.6-4.7C59.1,131.8,46,127,46,127v30.3
									c0,16.5,13,30.2,29.5,30.5c16.8,0.3,30.5-13.3,30.5-30v-27.2v-4c0-3.2-3.4-5.2-6.2-3.7C96.3,124.8,90.9,126.5,83.2,126.5"/>
							</g>
							<g style="clip-path:url(#SVGID_44_);">
								<path style="fill:#205081;" d="M76,189c-0.2,0-0.4,0-0.5,0c-16.9-0.3-30.7-14.5-30.7-31.7V127c0-0.4,0.2-0.8,0.5-1
									c0.3-0.2,0.7-0.3,1.1-0.1c0,0,2.7,1,6.9,1c0,0,0,0,0,0c4.7,0,11.9-1.2,19.5-7.1c1.3-1,2.8-1.5,4.3-1.5c3.9,0,7.1,3.1,7.2,7
									c5.7-0.1,10.7-1.3,14.9-3.4c0.8-0.4,1.6-0.6,2.5-0.6c3,0,5.4,2.4,5.4,5.4v31.2C107.2,175,93.2,189,76,189z M47.2,128.5v28.8
									c0,15.9,12.7,29,28.3,29.3c0.2,0,0.3,0,0.5,0c15.9,0,28.8-12.9,28.8-28.8v-31.2c0-1.8-1.6-3-3-3c-0.5,0-1,0.1-1.4,0.3
									c-4.8,2.5-10.6,3.7-17.2,3.7c-0.7,0-1.2-0.5-1.2-1.2c0-0.3,0-0.7,0-1c0-2.9-2.5-4.8-4.8-4.8c-1,0-2,0.3-2.9,1
									c-8.1,6.2-15.9,7.6-21,7.6c0,0,0,0,0,0C50.7,129.2,48.6,128.9,47.2,128.5z"/>
							</g>
							<g style="clip-path:url(#SVGID_44_);">
								<path style="fill:#205081;" d="M79,165h-6.6c-0.7,0-1.2-0.5-1.2-1.2v-11.4c0-0.7,0.5-1.2,1.2-1.2s1.2,0.5,1.2,1.2v10.2h4.2
									v-2.4c0-0.7,0.5-1.2,1.2-1.2s1.2,0.5,1.2,1.2v3.6C80.2,164.5,79.7,165,79,165z"/>
							</g>
							<g style="clip-path:url(#SVGID_44_);">
								<path style="fill:#FFE1A4;" d="M106,142.3c4,0,7.2,3.2,7.2,7.2s-3.2,7.2-7.2,7.2V142.3z"/>
							</g>
							<g style="clip-path:url(#SVGID_44_);">
								<path style="fill:#205081;" d="M106,157.9c-0.7,0-1.2-0.5-1.2-1.2v-14.4c0-0.7,0.5-1.2,1.2-1.2c4.6,0,8.4,3.8,8.4,8.4
									C114.4,154.1,110.7,157.9,106,157.9z M107.2,143.6v11.8c2.7-0.6,4.8-3,4.8-5.9C112,146.6,110,144.2,107.2,143.6z"/>
							</g>
							<g style="clip-path:url(#SVGID_44_);">
								<path style="fill:#205081;" d="M76,177.7c3.5,0,6.4-2.5,7.1-5.8c0.1-0.7-0.4-1.4-1.2-1.4H70.2c-0.7,0-1.3,0.7-1.2,1.4
									C69.6,175.2,72.5,177.7,76,177.7"/>
							</g>
							<g style="clip-path:url(#SVGID_44_);">
								<path style="fill:#205081;" d="M65.8,149.4c0,1.7-1.3,3-3,3c-1.7,0-3-1.3-3-3c0-1.7,1.3-3,3-3
									C64.5,146.4,65.8,147.8,65.8,149.4"/>
							</g>
							<g style="clip-path:url(#SVGID_44_);">
								<path style="fill:#205081;" d="M92.2,149.4c0,1.7-1.3,3-3,3c-1.7,0-3-1.3-3-3c0-1.7,1.3-3,3-3
									C90.9,146.4,92.2,147.8,92.2,149.4"/>
							</g>
							<g style="clip-path:url(#SVGID_44_);">
								<path style="fill:#205081;" d="M67.6,144c-0.6,0-1.1-0.4-1.2-1c-0.2-1.4-1.8-2.6-3.5-2.6c-1.8,0-3.4,1.2-3.6,2.6
									c-0.1,0.7-0.7,1.1-1.4,1c-0.7-0.1-1.1-0.7-1-1.4c0.4-2.6,3-4.6,6-4.6c2.9,0,5.5,2,5.9,4.6c0.1,0.7-0.3,1.3-1,1.4
									C67.7,144,67.7,144,67.6,144z"/>
							</g>
							<g style="clip-path:url(#SVGID_44_);">
								<path style="fill:#205081;" d="M94,144c-0.6,0-1.1-0.4-1.2-1c-0.2-1.4-1.8-2.6-3.5-2.6c-1.8,0-3.4,1.2-3.6,2.6
									c-0.1,0.7-0.7,1.1-1.4,1c-0.7-0.1-1.1-0.7-1-1.4c0.4-2.6,3-4.6,6-4.6c2.9,0,5.5,2,5.9,4.6c0.1,0.7-0.3,1.3-1,1.4
									C94.1,144,94.1,144,94,144z"/>
							</g>
						</g>
					</g>
				</g>
			</g>
		</g>
		<g>
			<g id="XMLID_88_">
				<g id="XMLID_9_">
					<path style="fill:#3472B0;" d="M167.1,214.5h-51.9v-8.8c0-9.8,7.9-17.7,17.7-17.7h16.5c9.8,0,17.7,7.9,17.7,17.7V214.5z"/>
					<path style="fill:#205081;" d="M167.1,215.7h-51.9c-0.7,0-1.2-0.5-1.2-1.2v-8.8c0-10.4,8.5-18.9,18.9-18.9h16.5
						c10.4,0,18.9,8.5,18.9,18.9v8.8C168.2,215.2,167.7,215.7,167.1,215.7z M116.3,213.4h49.5v-7.7c0-9.1-7.4-16.5-16.5-16.5h-16.5
						c-9.1,0-16.5,7.4-16.5,16.5V213.4z"/>
				</g>
				<g id="XMLID_1208_" style="opacity:0.2;">
					<path style="fill:#205081;" d="M132.9,193.3V191V188c-8.4,0-15.3,5.8-17.2,13.6h7.2l-1.2,4.1l7.1,8.8h2.6L132.9,193.3z"/>
				</g>
				<g id="XMLID_8_" style="opacity:0.2;">
					<path style="fill:#205081;" d="M149.4,193.3V191V188c8.4,0,15.3,5.8,17.2,13.6h-7.2l1.2,4.1l-7.1,8.8h-2.6L149.4,193.3z"/>
				</g>
				<g id="XMLID_7_">
					<path style="fill:#3472B0;" d="M135.8,183.3L135.8,183.3c-7.2,0-13.4,5.1-14.7,12.2l-0.6,3.2h5.9l-1.2,4.1l6.5,11.8v-27.1
						l4.1,0.6V183.3z"/>
					<path style="fill:#205081;" d="M131.7,215.7c-0.4,0-0.8-0.2-1-0.6l-6.5-11.8c-0.2-0.3-0.2-0.6-0.1-0.9l0.7-2.6h-4.3
						c-0.4,0-0.7-0.2-0.9-0.4s-0.3-0.6-0.2-1l0.6-3.2c1.5-7.6,8.1-13.1,15.9-13.1c0.7,0,1.2,0.5,1.2,1.2v4.7c0,0.3-0.1,0.7-0.4,0.9
						c-0.3,0.2-0.6,0.3-0.9,0.3l-2.8-0.4v25.8c0,0.5-0.4,1-0.9,1.1C131.9,215.7,131.8,215.7,131.7,215.7z M126.5,202.6l4,7.3v-22.5
						c0-0.3,0.1-0.7,0.4-0.9c0.3-0.2,0.6-0.3,0.9-0.3l2.8,0.4v-2.1c-6.1,0.5-11.2,5.1-12.4,11.2l-0.3,1.8h4.5c0.4,0,0.7,0.2,0.9,0.5
						c0.2,0.3,0.3,0.7,0.2,1L126.5,202.6z"/>
				</g>
				<g id="XMLID_6_">
					<path style="fill:#3472B0;" d="M146.4,183.3L146.4,183.3c7.2,0,13.4,5.1,14.7,12.2l0.6,3.2h-5.9l1.2,4.1l-6.5,11.8v-27.1
						l-4.1,0.6V183.3z"/>
					<path style="fill:#205081;" d="M150.5,215.7c-0.1,0-0.2,0-0.3,0c-0.5-0.1-0.9-0.6-0.9-1.1v-25.8l-2.8,0.4
						c-0.3,0-0.7-0.1-0.9-0.3c-0.3-0.2-0.4-0.5-0.4-0.9v-4.7c0-0.7,0.5-1.2,1.2-1.2c7.7,0,14.4,5.5,15.9,13.1l0.6,3.2
						c0.1,0.3,0,0.7-0.2,1c-0.2,0.3-0.6,0.4-0.9,0.4h-4.3l0.7,2.6c0.1,0.3,0,0.6-0.1,0.9l-6.5,11.8
						C151.4,215.5,151,215.7,150.5,215.7z M150.5,186.2c0.3,0,0.6,0.1,0.8,0.3c0.3,0.2,0.4,0.5,0.4,0.9V210l4-7.3l-1-3.7
						c-0.1-0.4,0-0.7,0.2-1s0.6-0.5,0.9-0.5h4.5l-0.3-1.8c-1.2-6.1-6.3-10.6-12.4-11.2v2.1l2.8-0.4
						C150.4,186.2,150.5,186.2,150.5,186.2z"/>
				</g>
				<g id="XMLID_5_">
					<rect x="131.7" y="188" style="fill:#F5F5F5;" width="18.9" height="26"/>
					<path style="fill:#205081;" d="M150.5,215.1h-18.9c-0.7,0-1.2-0.5-1.2-1.2v-26c0-0.7,0.5-1.2,1.2-1.2h18.9
						c0.7,0,1.2,0.5,1.2,1.2v26C151.7,214.6,151.2,215.1,150.5,215.1z M132.9,212.8h16.5v-23.6h-16.5V212.8z"/>
				</g>
				<g id="XMLID_4_">
					<path style="fill:#DCA378;" d="M131.7,176.8v20.6c0,0,1.2,9.4,9.4,9.4s9.4-9.4,9.4-9.4v-20.6H131.7z"/>
					<path style="fill:#205081;" d="M141.1,208.1c-7.4,0-10.2-6.8-10.6-10.5c0,0,0-0.1,0-0.1v-20.6c0-0.7,0.5-1.2,1.2-1.2h18.9
						c0.7,0,1.2,0.5,1.2,1.2v20.6c0,0,0,0.1,0,0.1C151.3,201.2,148.5,208.1,141.1,208.1z M132.9,197.4c0.1,0.8,1.4,8.3,8.3,8.3
						c6.8,0,8.1-7.5,8.3-8.3V178h-16.5V197.4z"/>
				</g>
				<g id="XMLID_3_" style="opacity:0.1;">
					<path style="fill:#205081;" d="M131.7,187.5c2.8,1,5.8,1.5,8.9,1.6c3.5,0.1,6.8-0.5,9.9-1.5v-10.7h-18.9V187.5z"/>
				</g>
			</g>
			<g id="XMLID_133_">
				<g>
					<defs>
						<rect id="SVGID_47_" x="93.6" y="94.8" width="85.6" height="92.7"/>
					</defs>
					<clipPath id="SVGID_48_">
						<use xlink:href="#SVGID_47_"  style="overflow:visible;"/>
					</clipPath>
					<g style="clip-path:url(#SVGID_48_);">
						<defs>
							<rect id="SVGID_49_" x="65.9" y="66.9" width="151" height="151"/>
						</defs>
						<clipPath id="SVGID_50_">
							<use xlink:href="#SVGID_49_"  style="overflow:visible;"/>
						</clipPath>
						<g style="clip-path:url(#SVGID_50_);">
							<defs>
								<rect id="SVGID_51_" x="65.9" y="66.9" width="151" height="151"/>
							</defs>
							<clipPath id="SVGID_52_">
								<use xlink:href="#SVGID_51_"  style="overflow:visible;"/>
							</clipPath>
							<g style="clip-path:url(#SVGID_52_);">
								<path style="fill:#FFBD17;" d="M153.6,103.2c-4.1-3.8-11.6-7.2-22.2-7.2c-16.9,0-28,16.8-28,33.1v7.1
									c0,4.2-1.5,8.3-4.2,11.5l-2.6,3h6.8l-8.6,9.4h7.5c21.9,0,23.2-27.4,33.5-32.9v18.5h27c9.8,0,15.2-7.4,15.2-21.2
									C178,107,163.5,103.6,153.6,103.2"/>
							</g>
							<g style="clip-path:url(#SVGID_52_);">
								<path style="fill:#205081;" d="M102.3,161.3h-7.5c-0.5,0-0.9-0.3-1.1-0.7c-0.2-0.4-0.1-0.9,0.2-1.3l6.8-7.5h-4.1
									c-0.5,0-0.9-0.3-1.1-0.7c-0.2-0.4-0.1-0.9,0.2-1.3l2.6-3c2.5-3,3.9-6.8,3.9-10.7v-7.1c0-8.4,2.9-17,7.9-23.4
									c5.5-7,13.1-10.9,21.3-10.9c9.3,0,17.5,2.6,22.7,7.2c16.2,0.8,25.1,8.7,25.1,22.4c0,19.5-10.3,22.4-16.4,22.4h-27
									c-0.7,0-1.2-0.5-1.2-1.2v-16.2c-2.6,2.4-4.8,6.5-7,10.8C122.8,149.6,116.8,161.3,102.3,161.3z M97.5,158.9h4.8
									c13.1,0,18.5-10.5,23.3-19.7c2.9-5.6,5.6-10.8,9.7-13.1c0.4-0.2,0.8-0.2,1.2,0c0.4,0.2,0.6,0.6,0.6,1v17.3h25.8
									c6.4,0,14-3.5,14-20.1c0-15.8-12.6-19.6-23.2-20c-0.3,0-0.5-0.1-0.8-0.3c-2.2-2.1-8.8-6.9-21.4-6.9c-7.5,0-14.4,3.5-19.4,10
									c-4.7,6-7.4,14-7.4,21.9v7.1c0,4.5-1.6,8.8-4.5,12.2l-0.9,1.1h4.2c0.5,0,0.9,0.3,1.1,0.7c0.2,0.4,0.1,0.9-0.2,1.3
									L97.5,158.9z"/>
							</g>
							<g style="clip-path:url(#SVGID_52_);">
								<path style="fill:#FFBD17;" d="M153.6,103.2c-4.1-3.8-11.6-7.2-22.2-7.2c-16.9,0-28,16.8-28,33.1v7.1
									c0,4.2-1.5,8.3-4.2,11.5l-2.6,3h6.8l-8.6,9.4h7.5c21.9,0,23.2-27.4,33.5-32.9v18.5h27c9.8,0,15.2-7.4,15.2-21.2
									C178,107,163.5,103.6,153.6,103.2"/>
							</g>
							<g style="clip-path:url(#SVGID_52_);">
								<path style="fill:#205081;" d="M102.3,161.3h-7.5c-0.5,0-0.9-0.3-1.1-0.7c-0.2-0.4-0.1-0.9,0.2-1.3l6.8-7.5h-4.1
									c-0.5,0-0.9-0.3-1.1-0.7c-0.2-0.4-0.1-0.9,0.2-1.3l2.6-3c2.5-3,3.9-6.8,3.9-10.7v-7.1c0-8.4,2.9-17,7.9-23.4
									c5.5-7,13.1-10.9,21.3-10.9c9.3,0,17.5,2.6,22.7,7.2c16.2,0.8,25.1,8.7,25.1,22.4c0,19.5-10.3,22.4-16.4,22.4h-27
									c-0.7,0-1.2-0.5-1.2-1.2v-16.2c-2.6,2.4-4.8,6.5-7,10.8C122.8,149.6,116.8,161.3,102.3,161.3z M97.5,158.9h4.8
									c13.1,0,18.5-10.5,23.3-19.7c2.9-5.6,5.6-10.8,9.7-13.1c0.4-0.2,0.8-0.2,1.2,0c0.4,0.2,0.6,0.6,0.6,1v17.3h25.8
									c6.4,0,14-3.5,14-20.1c0-15.8-12.6-19.6-23.2-20c-0.3,0-0.5-0.1-0.8-0.3c-2.2-2.1-8.8-6.9-21.4-6.9c-7.5,0-14.4,3.5-19.4,10
									c-4.7,6-7.4,14-7.4,21.9v7.1c0,4.5-1.6,8.8-4.5,12.2l-0.9,1.1h4.2c0.5,0,0.9,0.3,1.1,0.7c0.2,0.4,0.1,0.9-0.2,1.3
									L97.5,158.9z"/>
							</g>
							<g style="opacity:0.4;clip-path:url(#SVGID_52_);">
								<g>
									<defs>
										<rect id="SVGID_53_" x="103.4" y="96" width="74.6" height="37.8"/>
									</defs>
									<clipPath id="SVGID_54_">
										<use xlink:href="#SVGID_53_"  style="overflow:visible;"/>
									</clipPath>
									<g style="clip-path:url(#SVGID_54_);">
										<path style="fill:#FFFFFF;" d="M131.4,100.7c10.6,0,18.1,3.4,22.2,7.2c9.5,0.4,23.2,3.5,24.3,19.2c0-0.9,0.1-1.8,0.1-2.7
											c0-17.5-14.5-20.8-24.4-21.2c-4.1-3.8-11.6-7.2-22.2-7.2c-16.9,0-28,16.8-28,33.1v4.7
											C103.4,117.5,114.5,100.7,131.4,100.7"/>
									</g>
								</g>
							</g>
							<g style="clip-path:url(#SVGID_52_);">
								<path style="fill:#205081;" d="M102.3,161.3h-7.5c-0.5,0-0.9-0.3-1.1-0.7c-0.2-0.4-0.1-0.9,0.2-1.3l6.8-7.5h-4.1
									c-0.5,0-0.9-0.3-1.1-0.7c-0.2-0.4-0.1-0.9,0.2-1.3l2.6-3c2.5-3,3.9-6.8,3.9-10.7v-7.1c0-8.4,2.9-17,7.9-23.4
									c5.5-7,13.1-10.9,21.3-10.9c9.3,0,17.5,2.6,22.7,7.2c16.2,0.8,25.1,8.7,25.1,22.4c0,19.5-10.3,22.4-16.4,22.4h-27
									c-0.7,0-1.2-0.5-1.2-1.2v-16.2c-2.6,2.4-4.8,6.5-7,10.8C122.8,149.6,116.8,161.3,102.3,161.3z M97.5,158.9h4.8
									c13.1,0,18.5-10.5,23.3-19.7c2.9-5.6,5.6-10.8,9.7-13.1c0.4-0.2,0.8-0.2,1.2,0c0.4,0.2,0.6,0.6,0.6,1v17.3h25.8
									c6.4,0,14-3.5,14-20.1c0-15.8-12.6-19.6-23.2-20c-0.3,0-0.5-0.1-0.8-0.3c-2.2-2.1-8.8-6.9-21.4-6.9c-7.5,0-14.4,3.5-19.4,10
									c-4.7,6-7.4,14-7.4,21.9v7.1c0,4.5-1.6,8.8-4.5,12.2l-0.9,1.1h4.2c0.5,0,0.9,0.3,1.1,0.7c0.2,0.4,0.1,0.9-0.2,1.3
									L97.5,158.9z"/>
							</g>
							<g style="clip-path:url(#SVGID_52_);">
								<path style="fill:#DCA378;" d="M162.1,119.7h-0.5c-2.7,0-5.2,1.3-6.9,3.4c-2.2,2.6-7.6,3.1-15,3.1c-12,0-13,24.2-27.7,31.7
									c0.8,15.5,13.3,28.2,28.9,28.5c16.5,0.3,30-13,30-29.5v-28.3C170.9,123.6,167,119.7,162.1,119.7"/>
							</g>
							<g style="clip-path:url(#SVGID_52_);">
								<path style="fill:#205081;" d="M141.4,187.5C141.4,187.5,141.4,187.5,141.4,187.5c-0.2,0-0.4,0-0.5,0
									c-16.1-0.3-29.3-13.3-30.1-29.6c0-0.5,0.2-0.9,0.6-1.1c6.8-3.5,10.7-11,14.1-17.7c3.7-7.3,7.3-14.2,14.1-14.2
									c6.1,0,12-0.3,14.1-2.7c2.1-2.4,4.9-3.8,7.8-3.8h0.5c5.5,0,10,4.5,10,10v28.3c0,8.2-3.2,15.9-9,21.7
									C157.3,184.3,149.6,187.5,141.4,187.5z M113.2,158.6c1.1,14.7,13.2,26.4,27.7,26.6c0.2,0,0.3,0,0.5,0c0,0,0,0,0,0
									c7.6,0,14.7-2.9,20-8.3c5.3-5.3,8.3-12.5,8.3-20v-28.3c0-4.2-3.4-7.7-7.7-7.7h-0.5c-2.2,0-4.4,1.1-6,3
									c-2.5,2.9-7.9,3.5-15.9,3.5c-5.4,0-8.5,6-12,12.9C124.2,147,120.3,154.6,113.2,158.6z"/>
							</g>
							<g style="clip-path:url(#SVGID_52_);">
								<path style="fill:#DCA378;" d="M170.9,137.4c3.9,0,7.1,3.2,7.1,7.1s-3.2,7.1-7.1,7.1V137.4z"/>
							</g>
							<g style="clip-path:url(#SVGID_52_);">
								<path style="fill:#205081;" d="M170.9,152.7c-0.7,0-1.2-0.5-1.2-1.2v-14.2c0-0.7,0.5-1.2,1.2-1.2c4.6,0,8.3,3.7,8.3,8.3
									C179.2,149,175.5,152.7,170.9,152.7z M172.1,138.7v11.6c2.7-0.5,4.7-2.9,4.7-5.8S174.8,139.2,172.1,138.7z"/>
							</g>
							<g style="clip-path:url(#SVGID_52_);">
								<path style="fill:#205081;" d="M131.4,142.7c0,1.6-1.3,2.9-2.9,2.9s-2.9-1.3-2.9-2.9c0-1.6,1.3-2.9,2.9-2.9
									S131.4,141.1,131.4,142.7"/>
							</g>
							<g style="clip-path:url(#SVGID_52_);">
								<path style="fill:#205081;" d="M157.3,142.7c0,1.6-1.3,2.9-2.9,2.9c-1.6,0-2.9-1.3-2.9-2.9c0-1.6,1.3-2.9,2.9-2.9
									C156,139.7,157.3,141.1,157.3,142.7"/>
							</g>
							<g style="clip-path:url(#SVGID_52_);">
								<path style="fill:#205081;" d="M133.1,137.4c-0.6,0-1.1-0.4-1.2-1c-0.1-0.8-0.7-1.2-2.2-1.8c-0.6-0.2-0.9-0.9-0.7-1.5
									c0.2-0.6,0.9-0.9,1.5-0.7c1.1,0.4,3.4,1.2,3.8,3.6c0.1,0.6-0.3,1.3-1,1.4C133.3,137.4,133.2,137.4,133.1,137.4z"/>
							</g>
							<g style="clip-path:url(#SVGID_52_);">
								<path style="fill:#205081;" d="M159.1,137.4c-0.6,0-1.1-0.4-1.2-1c-0.2-1.4-1.8-2.6-3.5-2.6c-1.7,0-3.3,1.1-3.6,2.5
									c-0.1,0.6-0.7,1.1-1.4,1c-0.6-0.1-1.1-0.7-1-1.4c0.4-2.5,3-4.5,5.9-4.5c2.8,0,5.4,2,5.8,4.5c0.1,0.6-0.3,1.3-1,1.4
									C159.2,137.4,159.1,137.4,159.1,137.4z"/>
							</g>
							<g style="clip-path:url(#SVGID_52_);">
								<path style="fill:#205081;" d="M141.4,158.6c-3.3,0-5.9-2.6-5.9-5.9c0-0.7,0.5-1.2,1.2-1.2c0.7,0,1.2,0.5,1.2,1.2
									c0,2,1.6,3.5,3.5,3.5c2,0,3.5-1.6,3.5-3.5c0-0.7,0.5-1.2,1.2-1.2c0.7,0,1.2,0.5,1.2,1.2C147.3,156,144.7,158.6,141.4,158.6z
									"/>
							</g>
							<g style="clip-path:url(#SVGID_52_);">
								<path style="fill:#205081;" d="M141.4,173.7c3.4,0,6.3-2.5,6.9-5.7c0.1-0.7-0.4-1.4-1.2-1.4h-11.6c-0.7,0-1.3,0.7-1.2,1.4
									C135.1,171.2,138,173.7,141.4,173.7"/>
							</g>
							<g style="opacity:0.2;clip-path:url(#SVGID_52_);">
								<g>
									<defs>
										<rect id="SVGID_55_" x="112" y="119.7" width="57.9" height="45"/>
									</defs>
									<clipPath id="SVGID_56_">
										<use xlink:href="#SVGID_55_"  style="overflow:visible;"/>
									</clipPath>
									<g style="clip-path:url(#SVGID_56_);">
										<path style="fill:#205081;" d="M113.1,164.7c15.8-8.1,16.8-33.9,29.6-33.9c7.8,0,13.6-0.5,16-3.3c1.9-2.2,4.5-3.6,7.4-3.6
											h0.6c1.1,0,2.1,0.2,3.1,0.5c-1.5-2.8-4.4-4.7-7.8-4.7h-0.5c-2.7,0-5.2,1.3-6.9,3.4c-2.2,2.6-7.6,3.1-15,3.1
											c-12,0-13,24.2-27.7,31.7C112.1,160.2,112.5,162.5,113.1,164.7C113.1,164.7,113.1,164.7,113.1,164.7"/>
									</g>
								</g>
							</g>
						</g>
					</g>
				</g>
			</g>
		</g>
	</g>
</g>
</svg>
