<?xml version="1.0" standalone="no"?>
<!DOCTYPE svg PUBLIC "-//W3C//DTD SVG 1.1//EN" "http://www.w3.org/Graphics/SVG/1.1/DTD/svg11.dtd" >
<svg xmlns="http://www.w3.org/2000/svg" xmlns:xlink="http://www.w3.org/1999/xlink" version="1.1" viewBox="0 0 960 960" width="960" height="960">
  <g transform="matrix(1 0 0 -1 0 960)">
   <path fill="#d378e1"
d="M942 445c11 -5 18 -16 18 -28c0 -13 -7 -24 -17 -29l-770 -385c-5 -2 -9 -3 -14 -3c-10 0 -19 4 -25 12c-9 11 -10 28 0 40l244 296l-360 167c-11 5 -18 16 -18 28s7 24 17 29l770 384c13 7 29 4 38 -8c10 -11 10 -28 1 -40l-244 -296z" />
  </g>

</svg>
