<?xml version="1.0" standalone="no"?>
<!DOCTYPE svg PUBLIC "-//W3C//DTD SVG 1.1//EN" "http://www.w3.org/Graphics/SVG/1.1/DTD/svg11.dtd" >
<svg xmlns="http://www.w3.org/2000/svg" xmlns:xlink="http://www.w3.org/1999/xlink" version="1.1" viewBox="0 0 960 960" width="960" height="960">
  <g transform="matrix(1 0 0 -1 0 960)">
   <path fill="#ce4a4c"
d="M32 224c67 -24 138 -36 208 -36s141 12 208 36v-128c0 -26 -15 -51 -39 -61c-53 -23 -110 -35 -169 -35s-116 12 -169 35c-24 10 -39 35 -39 61v128zM448 356c-67 -23 -138 -35 -208 -35s-141 12 -208 35v540c0 31 32 64 64 64h32v-224c9 -12 52 -37 112 -37
s103 25 112 37v224h32c32 0 64 -32 64 -64v-540zM512 224c67 -24 138 -36 208 -36s141 12 208 36v-128c0 -26 -15 -51 -39 -61c-53 -23 -110 -35 -169 -35s-116 12 -169 35c-24 10 -39 35 -39 61v128zM928 896v-540c-67 -23 -138 -35 -208 -35s-141 12 -208 35v540
c0 31 32 64 64 64h32v-224c9 -12 52 -37 112 -37s103 25 112 37v224h32c32 0 64 -32 64 -64z" />
  </g>

</svg>
