<?xml version="1.0" standalone="no"?>
<!DOCTYPE svg PUBLIC "-//W3C//DTD SVG 1.1//EN" "http://www.w3.org/Graphics/SVG/1.1/DTD/svg11.dtd" >
<svg xmlns="http://www.w3.org/2000/svg" xmlns:xlink="http://www.w3.org/1999/xlink" version="1.1" viewBox="0 0 960 960" width="960" height="960">
  <g transform="matrix(1 0 0 -1 0 960)">
   <path fill="#eeeeee"
d="M829 926c21 -6 35 -25 35 -46v-560c0 -89 -230 -318 -320 -318l-18 -1c-13 -1 -21 -1 -46 -1c-226 0 -372 32 -378 33c-22 5 -38 24 -38 47v800c0 22 16 42 38 47c6 1 152 33 378 33c228 0 344 -32 349 -34zM543 416c4 0 7 1 10 2c15 8 30 16 45 26c8 6 11 17 8 26
l-15 39c-2 5 -3 10 -3 16c0 12 4 23 12 31c7 8 17 14 28 15l40 7c10 2 18 10 18 20c2 17 2 35 0 52c0 10 -8 18 -18 20c-14 2 -27 4 -40 6c-23 3 -40 23 -40 47c0 5 1 11 3 16l15 38c3 10 0 21 -8 27c-15 9 -30 18 -45 26c-9 4 -21 1 -27 -7c-9 -10 -17 -21 -26 -32
c-9 -10 -22 -17 -36 -17c-7 0 -14 2 -20 5s-12 7 -16 12l-26 32c-7 8 -18 11 -27 7c-16 -8 -31 -17 -45 -26c-8 -6 -11 -17 -8 -27c5 -12 10 -25 15 -38c2 -5 3 -11 3 -16c0 -12 -5 -23 -12 -31c-7 -9 -17 -14 -29 -16l-39 -6c-10 -2 -18 -10 -19 -20c-1 -17 -1 -35 0 -52
c1 -10 9 -18 19 -20l39 -6c23 -3 41 -23 41 -47c0 -3 0 -5 -1 -8c0 -3 -1 -6 -2 -8l-15 -39c-3 -9 0 -20 8 -26c15 -10 30 -18 45 -26c3 -1 6 -2 10 -2c6 0 13 3 17 8l26 33c8 10 21 17 36 17c7 0 14 -2 20 -5s12 -7 16 -12c9 -11 17 -22 26 -33c4 -5 11 -8 17 -8zM464 699
c41 0 74 -33 74 -74s-33 -75 -74 -75s-74 34 -74 75s33 74 74 74zM512 96c32 0 64 29 64 64v96c0 14 18 32 32 32h96c35 0 64 29 64 64h-160c-49 0 -96 -47 -96 -96v-160z" />
  </g>

</svg>
