<?xml version="1.0" standalone="no"?>
<!DOCTYPE svg PUBLIC "-//W3C//DTD SVG 1.1//EN" "http://www.w3.org/Graphics/SVG/1.1/DTD/svg11.dtd" >
<svg xmlns="http://www.w3.org/2000/svg" xmlns:xlink="http://www.w3.org/1999/xlink" version="1.1" viewBox="0 0 960 960" width="960" height="960">
  <g transform="matrix(1 0 0 -1 0 960)">
   <path fill="#eeeeee"
d="M845 918c12 -103 19 -199 19 -294s-7 -190 -19 -293c-3 -24 -24 -43 -48 -43h-635c-24 0 -45 19 -48 43c-12 102 -18 198 -18 293c0 96 6 191 18 294c3 24 24 42 48 42h635c24 0 45 -18 48 -42zM654 592c4 6 4 13 0 19c-3 5 -10 8 -17 6l-93 -19v202h-128v-202l-92 19
c-2 0 -3 1 -4 1c-5 0 -10 -3 -13 -7c-4 -6 -4 -13 0 -19c57 -81 153 -155 165 -162c5 -3 12 -3 17 0c12 7 108 81 165 162zM864 224c32 0 64 -32 64 -64v-128c0 -18 -14 -32 -32 -32h-128c-18 0 -32 14 -32 32v64h-160v-64c0 -18 -14 -32 -32 -32h-128c-18 0 -32 14 -32 32
v64h-160v-64c0 -18 -14 -32 -32 -32h-128c-18 0 -32 14 -32 32v128c0 32 30 64 64 64h768z" />
  </g>

</svg>
