<?xml version="1.0" standalone="no"?>
<!DOCTYPE svg PUBLIC "-//W3C//DTD SVG 1.1//EN" "http://www.w3.org/Graphics/SVG/1.1/DTD/svg11.dtd" >
<svg xmlns="http://www.w3.org/2000/svg" xmlns:xlink="http://www.w3.org/1999/xlink" version="1.1" viewBox="0 0 924 924" width="924" height="924">
  <g transform="matrix(1 0 0 -1 0 924)">
   <path fill="#5da4d4" d="M 901.539,500.352 500.352,901.531 c -23.09,23.11 -60.563,23.11 -83.692,0 l -83.301,-83.32 105.672,-105.68 c 24.559,8.297 52.731,2.731 72.297,-16.84 19.692,-19.703 25.203,-48.101 16.703,-72.75 L 629.879,521.09 c 24.652,8.5 53.07,3.012 72.762,-16.711 27.5,-27.488 27.5,-72.059 0,-99.57 -27.52,-27.52 -72.082,-27.52 -99.61,0 -20.691,20.703 -25.801,51.101 -15.32,76.582 l -95,94.988 V 326.422 c 6.699,-3.32 13.027,-7.75 18.617,-13.32 27.5,-27.5 27.5,-72.063 0,-99.602 -27.5,-27.488 -72.09,-27.488 -99.566,0 -27.5,27.539 -27.5,72.102 0,99.602 6.789,6.789 14.668,11.929 23.058,15.367 V 580.75 c -8.39,3.43 -16.25,8.531 -23.058,15.359 -20.832,20.821 -25.84,51.403 -15.16,76.981 L 292.422,777.289 17.3203,502.211 c -23.10155,-23.133 -23.10155,-60.602 0,-83.711 L 418.531,17.3203 c 23.098,-23.10155 60.559,-23.10155 83.699,0 L 901.539,416.641 c 23.121,23.109 23.121,60.609 0,83.711" />
  </g>

</svg>
