<?xml version="1.0" standalone="no"?>
<!DOCTYPE svg PUBLIC "-//W3C//DTD SVG 1.1//EN" "http://www.w3.org/Graphics/SVG/1.1/DTD/svg11.dtd" >
<svg xmlns="http://www.w3.org/2000/svg" xmlns:xlink="http://www.w3.org/1999/xlink" version="1.1" viewBox="0 0 960 960" width="960" height="960">
  <g transform="matrix(1 0 0 -1 0 960)">
   <path fill="#f3dc55"
d="M800 784c-12 0 -25 5 -34 14c-19 19 -19 49 0 68l64 64c19 19 49 19 68 0s19 -49 0 -68l-64 -64c-9 -9 -22 -14 -34 -14zM160 784c-12 0 -25 5 -34 14l-64 64c-19 19 -19 49 0 68s49 19 68 0l64 -64c19 -19 19 -49 0 -68c-9 -9 -22 -14 -34 -14zM612 256h-265
c-1 12 -1 19 -1 19c-9 50 -32 87 -81 149s-73 112 -73 184c0 156 126 288 288 288s288 -132 288 -288c0 -72 -24 -122 -73 -184c-50 -62 -73 -99 -81 -149c0 0 -1 -7 -2 -19zM864 272c-12 0 -25 5 -34 14l-64 64c-19 19 -19 49 0 68s49 19 68 0l64 -64c19 -19 19 -49 0 -68
c-9 -9 -22 -14 -34 -14zM96 272c-12 0 -25 5 -34 14c-19 19 -19 49 0 68l64 64c19 19 49 19 68 0s19 -49 0 -68l-64 -64c-9 -9 -22 -14 -34 -14zM480 0c-65 0 -90 33 -108 95c-8 24 -14 62 -18 97h251c-4 -35 -10 -73 -17 -97c-19 -62 -43 -95 -108 -95z" />
  </g>

</svg>
