<?xml version="1.0" standalone="no"?>
<!DOCTYPE svg PUBLIC "-//W3C//DTD SVG 1.1//EN" "http://www.w3.org/Graphics/SVG/1.1/DTD/svg11.dtd" >
<svg xmlns="http://www.w3.org/2000/svg" xmlns:xlink="http://www.w3.org/1999/xlink" version="1.1" viewBox="0 0 960 960" width="960" height="960">
  <g transform="matrix(1 0 0 -1 0 960)">
   <path fill="#eeeeee"
d="M818 842c8 -9 14 -20 14 -31v-732c0 -21 -16 -39 -37 -44c-5 -1 -139 -33 -302 -33s-293 32 -299 33c-20 5 -34 23 -34 44v732c0 11 4 22 12 31l63 72c15 16 39 19 58 7l88 -62l88 61c15 10 35 10 50 0l89 -61l88 62c18 12 43 9 58 -7zM320 608h352v64h-352v-64zM320 480
h352v64h-352v-64zM320 352h352v64h-352v-64zM320 224h352v64h-352v-64z" />
  </g>

</svg>
