<?xml version="1.0" standalone="no"?>
<!DOCTYPE svg PUBLIC "-//W3C//DTD SVG 1.1//EN" "http://www.w3.org/Graphics/SVG/1.1/DTD/svg11.dtd" >
<svg xmlns="http://www.w3.org/2000/svg" xmlns:xlink="http://www.w3.org/1999/xlink" version="1.1" viewBox="0 0 2048 2048" width="2048" height="2048">
  <g transform="matrix(1 0 0 -1 0 2048)">
   <path fill="#eeeeee"
d="M1899 1413c94 -119 149 -263 149 -429c0 -600 -384 -813 -1024 -813s-1024 213 -1024 810c0 166 55 313 149 429c-21 114 -42 311 22 467c201 -16 358 -111 445 -180c124 33 261 52 408 52s284 -19 405 -52c90 69 247 164 448 180c64 -154 43 -353 22 -464zM1024 299
c555 0 754 170 754 426c0 299 -242 363 -370 363s-128 -21 -384 -21s-256 21 -384 21s-370 -64 -370 -363c0 -256 199 -426 754 -426zM1451 704c0 149 -48 192 -107 192s-107 -43 -107 -192s48 -192 107 -192s107 43 107 192zM811 704c0 149 -48 192 -107 192
s-107 -43 -107 -192s48 -192 107 -192s107 43 107 192z" />
  </g>

</svg>
