<?xml version="1.0" standalone="no"?>
<!DOCTYPE svg PUBLIC "-//W3C//DTD SVG 1.1//EN" "http://www.w3.org/Graphics/SVG/1.1/DTD/svg11.dtd" >
<svg xmlns="http://www.w3.org/2000/svg" xmlns:xlink="http://www.w3.org/1999/xlink" version="1.1" viewBox="0 0 960 960" width="960" height="960">
  <g transform="matrix(1 0 0 -1 0 960)">
   <path fill="#eeeeee"
d="M425 960l-64 -224h-330c40 49 84 111 136 185c11 16 28 25 46 27c70 7 141 11 212 12zM929 736h-330l-64 224c71 -1 142 -5 212 -12c18 -2 35 -11 46 -27c52 -74 96 -136 136 -185zM959 672c0 -3 1 -7 1 -10v-565c0 -32 -23 -59 -54 -64c-141 -22 -284 -33 -426 -33
s-286 11 -426 33c-31 5 -54 32 -54 64v565c0 3 0 7 1 10h351v-224h256v224h351z" />
  </g>

</svg>
