<?xml version="1.0" standalone="no"?>
<!DOCTYPE svg PUBLIC "-//W3C//DTD SVG 1.1//EN" "http://www.w3.org/Graphics/SVG/1.1/DTD/svg11.dtd" >
<svg xmlns="http://www.w3.org/2000/svg" xmlns:xlink="http://www.w3.org/1999/xlink" version="1.1" viewBox="0 0 960 960" width="960" height="960">
  <g transform="matrix(1 0 0 -1 0 960)">
   <path fill="#eeeeee"
d="M656 649c147 -150 239 -361 240 -585h-157c0 192 -75 354 -196 477c-177 180 -385 203 -479 203v152c126 0 376 -27 592 -247zM449 446c96 -98 159 -222 159 -382h-154c0 96 -41 203 -110 274c-107 109 -217 119 -280 118v152c96 0 248 -22 385 -162zM64 320
c145 -1 256 -96 256 -256h-136c-67 0 -120 53 -120 120v136z" />
  </g>

</svg>
