<?xml version="1.0" standalone="no"?>
<!DOCTYPE svg PUBLIC "-//W3C//DTD SVG 1.1//EN" "http://www.w3.org/Graphics/SVG/1.1/DTD/svg11.dtd" >
<svg xmlns="http://www.w3.org/2000/svg" xmlns:xlink="http://www.w3.org/1999/xlink" version="1.1" viewBox="0 0 960 960" width="960" height="960">
  <g transform="matrix(1 0 0 -1 0 960)">
   <path fill="#d2da67"
d="M496 57c48 0 87 39 87 87s-39 87 -87 87s-87 -39 -87 -87s39 -87 87 -87zM960 464c0 -133 -122 -240 -272 -240c-10 0 -20 1 -29 1c4 -36 15 -105 43 -225h-412c26 89 37 169 42 225c-4 -1 -8 -1 -12 -1c-177 0 -320 122 -320 272c0 118 88 218 211 256
c43 121 154 208 285 208c154 0 280 -120 301 -276c96 -37 163 -122 163 -220z" />
  </g>

</svg>
