<svg width="16" height="16" viewBox="0 0 16 16" xmlns="http://www.w3.org/2000/svg"><defs><style>@font-face{font-family:ifont;src:url(http://at.alicdn.com/t/font_1442373896_4754455.eot?#iefix) format(&amp;quot;embedded-opentype&amp;quot;),url(http://at.alicdn.com/t/font_1442373896_4754455.woff) format(&amp;quot;woff&amp;quot;),url(http://at.alicdn.com/t/font_1442373896_4754455.ttf) format(&amp;quot;truetype&amp;quot;),url(http://at.alicdn.com/t/font_1442373896_4754455.svg#ifont) format(&amp;quot;svg&amp;quot;)}</style></defs><path d="M11.073 3.76a.46.46 0 0 1 .053.002c.7.051 1.188.305 1.492.775.285.442.415 1.094.365 1.835-.111 1.666-1.145 2.962-1.752 3.587a12.528 12.528 0 0 1-1.958 1.64c-.656.438-1.063.6-1.198.636-.091-.023-.423-.135-1.101-.62a16.183 16.183 0 0 1-1.882-1.618c-.479-.476-.977-.998-1.374-1.594-.454-.681-.686-1.32-.71-1.953-.025-.693.14-1.31.478-1.782a2.14 2.14 0 0 1 .58-.555 2.38 2.38 0 0 1 .806-.325.874.874 0 0 1 .18-.018c.401 0 .934.249 1.498.7.493.395.834.803.851.824a.992.992 0 0 0 1.571-.035c.015-.02.326-.427.778-.82.504-.438.974-.68 1.323-.68m0-.996c-1.486 0-2.9 1.9-2.9 1.9s-1.542-1.89-3.122-1.89a1.79 1.79 0 0 0-.384.04c-1.704.357-2.724 1.819-2.655 3.674.07 1.857 1.473 3.32 2.378 4.218 1.4 1.388 2.964 2.532 3.69 2.532h.02c.65-.02 2.416-1.109 3.847-2.584.928-.955 1.912-2.434 2.031-4.214.12-1.78-.587-3.51-2.779-3.672a1.711 1.711 0 0 0-.126-.004z" fill="#3AAB4E" class="transform-group"/></svg>