<svg width="14" height="10" viewBox="0 0 14 10" xmlns="http://www.w3.org/2000/svg"><title>箭头</title><path d="M13.774 4.406H2.312L5.24 1.588a.192.192 0 0 0 0-.271L4.651.729a.192.192 0 0 0-.27 0L.695 4.276a.191.191 0 0 0-.013.011l-.02.02-.568.547A.191.191 0 0 0 .04 5a.191.191 0 0 0 .055.146l.57.549.018.018a.198.198 0 0 0 .012.01L4.38 9.272a.192.192 0 0 0 .271 0l.588-.588a.192.192 0 0 0 0-.27L2.34 5.62h11.435a.192.192 0 0 0 .192-.192v-.831a.192.192 0 0 0-.192-.192z" fill="#999" fill-rule="evenodd"/></svg>